DBRep_DrawableShape

CASCADE Topology V1, (c) Matra-Datavision
Locations 2
1
              1               0               0               0 
              0               1               0               0 
              0               0               1               1 
2  1 -1 0
Curve2ds 16
1 0 0 1 0 
1 0 0 1 0 
1 0 0 1 0 
1 0 0 1 0 
1 0 1 1 0 
1 0 1 1 0 
1 0 1 1 0 
1 0 1 1 0 
1 3.1415926535897931 0 0 1 
1 3.1415926535897931 0 0 1 
1 6.2831853071795862 -0 0 1 
1 0 -0 0 1 
1 3.1415926535897931 0 0 1 
1 3.1415926535897931 0 0 1 
1 6.2831853071795862 -0 0 1 
1 0 -0 0 1 
Curves 24
1 -1 -1 0 0 0 1 
1 1 -1 0 0 0 1 
1 -1 -1 0 1 0 0 
1 -1 -1 0 1 0 0 
1 -1 1 0 0 0 1 
1 -1 1 0 0 -1 0 
1 -1 1 0 0 -1 0 
1 1 1 0 0 0 1 
1 1 -1 0 0 1 0 
1 1 -1 0 0 1 0 
1 1 1 0 -1 0 0 
2 0.5 0.20000000000000001 0 0 0 1 1 0 0 0 1 0 0.20000000000000001
2 0.5 0.20000000000000001 0 0 0 1 1 0 0 0 1 0 0.20000000000000001
2 0 0 0 0 0 1 1 0 0 0 1 0 0.29999999999999999
2 0 0 0 0 0 1 1 0 0 0 1 0 0.29999999999999999
1 1 1 0 -1 0 0 
2 0.5 0.20000000000000001 1 0 0 1 1 0 0 0 1 0 0.20000000000000001
2 0.5 0.20000000000000001 1 0 0 1 1 0 0 0 1 0 0.20000000000000001
2 0 0 1 0 0 1 1 0 0 0 1 0 0.29999999999999999
2 0 0 1 0 0 1 1 0 0 0 1 0 0.29999999999999999
7 0 0  1 2 2  0.29999999999999999 0.20000000000000004 0  0.29999999999999999 0.20000000000000004 1 
 0 2 1 2
1 0.69999999999999996 0.19999999999999996 0 0 0 1 
7 0 0  1 2 2  -0.29999999999999999 3.6739403974420595e-17 0  -0.29999999999999999 3.6739403974420595e-17 1 
 0 2 1 2
1 0.29999999999999999 -7.347880794884119e-17 0 0 0 1 
Polygon3D 0
PolygonOnTriangulations 0
Surfaces 10
1 -1 -1 0 0 1 0 1 0 0 0 0 -1 
1 -1 1 0 1 0 -0 0 -1 0 0 -0 -1 
1 1 -1 0 -1 0 0 0 1 0 0 0 -1 
1 -1 -1 0 0 0 -1 0.70710678118654757 0.70710678118654757 0 0.70710678118654757 -0.70710678118654757 0 
10 3.1415926535897931 6.2831853071795862 0 1
2 0.5 0.20000000000000001 0 0 0 1 1 0 0 0 1 0 0.20000000000000001
10 0 3.1415926535897931 0 1
2 0.5 0.20000000000000001 0 0 0 1 1 0 0 0 1 0 0.20000000000000001
10 3.1415926535897931 6.2831853071795862 0 1
2 0 0 0 0 0 1 1 0 0 0 1 0 0.29999999999999999
10 0 3.1415926535897931 0 1
2 0 0 0 0 0 1 1 0 0 0 1 0 0.29999999999999999
1 -1 -1 0 0 0 -1 0.70710678118654757 0.70710678118654757 0 0.70710678118654757 -0.70710678118654757 0 
1 1 1 0 0 -1 0 -1 0 0 -0 -0 -1 
Triangulations 0

TShapes 67
Ve
1e-07
-1 -1 0
0 0

0101101
*
Ve
1e-07
-1 -1 1
0 0

0101101
*
Ed
 1e-07 1 1 0
1  1 0 0 1
0

0101000
+67 0 -66 0 *
Ve
1e-07
1 -1 0
0 0

0101101
*
Ve
1e-07
1 -1 1
0 0

0101101
*
Ed
 1e-07 1 1 0
1  2 0 0 1
0

0101000
+64 0 -63 0 *
Ed
 1e-07 1 1 0
1  3 0 0 2
0

0101000
+67 0 -64 0 *
Ed
 1e-07 1 1 0
1  4 0 0 2
0

0101000
+66 2 -63 2 *
Wi

0101000
+65 0 -62 0 -61 0 +60 1 *
Fa
0  1e-07 1 0

0111000
+59 0 *
Ve
1e-07
-1 1 0
0 0

0101101
*
Ve
1e-07
-1 1 1
0 0

0101101
*
Ed
 1e-07 1 1 0
1  5 0 0 1
0

0101000
+57 0 -56 0 *
Ed
 1e-07 1 1 0
1  6 0 0 2
0

0101000
+57 0 -67 0 *
Ed
 1e-07 1 1 0
1  7 0 0 2
0

0101000
+56 2 -66 2 *
Wi

0101000
+55 0 -65 0 -54 0 +53 1 *
Fa
0  1e-07 2 0

0111000
+52 0 *
Ve
1e-07
1 1 0
0 0

0101101
*
Ve
1e-07
1 1 1
0 0

0101101
*
Ed
 1e-07 1 1 0
1  8 0 0 1
0

0101000
+50 0 -49 0 *
Ed
 1e-07 1 1 0
1  9 0 0 2
0

0101000
+64 0 -50 0 *
Ed
 1e-07 1 1 0
1  10 0 0 2
0

0101000
+63 2 -49 2 *
Wi

0101000
+62 0 -48 0 -47 0 +46 1 *
Fa
0  1e-07 3 0

0111000
+45 0 *
Ed
 1e-07 1 1 0
1  11 0 0 2
0

0101000
+50 0 -57 0 *
Wi

0101000
-61 0 -54 0 -47 0 -43 0 *
Ve
1e-05
0.3 0.2 0
0 0

0101101
*
Ve
1e-07
0.7 0.2 0
0 0

0101101
*
Ed
 1e-07 1 1 0
1  12 0 3.14159265358979 6.28318530717959
2  1 5 0 3.14159265358979 6.28318530717959
0

0101000
+41 0 -40 0 *
Ed
 1e-07 1 1 0
1  13 0 0 3.14159265358979
2  2 6 0 0 3.14159265358979
0

0101000
+40 0 -41 0 *
Wi

0101000
+39 0 +38 0 *
Ve
1e-05
-0.3 3.67394039744206e-17 0
0 0

0101101
*
Ve
1e-07
0.3 -7.34788079488412e-17 0
0 0

0101101
*
Ed
 1e-07 1 1 0
1  14 0 3.14159265358979 6.28318530717959
2  3 7 0 3.14159265358979 6.28318530717959
0

0101000
+36 0 -35 0 *
Ed
 1e-07 1 1 0
1  15 0 0 3.14159265358979
2  4 8 0 0 3.14159265358979
0

0101000
+35 0 -36 0 *
Wi

0101000
+34 0 +33 0 *
Fa
0  1e-07 4 0

0111000
+42 0 +37 0 +32 0 *
Ed
 1e-07 1 1 0
1  16 0 0 2
0

0101000
+49 2 -56 2 *
Wi

0101000
-60 1 -53 1 -46 1 -30 1 *
Ve
1e-05
0.3 0.2 1
0 0

0101101
*
Ve
1e-07
0.7 0.2 1
0 0

0101101
*
Ed
 1e-07 1 1 0
1  17 0 0 3.14159265358979
2  5 6 0 0 3.14159265358979
0

0101000
-28 0 +27 0 *
Ed
 1e-07 1 1 0
1  18 0 3.14159265358979 6.28318530717959
2  6 5 0 3.14159265358979 6.28318530717959
0

0101000
-27 0 +28 0 *
Wi

0101000
+26 0 +25 0 *
Ve
1e-05
-0.3 3.67394039744206e-17 1
0 0

0101101
*
Ve
1e-07
0.3 -7.34788079488412e-17 1
0 0

0101101
*
Ed
 1e-07 1 1 0
1  19 0 0 3.14159265358979
2  7 8 0 0 3.14159265358979
0

0101000
-23 0 +22 0 *
Ed
 1e-07 1 1 0
1  20 0 3.14159265358979 6.28318530717959
2  8 7 0 3.14159265358979 6.28318530717959
0

0101000
-22 0 +23 0 *
Wi

0101000
+21 0 +20 0 *
Fa
0  1e-07 9 1

0111000
+29 0 +24 0 +19 0 *
Wi

0101000
+48 0 -55 0 -43 0 +30 1 *
Fa
0  1e-07 10 0

0111000
+17 0 *
Ed
 1e-05 1 1 0
1  21 0 0 1
2  9 5 0 0 1
2  10 6 0 0 1
0

0101000
+41 0 -28 0 *
Ed
 1e-07 1 1 0
1  22 0 0 1
2  11 5 0 0 1
2  12 6 0 0 1
0

0101000
-27 0 +40 0 *
Wi

0101000
+39 0 -15 0 +14 0 -25 0 *
Fa
0  1e-07 5 0

0111000
+13 0 *
Wi

0101000
-26 0 +15 0 -14 0 +38 0 *
Fa
0  1e-07 6 0

0111000
+11 0 *
Ed
 1e-05 1 1 0
1  23 0 0 1
2  13 7 0 0 1
2  14 8 0 0 1
0

0101000
+36 0 -23 0 *
Ed
 1e-07 1 1 0
1  24 0 0 1
2  15 7 0 0 1
2  16 8 0 0 1
0

0101000
-22 0 +35 0 *
Wi

0101000
+34 0 -9 0 +8 0 -20 0 *
Fa
0  1e-07 7 0

0111000
+7 0 *
Wi

0101000
-21 0 +9 0 -8 0 +33 0 *
Fa
0  1e-07 8 0

0111000
+5 0 *
Sh

0101100
-58 0 -51 0 -44 0 +31 0 -18 0 -16 0 -12 0 -10 0 -6 0 -4 0 
*
So

0100000
+3 0 *
Co

1100000
+2 0 *

+1 0 
##EGADS HEADER FILE-REV 1 ##
0
  1  1  10  14  24  16  3
1 5 1
_body
11
1 5 1
_brch
11
2 8 3
_tParams
 7.500000833333e-02  3.000000333333e-03  1.500000000000e+01 
    2 0 4
1 5 2
_body
7 3 
1 5 2
_brch
7 3 
1 5 3
_hist
7 9 11 
1 7 3
_faceID
7 3 1 
    2 1 4
1 5 2
_body
7 6 
1 5 2
_brch
7 6 
1 5 3
_hist
7 9 11 
1 7 3
_faceID
7 6 1 
    2 2 4
1 5 2
_body
7 4 
1 5 2
_brch
7 4 
1 5 3
_hist
7 9 11 
1 7 3
_faceID
7 4 1 
    2 3 4
1 5 2
_body
7 1 
1 5 2
_brch
7 1 
1 5 4
_hist
6 7 9 11 
1 7 3
_faceID
7 1 1 
    2 4 4
1 5 2
_body
7 2 
1 5 2
_brch
7 2 
1 5 3
_hist
7 9 11 
1 7 3
_faceID
7 2 1 
    2 5 4
1 5 2
_body
7 5 
1 5 2
_brch
7 5 
1 5 3
_hist
7 9 11 
1 7 3
_faceID
7 5 1 
    2 6 4
1 5 2
_body
10 4 
1 5 2
_brch
10 4 
1 5 2
_hist
10 11 
1 7 3
_faceID
10 4 1 
    2 7 4
1 5 2
_body
10 3 
1 5 2
_brch
10 3 
1 5 2
_hist
10 11 
1 7 3
_faceID
10 3 1 
    2 8 4
1 5 2
_body
8 4 
1 5 2
_brch
8 4 
1 5 3
_hist
8 9 11 
1 7 3
_faceID
8 4 1 
    2 9 4
1 5 2
_body
8 3 
1 5 2
_brch
8 3 
1 5 3
_hist
8 9 11 
1 7 3
_faceID
8 3 1 
    4 0 3
1 5 2
_body
7 306 
1 6 1
_nface
2
1 7 5
_edgeID
7 3 7 6 1 
    4 1 3
1 5 2
_body
7 304 
1 6 1
_nface
2
1 7 5
_edgeID
7 3 7 4 1 
    4 2 3
1 5 2
_body
7 103 
1 6 1
_nface
2
1 7 5
_edgeID
7 1 7 3 1 
    4 3 3
1 5 2
_body
7 203 
1 6 1
_nface
2
1 7 5
_edgeID
7 2 7 3 1 
    4 4 3
1 5 2
_body
7 506 
1 6 1
_nface
2
1 7 5
_edgeID
7 5 7 6 1 
    4 5 3
1 5 2
_body
7 106 
1 6 1
_nface
2
1 7 5
_edgeID
7 1 7 6 1 
    4 6 3
1 5 2
_body
7 206 
1 6 1
_nface
2
1 7 5
_edgeID
7 2 7 6 1 
    4 7 3
1 5 2
_body
7 405 
1 6 1
_nface
2
1 7 5
_edgeID
7 4 7 5 1 
    4 8 3
1 5 2
_body
7 104 
1 6 1
_nface
2
1 7 5
_edgeID
7 1 7 4 1 
    4 9 3
1 5 2
_body
7 204 
1 6 1
_nface
2
1 7 5
_edgeID
7 2 7 4 1 
    4 10 3
1 5 2
_body
7 105 
1 6 1
_nface
2
1 7 5
_edgeID
7 1 7 5 1 
    4 11 3
1 5 2
_body
11 0 
1 6 1
_nface
2
1 7 5
_edgeID
7 1 10 4 1 
    4 12 3
1 5 2
_body
11 0 
1 6 1
_nface
2
1 7 5
_edgeID
7 1 10 3 1 
    4 13 3
1 5 2
_body
9 0 
1 6 1
_nface
2
1 7 5
_edgeID
7 1 8 4 1 
    4 14 3
1 5 2
_body
9 0 
1 6 1
_nface
2
1 7 5
_edgeID
7 1 8 3 1 
    4 15 3
1 5 2
_body
7 205 
1 6 1
_nface
2
1 7 5
_edgeID
7 2 7 5 1 
    4 16 3
1 5 2
_body
11 0 
1 6 1
_nface
2
1 7 5
_edgeID
7 2 10 3 1 
    4 17 3
1 5 2
_body
11 0 
1 6 1
_nface
2
1 7 5
_edgeID
7 2 10 4 1 
    4 18 3
1 5 2
_body
9 0 
1 6 1
_nface
2
1 7 5
_edgeID
7 2 8 3 1 
    4 19 3
1 5 2
_body
9 0 
1 6 1
_nface
2
1 7 5
_edgeID
7 2 8 4 1 
    4 20 3
1 5 2
_body
10 304 
1 6 1
_nface
2
1 7 5
_edgeID
10 3 10 4 1 
    4 21 3
1 5 2
_body
10 304 
1 6 1
_nface
2
1 7 5
_edgeID
10 3 10 4 2 
    4 22 3
1 5 2
_body
8 304 
1 6 1
_nface
2
1 7 5
_edgeID
8 3 8 4 1 
    4 23 3
1 5 2
_body
8 304 
1 6 1
_nface
2
1 7 5
_edgeID
8 3 8 4 2 
    5 0 2
1 7 1
_nodeID
1
1 6 1
_nedge
3
    5 1 2
1 7 1
_nodeID
2
1 6 1
_nedge
3
    5 2 2
1 7 1
_nodeID
3
1 6 1
_nedge
3
    5 3 2
1 7 1
_nodeID
4
1 6 1
_nedge
3
    5 4 2
1 7 1
_nodeID
5
1 6 1
_nedge
3
    5 5 2
1 7 1
_nodeID
6
1 6 1
_nedge
3
    5 6 2
1 7 1
_nodeID
7
1 6 1
_nedge
3
    5 7 2
1 7 1
_nodeID
8
1 6 1
_nedge
3
    5 8 2
1 7 1
_nodeID
9
1 6 1
_nedge
3
    5 9 2
1 7 1
_nodeID
10
1 6 1
_nedge
3
    5 10 2
1 7 1
_nodeID
11
1 6 1
_nedge
3
    5 11 2
1 7 1
_nodeID
12
1 6 1
_nedge
3
    5 12 2
1 7 1
_nodeID
13
1 6 1
_nedge
3
    5 13 2
1 7 1
_nodeID
14
1 6 1
_nedge
3
    5 14 2
1 7 1
_nodeID
15
1 6 1
_nedge
3
    5 15 2
1 7 1
_nodeID
16
1 6 1
_nedge
3
    0 0 0
