DBRep_DrawableShape

CASCADE Topology V1, (c) Matra-Datavision
Locations 4
1
              1               0               0               0 
              0               1               0           -0.95 
              0               0               1               0 
2  1 -1 0
1
              1               0               0               0 
              0               1               0           -0.95 
              0               0               1               0 
2  3 -1 0
Curve2ds 16
1 6.2831853071795862 -6.2831853071795862 0 1 
1 0 -6.2831853071795862 0 1 
1 0 -1.5707963267948966 1 0 
1 3.1415926535897931 0 0 1 
1 3.1415926535897931 0 0 1 
1 0 1.5707963267948966 1 0 
7 0 0  10 65 8  4.7123889803846897 -0.77625594393097308  4.7895057117227768 -0.77625594385385643  4.8666221212623899 -0.76952607467012557  4.9418060760217486 -0.75606781810704438  5.0131155291106548 -0.73616371026873817  5.0790358699814533 -0.71040501907191356  5.1388986012112579 -0.67952736267179714  5.1926371254003243 -0.64425786537367458  5.2403882683289407 -0.60525144276839293  5.2824818839357999 -0.56309678088543547  5.3836642785639786 -0.43991807726831855  5.4318226057106873 -0.35345407937272294  5.4656936561757901 -0.26165690116918405  5.4876528845634311 -0.16656572996469093  5.4990570646041306 -0.069601724105424978  5.500509029452223 0.028029156140536315  5.4920676736630414 0.12517503316530032  5.4730769287897756 0.22064034540048455  5.4420426445830632 0.31288423132714549  5.3633100920784624 0.46499726070988001  5.3217182509615668 0.52719516480010498  5.2714690781431273 0.58550899656984257  5.2116644371999428 0.63889416627353057  5.1412833638023585 0.68599468728643842  5.0600147970253602 0.72537682623078581  4.9674920835532248 0.75505940456787357  4.8676242066139821 0.7734560206590686  4.7651072794538765 0.78003457675449994  4.5886028454029715 0.77135341218492803  4.5138903622207982 0.76114223354483224  4.4419199402072991 0.74456084081703011  4.3743739242141597 0.72198970619610914  4.3123911322763888 0.69405745050607948  4.2563767921848923 0.66147351199542759  4.206272271754278 0.6249117057967396  4.1618696367424608 0.58497631665005512  4.1228213746017266 0.54220208655516589  4.0377053608106639 0.42933091593354061  3.997889691171038 0.3562658330904277  3.9681205193227975 0.27943128986426774  3.9470933439409537 0.20004116129235755  3.9339022909860235 0.11903112535843423  3.9280477008313026 0.037175556382309571  3.9293494770572708 -0.044811106231157846  3.9379518216398544 -0.12620231562161399  3.9543967436793337 -0.20619273492293533  3.9921048650153663 -0.32256640205639631  4.0068478458923309 -0.36075571988615518  4.0238711097039666 -0.39821751498008945  4.0433018121526398 -0.43481412554266019  4.065284342342137 -0.47039258580202337  4.0899773777766919 -0.5047815410612202  4.1175460602113345 -0.53778796017936403  4.1481455435378134 -0.56919468763705228  4.1818935966869573 -0.59876129748418316  4.2557691559627147 -0.65370296574043518  4.2958964286048884 -0.67907805421806289  4.3392563089893263 -0.70210155403232033  4.3858095237953112 -0.72250296436015271  4.4354150305973441 -0.74000380970376978  4.487768432852195 -0.75433280694117744  4.542365104597625 -0.76525190052669978  4.5985215509969501 -0.77258780444314912  4.655455143319517 -0.77625594387403907  4.7123889803846994 -0.77625594393097319 
 0 11 0.78539816339744861 9 2.159844949342999 9 3.1906800388021592 9 3.9638063558965202 9 5.1234958315380474 9 5.7033405693588159 9 6.2831853071795862 11
7 0 0  10 128 15  1.5707963267948977 -1.3255570372732455  1.4923434114715985 -1.3255570371947925  1.4138905550767074 -1.3238454379265738  1.3368207271283155 -1.3204224353566587  1.2625175543384102 -1.3153448707744246  1.1921195916529541 -1.3087297235033475  1.1262465403226087 -1.3007294085837202  1.0650817317782184 -1.2915026713049884  1.008584593612845 -1.2811976396447071  0.9565453947910415 -1.2699499348440224  0.81594765757054977 -1.2344905339640109  0.73888915964006929 -1.2080107011404633  0.67544969802245303 -1.1793077001741039  0.62244457458909896 -1.1490208527917276  0.57762729648402455 -1.1175384426787787  0.5393521315647376 -1.0851319636298284  0.50631866351161536 -1.0520048816097642  0.47759740873124645 -1.0182935551099661  0.45243993484390066 -0.98410929997522312  0.38870659857350298 -0.88470554046088545  0.35764967471106812 -0.8185029804299111  0.33329901401461937 -0.75147202956381987  0.313829808317314 -0.6838531495992356  0.29806822060027116 -0.61580920923552185  0.28523698255339697 -0.54744856078759763  0.27482190255819888 -0.47884354411146435  0.26643774662902936 -0.41005565634932373  0.25982750833872148 -0.34112889037076044  0.25042115788135383 -0.21170339803857879  0.24725169950801332 -0.15122810523770833  0.24518256151791357 -0.090701681198513726  0.24414300645651493 -0.030145349532736548  0.24409792206213546 0.030421871425062363  0.24504301904733361 0.090981702251507576  0.24700423077166839 0.15151550534801564  0.2500401554624116 0.21200314576537344  0.25424970699581595 0.27242132114170542  0.26463862939287336 0.38552033373968436  0.27050610068376413 0.43822428239594924  0.27749781612207719 0.49083317760971801  0.28575555104494776 0.5433235673578718  0.29546141003513393 0.59566774443631709  0.30685905565052657 0.64783038542245786  0.32027675211209322 0.69976531690473309  0.33616094829658177 0.75141120359261282  0.35515377194740277 0.80268052527346367  0.39850130189138749 0.89783913151519545  0.4218889135140671 0.94184993385624693  0.44911967877487768 0.98536802119633649  0.4810839834244689 1.0282724828430219  0.51905513273959514 1.0703699906589463  0.56459320323483553 1.1114526848250534  0.6204145470255753 1.1510877474356676  0.68950852001125895 1.1887944199461344  0.77850528932479157 1.2234852282698154  0.94127769197813316 1.2666278210226598  0.9954564099076556 1.2788626647416153  1.0546354364482795 1.2900631758714098  1.1191055523275282 1.3000685892351611  1.1889524708967656 1.3087016761874111  1.2640090771492396 1.3157685176091036  1.3435336392994031 1.3210813066623814  1.4260804856045355 1.324499878260887  1.5099300294554543 1.3259658809108734  1.6716883924146964 1.3250496421832878  1.7496407905369451 1.322902204371518  1.8259046498201315 1.3190624036547889  1.8991487945226253 1.3135980448947522  1.968332069398457 1.3066337491891318  2.0329273215887951 1.2983240882938845  2.0928150428642764 1.2888262669185679  2.1480760435355912 1.2782857486972801  2.1989446223664486 1.2668345212689069  2.3334083796499949 1.2316259387190105  2.4066937179265699 1.2058680203807184  2.467516410271128 1.1780772278232234  2.518661171331769 1.1488150982608203  2.5621462154267647 1.1184332181892387  2.5994709427206546 1.0871794403174135  2.6318200118661479 1.0552395272054582  2.6600575188221223 1.0227414989147114  2.6848785536219948 0.98978869691955285  2.7452231607904851 0.89813042444256053  2.7748132048420322 0.83864687022696249  2.7984858681650189 0.77842396567571503  2.8177849825078134 0.71766970641197847  2.8336901748057755 0.6565167456860761  2.8468911197003766 0.59506151679042885  2.857868045925974 0.53337181878365381  2.8669541127350051 0.47149588335803844  2.8744132350434102 0.4094767433168463  2.889442393657641 0.25415119942524311  2.8952040433842248 0.16070643726045522  2.8983323171578856 0.067123234854700037  2.8990886767875663 -0.026520788122320484  2.8975721106875829 -0.12016288315325911  2.8937196675860832 -0.21373900965292777  2.8872885769620771 -0.30717650859254964  2.8778443583617439 -0.40038892710153029  2.8646241365897565 -0.49325312701504948  2.8366717236298085 -0.63167688024898339  2.8260003309569646 -0.67767261780450683  2.8137695777664424 -0.72349379506145661  2.7997166547895178 -0.76910306433489184  2.7835044175782162 -0.81445475568367931  2.7646868702056961 -0.8594877865862145  2.7426642175931972 -0.90411902437501601  2.716606011452023 -0.94823410362258698  2.6852923196333114 -0.99166218112756144  2.6275452204073275 -1.0553347968463676  2.606500189684803 -1.0763140822310298  2.5834175527743155 -1.0970117422527903  2.5580136406910849 -1.1173836199373604  2.5299475903642206 -1.1373752540008959  2.4988158880345508 -1.156919546272517  2.4641387152842276 -1.1759326380586876  2.4253441049095006 -1.1943074906167359  2.3817797954675619 -1.2119064713960057  2.2838333144282394 -1.2452056369966142  2.2294499489860193 -1.260905779482882  2.1690288317558042 -1.2754835101944082  2.1019045161665417 -1.2887284401789656  2.0276569695961371 -1.300394493398926  1.9459722643121495 -1.3101938919062377  1.8573186163523132 -1.3178114232244298  1.7635149022985501 -1.3229748484985098  1.6671561838586115 -1.3255570371768854  1.5707963267948992 -1.3255570372732455 
 0 11 0.19634954084936251 9 0.57677677624500001 9 1.2900778426118169 9 1.9142162756827807 9 2.4603374046198749 9 2.9381933924398336 9 3.1472553871110667 9 3.343251007115347 9 3.7107427946233789 9 4.3538534227624348 9 5.3185193649710181 9 5.8008523360753097 9 6.0420188216274475 9 6.2831853071795862 11
1 0 1.5707963267948966 1 0 
1 0 -1.5707963267948966 1 0 
1 0 -0.33983690945412193 1 0 
7 0 0  8 9 2  1.5707963267948981 0.3398369094541222  1.6141527297411458 0.25312410353420262  1.6559900648014718 0.16641131503628515  1.6974879102090199 0.079946771030165564  1.7395288551815611 -0.006056999260010798  1.7829757966801481 -0.091369368342952839  1.8287458735103428 -0.17571325621347711  1.877967947046542 -0.25872450673744307  1.9321634507016032 -0.33983690945412132 
 4.40611161121502 9 5.1816945194417654 9
7 0 0  8 9 2  1.9321634507016057 0.33983690945412287  1.8779679470465427 0.25872450673744407  1.8287458735128439 0.17571325621351619  1.7829757966710531 0.091369368342810731  1.7395288551933845 0.0060569992600676414  1.6974879101953775 -0.079946771030293462  1.6559900648051098 -0.16641131503624251  1.6141527297411462 -0.25312410353420223  1.5707963267948966 -0.33983690945412143 
 4.2430834413276131 9 5.0186663495543593 9
1 0 0.33983690945412193 1 0 
7 0 0  8 9 2  1.570796326794897 -0.3398369094541222  1.5274399238486476 -0.25312410353420262  1.4856025887850137 -0.16641131503628515  1.4441047433820131 -0.079946771030165564  1.4020637983921915 0.006056999260010798  1.3586168569163419 0.091369368342952839  1.3128467800770522 0.17571325621347711  1.2636247065432511 0.25872450673744307  1.2094292028881881 0.33983690945412132 
 4.40611161121502 9 5.1816945194417654 9
7 0 0  8 9 2  1.2094292028881892 -0.33983690945412287  1.2636247065432504 -0.25872450673744407  1.3128467800797807 -0.17571325621351619  1.3586168569008805 -0.091369368342810731  1.4020637984122004 -0.0060569992600676414  1.4441047433665517 0.079946771030293462  1.4856025887888791 0.16641131503624251  1.5274399238486471 0.25312410353420223  1.5707963267948968 0.33983690945412143 
 4.2430834413276131 9 5.0186663495543593 9
Curves 31
2 0 0 0 -2.4492935982947064e-16 -1 0 1 -2.4492935982947064e-16 0 0 0 1 0.90000000000000002
7 0 0  8 9 2  1.1102230246251565e-16 1.2325951644078309e-32 -0.90000000000000013  -0.35342917352885217 4.3282590608740615e-17 -0.89999999999999991  -0.70686253884751726 8.6565694563677144e-17 -0.74134549394324734  -0.97720583148485718 1.196731993636086e-16 -0.42432159973060402  -1.0816251561002077 1.3246087852953384e-16 -2.6645352591003733e-15  -0.97720583148485318 1.1967319936360847e-16 0.42432159973060907  -0.70686253884752093 8.6565694563677329e-17 0.74134549394324356  -0.353429173528851 4.3282590608740541e-17 0.90000000000000158  1.1102230246251565e-16 1.2325951644078309e-32 0.90000000000000002 
 -1.5707963267948966 9 1.5707963267948966 9
2 0 -0.64218750000000002 0 0 -1 0 0 -0 -1 1 0 0 0.63055151640746221
2 0 0 -0.29999999999999999 0 0 1 1 0 -0 -0 1 0 0.84852813742385713
2 0 0 -0.29999999999999999 0 0 1 1 0 -0 -0 1 0 0.84852813742385713
2 -0.12000000000000002 0 0.060000000000000012 -0.89442719099991597 0 0.44721359549995798 -0.44721359549995798 0 -0.89442719099991597 -0 -1 0 0.88994381845147963
2 -0.12000000000000002 0 -0.060000000000000012 -0.89442719099991597 -0 -0.44721359549995798 0.44721359549995798 0 -0.89442719099991597 0 -1 0 0.88994381845147963
2 0 0 0.29999999999999999 0 0 1 1 0 -0 -0 1 0 0.84852813742385713
2 0 0 0.29999999999999999 0 0 1 1 0 -0 -0 1 0 0.84852813742385713
2 0.12000000000000002 0 -0.060000000000000012 0.89442719099991597 0 -0.44721359549995798 0.44721359549995798 0 0.89442719099991597 0 -1 0 0.88994381845147963
2 0.12000000000000002 0 0.060000000000000012 0.89442719099991597 0 0.44721359549995798 -0.44721359549995798 0 0.89442719099991597 0 -1 0 0.88994381845147963
1 0 1 -0.29999999999999999 0 -1 0 
1 0.29999999999999999 1 -0.29999999999999999 -1 0 0 
1 0.29999999999999999 1 -0.29999999999999999 0 -1 0 
1 -0.29999999999999999 1 -0.29999999999999999 0 -1 0 
1 0.29999999999999999 1 -0.29999999999999999 -1 0 0 
1 -0.14999999999999997 1 1.9428902930940239e-16 0 -1 0 
1 -0.29999999999999999 1 -0.29999999999999999 0.44721359549995793 0 0.89442719099991586 
1 -0.29999999999999999 1 0.29999999999999999 0 -1 0 
1 0 1 -0.29999999999999999 -0.44721359549995793 0 0.89442719099991586 
1 0 1 0.29999999999999999 0 -1 0 
1 -0.29999999999999999 1 0.29999999999999999 1 0 0 
1 0.29999999999999999 1 0.29999999999999999 0 -1 0 
1 -0.29999999999999999 1 0.29999999999999999 1 0 0 
1 0.14999999999999997 1 -1.9428902930940239e-16 -0 1 0 
1 0.29999999999999999 1 0.29999999999999999 -0.44721359549995793 0 -0.89442719099991586 
1 0 1 0.29999999999999999 0.44721359549995793 0 -0.89442719099991586 
1 0.29999999999999999 1 0.29999999999999999 -0.44721359549995793 0 -0.89442719099991586 
1 0 1 -0.29999999999999999 -0.44721359549995793 0 0.89442719099991586 
1 -0.29999999999999999 1 -0.29999999999999999 0.44721359549995793 0 0.89442719099991586 
1 0 1 0.29999999999999999 0.44721359549995793 0 -0.89442719099991586 
Polygon3D 0
PolygonOnTriangulations 0
Surfaces 16
10 3.1415926535897931 6.2831853071795862 -1.5707963267948966 1.5707963267948966
4 0 0 0 0 0 1 1 0 -0 -0 1 0 0.90000000000000002
10 0 3.1415926535897931 -1.5707963267948966 1.5707963267948966
4 0 0 0 0 0 1 1 0 -0 -0 1 0 0.90000000000000002
10 0 3.1415926535897931 -1.5707963267948966 1.5707963267948966
4 0 -0.80000000000000004 0 0 0 1 1 0 -0 -0 1 0 0.65000000000000002
1 0.29999999999999999 1 -0.29999999999999999 -0 -0 -1 -1 0 0 0 1 -0 
1 0.29999999999999999 1 -0.29999999999999999 -0 -0 -1 -1 0 0 0 1 -0 
1 -0.29999999999999999 1 -0.29999999999999999 -0.89442719099991597 0 0.44721359549995798 0.44721359549995798 0 0.89442719099991597 0 1 -0 
1 0 1 -0.29999999999999999 -0.89442719099991597 -0 -0.44721359549995798 -0.44721359549995798 0 0.89442719099991597 0 1 -0 
1 -0.29999999999999999 1 0.29999999999999999 -0 0 1 1 0 0 0 1 -0 
1 -0.29999999999999999 1 0.29999999999999999 -0 0 1 1 0 0 0 1 -0 
1 0.29999999999999999 1 0.29999999999999999 0.89442719099991597 0 -0.44721359549995798 -0.44721359549995798 0 -0.89442719099991597 0 1 0 
1 0 1 0.29999999999999999 0.89442719099991597 0 0.44721359549995798 0.44721359549995798 0 -0.89442719099991597 -0 1 0 
1 -0.29999999999999999 1 -0.29999999999999999 0 1 0 0.44721359549995798 -0 0.89442719099991597 0.89442719099991597 0 -0.44721359549995798 
1 -0.29999999999999999 1 -0.29999999999999999 0 1 0 0.44721359549995798 -0 0.89442719099991597 0.89442719099991597 0 -0.44721359549995798 
1 -0.29999999999999999 1 0.29999999999999999 0 -1 0 0.44721359549995798 0 -0.89442719099991597 0.89442719099991597 0 0.44721359549995798 
1 -0.29999999999999999 1 0.29999999999999999 0 -1 0 0.44721359549995798 0 -0.89442719099991597 0.89442719099991597 0 0.44721359549995798 
1 -0.29999999999999999 1 -0.29999999999999999 0 1 0 0.44721359549995798 -0 0.89442719099991597 0.89442719099991597 0 -0.44721359549995798 
Triangulations 0

TShapes 91
Ve
1e-05
5.51091059616309e-17 -1.34978380439567e-32 -0.9
0 0

0101101
*
Ve
1e-05
5.51091059616309e-17 -1.34978380439567e-32 0.9
0 0

0101101
*
Ed
 1e-07 1 1 0
1  1 0 4.71238898038469 7.85398163397448
2  1 1 0 4.71238898038469 7.85398163397448
2  2 2 0 4.71238898038469 7.85398163397448
0

0101000
+91 0 -90 0 *
Ed
 1e-07 1 1 1
2  3 1 0 3.14159265358979 6.28318530717959
0

0101100
+91 0 -91 0 *
Ed
 1e-05 1 1 0
1  2 0 -1.5707963267949 1.5707963267949
2  4 1 0 -1.5707963267949 1.5707963267949
2  5 2 0 -1.5707963267949 1.5707963267949
0

0101000
-90 0 +91 0 *
Ed
 1e-07 1 1 1
2  6 1 0 3.14159265358979 6.28318530717959
0

0101100
-90 0 +90 0 *
Wi

0101000
+89 0 +88 0 -87 0 -86 0 *
Ve
1e-07
0 -0.6421875 -0.630551516407462
0 0

0101101
*
Ed
 1e-07 1 1 0
1  3 0 0 6.28318530717959
2  7 1 0 0 6.28318530717959
2  8 3 0 0 6.28318530717959
0

0101100
+84 0 -84 0 *
Wi

0101000
-83 0 *
Fa
0  1e-07 1 0

0111000
+85 0 +82 0 *
Ed
 1e-07 1 1 1
2  9 2 0 0 3.14159265358979
0

0101100
-90 0 +90 0 *
Ed
 1e-07 1 1 1
2  10 2 0 0 3.14159265358979
0

0101100
+91 0 -91 0 *
Wi

0101000
-80 0 +87 0 +79 0 -89 0 *
Ve
2.00001e-07
0.3 0.793725393319377 -0.3
0 0

0101101
*
Ve
1.00000032851757e-07
-3.28517574031512e-14 0.848528137423857 -0.3
0 0

0101101
*
Ed
 1e-07 1 1 0
1  4 0 1.20942920288819 1.57079632679494
2  11 2 0 1.20942920288819 1.57079632679494
0

0101000
+77 0 -76 0 *
Ve
2.00001e-07
-0.3 0.793725393319377 -0.3
0 0

0101101
*
Ed
 1e-07 1 1 0
1  5 0 1.57079632679494 1.9321634507016
2  11 2 0 1.57079632679494 1.9321634507016
0

0101000
+76 0 -74 0 *
Ve
2.00001e-07
-0.15 0.887411967464943 4.02455846426619e-16
0 0

0101101
*
Ed
 1e-07 1 1 0
1  6 0 4.78783838018245 5.18169451944177
2  12 2 0 4.78783838018245 5.18169451944177
0

0101000
+72 0 -74 0 *
Ve
2.00001e-07
-0.3 0.793725393319377 0.3
0 0

0101101
*
Ed
 1e-07 1 1 0
1  7 0 4.24308344132761 4.63693958058693
2  13 2 0 4.24308344132761 4.63693958058693
0

0101000
+70 0 -72 0 *
Ve
2.00001e-07
0 0.848528137423857 0.3
0 0

0101101
*
Ed
 1e-07 1 1 0
1  8 0 1.5707963267949 1.9321634507016
2  14 2 0 1.5707963267949 1.9321634507016
0

0101000
+68 0 -70 0 *
Ve
2.00001e-07
0.3 0.793725393319377 0.3
0 0

0101101
*
Ed
 1e-07 1 1 0
1  9 0 1.20942920288819 1.5707963267949
2  14 2 0 1.20942920288819 1.5707963267949
0

0101000
+66 0 -68 0 *
Ve
2.00001e-07
0.15 0.887411967464943 1.11022302462516e-16
0 0

0101101
*
Ed
 1e-07 1 1 0
1  10 0 4.78783838018245 5.18169451944177
2  15 2 0 4.78783838018245 5.18169451944177
0

0101000
+64 0 -66 0 *
Ed
 1e-07 1 1 0
1  11 0 4.24308344132761 4.63693958058693
2  16 2 0 4.24308344132761 4.63693958058693
0

0101000
+77 0 -64 0 *
Wi

0101000
-75 0 -73 0 +71 0 +69 0 +67 0 +65 0 +63 0 +62 0 *
Fa
0  1e-07 2 0

0111000
+78 0 +61 0 *
Wi

0101000
-83 0 *
Fa
0  1e-07 3 0

0111000
+59 0 *
Ve
1e-07
0 0.05 -0.3
0 0

0101101
*
Ed
 1e-07 1 1 0
1  12 0 0.151471862576143 0.95
0

0101000
+76 0 -57 0 *
Ve
1e-07
0.3 0.05 -0.3
0 0

0101101
*
Ed
 1e-07 1 1 0
1  13 0 0 0.3
0

0101000
+55 2 -57 2 *
Ed
 1e-07 1 1 0
1  14 0 0.206274606680623 0.95
0

0101000
+77 0 -55 0 *
Wi

0101000
-75 0 -56 0 +54 1 +53 0 *
Fa
0  1e-07 4 0

0111000
+52 0 *
Ve
1e-07
-0.3 0.05 -0.3
0 0

0101101
*
Ed
 1e-07 1 1 0
1  15 0 0.206274606680623 0.95
0

0101000
+74 0 -50 0 *
Ed
 1e-07 1 1 0
1  16 0 0.3 0.6
0

0101000
+57 2 -50 2 *
Wi

0101000
-73 0 -49 0 +48 1 +56 0 *
Fa
0  1e-07 5 0

0111000
+47 0 *
Ve
1.00000000027756e-07
-0.15 0.05 -5.55111512312578e-17
0 0

0101101
*
Ed
 1e-07 1 1 0
1  17 0 0.112588032535057 0.95
0

0101000
+72 0 -45 0 *
Ed
 1e-07 1 1 0
1  18 0 0 0.335410196624968
0

0101000
+50 2 -45 2 *
Wi

0101000
-44 0 +43 1 +49 0 +71 0 *
Fa
0  1e-07 6 0

0111000
+42 0 *
Ve
1e-07
-0.3 0.05 0.3
0 0

0101101
*
Ed
 1e-07 1 1 0
1  19 0 0.206274606680623 0.95
0

0101000
+70 0 -40 0 *
Ed
 1e-07 1 1 0
1  20 0 0.335410196624968 0.670820393249937
0

0101000
+45 4 -40 4 *
Wi

0101000
-39 0 +38 3 +44 0 +69 0 *
Fa
0  1e-07 7 0

0111000
+37 0 *
Ve
1e-07
0 0.05 0.3
0 0

0101101
*
Ed
 1e-07 1 1 0
1  21 0 0.151471862576143 0.95
0

0101000
+68 0 -35 0 *
Ed
 1e-07 1 1 0
1  22 0 0 0.3
0

0101000
+40 4 -35 4 *
Wi

0101000
+67 0 -34 0 +33 3 +39 0 *
Fa
0  1e-07 8 0

0111000
+32 0 *
Ve
1e-07
0.3 0.05 0.3
0 0

0101101
*
Ed
 1e-07 1 1 0
1  23 0 0.206274606680623 0.95
0

0101000
+66 0 -30 0 *
Ed
 1e-07 1 1 0
1  24 0 0.3 0.6
0

0101000
+35 4 -30 4 *
Wi

0101000
+65 0 -29 0 +28 3 +34 0 *
Fa
0  1e-07 9 0

0111000
+27 0 *
Ve
1.00000000027756e-07
0.15 0.05 5.55111512312578e-17
0 0

0101101
*
Ed
 1e-07 1 1 0
1  25 0 -0.95 -0.112588032535057
0

0101000
+25 0 -64 0 *
Ed
 1e-07 1 1 0
1  26 0 0 0.335410196624968
0

0101000
+30 4 -25 4 *
Wi

0101000
+63 0 +24 0 +23 3 +29 0 *
Fa
0  1e-07 10 0

0111000
+22 0 *
Ed
 1e-07 1 1 0
1  27 0 0.335410196624968 0.670820393249937
0

0101000
+25 2 -55 2 *
Wi

0101000
-53 0 +20 1 -24 0 +62 0 *
Fa
0  1e-07 11 0

0111000
+19 0 *
Ed
 1e-07 1 1 0
1  28 0 0.335410196624968 0.670820393249937
0

0101000
+25 4 -57 4 *
Wi

0101000
+54 1 +20 1 -17 3 *
Fa
0  1e-07 12 1

0111000
+16 0 *
Ed
 1e-07 1 1 0
1  29 0 0 0.335410196624968
0

0101000
+57 4 -45 4 *
Wi

0101000
+48 1 -14 3 +43 1 *
Fa
0  1e-07 13 1

0111000
+13 0 *
Ed
 1e-07 1 1 0
1  30 0 0.335410196624968 0.670820393249937
0

0101000
+45 2 -35 2 *
Wi

0101000
-33 3 +11 1 -38 3 *
Fa
0  1e-07 14 3

0111000
+10 0 *
Ed
 1e-07 1 1 0
1  31 0 0 0.335410196624968
0

0101000
+35 2 -25 2 *
Wi

0101000
-28 3 -23 3 +8 1 *
Fa
0  1e-07 15 3

0111000
+7 0 *
Wi

0101000
+14 3 +17 3 +8 1 +11 1 *
Fa
0  1e-07 16 1

0111000
+5 0 *
Sh

0101100
+81 0 +60 0 -58 0 -51 0 -46 0 -41 0 -36 0 -31 0 -26 0 -21 0 
-18 0 +15 0 +12 0 -9 0 -6 0 +4 0 *
So

0100000
+3 0 *
Co

1100000
+2 0 *

+1 0 
##EGADS HEADER FILE-REV 1 ##
0
  1  1  16  18  35  19  3
1 5 1
_body
17
1 5 1
_brch
17
2 8 3
_tParams
 7.978509558099e-02  3.191403823240e-03  1.500000000000e+01 
    2 0 4
1 5 2
_body
1 0 
1 5 2
_brch
1 0 
1 5 4
_hist
1 3 10 17 
1 7 3
_faceID
1 0 1 
    2 1 4
1 5 2
_body
1 0 
1 5 2
_brch
1 0 
1 5 4
_hist
1 3 10 17 
1 7 3
_faceID
1 0 2 
    2 2 4
1 5 2
_body
2 0 
1 5 2
_brch
2 0 
1 5 4
_hist
2 3 10 17 
1 7 3
_faceID
2 0 1 
    2 3 4
1 5 2
_body
9 5 
1 5 2
_brch
9 5 
1 5 3
_hist
9 10 17 
1 7 3
_faceID
9 5 2 
    2 4 4
1 5 2
_body
9 5 
1 5 2
_brch
9 5 
1 5 3
_hist
9 10 17 
1 7 3
_faceID
9 5 1 
    2 5 4
1 5 2
_body
9 3 
1 5 2
_brch
9 3 
1 5 3
_hist
9 10 17 
1 7 3
_faceID
9 3 1 
    2 6 4
1 5 2
_body
16 5 
1 5 2
_brch
16 5 
1 5 2
_hist
16 17 
1 7 3
_faceID
16 5 1 
    2 7 4
1 5 2
_body
16 3 
1 5 2
_brch
16 3 
1 5 2
_hist
16 17 
1 7 3
_faceID
16 3 1 
    2 8 4
1 5 2
_body
16 3 
1 5 2
_brch
16 3 
1 5 2
_hist
16 17 
1 7 3
_faceID
16 3 2 
    2 9 4
1 5 2
_body
16 4 
1 5 2
_brch
16 4 
1 5 2
_hist
16 17 
1 7 3
_faceID
16 4 1 
    2 10 4
1 5 2
_body
9 4 
1 5 2
_brch
9 4 
1 5 3
_hist
9 10 17 
1 7 3
_faceID
9 4 1 
    2 11 4
1 5 2
_body
9 2 
1 5 2
_brch
9 2 
1 5 4
_hist
8 9 10 17 
1 7 3
_faceID
9 2 2 
    2 12 4
1 5 2
_body
9 2 
1 5 2
_brch
9 2 
1 5 4
_hist
8 9 10 17 
1 7 3
_faceID
9 2 1 
    2 13 4
1 5 2
_body
16 2 
1 5 2
_brch
16 2 
1 5 3
_hist
15 16 17 
1 7 3
_faceID
16 2 1 
    2 14 4
1 5 2
_body
16 2 
1 5 2
_brch
16 2 
1 5 3
_hist
15 16 17 
1 7 3
_faceID
16 2 3 
    2 15 4
1 5 2
_body
16 2 
1 5 2
_brch
16 2 
1 5 3
_hist
15 16 17 
1 7 3
_faceID
16 2 2 
    4 0 3
1 5 2
_body
1 0 
1 6 1
_nface
2
1 7 5
_edgeID
1 0 1 0 2 
    4 1 3
1 5 2
_body
1 -3 
1 6 1
_nface
1
1 7 5
_edgeID
0 0 1 0 1 
    4 2 3
1 5 2
_body
1 0 
1 6 1
_nface
2
1 7 5
_edgeID
1 0 1 0 1 
    4 3 3
1 5 2
_body
1 -3 
1 6 1
_nface
1
1 7 5
_edgeID
0 0 1 0 4 
    4 4 3
1 5 2
_body
3 0 
1 6 1
_nface
2
1 7 5
_edgeID
1 0 2 0 1 
    4 5 3
1 5 2
_body
1 -3 
1 6 1
_nface
1
1 7 5
_edgeID
0 0 1 0 3 
    4 6 3
1 5 2
_body
1 -3 
1 6 1
_nface
1
1 7 5
_edgeID
0 0 1 0 2 
    4 7 3
1 5 2
_body
10 0 
1 7 5
_edgeID
1 0 9 5 2 
1 6 1
_nface
2
    4 8 3
1 5 2
_body
10 0 
1 7 5
_edgeID
1 0 9 5 1 
1 6 1
_nface
2
    4 9 3
1 5 2
_body
10 0 
1 7 5
_edgeID
1 0 9 3 1 
1 6 1
_nface
2
    4 10 3
1 5 2
_body
17 0 
1 7 5
_edgeID
1 0 16 5 1 
1 6 1
_nface
2
    4 11 3
1 5 2
_body
17 0 
1 7 5
_edgeID
1 0 16 3 1 
1 6 1
_nface
2
    4 12 3
1 5 2
_body
17 0 
1 7 5
_edgeID
1 0 16 3 2 
1 6 1
_nface
2
    4 13 3
1 5 2
_body
17 0 
1 7 5
_edgeID
1 0 16 4 1 
1 6 1
_nface
2
    4 14 3
1 5 2
_body
10 0 
1 7 5
_edgeID
1 0 9 4 1 
1 6 1
_nface
2
    4 15 3
1 5 2
_body
9 505 
1 7 5
_edgeID
9 5 9 5 1 
1 6 1
_nface
2
    4 16 3
1 5 2
_body
9 205 
1 7 5
_edgeID
9 2 9 5 2 
1 6 1
_nface
2
    4 17 3
1 5 2
_body
9 405 
1 6 1
_nface
2
1 7 5
_edgeID
9 4 9 5 1 
    4 18 3
1 5 2
_body
9 305 
1 6 1
_nface
2
1 7 5
_edgeID
9 3 9 5 1 
    4 19 3
1 5 2
_body
9 205 
1 7 5
_edgeID
9 2 9 5 1 
1 6 1
_nface
2
    4 20 3
1 5 2
_body
17 0 
1 7 5
_edgeID
9 3 16 5 1 
1 6 1
_nface
2
    4 21 3
1 5 2
_body
9 203 
1 7 5
_edgeID
9 2 9 3 1 
1 6 1
_nface
2
    4 22 3
1 5 2
_body
16 305 
1 7 5
_edgeID
16 3 16 5 1 
1 6 1
_nface
2
    4 23 3
1 5 2
_body
16 205 
1 7 5
_edgeID
16 2 16 5 1 
1 6 1
_nface
2
    4 24 3
1 5 2
_body
16 303 
1 6 1
_nface
2
1 7 5
_edgeID
16 3 16 3 1 
    4 25 3
1 5 2
_body
16 203 
1 7 5
_edgeID
16 2 16 3 1 
1 6 1
_nface
2
    4 26 3
1 5 2
_body
16 304 
1 7 5
_edgeID
16 3 16 4 1 
1 6 1
_nface
2
    4 27 3
1 5 2
_body
16 203 
1 7 5
_edgeID
16 2 16 3 2 
1 6 1
_nface
2
    4 28 3
1 5 2
_body
17 0 
1 7 5
_edgeID
9 4 16 4 1 
1 6 1
_nface
2
    4 29 3
1 5 2
_body
16 204 
1 7 5
_edgeID
16 2 16 4 1 
1 6 1
_nface
2
    4 30 3
1 5 2
_body
9 204 
1 7 5
_edgeID
9 2 9 4 1 
1 6 1
_nface
2
    4 31 3
1 5 2
_body
17 0 
1 7 5
_edgeID
9 2 16 2 2 
1 6 1
_nface
2
    4 32 3
1 5 2
_body
17 0 
1 7 5
_edgeID
9 2 16 2 1 
1 6 1
_nface
2
    4 33 3
1 5 2
_body
16 202 
1 7 5
_edgeID
16 2 16 2 1 
1 6 1
_nface
2
    4 34 3
1 5 2
_body
16 202 
1 7 5
_edgeID
16 2 16 2 2 
1 6 1
_nface
2
    5 0 2
1 7 1
_nodeID
1
1 6 1
_nedge
4
    5 1 2
1 7 1
_nodeID
2
1 6 1
_nedge
4
    5 2 2
1 7 1
_nodeID
3
1 6 1
_nedge
1
    5 3 2
1 7 1
_nodeID
4
1 6 1
_nedge
3
    5 4 2
1 7 1
_nodeID
5
1 6 1
_nedge
3
    5 5 2
1 7 1
_nodeID
6
1 6 1
_nedge
3
    5 6 2
1 7 1
_nodeID
7
1 6 1
_nedge
3
    5 7 2
1 7 1
_nodeID
8
1 6 1
_nedge
3
    5 8 2
1 7 1
_nodeID
9
1 6 1
_nedge
3
    5 9 2
1 7 1
_nodeID
10
1 6 1
_nedge
3
    5 10 2
1 7 1
_nodeID
11
1 6 1
_nedge
3
    5 11 2
1 7 1
_nodeID
12
1 6 1
_nedge
5
    5 12 2
1 7 1
_nodeID
13
1 6 1
_nedge
3
    5 13 2
1 7 1
_nodeID
14
1 6 1
_nedge
3
    5 14 2
1 7 1
_nodeID
15
1 6 1
_nedge
5
    5 15 2
1 7 1
_nodeID
16
1 6 1
_nedge
3
    5 16 2
1 7 1
_nodeID
17
1 6 1
_nedge
5
    5 17 2
1 7 1
_nodeID
18
1 6 1
_nedge
3
    5 18 2
1 7 1
_nodeID
19
1 6 1
_nedge
5
    0 0 0
