DBRep_DrawableShape

CASCADE Topology V1, (c) Matra-Datavision
Locations 4
1
              1               0               0               0 
              0               1               0            0.95 
              0               0               1               0 
2  1 -1 0
1
              1               0               0               0 
              0               1               0            0.95 
              0               0               1               0 
2  3 -1 0
Curve2ds 18
1 0 -1.5707963267948966 1 0 
1 3.1415926535897931 0 0 1 
1 3.1415926535897931 0 0 1 
1 0 1.5707963267948966 1 0 
1 6.2831853071795862 -6.2831853071795862 0 1 
1 0 -6.2831853071795862 0 1 
7 0 0  8 9 2  5.381353054653097 0.46055399168132244  5.337972851343098 0.34995573980280525  5.3110856299887459 0.23502296733336436  5.2962028195136313 0.11799283150139672  5.2913959885093149 -2.5579538487363607e-13  5.2962028195136313 -0.11799283150116935  5.3110856299888596 -0.23502296733342121  5.337972851343098 -0.3499557398028052  5.3813530546530979 -0.46055399168132238 
 1.0068536854342676 9 2.1347389681555256 9
1 0 -0.46055399168132244 1 0 
7 0 0  8 16 3  6.1588303126328254 -0.46055399168132283  6.0772415329298468 -0.43999806123848995  6.001418602979264 -0.40410990382036971  5.9360294800260576 -0.35434807282558722  5.8842170452060358 -0.29363054022496726  5.8456427678177292 -0.22526739844511212  5.8200863485296495 -0.15184547650127911  5.80730305751917 -0.075923420326247659  5.80730305751917 0.075923420326247604  5.8200863485294221 0.15184547650159175  5.8456427678193208 0.22526739844352051  5.8842170452053537 0.29363054022746837  5.9360294800274218 0.35434807282445036  6.001418602979264 0.40410990382059708  6.0772415329298468 0.43999806123848995  6.1588303126328254 0.46055399168132238 
 0.24497866312686201 9 1.5707963267948966 7 2.8966139904629311 9
1 0 0.46055399168132244 1 0 
7 0 0  9 18 3  3.5029597774965011 0.58903097021627371  3.5782445954572153 0.54644344586286298  3.6433114480460063 0.49431292551923889  3.6970553464707336 0.43446733898554157  3.7399211895826738 0.36884489221301919  3.7730898557783803 0.29900126251231995  3.7973241326981224 0.22617169646264301  3.8132870219906181 0.15142239321403395  3.8212664724980372 0.075711153652328958  3.8212664724980372 -0.075711153652328875  3.8132870220142649 -0.15142239321119177  3.797324132596259 -0.22617169647128321  3.7730898557638284 -0.29900126248321612  3.7399211894662585 -0.368844892245761  3.6970553465289413 -0.43446733897599188  3.6433114480369113 -0.49431292552026207  3.5782445954572153 -0.54644344586286286  3.5029597774965011 -0.5890309702162736 
 0.48669495507477351 10 1.5707963267948966 8 2.6548976985150197 10
1 0 0.58903097021627393 1 0 
1 0 -0.58903097021627393 1 0 
7 0 0  10 11 2  4.9829387433632641 -0.5890309702162746  4.9612863872468242 -0.472188468294512  4.9475974667778004 -0.35456638846380883  4.9387804988612274 -0.23656275366101909  4.9339037004495125 -0.11832927331488463  4.9322832836289976 1.4551915228366852e-11  4.9339037003913049 0.11832927331124665  4.9387804988030197 0.23656275367193302  4.9475974667868954 0.35456638846221722  4.9612863872468242 0.47218846829451178  4.9829387433632641 0.58903097021627326 
 0.96453035787956676 11 2.1770622957102264 11
1 0 -1.5707963267948966 1 0 
1 0 1.5707963267948966 1 0 
7 0 0  10 47 6  1.5707963267948961 0.46360902763746298  1.4922640852670468 0.46360902755893074  1.4137318074735958 0.44990222328988239  1.3392373109891196 0.42249236394309264  1.2728047962591518 0.38241707094857702  1.2173597604851238 0.33185005182167515  1.1730646348732989 0.27327491828327766  1.1400871924415696 0.20880023396057368  1.1181525299216446 0.14048573462605418  1.1071872991260194 0.070242726473586037  1.1071872991809948 -0.052682045246471222  1.1133557903971483 -0.1053638693593143  1.1256903589193681 -0.15723445116761345  1.1442285325411075 -0.20747766444409307  1.1690214331501918 -0.25526360964770201  1.2001213534115174 -0.29971581379137818  1.2374840492598094 -0.33990192983442624  1.2807867743210342 -0.37487377564950475  1.3292633169578283 -0.40376076148837825  1.4211281989011815 -0.44250261543702213  1.4627591632966241 -0.45530990905871704  1.5061613337936597 -0.46403996801165237  1.5507293941574669 -0.46847493772676596  1.5957365223010935 -0.46848510002776794  1.6403990983616796 -0.46405517253551809  1.6839638845370195 -0.45529073216208849  1.7257813642181243 -0.44239948754862396  1.7653401360261338 -0.42565791110625806  1.857610962047342 -0.37498695115183023  1.9070104572299051 -0.3366490794630731  1.9491302503653061 -0.29146595879044523  1.9832839322465587 -0.24076452040399091  2.0093934148280823 -0.18590095956074038  2.0275808249149123 -0.1281329861629274  2.0379551380738121 -0.068627616662945451  2.0405699191072593 -0.0085236870727009254  2.0353814501806804 0.051037057263014982  2.0093122820897196 0.16670413810808332  1.9884307744429308 0.22281035799172272  1.9596653403380515 0.27600770661248364  1.9229448078505811 0.32506856094987596  1.8783606630022405 0.36871623958631972  1.8261392716158298 0.40559247641685942  1.7671592152332778 0.43433753597721536  1.7033189086963212 0.45385087914098499  1.6370579056621377 0.46360902757120143  1.5707963267948974 0.46360902763746359 
 0 11 1.5707963267949026 9 2.7488935718910792 9 3.6324665057132011 9 4.9578259064463905 9 6.2831853071795862 11
7 0 0  10 56 7  4.7123889803846906 0.73524465803413019  4.7834209521064652 0.73524465796309824  4.8544528054214364 0.72904584457318133  4.923881268359219 0.71664914633793164  4.9901003609877082 0.69828670083988986  5.05180304289388 0.67443867354631948  5.1083035017101794 0.64572275885439012  5.1594080242512064 0.61277407894285718  5.2051431285606027 0.57618218323897064  5.2457081931409588 0.53648875660008022  5.3437402063544157 0.42012446190262487  5.3910662542439178 0.33804813732783451  5.424702145150877 0.25052682944099514  5.4466153403511273 0.1595904851846342  5.4580257608904503 0.066703859741323868  5.4594813575735319 -0.026878050618819316  5.4510196588180406 -0.11995412718162193  5.4320546036394664 -0.21127559510879901  5.4012751675009323 -0.29926642870240217  5.3240746609704557 -0.44382769809668804  5.2834879228175851 -0.50275399131260201  5.2347599947825074 -0.5577826182343415  5.1771947721717879 -0.60790747782448307  5.1101385100046173 -0.65188341378234327  5.033434999990277 -0.68838606374629308  4.9473901586898137 -0.71573398746841121  4.8552844232108328 -0.73266173110914679  4.7609750665849386 -0.73872585104896138  4.5983403136165979 -0.73072825462653557  4.5294131428829925 -0.72131904281989345  4.4627646441163957 -0.70602658992320355  4.3998034945630931 -0.68516316489040041  4.3415546916075982 -0.65924525731225003  4.288485352572752 -0.62887711814837532  4.2406666767981731 -0.59465499661901045  4.1980022425487373 -0.55712729570277197  4.16026419435343 -0.51679090943629369  4.0775904824106473 -0.41002963776486634  4.0384903085697541 -0.34064428440658306  4.0090149824764545 -0.2674214870965545  3.9880892381817228 -0.19156410612897234  3.9749261142343237 -0.11402583021927308  3.9690777330772109 -0.035607994613705306  3.9703845452104174 0.042945624510516686  3.9789811492890799 0.12087823328553346  3.9953428602541181 0.19735832160750552  4.0450236567898514 0.34538961843710181  4.0783414797515434 0.4169415924934583  4.1208688189508393 0.48501585311896633  4.1734779120306484 0.54845134672359563  4.2375619397498667 0.60575304242956918  4.3135189700988121 0.65525710130168591  4.4028983860625885 0.69470603376976214  4.5026235721088597 0.72172935670005245  4.6075058350702616 0.73524465792924698  4.712388980384679 0.73524465803412908 
 0 11 0.78539816339746937 9 2.1598449493430172 9 3.190680038802173 9 3.9638063558965348 9 5.1234958315380599 9 6.2831853071795862 11
Curves 27
7 0 0  8 9 2  1.1102230246251565e-16 1.2325951644078309e-32 -0.90000000000000013  -0.35342917352885217 4.3282590608740615e-17 -0.89999999999999991  -0.70686253884751726 8.6565694563677144e-17 -0.74134549394324734  -0.97720583148485718 1.196731993636086e-16 -0.42432159973060402  -1.0816251561002077 1.3246087852953384e-16 -2.6645352591003733e-15  -0.97720583148485318 1.1967319936360847e-16 0.42432159973060907  -0.70686253884752093 8.6565694563677329e-17 0.74134549394324356  -0.353429173528851 4.3282590608740541e-17 0.90000000000000158  1.1102230246251565e-16 1.2325951644078309e-32 0.90000000000000002 
 -1.5707963267948966 9 1.5707963267948966 9
2 0 0 0 -2.4492935982947064e-16 -1 0 1 -2.4492935982947064e-16 0 0 0 1 0.90000000000000002
2 0.5 0 0 1 0 0 -0 0 1 0 -1 0 0.74833147735478833
2 0 0 -0.40000000000000002 0 0 1 1 0 -0 -0 1 0 0.80622577482985502
2 0.80000000000000004 0 0 -1 0 0 0 0 -1 -0 -1 -0 0.41231056256176596
2 0 0 0.40000000000000002 0 0 1 1 0 -0 -0 1 0 0.80622577482985502
2 -0.69999999999999996 0 0 1 0 0 -0 0 1 0 -1 0 0.56568542494923812
2 0 0 0.5 0 0 1 1 0 -0 -0 1 0 0.74833147735478833
2 0 0 -0.5 0 0 1 1 0 -0 -0 1 0 0.74833147735478833
2 0.20000000000000001 0 0 -1 0 0 0 0 -1 -0 -1 -0 0.87749643873921224
2 0 0.80500000000000005 0 0 1 0 0 -0 1 1 0 -0 0.40246117825201472
1 0.5 -1 0.40000000000000002 0 1 0 
1 0.5 -1 -0.40000000000000002 0 0 1 
1 0.5 -1 -0.40000000000000002 0 1 0 
1 0.80000000000000004 -1 -0.40000000000000002 -1 0 0 
1 0.80000000000000004 -1 -0.40000000000000002 0 1 0 
1 0.80000000000000004 -1 0.40000000000000002 0 0 -1 
1 0.80000000000000004 -1 0.40000000000000002 0 1 0 
1 0.5 -1 0.40000000000000002 1 0 0 
1 -0.69999999999999996 -1 0.5 0 1 0 
1 -0.69999999999999996 -1 -0.5 0 0 1 
1 -0.69999999999999996 -1 -0.5 0 1 0 
1 0.20000000000000001 -1 0.5 0 1 0 
1 -0.69999999999999996 -1 0.5 1 0 0 
1 0.20000000000000001 -1 -0.5 -1 0 0 
1 0.20000000000000001 -1 -0.5 0 1 0 
1 0.20000000000000001 -1 0.5 0 0 -1 
Polygon3D 0
PolygonOnTriangulations 0
Surfaces 13
10 3.1415926535897931 6.2831853071795862 -1.5707963267948966 1.5707963267948966
4 0 0 0 0 0 1 1 0 -0 -0 1 0 0.90000000000000002
10 0 3.1415926535897931 -1.5707963267948966 1.5707963267948966
4 0 0 0 0 0 1 1 0 -0 -0 1 0 0.90000000000000002
10 3.1415926535897931 6.2831853071795862 -1.5707963267948966 1.5707963267948966
4 0 1.25 0 0 0 1 1 0 -0 -0 1 0 0.59999999999999998
1 0.5 -1 -0.40000000000000002 1 0 0 0 0 1 0 -1 0 
1 0.80000000000000004 -1 -0.40000000000000002 0 -0 1 -1 0 0 -0 -1 0 
1 0.80000000000000004 -1 0.40000000000000002 -1 0 0 0 0 -1 -0 -1 -0 
1 0.5 -1 0.40000000000000002 0 0 -1 1 0 0 0 -1 0 
1 -0.69999999999999996 -1 -0.5 1 0 0 0 0 1 0 -1 0 
1 -0.69999999999999996 -1 0.5 0 0 -1 1 0 0 0 -1 0 
1 0.20000000000000001 -1 -0.5 0 -0 1 -1 0 0 -0 -1 0 
1 0.20000000000000001 -1 0.5 -1 0 0 0 0 -1 -0 -1 -0 
1 0.5 -1 -0.40000000000000002 0 -1 0 0.35112344158839176 0 0.93632917756904455 -0.93632917756904455 0 0.35112344158839176 
1 -0.69999999999999996 -1 -0.5 0 -1 0 0.66896473162244974 0 0.74329414624716639 -0.74329414624716639 0 0.66896473162244974 
Triangulations 0

TShapes 82
Ve
1e-05
5.51091059616309e-17 -1.34978380439567e-32 -0.9
0 0

0101101
*
Ed
 1e-07 1 1 1
2  1 1 0 3.14159265358979 6.28318530717959
0

0101100
+82 0 -82 0 *
Ve
1e-05
5.51091059616309e-17 -1.34978380439567e-32 0.9
0 0

0101101
*
Ed
 1e-05 1 1 0
1  1 0 -1.5707963267949 1.5707963267949
2  2 1 0 -1.5707963267949 1.5707963267949
2  3 2 0 -1.5707963267949 1.5707963267949
0

0101000
-80 0 +82 0 *
Ed
 1e-07 1 1 1
2  4 1 0 3.14159265358979 6.28318530717959
0

0101100
-80 0 +80 0 *
Ed
 1e-07 1 1 0
1  2 0 4.71238898038469 7.85398163397448
2  5 1 0 4.71238898038469 7.85398163397448
2  6 2 0 4.71238898038469 7.85398163397448
0

0101000
+82 0 -80 0 *
Wi

0101000
+81 0 -79 0 -78 0 +77 0 *
Ve
2.00001e-07
0.5 -0.632455532033676 0.4
0 0

0101101
*
Ve
2.00001e-07
0.5 -0.632455532033676 -0.4
0 0

0101101
*
Ed
 1e-07 1 1 0
1  3 0 1.00685368543427 2.13473896815553
2  7 1 0 1.00685368543427 2.13473896815553
0

0101000
+75 0 -74 0 *
Ve
2.00001e-07
0.8 -0.0999999999999994 -0.4
0 0

0101101
*
Ed
 1e-07 1 1 0
1  4 0 5.3813530546531 6.15883031263283
2  8 1 0 5.3813530546531 6.15883031263283
0

0101000
+74 0 -72 0 *
Ve
2.00001e-07
0.8 -0.0999999999999994 0.4
0 0

0101101
*
Ed
 1e-07 1 1 0
1  5 0 0.244978663126862 2.89661399046293
2  9 1 0 0.244978663126862 2.89661399046293
0

0101000
+72 0 -70 0 *
Ed
 1e-07 1 1 0
1  6 0 5.3813530546531 6.15883031263283
2  10 1 0 5.3813530546531 6.15883031263283
0

0101000
+75 0 -70 0 *
Wi

0101000
-73 0 -71 0 -69 0 +68 0 *
Ve
2.00001e-07
-0.7 -0.264575131106459 0.5
0 0

0101101
*
Ve
2.00001e-07
-0.7 -0.264575131106459 -0.5
0 0

0101101
*
Ed
 1e-07 1 1 0
1  7 0 0.486694955074774 2.65489769851502
2  11 1 0 0.486694955074774 2.65489769851502
0

0101000
+66 0 -65 0 *
Ve
2.00001e-07
0.2 -0.721110255092798 0.5
0 0

0101101
*
Ed
 1e-07 1 1 0
1  8 0 3.5029597774965 4.98293874336326
2  12 1 0 3.5029597774965 4.98293874336326
0

0101000
+66 0 -63 0 *
Ve
2.00001e-07
0.2 -0.721110255092798 -0.5
0 0

0101101
*
Ed
 1e-07 1 1 0
1  9 0 3.5029597774965 4.98293874336326
2  13 1 0 3.5029597774965 4.98293874336326
0

0101000
+65 0 -61 0 *
Ed
 1e-07 1 1 0
1  10 0 0.964530357879567 2.17706229571023
2  14 1 0 0.964530357879567 2.17706229571023
0

0101000
+61 0 -63 0 *
Wi

0101000
-64 0 +62 0 -60 0 -59 0 *
Fa
0  1e-07 1 0

0111000
+76 0 +67 0 +58 0 *
Ed
 1e-07 1 1 1
2  15 2 0 0 3.14159265358979
0

0101100
+82 0 -82 0 *
Ed
 1e-07 1 1 1
2  16 2 0 0 3.14159265358979
0

0101100
-80 0 +80 0 *
Wi

0101000
+79 0 +56 0 -77 0 -55 0 *
Ve
1e-07
0 0.805 0.402461178252015
0 0

0101101
*
Ed
 1e-07 1 1 0
1  11 0 0 6.28318530717959
2  17 2 0 0 6.28318530717959
2  18 3 0 0 6.28318530717959
0

0101100
+53 0 -53 0 *
Wi

0101000
-52 0 *
Fa
0  1e-07 2 0

0111000
+54 0 +51 0 *
Ve
1e-07
0.5 -0.05 0.4
0 0

0101101
*
Ed
 1e-07 1 1 0
1  12 0 0.367544467966324 0.95
0

0101000
+75 0 -49 0 *
Ve
1e-07
0.5 -0.05 -0.4
0 0

0101101
*
Ed
 1e-07 1 1 0
1  13 0 0 0.8
0

0101000
+47 2 -49 2 *
Ed
 1e-07 1 1 0
1  14 0 0.367544467966324 0.95
0

0101000
+74 0 -47 0 *
Wi

0101000
+73 0 -48 0 +46 1 +45 0 *
Fa
0  1e-07 4 0

0111000
+44 0 *
Ve
1e-07
0.8 -0.05 -0.4
0 0

0101101
*
Ed
 1e-07 1 1 0
1  15 0 0 0.3
0

0101000
+42 2 -47 2 *
Ed
 1e-07 1 1 0
1  16 0 0.900000000000001 0.95
0

0101000
+72 0 -42 0 *
Wi

0101000
+71 0 -45 0 +41 1 +40 0 *
Fa
0  1e-07 5 0

0111000
+39 0 *
Ve
1e-07
0.8 -0.05 0.4
0 0

0101101
*
Ed
 1e-07 1 1 0
1  17 0 0 0.8
0

0101000
+37 2 -42 2 *
Ed
 1e-07 1 1 0
1  18 0 0.900000000000001 0.95
0

0101000
+70 0 -37 0 *
Wi

0101000
+69 0 -40 0 +36 1 +35 0 *
Fa
0  1e-07 6 0

0111000
+34 0 *
Ed
 1e-07 1 1 0
1  19 0 0 0.3
0

0101000
+49 2 -37 2 *
Wi

0101000
-68 0 -35 0 +32 1 +48 0 *
Fa
0  1e-07 7 0

0111000
+31 0 *
Ve
1e-07
-0.7 -0.05 0.5
0 0

0101101
*
Ed
 1e-07 1 1 0
1  20 0 0.735424868893541 0.95
0

0101000
+66 0 -29 0 *
Ve
1e-07
-0.7 -0.05 -0.5
0 0

0101101
*
Ed
 1e-07 1 1 0
1  21 0 0 1
0

0101000
+27 4 -29 4 *
Ed
 1e-07 1 1 0
1  22 0 0.735424868893541 0.95
0

0101000
+65 0 -27 0 *
Wi

0101000
+64 0 -28 0 +26 3 +25 0 *
Fa
0  1e-07 8 0

0111000
+24 0 *
Ve
1e-07
0.2 -0.05 0.5
0 0

0101101
*
Ed
 1e-07 1 1 0
1  23 0 0.278889744907202 0.95
0

0101000
+63 0 -22 0 *
Ed
 1e-07 1 1 0
1  24 0 0 0.9
0

0101000
+29 4 -22 4 *
Wi

0101000
-62 0 -21 0 +20 3 +28 0 *
Fa
0  1e-07 9 0

0111000
+19 0 *
Ve
1e-07
0.2 -0.05 -0.5
0 0

0101101
*
Ed
 1e-07 1 1 0
1  25 0 0 0.9
0

0101000
+17 4 -27 4 *
Ed
 1e-07 1 1 0
1  26 0 0.278889744907202 0.95
0

0101000
+61 0 -17 0 *
Wi

0101000
+60 0 -25 0 +16 3 +15 0 *
Fa
0  1e-07 10 0

0111000
+14 0 *
Ed
 1e-07 1 1 0
1  27 0 0 1
0

0101000
+22 4 -17 4 *
Wi

0101000
+59 0 -15 0 +12 3 +21 0 *
Fa
0  1e-07 11 0

0111000
+11 0 *
Wi

0101000
-52 0 *
Fa
0  1e-07 3 0

0111000
+9 0 *
Wi

0101100
+46 0 +32 0 +36 0 +41 0 *
Fa
0  1e-07 12 0

0111000
-7 0 *
Wi

0101100
+26 0 +20 0 +12 0 +16 0 *
Fa
0  1e-07 13 0

0111000
-5 0 *
Sh

0101100
+57 0 +50 0 +43 0 +38 0 +33 0 +30 0 +23 0 +18 0 +13 0 +10 0 
-8 0 +6 1 +4 3 *
So

0100000
+3 0 *
Co

1100000
+2 0 *

+1 0 
##EGADS HEADER FILE-REV 1 ##
0
  1  1  13  16  31  19  3
1 5 1
_body
19
1 5 1
_brch
19
2 8 3
_tParams
 7.998933076897e-02  3.199573230759e-03  1.500000000000e+01 
    2 0 4
1 5 2
_body
1 0 
1 5 2
_brch
1 0 
1 5 4
_hist
1 9 17 19 
1 7 3
_faceID
1 0 2 
    2 1 4
1 5 2
_body
1 0 
1 5 2
_brch
1 0 
1 5 4
_hist
1 9 17 19 
1 7 3
_faceID
1 0 1 
    2 2 4
1 5 2
_body
16 3 
1 5 2
_brch
16 3 
1 5 3
_hist
16 17 19 
1 7 3
_faceID
16 3 1 
    2 3 4
1 5 2
_body
16 6 
1 5 2
_brch
16 6 
1 5 3
_hist
16 17 19 
1 7 3
_faceID
16 6 1 
    2 4 4
1 5 2
_body
16 5 
1 5 2
_brch
16 5 
1 5 3
_hist
16 17 19 
1 7 3
_faceID
16 5 1 
    2 5 4
1 5 2
_body
16 4 
1 5 2
_brch
16 4 
1 5 3
_hist
16 17 19 
1 7 3
_faceID
16 4 1 
    2 6 4
1 5 2
_body
8 3 
1 5 2
_brch
8 3 
1 5 4
_hist
8 9 17 19 
1 7 3
_faceID
8 3 1 
    2 7 4
1 5 2
_body
8 4 
1 5 2
_brch
8 4 
1 5 4
_hist
8 9 17 19 
1 7 3
_faceID
8 4 1 
    2 8 4
1 5 2
_body
8 6 
1 5 2
_brch
8 6 
1 5 4
_hist
8 9 17 19 
1 7 3
_faceID
8 6 1 
    2 9 4
1 5 2
_body
8 5 
1 5 2
_brch
8 5 
1 5 4
_hist
8 9 17 19 
1 7 3
_faceID
8 5 1 
    2 10 4
1 5 2
_body
18 0 
1 5 2
_brch
18 0 
1 5 2
_hist
18 19 
1 7 3
_faceID
18 0 1 
    2 11 4
1 5 2
_body
16 2 
1 5 2
_brch
16 2 
1 5 4
_hist
15 16 17 19 
1 7 3
_faceID
16 2 1 
    2 12 4
1 5 2
_body
8 2 
1 5 2
_brch
8 2 
1 5 5
_hist
7 8 9 17 19 
1 7 3
_faceID
8 2 1 
    4 0 3
1 5 2
_body
1 -3 
1 6 1
_nface
1
1 7 5
_edgeID
0 0 1 0 1 
    4 1 3
1 5 2
_body
1 0 
1 6 1
_nface
2
1 7 5
_edgeID
1 0 1 0 1 
    4 2 3
1 5 2
_body
1 -3 
1 6 1
_nface
1
1 7 5
_edgeID
0 0 1 0 3 
    4 3 3
1 5 2
_body
1 0 
1 6 1
_nface
2
1 7 5
_edgeID
1 0 1 0 2 
    4 4 3
1 5 2
_body
17 0 
1 6 1
_nface
2
1 7 5
_edgeID
1 0 16 3 1 
    4 5 3
1 5 2
_body
17 0 
1 6 1
_nface
2
1 7 5
_edgeID
1 0 16 6 1 
    4 6 3
1 5 2
_body
17 0 
1 6 1
_nface
2
1 7 5
_edgeID
1 0 16 5 1 
    4 7 3
1 5 2
_body
17 0 
1 6 1
_nface
2
1 7 5
_edgeID
1 0 16 4 1 
    4 8 3
1 5 2
_body
9 0 
1 6 1
_nface
2
1 7 5
_edgeID
1 0 8 3 1 
    4 9 3
1 5 2
_body
9 0 
1 6 1
_nface
2
1 7 5
_edgeID
1 0 8 4 1 
    4 10 3
1 5 2
_body
9 0 
1 6 1
_nface
2
1 7 5
_edgeID
1 0 8 6 1 
    4 11 3
1 5 2
_body
9 0 
1 6 1
_nface
2
1 7 5
_edgeID
1 0 8 5 1 
    4 12 3
1 5 2
_body
1 -3 
1 6 1
_nface
1
1 7 5
_edgeID
0 0 1 0 2 
    4 13 3
1 5 2
_body
1 -3 
1 6 1
_nface
1
1 7 5
_edgeID
0 0 1 0 4 
    4 14 3
1 5 2
_body
19 0 
1 7 5
_edgeID
1 0 18 0 1 
1 6 1
_nface
2
    4 15 3
1 5 2
_body
16 304 
1 6 1
_nface
2
1 7 5
_edgeID
16 3 16 4 1 
    4 16 3
1 5 2
_body
16 203 
1 6 1
_nface
2
1 7 5
_edgeID
16 2 16 3 1 
    4 17 3
1 5 2
_body
16 306 
1 6 1
_nface
2
1 7 5
_edgeID
16 3 16 6 1 
    4 18 3
1 5 2
_body
16 206 
1 6 1
_nface
2
1 7 5
_edgeID
16 2 16 6 1 
    4 19 3
1 5 2
_body
16 506 
1 6 1
_nface
2
1 7 5
_edgeID
16 5 16 6 1 
    4 20 3
1 5 2
_body
16 205 
1 6 1
_nface
2
1 7 5
_edgeID
16 2 16 5 1 
    4 21 3
1 5 2
_body
16 405 
1 6 1
_nface
2
1 7 5
_edgeID
16 4 16 5 1 
    4 22 3
1 5 2
_body
16 204 
1 6 1
_nface
2
1 7 5
_edgeID
16 2 16 4 1 
    4 23 3
1 5 2
_body
8 304 
1 6 1
_nface
2
1 7 5
_edgeID
8 3 8 4 1 
    4 24 3
1 5 2
_body
8 203 
1 6 1
_nface
2
1 7 5
_edgeID
8 2 8 3 1 
    4 25 3
1 5 2
_body
8 306 
1 6 1
_nface
2
1 7 5
_edgeID
8 3 8 6 1 
    4 26 3
1 5 2
_body
8 405 
1 6 1
_nface
2
1 7 5
_edgeID
8 4 8 5 1 
    4 27 3
1 5 2
_body
8 204 
1 6 1
_nface
2
1 7 5
_edgeID
8 2 8 4 1 
    4 28 3
1 5 2
_body
8 206 
1 6 1
_nface
2
1 7 5
_edgeID
8 2 8 6 1 
    4 29 3
1 5 2
_body
8 506 
1 6 1
_nface
2
1 7 5
_edgeID
8 5 8 6 1 
    4 30 3
1 5 2
_body
8 205 
1 6 1
_nface
2
1 7 5
_edgeID
8 2 8 5 1 
    5 0 2
1 7 1
_nodeID
1
1 6 1
_nedge
4
    5 1 2
1 7 1
_nodeID
2
1 6 1
_nedge
4
    5 2 2
1 7 1
_nodeID
3
1 6 1
_nedge
3
    5 3 2
1 7 1
_nodeID
4
1 6 1
_nedge
3
    5 4 2
1 7 1
_nodeID
5
1 6 1
_nedge
3
    5 5 2
1 7 1
_nodeID
6
1 6 1
_nedge
3
    5 6 2
1 7 1
_nodeID
7
1 6 1
_nedge
3
    5 7 2
1 7 1
_nodeID
8
1 6 1
_nedge
3
    5 8 2
1 7 1
_nodeID
9
1 6 1
_nedge
3
    5 9 2
1 7 1
_nodeID
10
1 6 1
_nedge
3
    5 10 2
1 7 1
_nodeID
11
1 6 1
_nedge
1
    5 11 2
1 7 1
_nodeID
12
1 6 1
_nedge
3
    5 12 2
1 7 1
_nodeID
13
1 6 1
_nedge
3
    5 13 2
1 7 1
_nodeID
14
1 6 1
_nedge
3
    5 14 2
1 7 1
_nodeID
15
1 6 1
_nedge
3
    5 15 2
1 7 1
_nodeID
16
1 6 1
_nedge
3
    5 16 2
1 7 1
_nodeID
17
1 6 1
_nedge
3
    5 17 2
1 7 1
_nodeID
18
1 6 1
_nedge
3
    5 18 2
1 7 1
_nodeID
19
1 6 1
_nedge
3
    0 0 0
