DBRep_DrawableShape

CASCADE Topology V1, (c) Matra-Datavision
Locations 2
1
              1               0               0               0 
              0               1               0           -0.95 
              0               0               1               0 
2  1 -1 0
Curve2ds 13
1 6.2831853071795862 -6.2831853071795862 0 1 
1 0 -6.2831853071795862 0 1 
1 0 -1.5707963267948966 1 0 
1 3.1415926535897931 0 0 1 
1 3.1415926535897931 0 0 1 
1 0 1.5707963267948966 1 0 
7 0 0  10 65 8  4.7123889803846888 -0.83194731036747172  4.7986035163580238 -0.83194731028125735  4.8848170651685816 -0.82442338373342461  4.9685189672878547 -0.80937818305260412  5.0471632338245396 -0.78718310942858805  5.1189232933975291 -0.75863058076720336  5.1832489057269413 -0.72464984771067975  5.2403480040209613 -0.6861028911455378  5.2905481021570449 -0.64373690947245232  5.3344079680345908 -0.59820169342447849  5.4390249865301392 -0.46576745980865486  5.487785999923199 -0.37345925606599006  5.5216012753846373 -0.27605920662878419  5.5433903754863421 -0.17557189823349403  5.5546647469745949 -0.073340276469409105  5.5560950265615245 0.029511265780973871  5.5477713567899629 0.13191253979448875  5.5289486115794686 0.23275258920593736  5.4979147265835593 0.33056715921575397  5.4178907882122891 0.49271648654131239  5.3753318903618492 0.55930840721157438  5.3234490067698061 0.62209212738525821  5.26107955747284 0.67999069573124871  5.1864826406817883 0.73149707153788768  5.0993050109827891 0.77504839899484068  4.9975415807275567 0.80822453333530575  4.8861194776472985 0.8288247863183642  4.7712718637240812 0.83617031276370446  4.5740585305943666 0.82646779923985925  4.4907512757299211 0.81505942498965067  4.4110001429286054 0.796560509906999  4.3369649116211804 0.77147250967900616  4.2699126954030362 0.7406209229848173  4.2100679324299559 0.70488195182406344  4.1571153803626659 0.66503917344912222  4.1106550805483959 0.62177459275594182  4.0701377959784857 0.57566982862874527  3.9824520272227475 0.45453810724876298  3.9420854847137923 0.37657624992050936  3.9122480233272654 0.29499514646718694  3.8913003463385394 0.21100718146585679  3.8782177966277231 0.12549765343226227  3.8724228236533236 0.039199535216266665  3.8736945764292612 -0.04721614661173703  3.8822182878651477 -0.13308371143495182  3.8985955189705637 -0.21763728054256207  3.9365120856389901 -0.34102380051873121  3.951376013273638 -0.38157865647588662  3.9685954550147025 -0.42143668632954878  3.9883284039799647 -0.46046152865424128  4.010758901713416 -0.49849905794861921  4.0360957790437784 -0.53537350711138354  4.0645671189102117 -0.57088258860455898  4.096404982731352 -0.60479256754209132  4.131814005024788 -0.63683656168720659  4.2100190432059126 -0.69660676848772163  4.2528145454688584 -0.72433301702685138  4.2994292306477373 -0.74960735974884352  4.3498946762269046 -0.77211127883024344  4.4041305508960962 -0.79150752733565033  4.4618429184287383 -0.80745538239225423  4.5224487619851157 -0.81964517427671579  4.585088388749778 -0.82784640358174799  4.6487384047108327 -0.83194731030382107  4.7123889803846977 -0.83194731036747283 
 0 11 0.7853981633974535 9 2.1598449493429968 9 3.190680038802153 9 3.96380635589651 9 5.1234958315380421 9 5.7033405693588062 9 6.2831853071795862 11
7 0 0  10 155 18  1.5707963267948983 -1.4012349829292139  1.456109702029909 -1.4012349828145272  1.3414233550001882 -1.398732824538456  1.2309871836550883 -1.3937294430288603  1.1290513617277611 -1.3863979968882632  1.0383162271755282 -1.3771103022736497  0.95779933688754681 -1.3662475946184713  0.88693947393767303 -1.354092263354687  0.82443508251708408 -1.3408939384626137  0.76922116591906686 -1.3268400990844598  0.6254662330904649 -1.2834884673845308  0.55421327674412169 -1.2522511535680678  0.49919812004372943 -1.2194673400445026  0.45471366099081933 -1.1856649529363494  0.41843966008309508 -1.1511189520242624  0.38794613459322136 -1.1160394106409512  0.36218748234387022 -1.0805394085837179  0.34006432468959247 -1.0447157867838541  0.32091753385054334 -1.0086313313692763  0.27287228775113209 -0.90428035017934716  0.25010273045836928 -0.83548159467079441  0.23240166547637386 -0.76625972751421612  0.21838309008035139 -0.69673678515318893  0.20709166387177902 -0.62700050550301967  0.19792520928076557 -0.55710692189386468  0.19052117758031956 -0.48709072988317531  0.18456608229986227 -0.41698476244742072  0.17988115799610854 -0.34681000379448829  0.17322149195220371 -0.2151398580675114  0.17098159791292503 -0.15365598440046196  0.16952088664926809 -0.092147000309977162  0.16878749652803812 -0.030623353766052696  0.16875575413348542 0.030905628409919301  0.16942252134872815 0.092430989372509959  0.1708067721953791 0.15394359052281265  0.17295140825806687 0.21543353896966416  0.17592916515873444 0.27688932917970555  0.18329442958071698 0.39202756646495823  0.18745935862051044 0.44572141697008449  0.19242959802890844 0.49936828265707939  0.19831268771166227 0.55295629689461134  0.20524410450434516 0.60647159496440717  0.21340906653124803 0.65989619729549909  0.22306193645834066 0.71320622936553713  0.23455063571164589 0.76636981913708513  0.24838719751874297 0.81934068971102358  0.272899598310686 0.89509615193564562  0.28097541674665638 0.91810020565946893  0.28973953062282809 0.94104570303364787  0.29927808175557785 0.96392481245294825  0.30969373672526979 0.98672819350455632  0.3211105848303607 1.0094445019852325  0.33368053982738632 1.0320597645671259  0.3475925209738181 1.0545564828717482  0.36308720273096318 1.0769120988731369  0.39678891781794534 1.1198938446249171  0.41476563398183408 1.1405407462967481  0.434674813757574 1.1610118478026596  0.45683227502584789 1.1812761320680392  0.48164055822881996 1.2012942846166781  0.50959925972529929 1.2210158801464179  0.54134006438376403 1.240374970724428  0.57769365842095155 1.2592824875307849  0.61975458499626657 1.2776134282162952  0.69189136231474857 1.3034236748253476  0.71646350158214789 1.3114944363538021  0.74272368074121697 1.3193799685284537  0.77082207599417729 1.3270588951986155  0.80091893288590632 1.3345066933323124  0.83318247432863868 1.3416952480560214  0.86778306506208336 1.3485923720911503  0.90488103880930348 1.355161451104349  0.94460648273363146 1.3613615775141652  1.0281281015784565 1.3727550464169906  1.0717581672918779 1.3779737970529728  1.1179856091102276 1.3827649674106559  1.166820921989044 1.3870858079108681  1.2182039487316714 1.3908918465134168  1.2719682042869864 1.3941386444364676  1.3278134951298879 1.3967849835902919  1.3853047955756514 1.3987971072994254  1.4439052312298759 1.4001525751674244  1.6176162821135711 1.4021755052550899  1.7342012702592911 1.4010065544116515  1.8486043808516115 1.3972616306637065  1.9561473325884435 1.3910369009536225  2.052752023562789 1.3826552267128136  2.1388014846015722 1.3725389213359449  2.2147411607875256 1.3609846061881399  2.281736406377604 1.3482724558925838  2.3408949233488521 1.3346103948425994  2.4914799204439517 1.2930886358383122  2.5658457686768088 1.2632656148152819  2.6233223656454356 1.2318121733987937  2.6698482051724568 1.1992917808820494  2.7078060295316391 1.1659868066199124  2.7397203758009709 1.132122453476768  2.7666908533719834 1.0978153222677065  2.789860128719738 1.0631684009713354  2.8099201605360795 1.0282473979182272  2.858090609384321 0.93160364699984721  2.8809528379442542 0.86942253614640863  2.89900061523731 0.80683521136143099  2.9135322457586881 0.74395638699097622  2.9254251153834048 0.680866095222882  2.9352500499517191 0.61761672429529424  2.9433720402681502 0.55424216876192534  2.9500910117971615 0.49077231909147229  2.9555979280568794 0.42722725879809315  2.9667058247797131 0.26822060520511681  2.9709758904564056 0.17268700203312973  2.9733447966210784 0.077081544645756589  2.9740135023302479 -0.018556418442725924  2.9730650940277381 -0.11419578103062929  2.9704610317385227 -0.20980479396604701  2.9660261283935965 -0.30534737973878257  2.9594477288049523 -0.40078097962596343  2.9501728532159328 -0.49604467964565346  2.9303316265295245 -0.63850582286938418  2.9227290060493525 -0.68592037840527176  2.9139829744222299 -0.73324779379298322  2.9038813907786483 -0.78046806258582069  2.892167537188572 -0.82755798653912893  2.8784834129600014 -0.87448513550483165  2.8623260724672948 -0.92120376321788344  2.842997721664589 -0.96765107729576516  2.81942822345047 -1.0137304973899706  2.7747557838659787 -1.082019907874374  2.758312000286459 -1.1046447348763029  2.7400667491396939 -1.1271080152254422  2.7197192911490982 -1.1493807739819204  2.696884980294878 -1.1714264072962679  2.6710808794779348 -1.1931975526439602  2.6416886304224407 -1.2146317406998688  2.6078833681126157 -1.2356441171650672  2.5685462864290947 -1.2561137905617907  2.4990377738157625 -1.2857310492927199  2.4741178576036207 -1.2954222626323062  2.447264222234161 -1.3049094995041606  2.418271844950687 -1.314166206365432  2.3869143357135014 -1.3231611923313016  2.3529442756773884 -1.3318578274542232  2.3160979619583832 -1.3402129806001017  2.276110022768087 -1.3481759193205314  2.232744414936052 -1.355687929231109  2.138954312630152 -1.3696799618023183  2.0885303433101621 -1.3761599926512607  2.034421744528164 -1.3820589410707105  1.9765696648963966 -1.3873054850784683  1.9150287901088123 -1.3918236360141236  1.8500701072487875 -1.3955362153890141  1.7822575733062642 -1.3983728048061093  1.7124359400402454 -1.4002808784769036  1.6416164223822256 -1.4012349828583939  1.5707963267949012 -1.4012349829292117 
 0 11 0.19634954084936201 9 0.57677677624500112 9 1.2900778426118222 9 1.9142162756827901 9 2.4603374046198874 9 2.6992653985298669 9 2.9232603928204708 9 3.0282580463941926 9 3.1299745232937353 9 3.3270501972865989 9 3.6965670860232178 9 4.343221641312307 9 5.3132034742459417 9 5.7981943907127604 9 6.0406898489461724 9 6.1619375780628802 9 6.2831853071795871 11
1 0 -1.5707963267948966 1 0 
1 0 1.5707963267948966 1 0 
1 0 -0.64350110879328437 1 0 
7 0 0  10 11 2  1.5707963267948966 0.6435011087932857  1.6414627693290635 0.50216822363014157  1.7038076081644249 0.36083475646046281  1.7650448184576817 0.22048686460675526  1.8272989103861619 0.081632728073600447  1.8938433943549171 -0.054816236923215911  1.9666305012651719 -0.18822139795156545  2.0499924084724626 -0.31675844205346948  2.1474256903529749 -0.43884819146683185  2.2686922154551521 -0.55001819213831749  2.4188584057763771 -0.64350110879328504 
 4.1215162302392701 11 5.701665915644071 11
7 0 0  10 11 2  0.72273424781341433 -0.64350110879328448  0.8729004381346408 -0.55001819213831815  0.99416696329353726 -0.43884819146489917  1.0916002450467204 -0.31675844206984038  1.1749621521448717 -0.18822139793519455  1.2477492601901758 -0.054816236979604582  1.3142937425291166 0.081632728080876404  1.3765478348796023 0.22048686459220335  1.4377850454711734 0.36083475646296392  1.5001298842607291 0.50216822363014058  1.5707963267948961 0.6435011087932847 
 3.7231120451253079 11 5.3032617305301084 11
Curves 12
2 0 0 0 -2.4492935982947064e-16 -1 0 1 -2.4492935982947064e-16 0 0 0 1 1
7 0 0  8 9 2  -1.1102230246251565e-16 -2.4651903288156619e-32 -1  -0.39269908169872153 4.8091767343044917e-17 -0.99999999999999967  -0.78540282094169278 9.6184105070752964e-17 -0.82371721549249899  -1.085784257205388 1.3297022151511942e-16 -0.47146844414511035  -1.201805729000238 1.4717875392170564e-16 -9.8809849191638837e-15  -1.0857842572053866 1.3297022151511954e-16 0.47146844414512662  -0.78540282094169511 9.6184105070752853e-17 0.82371721549249011  -0.3926990816987207 4.8091767343044966e-17 1.0000000000000024  -1.1102230246251565e-16 -2.4651903288156619e-32 1 
 -1.5707963267948966 9 1.5707963267948966 9
2 0 -0.67343750000000002 0 0 -1 0 0 -0 -1 1 0 0 0.7392441637197753
2 0 0 -0.59999999999999998 0 0 1 1 0 -0 -0 1 0 0.80000000000000004
2 -0.24000000000000005 0 0.12000000000000002 -0.89442719099991597 0 0.44721359549995798 -0.44721359549995798 0 -0.89442719099991597 -0 -1 0 0.96332756630338356
2 0.24000000000000005 0 0.12000000000000002 0.89442719099991597 0 0.44721359549995798 -0.44721359549995798 0 0.89442719099991597 0 -1 0 0.96332756630338356
1 -0.59999999999999998 1 -0.59999999999999998 0 -1 0 
1 0.59999999999999998 1 -0.59999999999999998 -1 0 0 
1 0.59999999999999998 1 -0.59999999999999998 0 -1 0 
1 0 1 0.59999999999999998 0 -1 0 
1 -0.59999999999999998 1 -0.59999999999999998 0.44721359549995793 0 0.89442719099991586 
1 0 1 0.59999999999999998 0.44721359549995793 0 -0.89442719099991586 
Polygon3D 0
PolygonOnTriangulations 0
Surfaces 7
10 3.1415926535897931 6.2831853071795862 -1.5707963267948966 1.5707963267948966
4 0 0 0 0 0 1 1 0 -0 -0 1 0 1
10 0 3.1415926535897931 -1.5707963267948966 1.5707963267948966
4 0 0 0 0 0 1 1 0 -0 -0 1 0 1
10 0 3.1415926535897931 -1.5707963267948966 1.5707963267948966
4 0 -0.80000000000000004 0 0 0 1 1 0 -0 -0 1 0 0.75
1 0.59999999999999998 1 -0.59999999999999998 -0 -0 -1 -1 0 0 0 1 -0 
1 -0.59999999999999998 1 -0.59999999999999998 -0.89442719099991597 0 0.44721359549995798 0.44721359549995798 0 0.89442719099991597 0 1 -0 
1 0 1 0.59999999999999998 0.89442719099991597 0 0.44721359549995798 0.44721359549995798 0 -0.89442719099991597 -0 1 0 
1 -0.59999999999999998 1 -0.59999999999999998 0 1 0 0.44721359549995798 -0 0.89442719099991597 0.89442719099991597 0 -0.44721359549995798 
Triangulations 0

TShapes 44
Ve
1e-05
6.12323399573677e-17 -1.49975978266186e-32 -1
0 0

0101101
*
Ve
1e-05
6.12323399573677e-17 -1.49975978266186e-32 1
0 0

0101101
*
Ed
 1e-07 1 1 0
1  1 0 4.71238898038469 7.85398163397448
2  1 1 0 4.71238898038469 7.85398163397448
2  2 2 0 4.71238898038469 7.85398163397448
0

0101000
+44 0 -43 0 *
Ed
 1e-07 1 1 1
2  3 1 0 3.14159265358979 6.28318530717959
0

0101100
+44 0 -44 0 *
Ed
 1e-05 1 1 0
1  2 0 -1.5707963267949 1.5707963267949
2  4 1 0 -1.5707963267949 1.5707963267949
2  5 2 0 -1.5707963267949 1.5707963267949
0

0101000
-43 0 +44 0 *
Ed
 1e-07 1 1 1
2  6 1 0 3.14159265358979 6.28318530717959
0

0101100
-43 0 +43 0 *
Wi

0101000
+42 0 +41 0 -40 0 -39 0 *
Ve
1.01765562499113e-07
0 -0.6734375 -0.739244163719775
0 0

0101101
*
Ed
 1.01765562499113e-07 1 1 0
1  3 0 0 6.28318530717959
2  7 1 0 0 6.28318530717959
2  8 3 0 0 6.28318530717959
0

0101100
+37 0 -37 0 *
Wi

0101000
-36 0 *
Fa
0  1e-07 1 0

0111000
+38 0 +35 0 *
Ed
 1e-07 1 1 1
2  9 2 0 0 3.14159265358979
0

0101100
+44 0 -44 0 *
Ed
 1e-07 1 1 1
2  10 2 0 0 3.14159265358979
0

0101100
-43 0 +43 0 *
Wi

0101000
+40 0 +33 0 -42 0 -32 0 *
Ve
2.00001e-07
0.6 0.529150262212918 -0.6
0 0

0101101
*
Ve
2.00001e-07
-0.6 0.529150262212918 -0.6
0 0

0101101
*
Ed
 1e-07 1 1 0
1  4 0 0.722734247813416 2.41885840577638
2  11 2 0 0.722734247813416 2.41885840577638
0

0101000
+30 0 -29 0 *
Ve
2.00001e-07
0 0.8 0.6
0 0

0101101
*
Ed
 1e-07 1 1 0
1  5 0 4.12151623023927 5.70166591564407
2  12 2 0 4.12151623023927 5.70166591564407
0

0101000
+27 0 -29 0 *
Ed
 1e-07 1 1 0
1  6 0 3.72311204512531 5.30326173053011
2  13 2 0 3.72311204512531 5.30326173053011
0

0101000
+30 0 -27 0 *
Wi

0101000
-28 0 +26 0 +25 0 *
Fa
0  1e-07 2 0

0111000
+31 0 +24 0 *
Wi

0101000
-36 0 *
Fa
0  1e-07 3 0

0111000
+22 0 *
Ve
1e-07
-0.6 0.05 -0.6
0 0

0101101
*
Ed
 1e-07 1 1 0
1  7 0 0.470849737787082 0.95
0

0101000
+29 0 -20 0 *
Ve
1e-07
0.6 0.05 -0.6
0 0

0101101
*
Ed
 1e-07 1 1 0
1  8 0 0 1.2
0

0101000
+18 2 -20 2 *
Ed
 1e-07 1 1 0
1  9 0 0.470849737787082 0.95
0

0101000
+30 0 -18 0 *
Wi

0101000
-28 0 -19 0 +17 1 +16 0 *
Fa
0  1e-07 4 0

0111000
+15 0 *
Ve
1e-07
0 0.05 0.6
0 0

0101101
*
Ed
 1e-07 1 1 0
1  10 0 0.2 0.95
0

0101000
+27 0 -13 0 *
Ed
 1e-07 1 1 0
1  11 0 0 1.34164078649987
0

0101000
+20 2 -13 2 *
Wi

0101000
+26 0 -12 0 +11 1 +19 0 *
Fa
0  1e-07 5 0

0111000
+10 0 *
Ed
 1e-07 1 1 0
1  12 0 0 1.34164078649987
0

0101000
+13 2 -18 2 *
Wi

0101000
+25 0 -16 0 +8 1 +12 0 *
Fa
0  1e-07 6 0

0111000
+7 0 *
Wi

0101100
+11 0 +8 0 +17 0 *
Fa
0  1e-07 7 0

0111000
+5 0 *
Sh

0101100
+34 0 +23 0 -21 0 -14 0 -9 0 -6 0 +4 1 *
So

0100000
+3 0 *
Co

1100000
+2 0 *

+1 0 
##EGADS HEADER FILE-REV 1 ##
0
  1  1  7  9  16  9  3
1 5 1
_body
10
1 5 1
_brch
10
2 8 3
_tParams
 8.828935953224e-02  3.531574381290e-03  1.500000000000e+01 
    2 0 4
1 5 2
_body
1 0 
1 5 2
_brch
1 0 
1 5 3
_hist
1 3 10 
1 7 3
_faceID
1 0 1 
    2 1 4
1 5 2
_body
1 0 
1 5 2
_brch
1 0 
1 5 3
_hist
1 3 10 
1 7 3
_faceID
1 0 2 
    2 2 4
1 5 2
_body
2 0 
1 5 2
_brch
2 0 
1 5 3
_hist
2 3 10 
1 7 3
_faceID
2 0 1 
    2 3 6
1 5 2
_body
9 5 
1 7 5
_edgeID
0 0 8 0 2 
1 6 1
_nface
1
1 5 2
_brch
9 5 
1 5 2
_hist
9 10 
1 7 3
_faceID
9 5 1 
    2 4 6
1 5 2
_body
9 3 
1 7 5
_edgeID
0 0 8 0 1 
1 6 1
_nface
1
1 5 2
_brch
9 3 
1 5 2
_hist
9 10 
1 7 3
_faceID
9 3 1 
    2 5 6
1 5 2
_body
9 4 
1 7 5
_edgeID
0 0 8 0 3 
1 6 1
_nface
1
1 5 2
_brch
9 4 
1 5 2
_hist
9 10 
1 7 3
_faceID
9 4 1 
    2 6 4
1 5 2
_body
9 2 
1 5 2
_brch
9 2 
1 5 2
_hist
9 10 
1 7 3
_faceID
9 2 1 
    4 0 3
1 5 2
_body
1 0 
1 6 1
_nface
2
1 7 5
_edgeID
1 0 1 0 1 
    4 1 3
1 5 2
_body
1 -3 
1 6 1
_nface
1
1 7 5
_edgeID
0 0 1 0 1 
    4 2 3
1 5 2
_body
1 0 
1 6 1
_nface
2
1 7 5
_edgeID
1 0 1 0 2 
    4 3 3
1 5 2
_body
1 -3 
1 6 1
_nface
1
1 7 5
_edgeID
0 0 1 0 2 
    4 4 3
1 5 2
_body
3 0 
1 6 1
_nface
2
1 7 5
_edgeID
1 0 2 0 1 
    4 5 3
1 5 2
_body
1 -3 
1 6 1
_nface
1
1 7 5
_edgeID
0 0 1 0 3 
    4 6 3
1 5 2
_body
1 -3 
1 6 1
_nface
1
1 7 5
_edgeID
0 0 1 0 4 
    4 7 3
1 5 2
_body
10 0 
1 7 5
_edgeID
1 0 9 5 1 
1 6 1
_nface
2
    4 8 3
1 5 2
_body
10 0 
1 7 5
_edgeID
1 0 9 3 1 
1 6 1
_nface
2
    4 9 3
1 5 2
_body
10 0 
1 7 5
_edgeID
1 0 9 4 1 
1 6 1
_nface
2
    4 10 3
1 5 2
_body
9 305 
1 7 5
_edgeID
9 3 9 5 1 
1 6 1
_nface
2
    4 11 3
1 5 2
_body
9 205 
1 6 1
_nface
2
1 7 5
_edgeID
9 2 9 5 1 
    4 12 3
1 5 2
_body
9 405 
1 7 5
_edgeID
9 4 9 5 1 
1 6 1
_nface
2
    4 13 3
1 5 2
_body
9 304 
1 7 5
_edgeID
9 3 9 4 1 
1 6 1
_nface
2
    4 14 3
1 5 2
_body
9 203 
1 6 1
_nface
2
1 7 5
_edgeID
9 2 9 3 1 
    4 15 3
1 5 2
_body
9 204 
1 6 1
_nface
2
1 7 5
_edgeID
9 2 9 4 1 
    5 0 2
1 7 1
_nodeID
1
1 6 1
_nedge
4
    5 1 2
1 7 1
_nodeID
2
1 6 1
_nedge
4
    5 2 2
1 7 1
_nodeID
3
1 6 1
_nedge
1
    5 3 2
1 7 1
_nodeID
4
1 6 1
_nedge
3
    5 4 2
1 7 1
_nodeID
5
1 6 1
_nedge
3
    5 5 2
1 7 1
_nodeID
6
1 6 1
_nedge
3
    5 6 2
1 7 1
_nodeID
7
1 6 1
_nedge
3
    5 7 2
1 7 1
_nodeID
8
1 6 1
_nedge
3
    5 8 2
1 7 1
_nodeID
9
1 6 1
_nedge
3
    0 0 0
