DBRep_DrawableShape

CASCADE Topology V1, (c) Matra-Datavision
Locations 0
Curve2ds 12
1 6.2831853071795862 -6.2831853071795862 0 1 
1 0 -6.2831853071795862 0 1 
1 0 -1.5707963267948966 1 0 
1 3.1415926535897931 0 0 1 
1 3.1415926535897931 0 0 1 
1 0 1.5707963267948966 1 0 
7 0 0  10 56 7  4.7123889803846852 -0.7151422072910204  4.7806015700563993 -0.71514220722280808  4.8488140951654666 -0.70918945317381032  4.9155609144063419 -0.69728467591783105  4.9793754537007775 -0.67963894091080879  5.0390436949601281 -0.65668671079038177  5.093884948123014 -0.62899468456635077  5.1436611921895743 -0.59715578598973029  5.188353912351924 -0.56172856370397428  5.2281086856536856 -0.52323157185324287  5.3244249341921215 -0.41020230934222368  5.3712298522397681 -0.33029820914767544  5.4046654731790111 -0.2449151916300604  5.4265026086941361 -0.15606876107712536  5.4378880996155203 -0.065240006822591567  5.4393414452555593 0.026295862620924027  5.430890786661621 0.11731721527382569  5.4119852722490362 0.20655270884456362  5.3814082660210634 0.29241580654479538  5.3051280631311011 0.43323217232444944  5.2651175177452387 0.49054659506055032  5.2172240176296327 0.54396953376635793  5.1608467719051987 0.59251744030916598  5.0954770469106734 0.63499851613596547  5.0210453756153584 0.67014544212725013  4.9380742402863689 0.69641168646194274  4.8495744134343113 0.71266014295360947  4.7590580791659063 0.71848552132911292  4.6028546933988581 0.71080477604231007  4.5366174432917656 0.70176747229927938  4.4724647045841266 0.68707388842299222  4.4116898715874413 0.6670078631061187  4.355261367316416 0.64203902556710091  4.3036613829957791 0.61272526078246303  4.2570095162573125 0.57962653632430372  4.2152554769777479 0.5432644912997262  4.1782218615320748 0.50411695813564861  4.0968990522762541 0.40035419225839614  4.058240238418013 0.33279169790648055  4.0289815048150377 0.26137242652011938  4.008157219360692 0.18728883149354086  3.9950401094012911 0.11149967424309655  3.9892092055062678 0.034816997455952028  3.9905154297251357 -0.042003230976998637  3.9990878850593488 -0.11819185284157266  4.0153680587691056 -0.19290734214378708  4.0646385572849697 -0.33737082489263603  4.0976279779933975 -0.40711950730837998  4.1396318379265722 -0.4733729183608375  4.191445671429392 -0.53497958253137767  4.2542419148376212 -0.59048256320238579  4.3283852115273476 -0.63827378212590702  4.4149458033498377 -0.67621171715290984  4.5109491527691716 -0.70216345731387264  4.611668828861454 -0.71514220719030031  4.7123889803846852 -0.7151422072910194 
 0 11 0.78539816339745072 9 2.1598449493429981 9 3.1906800388021552 9 3.96380635589651 9 5.123495831538051 9 6.2831853071795862 11
7 0 0  10 101 12  1.5707963267948968 -1.2132252231493863  1.4656932536155776 -1.2132252230442833  1.3605901108130638 -1.2086391417351479  1.2589386134786764 -1.1994680126736057  1.1641756382450694 -1.1859905974561116  1.0786878422659356 -1.1687913687201217  1.0022152346500661 -1.148524783027824  0.93435105992102763 -1.1257041484277579  0.87417786320293089 -1.1007878501714004  0.82082080953917491 -1.0741339764078321  0.6845762947234012 -0.99335132033255369  0.61670288511322724 -0.93558845348707109  0.56423400147832581 -0.87467536755139008  0.52224253232998308 -0.81166609805950429  0.48846347778453492 -0.74711691441189032  0.46077637833514018 -0.6814617538911989  0.43810096833476564 -0.614948445589107  0.41945757766916358 -0.5477872582641794  0.40422544701975049 -0.48012350962649825  0.37041816494553687 -0.29299194089483133  0.35790525347420044 -0.17273185135081803  0.35189001225990069 -0.051923834587796591  0.35155359662167029 0.069090965116629377  0.35665143575170077 0.1900359169812873  0.36760073868208565 0.31057521277398337  0.38534388611515169 0.43044217460737855  0.41206376766012909 0.5490054819042598  0.45120622162621954 0.66562340466575831  0.53694595937417344 0.81994262000354823  0.56359335902052599 0.86141332534562864  0.59407740306448575 0.90213605596074165  0.62909768673133226 0.94195336609451874  0.66957671973073563 0.98064236497238111  0.71664119286013672 1.0179187805069432  0.77171873730982066 1.0534056411569481  0.83665310038613883 1.0865568787151207  0.91341323013679221 1.1165955237419964  1.041682936376334 1.1539705389226387  1.083108609297208 1.1645726244605945  1.1269765916872159 1.1743245370021658  1.1732929449635017 1.1831440657117889  1.2220000075885764 1.1909459482492619  1.2729467838562112 1.1976450969631514  1.3258659869360832 1.2031622891289573  1.3803720554093599 1.2074316925799609  1.4359870578634497 1.2104078261584588  1.5975820034253327 1.2151802006256502  1.70505158135893 1.2136653647112325  1.811179733966128 1.2073733398428885  1.9121011100651231 1.1964302579726791  2.0042274529696442 1.1813180230674334  2.0870584940712433 1.1627530912519433  2.1608430412161397 1.1412882842560066  2.2263179330220737 1.1174439309888839  2.2843764435535632 1.0916270016784135  2.4260617010667236 1.0161296653904506  2.4962071900554292 0.96307324728786625  2.5510657417762559 0.90679989204363665  2.5953158488264307 0.84836710304080043  2.6312599497614428 0.78833304574072827  2.6609502042992972 0.72713753169227857  2.685536733653862 0.66503498631209368  2.7060020535282092 0.60223907095223694  2.723005397264993 0.53889792833529637  2.7581188062678064 0.37948006025266934  2.7725307545298854 0.28287096872936407  2.7819739970061486 0.18570108404954463  2.7872443322336644 0.088206433973867127  2.7887457846550712 -0.0094371680863534705  2.7865989522309365 -0.10706856141100332  2.7806449307831231 -0.20452494022664008  2.7704366224896453 -0.30162588212988034  2.7551139955311252 -0.39812633702279221  2.7217399344371946 -0.54134400597984211  2.7088837376592765 -0.58882764757141681  2.6940677290116684 -0.6360027506370739  2.6770088176907842 -0.68280473932695718  2.6573379828997634 -0.72915333346559741  2.6345862654098409 -0.7749458728665406  2.6081479239794483 -0.82004809079950913  2.5772095670976518 -0.86427871944567314  2.5406628490016079 -0.90738065378184118  2.4752392216003933 -0.96976128901848901  2.4516641571167783 -0.99017612795215615  2.426139776138609 -1.0101639838404997  2.3984621716411008 -1.0296686077592008  2.3684060045024027 -1.0486239753266393  2.3357248416496081 -1.0669525942693932  2.3001558968669173 -1.0845632618617642  2.2614346427078056 -1.1013487412784744  2.219325818762353 -1.1171849560634128  2.1280310179182016 -1.1466839080986584  2.0788455671989459 -1.160346662622157  2.0259671162118504 -1.1727851537512968  1.9693375837333711 -1.1838487062639163  1.9090124210114383 -1.1933768013418051  1.8452635053477633 -1.2012064123560777  1.7786559452900064 -1.207188791402356  1.7100359547273427 -1.2112129841095851  1.6404164287245464 -1.2132252230797662  1.570796326794899 -1.2132252231493863 
 0 11 0.39269908169872647 9 1.1290098598838401 9 2.417553721707788 9 2.9007576698917674 9 3.1121593972222579 9 3.5085376359669267 9 4.2021995537700949 9 5.2426924304748468 9 5.7629388688272201 9 6.0230620880034031 9 6.2831853071795871 11
1 0 -1.5707963267948966 1 0 
1 0 1.5707963267948966 1 0 
7 0 0  10 56 7  1.570796326794897 0.7151422072910204  1.5025837371231858 0.71514220722280808  1.434371211936432 0.70918945317381032  1.3676243930285181 0.69728467591783105  1.3038098532575533 0.67963894091080879  1.2441416123365343 0.65668671079038177  1.1893003594283074 0.62899468456635077  1.1395241147431989 0.59715578598973029  1.0948313948813055 0.56172856370397439  1.0550766215259006 0.52323157185324309  0.95876037298746442 0.41020230934222368  0.9119554549188823 0.33029820914767544  0.87851983407849732 0.2449151916300604  0.85668269840170974 0.15606876107712536  0.84529720753380388 0.065240006822591567  0.8438438619596127 -0.026295862620924027  0.85229452041685361 -0.11731721527382569  0.87120003494490295 -0.20655270884456362  0.9017770411585232 -0.29241580654479538  0.97805724404848593 -0.43323217232444944  1.0180677895514236 -0.49054659506055032  1.065961289772531 -0.54396953376635793  1.1223385348857846 -0.59251744030916598  1.1877082643040922 -0.63499851613596547  1.2621399304480292 -0.67014544212725013  1.3451110668393085 -0.69641168646194274  1.433610893875084 -0.71266014295360947  1.5241272280136793 -0.71848552132911292  1.6803306137807295 -0.71080477604231007  1.7465678638818005 -0.70176747229927938  1.8107206025198139 -0.68707388842299222  1.8714954355702502 -0.6670078631061187  1.9279239399074868 -0.64203902556710091  1.9795239242288516 -0.61272526078246303  2.026175790936759 -0.57962653632430372  2.0679298301849038 -0.5432644912997262  2.1049634456475115 -0.50411695813564861  2.1862862549033317 -0.40035419225839614  2.2249450687581644 -0.33279169790648055  2.2542038023652724 -0.26137242652011938  2.2750280878093991 -0.18728883149354086  2.288145197760564 -0.11149967424309655  2.2939761016637932 -0.034816997455952028  2.2926698774550678 0.042003230976998637  2.2840974221166879 0.11819185284157266  2.2678172484104797 0.19290734214378708  2.2185467498946165 0.33737082489263603  2.1855573292577901 0.40711950730837998  2.1435534694173839 0.4733729183608375  2.0917396332952194 0.53497958253137767  2.0289433930884115 0.59048256320238579  1.9548000944196247 0.63827378212590702  1.8682395037030801 0.67621171715290984  1.7722361544219893 0.70216345731387264  1.6715164783181329 0.71514220719030031  1.5707963267948968 0.7151422072910194 
 0 11 0.78539816339744373 9 2.1598449493429719 9 3.1906800388021175 9 3.9638063558964829 9 5.123495831538035 9 6.2831853071795862 11
7 0 0  10 101 12  4.7123889803846897 1.2132252231493863  4.8174920535640089 1.2132252230442833  4.9225951967091532 1.2086391417351479  5.0242466923373286 1.1994680126736057  5.1190096705686301 1.1859905974561116  5.2044974631862715 1.1687913687201217  5.2809700766811147 1.148524783027824  5.3488342456985265 1.1257041484277579  5.4090074444757192 1.1007878501714004  5.4623644976404115 1.0741339764078321  5.5986090124561851 0.99335132033255369  5.6664824225154007 0.93558845348707109  5.7189513044431806 0.87467536755139008  5.7609427780844271 0.81166609805950429  5.7947218283079565 0.74711691441189032  5.8224089326104149 0.6814617538911989  5.8450843374012038 0.614948445589107  5.8637277299130801 0.5477872582641794  5.8789598601598358 0.48012350962649825  5.9127671422340491 0.29299194089483133  5.9252800538670272 0.17273185135081803  5.9312952943728305 0.051923834573244676  5.9316317106131464 -0.069090965116629377  5.9265338719123974 -0.1900359169812873  5.9155845686327666 -0.31057521277398337  5.8978414210141636 -0.43044217462193046  5.871121539552405 -0.54900548190062182  5.8319790855533666 -0.66562340466575842  5.7462393478054139 -0.81994262000354823  5.7195919481571362 -0.86141332534562864  5.6891079041025066 -0.90213605596074165  5.6540876204315271 -0.94195336609451874  5.6136085874342019 -0.98064236497238111  5.5665441143080292 -1.0179187805069432  5.5114665698636447 -1.0534056411569481  5.446532206794779 -1.0865568787151207  5.3697720770427946 -1.1165955237419964  5.2415023708032518 -1.1539705389226387  5.2000766978798882 -1.1645726244605945  5.1562087154855067 -1.1743245370021658  5.1098923622061196 -1.1831440657117889  5.0611852995821724 -1.1909459482492619  5.0102385233189128 -1.1976450969631514  4.9573193202425276 -1.2031622891289573  4.902813251769647 -1.2074316925799609  4.8471982493161354 -1.2104078261584588  4.6856033037542533 -1.2151802006256502  4.5781337260377768 -1.2136653647112325  4.4720055726938881 -1.2073733398428885  4.3710841972497292 -1.1964302579726791  4.278957855887711 -1.1813180230674334  4.1961268130107783 -1.1627530912519433  4.1223422652692534 -1.1412882842560066  4.0568673744564876 -1.1174439309888839  3.9988088636260231 -1.0916270016784135  3.8571236061128626 -1.0161296653904506  3.7869781171721115 -0.96307324728786625  3.7321195653348695 -0.90679989204363665  3.6878694566548802 -0.84836710304080043  3.6519253583392128 -0.78833304574072827  3.6222351014148444 -0.72713753169227857  3.5976485732826404 -0.66503498631209368  3.5771832536775037 -0.60223907095223694  3.5601799099145932 -0.53889792833529637  3.5250665009117794 -0.37948006025266934  3.5106545526486967 -0.28287096872936407  3.5012113101755404 -0.18570108404954463  3.4959409749504027 -0.088206433973867127  3.4944395225280056 0.0094371680863534705  3.4965863549493106 0.10706856141100332  3.5025403763953826 0.20452494022664008  3.5127486846892202 0.30162588212988034  3.5280713116484606 0.39812633702279221  3.561445372742392 0.54134400597984211  3.5743015695191658 0.58882764757120443  3.5891175781622748 0.63600275063755141  3.6061764894863395 0.68280473932733621  3.6258473242802816 0.72915333346529432  3.6485990417664653 0.77494587286594951  3.6750373831941756 0.82004809079913765  3.7059757400814979 0.86427871944546086  3.7425224581779792 0.90738065378184118  3.8079460855791929 0.96976128901848901  3.8315211500575601 0.99017612795215615  3.8570455310462628 1.0101639838404997  3.8847231355378127 1.0296686077592008  3.914779302667335 1.0486239753266393  3.9474604655248791 1.0669525942693932  3.9830294103139217 1.0845632618617642  4.0217506644662491 1.1013487412784744  4.0638594884172337 1.1171849560634128  4.1551542892613842 1.1466839080986584  4.2043397399841655 1.1603466626220151  4.2572181909566806 1.1727851537518275  4.313847723438812 1.1838487062640068  4.3741728861645646 1.1933768013410977  4.4379218018172342 1.2012064123553805  4.5045293618724767 1.2071887914020374  4.5731493524561913 1.2112129841091608  4.6427688784550387 1.2132252230797662  4.7123889803846879 1.2132252231493841 
 0 11 0.39269908169872675 9 1.1290098598838398 9 2.4175537217077894 9 2.9007576698917688 9 3.1121593972222552 9 3.5085376359669227 9 4.2021995537700896 9 5.2426924304748423 9 5.7629388688272165 9 6.0230620880033987 9 6.2831853071795862 11
Curves 4
2 0 0 0 -2.4492935982947064e-16 -1 0 1 -2.4492935982947064e-16 0 0 0 1 1
7 0 0  8 9 2  -1.1102230246251565e-16 -2.4651903288156619e-32 -1  -0.39269908169872153 4.8091767343044917e-17 -0.99999999999999967  -0.78540282094169278 9.6184105070752964e-17 -0.82371721549249899  -1.085784257205388 1.3297022151511942e-16 -0.47146844414511035  -1.201805729000238 1.4717875392170564e-16 -9.8809849191638837e-15  -1.0857842572053866 1.3297022151511954e-16 0.47146844414512662  -0.78540282094169511 9.6184105070752853e-17 0.82371721549249011  -0.3926990816987207 4.8091767343044966e-17 1.0000000000000024  -1.1102230246251565e-16 -2.4651903288156619e-32 1 
 -1.5707963267948966 9 1.5707963267948966 9
2 0 -0.755 0 0 -1 0 0 -0 -1 1 0 0 0.6557247898318318
2 0 0.755 0 0 1 0 0 -0 1 1 0 -0 0.6557247898318318
Polygon3D 0
PolygonOnTriangulations 0
Surfaces 4
10 3.1415926535897931 6.2831853071795862 -1.5707963267948966 1.5707963267948966
4 0 0 0 0 0 1 1 0 -0 -0 1 0 1
10 0 3.1415926535897931 -1.5707963267948966 1.5707963267948966
4 0 0 0 0 0 1 1 0 -0 -0 1 0 1
10 0 3.1415926535897931 -1.5707963267948966 1.5707963267948966
4 0 -1 0 0 0 1 1 0 -0 -0 1 0 0.69999999999999996
10 3.1415926535897931 6.2831853071795862 -1.5707963267948966 1.5707963267948966
4 0 1 0 0 0 1 1 0 -0 -0 1 0 0.69999999999999996
Triangulations 0

TShapes 25
Ve
1e-05
6.12323399573677e-17 -1.49975978266186e-32 -1
0 0

0101101
*
Ve
1e-05
6.12323399573677e-17 -1.49975978266186e-32 1
0 0

0101101
*
Ed
 1e-07 1 1 0
1  1 0 4.71238898038469 7.85398163397448
2  1 1 0 4.71238898038469 7.85398163397448
2  2 2 0 4.71238898038469 7.85398163397448
0

0101000
+25 0 -24 0 *
Ed
 1e-07 1 1 1
2  3 1 0 3.14159265358979 6.28318530717959
0

0101100
+25 0 -25 0 *
Ed
 1e-05 1 1 0
1  2 0 -1.5707963267949 1.5707963267949
2  4 1 0 -1.5707963267949 1.5707963267949
2  5 2 0 -1.5707963267949 1.5707963267949
0

0101000
-24 0 +25 0 *
Ed
 1e-07 1 1 1
2  6 1 0 3.14159265358979 6.28318530717959
0

0101100
-24 0 +24 0 *
Wi

0101000
+23 0 +22 0 -21 0 -20 0 *
Ve
1e-07
0 -0.755 -0.655724789831832
0 0

0101101
*
Ed
 1e-07 1 1 0
1  3 0 0 6.28318530717959
2  7 1 0 0 6.28318530717959
2  8 3 0 0 6.28318530717959
0

0101100
+18 0 -18 0 *
Wi

0101000
-17 0 *
Fa
0  1e-07 1 0

0111000
+19 0 +16 0 *
Ed
 1e-07 1 1 1
2  9 2 0 0 3.14159265358979
0

0101100
+25 0 -25 0 *
Ed
 1e-07 1 1 1
2  10 2 0 0 3.14159265358979
0

0101100
-24 0 +24 0 *
Wi

0101000
+21 0 +14 0 -23 0 -13 0 *
Ve
1e-07
0 0.755 0.655724789831832
0 0

0101101
*
Ed
 1e-07 1 1 0
1  4 0 0 6.28318530717959
2  11 2 0 0 6.28318530717959
2  12 4 0 0 6.28318530717959
0

0101100
+11 0 -11 0 *
Wi

0101000
-10 0 *
Fa
0  1e-07 2 0

0111000
+12 0 +9 0 *
Wi

0101000
-17 0 *
Fa
0  1e-07 3 0

0111000
+7 0 *
Wi

0101000
-10 0 *
Fa
0  1e-07 4 0

0111000
+5 0 *
Sh

0101100
+15 0 +8 0 -6 0 -4 0 *
So

0100000
+3 0 *
Co

1100000
+2 0 *

+1 0 
##EGADS HEADER FILE-REV 1 ##
0
  1  1  4  6  8  4  3
1 5 1
_body
5
1 5 1
_brch
5
2 8 3
_tParams
 8.766876135918e-02  3.506750454367e-03  1.500000000000e+01 
    2 0 4
1 5 2
_body
1 0 
1 5 2
_brch
1 0 
1 5 3
_hist
1 3 5 
1 7 3
_faceID
1 0 1 
    2 1 4
1 5 2
_body
1 0 
1 5 2
_brch
1 0 
1 5 3
_hist
1 3 5 
1 7 3
_faceID
1 0 2 
    2 2 4
1 5 2
_body
2 0 
1 5 2
_brch
2 0 
1 5 3
_hist
2 3 5 
1 7 3
_faceID
2 0 1 
    2 3 4
1 5 2
_body
4 0 
1 5 2
_brch
4 0 
1 5 2
_hist
4 5 
1 7 3
_faceID
4 0 1 
    4 0 3
1 5 2
_body
1 0 
1 6 1
_nface
2
1 7 5
_edgeID
1 0 1 0 1 
    4 1 3
1 5 2
_body
1 -3 
1 6 1
_nface
1
1 7 5
_edgeID
0 0 1 0 1 
    4 2 3
1 5 2
_body
1 0 
1 6 1
_nface
2
1 7 5
_edgeID
1 0 1 0 2 
    4 3 3
1 5 2
_body
1 -3 
1 6 1
_nface
1
1 7 5
_edgeID
0 0 1 0 2 
    4 4 3
1 5 2
_body
3 0 
1 6 1
_nface
2
1 7 5
_edgeID
1 0 2 0 1 
    4 5 3
1 5 2
_body
1 -3 
1 6 1
_nface
1
1 7 5
_edgeID
0 0 1 0 3 
    4 6 3
1 5 2
_body
1 -3 
1 6 1
_nface
1
1 7 5
_edgeID
0 0 1 0 4 
    4 7 3
1 5 2
_body
5 0 
1 7 5
_edgeID
1 0 4 0 1 
1 6 1
_nface
2
    5 0 2
1 7 1
_nodeID
1
1 6 1
_nedge
4
    5 1 2
1 7 1
_nodeID
2
1 6 1
_nedge
4
    5 2 2
1 7 1
_nodeID
3
1 6 1
_nedge
1
    5 3 2
1 7 1
_nodeID
4
1 6 1
_nedge
1
    0 0 0
