DBRep_DrawableShape

CASCADE Topology V1, (c) Matra-Datavision
Locations 2
1
              1               0               0               0 
              0               1               0               1 
              0               0               1               2 
2  1 -1 0
Curve2ds 0
Curves 9
1 0 0 0 0 0.44721359549995793 0.89442719099991586 
1 3 1 0 0 0.44721359549995793 0.89442719099991586 
1 0 0 0 0.94868329805051377 0.31622776601683794 0 
1 0 0 0 0.94868329805051377 0.31622776601683794 0 
1 0 1 0 0 0.44721359549995793 0.89442719099991586 
1 3 1 0 -1 0 0 
1 3 1 0 -1 0 0 
1 0 1 0 0 -1 0 
1 0 1 0 0 -1 0 
Polygon3D 0
PolygonOnTriangulations 0
Surfaces 5
1 0 0 0 -0.2857142857142857 0.8571428571428571 -0.42857142857142855 0.94868329805051388 0.31622776601683794 1.3877787807814457e-17 0.13552618543578768 -0.40657855630736306 -0.90350790290525129 
1 3 1 0 0 -0.89442719099991597 0.44721359549995798 -1 0 0 -0 -0.44721359549995798 -0.89442719099991597 
1 0 1 0 1 0 -0 0 -1 0 0 -0 -1 
1 0 0 0 0 0 1 0.94868329805051388 0.316227766016838 -0 -0.316227766016838 0.94868329805051388 0 
1 0 0 0 0 0 1 0.94868329805051388 0.316227766016838 -0 -0.316227766016838 0.94868329805051388 0 
Triangulations 0

TShapes 28
Ve
1e-07
0 0 0
0 0

0101101
*
Ve
1e-07
0 1 2
0 0

0101101
*
Ed
 1e-07 1 1 0
1  1 0 0 2.23606797749979
0

0101000
+28 0 -27 0 *
Ve
1e-07
3 1 0
0 0

0101101
*
Ve
1e-07
3 2 2
0 0

0101101
*
Ed
 1e-07 1 1 0
1  2 0 0 2.23606797749979
0

0101000
+25 0 -24 0 *
Ed
 1e-07 1 1 0
1  3 0 0 3.16227766016838
0

0101000
+28 0 -25 0 *
Ed
 1e-07 1 1 0
1  4 0 0 3.16227766016838
0

0101000
+27 2 -24 2 *
Wi

0101000
+26 0 -23 0 -22 0 +21 1 *
Fa
0  1e-07 1 0

0101000
+20 0 *
Ve
1e-07
0 1 0
0 0

0101101
*
Ve
1e-07
0 2 2
0 0

0101101
*
Ed
 1e-07 1 1 0
1  5 0 0 2.23606797749979
0

0101000
+18 0 -17 0 *
Ed
 1e-07 1 1 0
1  6 0 0 3
0

0101000
+25 0 -18 0 *
Ed
 1e-07 1 1 0
1  7 0 0 3
0

0101000
+24 2 -17 2 *
Wi

0101000
+23 0 -16 0 -15 0 +14 1 *
Fa
0  1e-07 2 0

0101000
+13 0 *
Ed
 1e-07 1 1 0
1  8 0 0 1
0

0101000
+18 0 -28 0 *
Ed
 1e-07 1 1 0
1  9 0 0 1
0

0101000
+17 2 -27 2 *
Wi

0101000
+16 0 -26 0 -11 0 +10 1 *
Fa
0  1e-07 3 0

0101000
+9 0 *
Wi

0101100
+22 0 +15 0 +11 0 *
Fa
0  1e-07 4 0

0111000
+7 0 *
Wi

0101100
+21 0 +14 0 +10 0 *
Fa
0  1e-07 5 0

0111000
+5 0 *
Sh

0101100
+19 0 +12 0 +8 0 +6 0 -4 1 *
So

0100100
-3 0 *
Co

1100000
+2 0 *

+1 0 
##EGADS HEADER FILE-REV 1 ##
0
  1  1  5  5  9  6  3
1 5 1
_body
6
1 5 1
_brch
6
2 8 3
_tParams
 1.030776491292e-01  4.123105965168e-03  1.500000000000e+01 
    2 0 4
1 5 2
_body
6 3 
1 5 2
_brch
6 3 
1 7 3
_faceID
6 3 1 
1 5 1
_hist
6
    2 1 4
1 5 2
_body
6 4 
1 5 2
_brch
6 4 
1 7 3
_faceID
6 4 1 
1 5 1
_hist
6
    2 2 4
1 5 2
_body
6 5 
1 5 2
_brch
6 5 
1 7 3
_faceID
6 5 1 
1 5 1
_hist
6
    2 3 4
1 5 2
_body
6 1 
1 5 2
_brch
6 1 
1 5 2
_hist
5 6 
1 7 3
_faceID
6 1 1 
    2 4 4
1 5 2
_body
6 2 
1 5 2
_brch
6 2 
1 7 3
_faceID
6 2 1 
1 5 1
_hist
6
    4 0 3
1 5 2
_body
6 305 
1 7 5
_edgeID
6 3 6 5 1 
1 6 1
_nface
2
    4 1 3
1 5 2
_body
6 304 
1 7 5
_edgeID
6 3 6 4 1 
1 6 1
_nface
2
    4 2 3
1 5 2
_body
6 103 
1 7 5
_edgeID
6 1 6 3 1 
1 6 1
_nface
2
    4 3 3
1 5 2
_body
6 203 
1 7 5
_edgeID
6 2 6 3 1 
1 6 1
_nface
2
    4 4 3
1 5 2
_body
6 405 
1 7 5
_edgeID
6 4 6 5 1 
1 6 1
_nface
2
    4 5 3
1 5 2
_body
6 104 
1 7 5
_edgeID
6 1 6 4 1 
1 6 1
_nface
2
    4 6 3
1 5 2
_body
6 204 
1 7 5
_edgeID
6 2 6 4 1 
1 6 1
_nface
2
    4 7 3
1 5 2
_body
6 105 
1 7 5
_edgeID
6 1 6 5 1 
1 6 1
_nface
2
    4 8 3
1 5 2
_body
6 205 
1 7 5
_edgeID
6 2 6 5 1 
1 6 1
_nface
2
    5 0 2
1 7 1
_nodeID
1
1 6 1
_nedge
3
    5 1 2
1 7 1
_nodeID
2
1 6 1
_nedge
3
    5 2 2
1 7 1
_nodeID
3
1 6 1
_nedge
3
    5 3 2
1 7 1
_nodeID
4
1 6 1
_nedge
3
    5 4 2
1 7 1
_nodeID
5
1 6 1
_nedge
3
    5 5 2
1 7 1
_nodeID
6
1 6 1
_nedge
3
    0 0 0
