DBRep_DrawableShape

CASCADE Topology V1, (c) Matra-Datavision
Locations 0
Curve2ds 12
1 0 0 1 0 
1 0.51373719890488234 0 0 1 
1 0.51373719890488234 0 0 1 
1 0 1 1 0 
1 0 0 0 1 
1 0.0086754826955043555 0 0 1 
1 0 0 1 0 
1 1 0 0 1 
1 0 0 0 1 
1 0 1 1 0 
7 0 0  1 2 2  0 0  0.0086754826955043555 0 
 0 2 0.0043377413477521777 2
1 0 1 1 0 
Curves 9
7 0 0  3 103 101  6.1876510791589263 0.52969979178815596 -7.745966692414834  6.1871271092485483 0.52997416116994378 -7.745966692414834  6.1850334307993391 0.53107048611255947 -7.745966692414834  6.1803264928319308 0.53352753308656087 -7.745966692414834  6.1725011203108062 0.53759064001941603 -7.745966692414834  6.1615654447486143 0.54322194029597481 -7.745966692414834  6.1475652287425397 0.5503527836475437 -7.745966692414834  6.1305230958433228 0.55891524726494934 -7.745966692414834  6.1104976766623489 0.56881309609529607 -7.745966692414834  6.0875393648624847 0.5799462512426885 -7.745966692414834  6.0617175849400624 0.59219824528025722 -7.745966692414834  6.0331079638633085 0.6054446684650826 -7.745966692414834  6.0017976857334281 0.61955215317521661 -7.745966692414834  5.9678840838432174 0.63438087980234781 -7.745966692414834  5.9314751265952115 0.64978603711658789 -7.745966692414834  5.8926893748019733 0.66561947166590396 -7.745966692414834  5.8516559378364938 0.68173122767587868 -7.745966692414834  5.808514344318068 0.69797100947163992 -7.745966692414834  5.7634143434619798 0.71418955590653088 -7.745966692414834  5.7165156434610473 0.73023993019457878 -7.745966692414834  5.6679875926773882 0.74597873518245905 -7.745966692414834  5.6180088137925885 0.76126726926105481 -7.745966692414834  5.5667667600452964 0.77597263954491524 -7.745966692414834  5.514457330631239 0.78996886922231946 -7.745966692414834  5.461284023153393 0.80313788443596268 -7.745966692414834  5.4074582006912797 0.81537111064818835 -7.745966692414834  5.3531961832153403 0.8265683035692275 -7.745966692414834  5.2987235044167509 0.83664789916679372 -7.745966692414834  5.2442623222327969 0.84551227187975919 -7.745966692414834  5.1896108378337429 0.85324697807122729 -7.745966692414834  5.1348228640860301 0.85946759471734435 -7.745966692414834  5.0800777864686344 0.86332156955926198 -7.745966692414834  5.0261300003660123 0.86497857951414114 -7.745966692414834  4.9733741789234536 0.86444674616325701 -7.745966692414834  4.9220900971905719 0.86183999798286837 -7.745966692414834  4.8725487526376412 0.8572847480655581 -7.745966692414834  4.8250096795419797 0.85093811468086433 -7.745966692414834  4.7797182241355092 0.84297927838355124 -7.745966692414834  4.736902861901223 0.83360666433494002 -7.745966692414834  4.6967731729078048 0.82303326540608213 -7.745966692414834  4.6595182470953338 0.81148196581838639 -7.745966692414834  4.6253055474622355 0.79918062955711777 -7.745966692414834  4.5942801603392232 0.78635711861613478 -7.745966692414834  4.5665643027660092 0.77323429348844253 -7.745966692414834  4.5422569275258597 0.76002502205789824 -7.745966692414834  4.5214329833758615 0.74692694048560693 -7.745966692414834  4.5041424317061018 0.73411622173615687 -7.745966692414834  4.4904075459062902 0.72173905841127117 -7.745966692414834  4.4802241131347449 0.70989151419170338 -7.745966692414834  4.4735773362093276 0.69859404939778769 -7.745966692414834  4.4705509215085479 0.68774168393522839 -7.745966692414834  4.4715065798508702 0.67749364403012569 -7.745966692414834  4.4763713829089138 0.66844583799665991 -7.745966692414834  4.484767026960359 0.661045084228291 -7.745966692414834  4.4962666829315845 0.655131181683687 -7.745966692414834  4.5108144467737024 0.6504720847363421 -7.745966692414834  4.5283744724722812 0.64695590654862234 -7.745966692414834  4.5488781747184399 0.64449818770058143 -7.745966692414834  4.5722267339021716 0.64301613270002189 -7.745966692414834  4.5983019724726661 0.64241664883728267 -7.745966692414834  4.6269735718420577 0.64259538828080032 -7.745966692414834  4.6581035429822908 0.64343717692040669 -7.745966692414834  4.6915495175709889 0.6448172985762225 -7.745966692414834  4.7271671308642036 0.64660293488103426 -7.745966692414834  4.764811858540523 0.64865467201338389 -7.745966692414834  4.8043403518749885 0.65082806544663763 -7.745966692414834  4.8456112891658565 0.65297528064236976 -7.745966692414834  4.8884857307932474 0.65494678109351623 -7.745966692414834  4.9328270821047742 0.65659339788801541 -7.745966692414834  4.9785001915946303 0.65776724019322919 -7.745966692414834  5.0253714369319136 0.65832864399754099 -7.745966692414834  5.0733044674776959 0.65812863149023015 -7.745966692414834  5.122282897935138 0.65708812783693415 -7.745966692414834  5.172597302162294 0.65486853860003413 -7.745966692414834  5.2241130332753336 0.65213046824743226 -7.745966692414834  5.2765517205214323 0.64913030193702781 -7.745966692414834  5.3292668309974989 0.64576423346210154 -7.745966692414834  5.3820614233580883 0.64202490080885533 -7.745966692414834  5.4347379835634912 0.6378862720157813 -7.745966692414834  5.4870950297942542 0.63334243344788632 -7.745966692414834  5.5389310983441309 0.62839763161035689 -7.745966692414834  5.590043847874588 0.62306894236863619 -7.745966692414834  5.6402317672386006 0.61738518990057623 -7.745966692414834  5.689294812208904 0.61138638305396664 -7.745966692414834  5.7370354322868859 0.60512266625344291 -7.745966692414834  5.7832594747308121 0.59865306572748744 -7.745966692414834  5.8277770997818656 0.59204403837864572 -7.745966692414834  5.870403672811066 0.58536788842217558 -7.745966692414834  5.9109606415803864 0.57870110805998765 -7.745966692414834  5.9492764026884446 0.57212269683137706 -7.745966692414834  5.985187164029286 0.56571250867241463 -7.745966692414834  6.0185377972178227 0.55954967117231791 -7.745966692414834  6.0491827776079159 0.55371109026611098 -7.745966692414834  6.0769866357398712 0.54827018957695051 -7.745966692414834  6.1018265493210162 0.54329533149233267 -7.745966692414834  6.1235876026816918 0.53884997138757729 -7.745966692414834  6.1421779513773496 0.53498866629540409 -7.745966692414834  6.1575000799942217 0.53176267882308936 -7.745966692414834  6.1695003129403467 0.52920891175668161 -7.745966692414834  6.1781050263945696 0.52736310137836973 -7.745966692414834  6.1832877109417002 0.52624567139307166 -7.745966692414834  6.1855948730055461 0.52574675578352115 -7.745966692414834  6.1861723644308588 0.52562187531610871 -7.745966692414834 
 0 4 0.00049739984301800169 1 0.00198741502815918 1 0.0044635102977900153 1 0.0079148522906514057 1 0.012326395880791562 1 0.017679001628741791 1 0.023949581151797125 1 0.031111266611454625 1 0.039133600095283015 1 0.047982738444039219 1 0.057621669037433883 1 0.068010432190637585 1 0.079106346111928252 1 0.090864230813156949 1 0.10323662793382841 1 0.11617401412241497 1 0.129625006399325 1 0.14353655878335592 1 0.15785415036621575 1 0.17252196592359864 1 0.18748307099874312 1 0.20267958411747308 1 0.21805284932105037 1 0.2335436124699419 1 0.24909220473126328 1 0.26463873629818824 1 0.28012330272223812 1 0.29548620533261971 1 0.31104957869740602 1 0.3264784133363568 1 0.34162084310623075 1 0.35642269447770392 1 0.37082983330862862 1 0.38478841506599892 1 0.39824519846949291 1 0.41114792049166893 1 0.4234457334204193 1 0.43508970918060325 1 0.44603342303631127 1 0.45623363983425413 1 0.46565114465521051 1 0.47425179342967538 1 0.48200792301895584 1 0.48890038732574265 1 0.49492174892025381 1 0.50008171570891213 1 0.5044170938122049 1 0.50801066881149448 1 0.51102448248994026 1 0.51373719851529775 1 0.51644948617691111 1 0.51945299174717252 1 0.52300710312720133 1 0.52725421012781593 1 0.53225968459411821 1 0.5380450386039779 1 0.54460658329338163 1 0.55192538423716675 1 0.55997284499919975 1 0.56871411270903072 1 0.57811034666456584 1 0.58812034627883336 1 0.59870177875637987 1 0.60981212356491643 1 0.62140938996361605 1 0.63345263395937756 1 0.64590228737462307 1 0.65872030704952556 1 0.67187015282626361 1 0.6853166067074804 1 0.6990254509944126 1 0.7130608787820506 1 0.72766469754508867 1 0.74240472119014456 1 0.75722816342908195 1 0.7720813709306984 1 0.78690993897978068 1 0.8016588405242876 1 0.8162725697230786 1 0.83069530104595679 1 0.84487106493198205 1 0.85874394092667017 1 0.87225826905527759 1 0.88535887992530748 1 0.8979913436779976 1 0.91010223742768359 1 0.92163943024868988 1 0.93255238410554009 1 0.94279246839147046 1 0.95231328496424761 1 0.96107099977450039 1 0.96902467640447243 1 0.976136606116213 1 0.98237262839640516 1 0.98770243553302772 1 0.99209985451897442 1 0.995543099595391 1 0.99801498905577624 1 0.99950312054529189 1 1 4
7 0 0  1 2 2  4.4721359454953644 0.67768427076755555 -7.745966692414834  -1.8436146762217832e-08 -7.3711462315914211e-09 0 
 0 2 1 2
7 0 0  3 103 101  3.4437695372285884 0.0041912772491511487 0  3.4426777594007194 0.0046465939226297374 0  3.4383152346301635 0.0064659479124375471 0  3.4285088898274343 0.010540868900129405 0  3.4122094543899686 0.017272107759998229 0  3.3894397300432786 0.026585636865598665 0  3.360302860231049 0.038352655095835776 0  3.3248557596016513 0.052441777310690683 0  3.2832320180385226 0.068671485800198634 0  3.2355494842422066 0.08685116862763001 0  3.1819667804532208 0.10676087881377463 0  3.1226562710882217 0.12816592635523277 0  3.0578149083342665 0.15081578820643377 0  2.9876609901754438 0.17444885557325443 0  2.9124348739726833 0.19879542822944934 0  2.8323986038800477 0.22358099331954009 0  2.7478355550570259 0.24852928579527833 0  2.6590499211075178 0.27336517958865469 0  2.5663660787123388 0.29781739138197622 0  2.4701278415507848 0.32162100485329714 0  2.37069761327461 0.34451983639945793 0  2.2684554571040518 0.3662686743901909 0  2.1637980176403433 0.38663541970218473 0  2.0571375615689638 0.40540322495141684 0  1.9489001169856996 0.42237231300609623 0  1.8395257272378762 0.43736320412107033 0  1.7294628596718462 0.45021387969176574 0  1.6191750827700246 0.46080114551788315 0  1.5091220389075166 0.46896921814669773 0  1.3988867527790494 0.4748533833150505 0  1.2886434499174444 0.47769710086725431 0  1.1788981456995469 0.47583302367240427 0  1.0711243128543917 0.46973071400114447 0  0.9661068782867166 0.45947514926812816 0  0.86438340379675194 0.44534208736587927 0  0.76647178661670956 0.42763063037120819 0  0.67286173256970083 0.40669905886370483 0  0.58401083365792983 0.38294713694683113 0  0.50033971422637158 0.35681003070877937 0  0.42222881227776726 0.32874863710039709 0  0.35001601732392984 0.29923998882934372 0  0.28399526155741334 0.2687672704076543 0  0.22441589448242394 0.23780976186951724 0  0.17148257288932475 0.20683279193176954 0  0.12535534393716544 0.17627772491564087 0  0.086149084481996804 0.14655139344200352 0  0.053932628096484539 0.11801351150152098 0  0.028724868996527517 0.090959234191313687 0  0.010500668558137687 0.065579223423582092 0  -0.00077302143630185764 0.041911664804802747 0  -0.0049111260496725716 0.019761988091473871 0  -0.001220731442782269 -0.00048951572184194683 0  0.010048987094751367 -0.017668277473954355 0  0.028066415660131898 -0.030950003619520126 0  0.052009069414585017 -0.040728278224422286 0  0.081806013941760194 -0.047475171252148653 0  0.11740533318348627 -0.051419853223597975 0  0.15868510074456718 -0.052742555398553492 0  0.20546286168713099 -0.051625464030737221 0  0.25751938744058289 -0.048274655752174489 0  0.31461322165786448 -0.042920748102624889 0  0.37648951263291952 -0.035817265830365166 0  0.44288634669247456 -0.027237508563479892 0  0.51353924481839441 -0.017471266641394732 0  0.58818455971552253 -0.0068214989328193162 0  0.66656186324430511 0.0043990174898525195 0  0.74841535680273719 0.015871104664108526 0  0.83349428449614527 0.027272608867396513 0  0.92155249844218812 0.038282517524316301 0  1.0123465032845445 0.04858261604838255 0  1.1056344163493717 0.057871347436827945 0  1.2011705426129953 0.065828122396885402 0  1.298936019835581 0.072292536921633926 0  1.3995688051901309 0.076640629404798905 0  1.5026854787069441 0.080165110684961821 0  1.6076867265721522 0.083328276612616659 0  1.7133024980994522 0.085810606691478941 0  1.8191416927240689 0.087563103784842486 0  1.9248153232375693 0.08849947312296931 0  2.0299229902138518 0.088572811846957256 0  2.1340625592862459 0.0877564632108008 0  2.2368279111979787 0.086049178568443463 0  2.3378125328912454 0.083473261198809365 0  2.436610884367183 0.0800735542995685 0  2.5328206273579998 0.075915529769769174 0  2.6260446450502553 0.071082947788311812 0  2.7158931185201025 0.065675125132765508 0  2.8019855802354234 0.059803936018457904 0  2.8839529511411666 0.053590658991517826 0  2.9614395599130194 0.047162779452528877 0  3.0341051494376816 0.040650846691661108 0  3.1016268507180342 0.034185473019369493 0  3.1637013164044534 0.027894518387855536 0  3.2200458400011112 0.021900657362566807 0  3.2704037953251581 0.016318685103161298 0  3.3145351646141714 0.011254998305471685 0  3.3522474480533209 0.0068022862814124769 0  3.383337421305026 0.0030456860495092085 0  3.4076917091095704 4.9366057204699949e-05 0  3.4251573949019489 -0.0021283065834422519 0  3.4356781015180902 -0.0034512607948636491 0  3.4403618334704111 -0.0040431301182950125 0  3.4415341893623745 -0.0041912772491511487 0 
 0 4 0.00049739984301800169 1 0.00198741502815918 1 0.0044635102977900153 1 0.0079148522906514057 1 0.012326395880791562 1 0.017679001628741791 1 0.023949581151797125 1 0.031111266611454625 1 0.039133600095283015 1 0.047982738444039219 1 0.057621669037433883 1 0.068010432190637585 1 0.079106346111928252 1 0.090864230813156949 1 0.10323662793382841 1 0.11617401412241497 1 0.129625006399325 1 0.14353655878335592 1 0.15785415036621575 1 0.17252196592359864 1 0.18748307099874312 1 0.20267958411747308 1 0.21805284932105037 1 0.2335436124699419 1 0.24909220473126328 1 0.26463873629818824 1 0.28012330272223812 1 0.29548620533261971 1 0.31104957869740602 1 0.3264784133363568 1 0.34162084310623075 1 0.35642269447770392 1 0.37082983330862862 1 0.38478841506599892 1 0.39824519846949291 1 0.41114792049166893 1 0.4234457334204193 1 0.43508970918060325 1 0.44603342303631127 1 0.45623363983425413 1 0.46565114465521051 1 0.47425179342967538 1 0.48200792301895584 1 0.48890038732574265 1 0.49492174892025381 1 0.50008171570891213 1 0.5044170938122049 1 0.50801066881149448 1 0.51102448248994026 1 0.51373719851529775 1 0.51644948617691111 1 0.51945299174717252 1 0.52300710312720133 1 0.52725421012781593 1 0.53225968459411821 1 0.5380450386039779 1 0.54460658329338163 1 0.55192538423716675 1 0.55997284499919975 1 0.56871411270903072 1 0.57811034666456584 1 0.58812034627883336 1 0.59870177875637987 1 0.60981212356491643 1 0.62140938996361605 1 0.63345263395937756 1 0.64590228737462307 1 0.65872030704952556 1 0.67187015282626361 1 0.6853166067074804 1 0.6990254509944126 1 0.7130608787820506 1 0.72766469754508867 1 0.74240472119014456 1 0.75722816342908195 1 0.7720813709306984 1 0.78690993897978068 1 0.8016588405242876 1 0.8162725697230786 1 0.83069530104595679 1 0.84487106493198205 1 0.85874394092667017 1 0.87225826905527759 1 0.88535887992530748 1 0.8979913436779976 1 0.91010223742768359 1 0.92163943024868988 1 0.93255238410554009 1 0.94279246839147046 1 0.95231328496424761 1 0.96107099977450039 1 0.96902467640447243 1 0.976136606116213 1 0.98237262839640516 1 0.98770243553302772 1 0.99209985451897442 1 0.995543099595391 1 0.99801498905577624 1 0.99950312054529189 1 1 4
7 0 0  1 2 2  6.1876510791589263 0.52969979178815596 -7.745966692414834  3.4437695372285884 0.0041912772491511487 0 
 0 2 1 2
7 0 0  3 103 101  6.1876510791589263 0.52969979178815596 -7.745966692414834  6.1871271092485483 0.52997416116994378 -7.745966692414834  6.1850334307993391 0.53107048611255947 -7.745966692414834  6.1803264928319308 0.53352753308656087 -7.745966692414834  6.1725011203108062 0.53759064001941603 -7.745966692414834  6.1615654447486143 0.54322194029597481 -7.745966692414834  6.1475652287425397 0.5503527836475437 -7.745966692414834  6.1305230958433228 0.55891524726494934 -7.745966692414834  6.1104976766623489 0.56881309609529607 -7.745966692414834  6.0875393648624847 0.5799462512426885 -7.745966692414834  6.0617175849400624 0.59219824528025722 -7.745966692414834  6.0331079638633085 0.6054446684650826 -7.745966692414834  6.0017976857334281 0.61955215317521661 -7.745966692414834  5.9678840838432174 0.63438087980234781 -7.745966692414834  5.9314751265952115 0.64978603711658789 -7.745966692414834  5.8926893748019733 0.66561947166590396 -7.745966692414834  5.8516559378364938 0.68173122767587868 -7.745966692414834  5.808514344318068 0.69797100947163992 -7.745966692414834  5.7634143434619798 0.71418955590653088 -7.745966692414834  5.7165156434610473 0.73023993019457878 -7.745966692414834  5.6679875926773882 0.74597873518245905 -7.745966692414834  5.6180088137925885 0.76126726926105481 -7.745966692414834  5.5667667600452964 0.77597263954491524 -7.745966692414834  5.514457330631239 0.78996886922231946 -7.745966692414834  5.461284023153393 0.80313788443596268 -7.745966692414834  5.4074582006912797 0.81537111064818835 -7.745966692414834  5.3531961832153403 0.8265683035692275 -7.745966692414834  5.2987235044167509 0.83664789916679372 -7.745966692414834  5.2442623222327969 0.84551227187975919 -7.745966692414834  5.1896108378337429 0.85324697807122729 -7.745966692414834  5.1348228640860301 0.85946759471734435 -7.745966692414834  5.0800777864686344 0.86332156955926198 -7.745966692414834  5.0261300003660123 0.86497857951414114 -7.745966692414834  4.9733741789234536 0.86444674616325701 -7.745966692414834  4.9220900971905719 0.86183999798286837 -7.745966692414834  4.8725487526376412 0.8572847480655581 -7.745966692414834  4.8250096795419797 0.85093811468086433 -7.745966692414834  4.7797182241355092 0.84297927838355124 -7.745966692414834  4.736902861901223 0.83360666433494002 -7.745966692414834  4.6967731729078048 0.82303326540608213 -7.745966692414834  4.6595182470953338 0.81148196581838639 -7.745966692414834  4.6253055474622355 0.79918062955711777 -7.745966692414834  4.5942801603392232 0.78635711861613478 -7.745966692414834  4.5665643027660092 0.77323429348844253 -7.745966692414834  4.5422569275258597 0.76002502205789824 -7.745966692414834  4.5214329833758615 0.74692694048560693 -7.745966692414834  4.5041424317061018 0.73411622173615687 -7.745966692414834  4.4904075459062902 0.72173905841127117 -7.745966692414834  4.4802241131347449 0.70989151419170338 -7.745966692414834  4.4735773362093276 0.69859404939778769 -7.745966692414834  4.4705509215085479 0.68774168393522839 -7.745966692414834  4.4715065798508702 0.67749364403012569 -7.745966692414834  4.4763713829089138 0.66844583799665991 -7.745966692414834  4.484767026960359 0.661045084228291 -7.745966692414834  4.4962666829315845 0.655131181683687 -7.745966692414834  4.5108144467737024 0.6504720847363421 -7.745966692414834  4.5283744724722812 0.64695590654862234 -7.745966692414834  4.5488781747184399 0.64449818770058143 -7.745966692414834  4.5722267339021716 0.64301613270002189 -7.745966692414834  4.5983019724726661 0.64241664883728267 -7.745966692414834  4.6269735718420577 0.64259538828080032 -7.745966692414834  4.6581035429822908 0.64343717692040669 -7.745966692414834  4.6915495175709889 0.6448172985762225 -7.745966692414834  4.7271671308642036 0.64660293488103426 -7.745966692414834  4.764811858540523 0.64865467201338389 -7.745966692414834  4.8043403518749885 0.65082806544663763 -7.745966692414834  4.8456112891658565 0.65297528064236976 -7.745966692414834  4.8884857307932474 0.65494678109351623 -7.745966692414834  4.9328270821047742 0.65659339788801541 -7.745966692414834  4.9785001915946303 0.65776724019322919 -7.745966692414834  5.0253714369319136 0.65832864399754099 -7.745966692414834  5.0733044674776959 0.65812863149023015 -7.745966692414834  5.122282897935138 0.65708812783693415 -7.745966692414834  5.172597302162294 0.65486853860003413 -7.745966692414834  5.2241130332753336 0.65213046824743226 -7.745966692414834  5.2765517205214323 0.64913030193702781 -7.745966692414834  5.3292668309974989 0.64576423346210154 -7.745966692414834  5.3820614233580883 0.64202490080885533 -7.745966692414834  5.4347379835634912 0.6378862720157813 -7.745966692414834  5.4870950297942542 0.63334243344788632 -7.745966692414834  5.5389310983441309 0.62839763161035689 -7.745966692414834  5.590043847874588 0.62306894236863619 -7.745966692414834  5.6402317672386006 0.61738518990057623 -7.745966692414834  5.689294812208904 0.61138638305396664 -7.745966692414834  5.7370354322868859 0.60512266625344291 -7.745966692414834  5.7832594747308121 0.59865306572748744 -7.745966692414834  5.8277770997818656 0.59204403837864572 -7.745966692414834  5.870403672811066 0.58536788842217558 -7.745966692414834  5.9109606415803864 0.57870110805998765 -7.745966692414834  5.9492764026884446 0.57212269683137706 -7.745966692414834  5.985187164029286 0.56571250867241463 -7.745966692414834  6.0185377972178227 0.55954967117231791 -7.745966692414834  6.0491827776079159 0.55371109026611098 -7.745966692414834  6.0769866357398712 0.54827018957695051 -7.745966692414834  6.1018265493210162 0.54329533149233267 -7.745966692414834  6.1235876026816918 0.53884997138757729 -7.745966692414834  6.1421779513773496 0.53498866629540409 -7.745966692414834  6.1575000799942217 0.53176267882308936 -7.745966692414834  6.1695003129403467 0.52920891175668161 -7.745966692414834  6.1781050263945696 0.52736310137836973 -7.745966692414834  6.1832877109417002 0.52624567139307166 -7.745966692414834  6.1855948730055461 0.52574675578352115 -7.745966692414834  6.1861723644308588 0.52562187531610871 -7.745966692414834 
 0 4 0.00049739984301800169 1 0.00198741502815918 1 0.0044635102977900153 1 0.0079148522906514057 1 0.012326395880791562 1 0.017679001628741791 1 0.023949581151797125 1 0.031111266611454625 1 0.039133600095283015 1 0.047982738444039219 1 0.057621669037433883 1 0.068010432190637585 1 0.079106346111928252 1 0.090864230813156949 1 0.10323662793382841 1 0.11617401412241497 1 0.129625006399325 1 0.14353655878335592 1 0.15785415036621575 1 0.17252196592359864 1 0.18748307099874312 1 0.20267958411747308 1 0.21805284932105037 1 0.2335436124699419 1 0.24909220473126328 1 0.26463873629818824 1 0.28012330272223812 1 0.29548620533261971 1 0.31104957869740602 1 0.3264784133363568 1 0.34162084310623075 1 0.35642269447770392 1 0.37082983330862862 1 0.38478841506599892 1 0.39824519846949291 1 0.41114792049166893 1 0.4234457334204193 1 0.43508970918060325 1 0.44603342303631127 1 0.45623363983425413 1 0.46565114465521051 1 0.47425179342967538 1 0.48200792301895584 1 0.48890038732574265 1 0.49492174892025381 1 0.50008171570891213 1 0.5044170938122049 1 0.50801066881149448 1 0.51102448248994026 1 0.51373719851529775 1 0.51644948617691111 1 0.51945299174717252 1 0.52300710312720133 1 0.52725421012781593 1 0.53225968459411821 1 0.5380450386039779 1 0.54460658329338163 1 0.55192538423716675 1 0.55997284499919975 1 0.56871411270903072 1 0.57811034666456584 1 0.58812034627883336 1 0.59870177875637987 1 0.60981212356491643 1 0.62140938996361605 1 0.63345263395937756 1 0.64590228737462307 1 0.65872030704952556 1 0.67187015282626361 1 0.6853166067074804 1 0.6990254509944126 1 0.7130608787820506 1 0.72766469754508867 1 0.74240472119014456 1 0.75722816342908195 1 0.7720813709306984 1 0.78690993897978068 1 0.8016588405242876 1 0.8162725697230786 1 0.83069530104595679 1 0.84487106493198205 1 0.85874394092667017 1 0.87225826905527759 1 0.88535887992530748 1 0.8979913436779976 1 0.91010223742768359 1 0.92163943024868988 1 0.93255238410554009 1 0.94279246839147046 1 0.95231328496424761 1 0.96107099977450039 1 0.96902467640447243 1 0.976136606116213 1 0.98237262839640516 1 0.98770243553302772 1 0.99209985451897442 1 0.995543099595391 1 0.99801498905577624 1 0.99950312054529189 1 1 4
7 0 0  1 2 2  6.1861723644308588 0.52562187531610871 -7.745966692414834  3.4415341893623745 -0.0041912772491511487 0 
 0 2 1 2
7 0 0  3 103 101  3.4437695372285884 0.0041912772491511487 0  3.4426777594007194 0.0046465939226297374 0  3.4383152346301635 0.0064659479124375471 0  3.4285088898274343 0.010540868900129405 0  3.4122094543899686 0.017272107759998229 0  3.3894397300432786 0.026585636865598665 0  3.360302860231049 0.038352655095835776 0  3.3248557596016513 0.052441777310690683 0  3.2832320180385226 0.068671485800198634 0  3.2355494842422066 0.08685116862763001 0  3.1819667804532208 0.10676087881377463 0  3.1226562710882217 0.12816592635523277 0  3.0578149083342665 0.15081578820643377 0  2.9876609901754438 0.17444885557325443 0  2.9124348739726833 0.19879542822944934 0  2.8323986038800477 0.22358099331954009 0  2.7478355550570259 0.24852928579527833 0  2.6590499211075178 0.27336517958865469 0  2.5663660787123388 0.29781739138197622 0  2.4701278415507848 0.32162100485329714 0  2.37069761327461 0.34451983639945793 0  2.2684554571040518 0.3662686743901909 0  2.1637980176403433 0.38663541970218473 0  2.0571375615689638 0.40540322495141684 0  1.9489001169856996 0.42237231300609623 0  1.8395257272378762 0.43736320412107033 0  1.7294628596718462 0.45021387969176574 0  1.6191750827700246 0.46080114551788315 0  1.5091220389075166 0.46896921814669773 0  1.3988867527790494 0.4748533833150505 0  1.2886434499174444 0.47769710086725431 0  1.1788981456995469 0.47583302367240427 0  1.0711243128543917 0.46973071400114447 0  0.9661068782867166 0.45947514926812816 0  0.86438340379675194 0.44534208736587927 0  0.76647178661670956 0.42763063037120819 0  0.67286173256970083 0.40669905886370483 0  0.58401083365792983 0.38294713694683113 0  0.50033971422637158 0.35681003070877937 0  0.42222881227776726 0.32874863710039709 0  0.35001601732392984 0.29923998882934372 0  0.28399526155741334 0.2687672704076543 0  0.22441589448242394 0.23780976186951724 0  0.17148257288932475 0.20683279193176954 0  0.12535534393716544 0.17627772491564087 0  0.086149084481996804 0.14655139344200352 0  0.053932628096484539 0.11801351150152098 0  0.028724868996527517 0.090959234191313687 0  0.010500668558137687 0.065579223423582092 0  -0.00077302143630185764 0.041911664804802747 0  -0.0049111260496725716 0.019761988091473871 0  -0.001220731442782269 -0.00048951572184194683 0  0.010048987094751367 -0.017668277473954355 0  0.028066415660131898 -0.030950003619520126 0  0.052009069414585017 -0.040728278224422286 0  0.081806013941760194 -0.047475171252148653 0  0.11740533318348627 -0.051419853223597975 0  0.15868510074456718 -0.052742555398553492 0  0.20546286168713099 -0.051625464030737221 0  0.25751938744058289 -0.048274655752174489 0  0.31461322165786448 -0.042920748102624889 0  0.37648951263291952 -0.035817265830365166 0  0.44288634669247456 -0.027237508563479892 0  0.51353924481839441 -0.017471266641394732 0  0.58818455971552253 -0.0068214989328193162 0  0.66656186324430511 0.0043990174898525195 0  0.74841535680273719 0.015871104664108526 0  0.83349428449614527 0.027272608867396513 0  0.92155249844218812 0.038282517524316301 0  1.0123465032845445 0.04858261604838255 0  1.1056344163493717 0.057871347436827945 0  1.2011705426129953 0.065828122396885402 0  1.298936019835581 0.072292536921633926 0  1.3995688051901309 0.076640629404798905 0  1.5026854787069441 0.080165110684961821 0  1.6076867265721522 0.083328276612616659 0  1.7133024980994522 0.085810606691478941 0  1.8191416927240689 0.087563103784842486 0  1.9248153232375693 0.08849947312296931 0  2.0299229902138518 0.088572811846957256 0  2.1340625592862459 0.0877564632108008 0  2.2368279111979787 0.086049178568443463 0  2.3378125328912454 0.083473261198809365 0  2.436610884367183 0.0800735542995685 0  2.5328206273579998 0.075915529769769174 0  2.6260446450502553 0.071082947788311812 0  2.7158931185201025 0.065675125132765508 0  2.8019855802354234 0.059803936018457904 0  2.8839529511411666 0.053590658991517826 0  2.9614395599130194 0.047162779452528877 0  3.0341051494376816 0.040650846691661108 0  3.1016268507180342 0.034185473019369493 0  3.1637013164044534 0.027894518387855536 0  3.2200458400011112 0.021900657362566807 0  3.2704037953251581 0.016318685103161298 0  3.3145351646141714 0.011254998305471685 0  3.3522474480533209 0.0068022862814124769 0  3.383337421305026 0.0030456860495092085 0  3.4076917091095704 4.9366057204699949e-05 0  3.4251573949019489 -0.0021283065834422519 0  3.4356781015180902 -0.0034512607948636491 0  3.4403618334704111 -0.0040431301182950125 0  3.4415341893623745 -0.0041912772491511487 0 
 0 4 0.00049739984301800169 1 0.00198741502815918 1 0.0044635102977900153 1 0.0079148522906514057 1 0.012326395880791562 1 0.017679001628741791 1 0.023949581151797125 1 0.031111266611454625 1 0.039133600095283015 1 0.047982738444039219 1 0.057621669037433883 1 0.068010432190637585 1 0.079106346111928252 1 0.090864230813156949 1 0.10323662793382841 1 0.11617401412241497 1 0.129625006399325 1 0.14353655878335592 1 0.15785415036621575 1 0.17252196592359864 1 0.18748307099874312 1 0.20267958411747308 1 0.21805284932105037 1 0.2335436124699419 1 0.24909220473126328 1 0.26463873629818824 1 0.28012330272223812 1 0.29548620533261971 1 0.31104957869740602 1 0.3264784133363568 1 0.34162084310623075 1 0.35642269447770392 1 0.37082983330862862 1 0.38478841506599892 1 0.39824519846949291 1 0.41114792049166893 1 0.4234457334204193 1 0.43508970918060325 1 0.44603342303631127 1 0.45623363983425413 1 0.46565114465521051 1 0.47425179342967538 1 0.48200792301895584 1 0.48890038732574265 1 0.49492174892025381 1 0.50008171570891213 1 0.5044170938122049 1 0.50801066881149448 1 0.51102448248994026 1 0.51373719851529775 1 0.51644948617691111 1 0.51945299174717252 1 0.52300710312720133 1 0.52725421012781593 1 0.53225968459411821 1 0.5380450386039779 1 0.54460658329338163 1 0.55192538423716675 1 0.55997284499919975 1 0.56871411270903072 1 0.57811034666456584 1 0.58812034627883336 1 0.59870177875637987 1 0.60981212356491643 1 0.62140938996361605 1 0.63345263395937756 1 0.64590228737462307 1 0.65872030704952556 1 0.67187015282626361 1 0.6853166067074804 1 0.6990254509944126 1 0.7130608787820506 1 0.72766469754508867 1 0.74240472119014456 1 0.75722816342908195 1 0.7720813709306984 1 0.78690993897978068 1 0.8016588405242876 1 0.8162725697230786 1 0.83069530104595679 1 0.84487106493198205 1 0.85874394092667017 1 0.87225826905527759 1 0.88535887992530748 1 0.8979913436779976 1 0.91010223742768359 1 0.92163943024868988 1 0.93255238410554009 1 0.94279246839147046 1 0.95231328496424761 1 0.96107099977450039 1 0.96902467640447243 1 0.976136606116213 1 0.98237262839640516 1 0.98770243553302772 1 0.99209985451897442 1 0.995543099595391 1 0.99801498905577624 1 0.99950312054529189 1 1 4
1 6.1861723644308588 0.52562187531610871 -7.745966692414834 0.34089509021415904 0.94010134425384184 0 
1 3.4415341893623745 -0.0041912772491511487 0 0.25766265056033705 0.96623493960124507 0 
Polygon3D 0
PolygonOnTriangulations 0
Surfaces 5
9 0 0 0 0 3 1 54 2 52 2 6.1876510791589263 0.52969979178815596 -7.745966692414834  3.4437695372285884 0.0041912772491511487 0  
6.1871271092485483 0.52997416116994378 -7.745966692414834  3.4426777594007194 0.0046465939226297374 0  
6.1850334307993391 0.53107048611255947 -7.745966692414834  3.4383152346301635 0.0064659479124375471 0  
6.1803264928319308 0.53352753308656087 -7.745966692414834  3.4285088898274343 0.010540868900129405 0  
6.1725011203108062 0.53759064001941603 -7.745966692414834  3.4122094543899686 0.017272107759998229 0  
6.1615654447486143 0.54322194029597481 -7.745966692414834  3.3894397300432786 0.026585636865598665 0  
6.1475652287425397 0.5503527836475437 -7.745966692414834  3.360302860231049 0.038352655095835776 0  
6.1305230958433228 0.55891524726494934 -7.745966692414834  3.3248557596016513 0.052441777310690683 0  
6.1104976766623489 0.56881309609529607 -7.745966692414834  3.2832320180385226 0.068671485800198634 0  
6.0875393648624847 0.5799462512426885 -7.745966692414834  3.2355494842422066 0.08685116862763001 0  
6.0617175849400624 0.59219824528025722 -7.745966692414834  3.1819667804532208 0.10676087881377463 0  
6.0331079638633085 0.6054446684650826 -7.745966692414834  3.1226562710882217 0.12816592635523277 0  
6.0017976857334281 0.61955215317521661 -7.745966692414834  3.0578149083342665 0.15081578820643377 0  
5.9678840838432174 0.63438087980234781 -7.745966692414834  2.9876609901754438 0.17444885557325443 0  
5.9314751265952115 0.64978603711658789 -7.745966692414834  2.9124348739726833 0.19879542822944934 0  
5.8926893748019733 0.66561947166590396 -7.745966692414834  2.8323986038800477 0.22358099331954009 0  
5.8516559378364938 0.68173122767587868 -7.745966692414834  2.7478355550570259 0.24852928579527833 0  
5.808514344318068 0.69797100947163992 -7.745966692414834  2.6590499211075178 0.27336517958865469 0  
5.7634143434619798 0.71418955590653088 -7.745966692414834  2.5663660787123388 0.29781739138197622 0  
5.7165156434610473 0.73023993019457878 -7.745966692414834  2.4701278415507848 0.32162100485329714 0  
5.6679875926773882 0.74597873518245905 -7.745966692414834  2.37069761327461 0.34451983639945793 0  
5.6180088137925885 0.76126726926105481 -7.745966692414834  2.2684554571040518 0.3662686743901909 0  
5.5667667600452964 0.77597263954491524 -7.745966692414834  2.1637980176403433 0.38663541970218473 0  
5.514457330631239 0.78996886922231946 -7.745966692414834  2.0571375615689638 0.40540322495141684 0  
5.461284023153393 0.80313788443596268 -7.745966692414834  1.9489001169856996 0.42237231300609623 0  
5.4074582006912797 0.81537111064818835 -7.745966692414834  1.8395257272378762 0.43736320412107033 0  
5.3531961832153403 0.8265683035692275 -7.745966692414834  1.7294628596718462 0.45021387969176574 0  
5.2987235044167509 0.83664789916679372 -7.745966692414834  1.6191750827700246 0.46080114551788315 0  
5.2442623222327969 0.84551227187975919 -7.745966692414834  1.5091220389075166 0.46896921814669773 0  
5.1896108378337429 0.85324697807122729 -7.745966692414834  1.3988867527790494 0.4748533833150505 0  
5.1348228640860301 0.85946759471734435 -7.745966692414834  1.2886434499174444 0.47769710086725431 0  
5.0800777864686344 0.86332156955926198 -7.745966692414834  1.1788981456995469 0.47583302367240427 0  
5.0261300003660123 0.86497857951414114 -7.745966692414834  1.0711243128543917 0.46973071400114447 0  
4.9733741789234536 0.86444674616325701 -7.745966692414834  0.9661068782867166 0.45947514926812816 0  
4.9220900971905719 0.86183999798286837 -7.745966692414834  0.86438340379675194 0.44534208736587927 0  
4.8725487526376412 0.8572847480655581 -7.745966692414834  0.76647178661670956 0.42763063037120819 0  
4.8250096795419797 0.85093811468086433 -7.745966692414834  0.67286173256970083 0.40669905886370483 0  
4.7797182241355092 0.84297927838355124 -7.745966692414834  0.58401083365792983 0.38294713694683113 0  
4.736902861901223 0.83360666433494002 -7.745966692414834  0.50033971422637158 0.35681003070877937 0  
4.6967731729078048 0.82303326540608213 -7.745966692414834  0.42222881227776726 0.32874863710039709 0  
4.6595182470953338 0.81148196581838639 -7.745966692414834  0.35001601732392984 0.29923998882934372 0  
4.6253055474622355 0.79918062955711777 -7.745966692414834  0.28399526155741334 0.2687672704076543 0  
4.5942801603392232 0.78635711861613478 -7.745966692414834  0.22441589448242394 0.23780976186951724 0  
4.5665643027660092 0.77323429348844253 -7.745966692414834  0.17148257288932475 0.20683279193176954 0  
4.5422569275258597 0.76002502205789824 -7.745966692414834  0.12535534393716544 0.17627772491564087 0  
4.5214329833758615 0.74692694048560693 -7.745966692414834  0.086149084481996804 0.14655139344200352 0  
4.5041424317061018 0.73411622173615687 -7.745966692414834  0.053932628096484539 0.11801351150152098 0  
4.4904075459062902 0.72173905841127117 -7.745966692414834  0.028724868996527517 0.090959234191313687 0  
4.4802241131347449 0.70989151419170338 -7.745966692414834  0.010500668558137687 0.065579223423582092 0  
4.4735773362093276 0.69859404939778769 -7.745966692414834  -0.00077302143630185764 0.041911664804802747 0  
4.4705509215085479 0.68774168393522839 -7.745966692414834  -0.0049111260496725716 0.019761988091473871 0  
4.4711994254421361 0.68078742643994095 -7.745966692414834  -0.0024068467344879581 0.0060194408835468867 0  
4.4721359453608667 0.67768427121321262 -7.745966692414834  -1.8781801448732732e-08 -6.5066681443834429e-09 0  
4.4721359454953644 0.67768427076755555 -7.745966692414834  -1.8436146762217832e-08 -7.3711462315914211e-09 0  

0 4
0.00049739984301800169 1
0.00198741502815918 1
0.0044635102977900153 1
0.0079148522906514057 1
0.012326395880791562 1
0.017679001628741791 1
0.023949581151797125 1
0.031111266611454625 1
0.039133600095283015 1
0.047982738444039219 1
0.057621669037433883 1
0.068010432190637585 1
0.079106346111928252 1
0.090864230813156949 1
0.10323662793382841 1
0.11617401412241497 1
0.129625006399325 1
0.14353655878335592 1
0.15785415036621575 1
0.17252196592359864 1
0.18748307099874312 1
0.20267958411747308 1
0.21805284932105037 1
0.2335436124699419 1
0.24909220473126328 1
0.26463873629818824 1
0.28012330272223812 1
0.29548620533261971 1
0.31104957869740602 1
0.3264784133363568 1
0.34162084310623075 1
0.35642269447770392 1
0.37082983330862862 1
0.38478841506599892 1
0.39824519846949291 1
0.41114792049166893 1
0.4234457334204193 1
0.43508970918060325 1
0.44603342303631127 1
0.45623363983425413 1
0.46565114465521051 1
0.47425179342967538 1
0.48200792301895584 1
0.48890038732574265 1
0.49492174892025381 1
0.50008171570891213 1
0.5044170938122049 1
0.50801066881149448 1
0.51102448248994026 1
0.51373719851529775 1
0.51373719890488234 4

0 2
1 2

9 0 0 0 0 3 1 53 2 51 2 4.4721359454953644 0.67768427076755555 -7.745966692414834  -1.8436146762217832e-08 -7.3711462315914211e-09 0  
4.4730723173500548 0.67458160647733789 -7.745966692414834  0.0024064289394431868 -0.0060185024339260733 0  
4.476371383261756 0.66844583768562971 -7.745966692414834  0.010048987851966545 -0.01766827803214303 0  
4.484767026960359 0.661045084228291 -7.745966692414834  0.028066415660131898 -0.030950003619520126 0  
4.4962666829315845 0.655131181683687 -7.745966692414834  0.052009069414585017 -0.040728278224422286 0  
4.5108144467737024 0.6504720847363421 -7.745966692414834  0.081806013941760194 -0.047475171252148653 0  
4.5283744724722812 0.64695590654862234 -7.745966692414834  0.11740533318348627 -0.051419853223597975 0  
4.5488781747184399 0.64449818770058143 -7.745966692414834  0.15868510074456718 -0.052742555398553492 0  
4.5722267339021716 0.64301613270002189 -7.745966692414834  0.20546286168713099 -0.051625464030737221 0  
4.5983019724726661 0.64241664883728267 -7.745966692414834  0.25751938744058289 -0.048274655752174489 0  
4.6269735718420577 0.64259538828080032 -7.745966692414834  0.31461322165786448 -0.042920748102624889 0  
4.6581035429822908 0.64343717692040669 -7.745966692414834  0.37648951263291952 -0.035817265830365166 0  
4.6915495175709889 0.6448172985762225 -7.745966692414834  0.44288634669247456 -0.027237508563479892 0  
4.7271671308642036 0.64660293488103426 -7.745966692414834  0.51353924481839441 -0.017471266641394732 0  
4.764811858540523 0.64865467201338389 -7.745966692414834  0.58818455971552253 -0.0068214989328193162 0  
4.8043403518749885 0.65082806544663763 -7.745966692414834  0.66656186324430511 0.0043990174898525195 0  
4.8456112891658565 0.65297528064236976 -7.745966692414834  0.74841535680273719 0.015871104664108526 0  
4.8884857307932474 0.65494678109351623 -7.745966692414834  0.83349428449614527 0.027272608867396513 0  
4.9328270821047742 0.65659339788801541 -7.745966692414834  0.92155249844218812 0.038282517524316301 0  
4.9785001915946303 0.65776724019322919 -7.745966692414834  1.0123465032845445 0.04858261604838255 0  
5.0253714369319136 0.65832864399754099 -7.745966692414834  1.1056344163493717 0.057871347436827945 0  
5.0733044674776959 0.65812863149023015 -7.745966692414834  1.2011705426129953 0.065828122396885402 0  
5.122282897935138 0.65708812783693415 -7.745966692414834  1.298936019835581 0.072292536921633926 0  
5.172597302162294 0.65486853860003413 -7.745966692414834  1.3995688051901309 0.076640629404798905 0  
5.2241130332753336 0.65213046824743226 -7.745966692414834  1.5026854787069441 0.080165110684961821 0  
5.2765517205214323 0.64913030193702781 -7.745966692414834  1.6076867265721522 0.083328276612616659 0  
5.3292668309974989 0.64576423346210154 -7.745966692414834  1.7133024980994522 0.085810606691478941 0  
5.3820614233580883 0.64202490080885533 -7.745966692414834  1.8191416927240689 0.087563103784842486 0  
5.4347379835634912 0.6378862720157813 -7.745966692414834  1.9248153232375693 0.08849947312296931 0  
5.4870950297942542 0.63334243344788632 -7.745966692414834  2.0299229902138518 0.088572811846957256 0  
5.5389310983441309 0.62839763161035689 -7.745966692414834  2.1340625592862459 0.0877564632108008 0  
5.590043847874588 0.62306894236863619 -7.745966692414834  2.2368279111979787 0.086049178568443463 0  
5.6402317672386006 0.61738518990057623 -7.745966692414834  2.3378125328912454 0.083473261198809365 0  
5.689294812208904 0.61138638305396664 -7.745966692414834  2.436610884367183 0.0800735542995685 0  
5.7370354322868859 0.60512266625344291 -7.745966692414834  2.5328206273579998 0.075915529769769174 0  
5.7832594747308121 0.59865306572748744 -7.745966692414834  2.6260446450502553 0.071082947788311812 0  
5.8277770997818656 0.59204403837864572 -7.745966692414834  2.7158931185201025 0.065675125132765508 0  
5.870403672811066 0.58536788842217558 -7.745966692414834  2.8019855802354234 0.059803936018457904 0  
5.9109606415803864 0.57870110805998765 -7.745966692414834  2.8839529511411666 0.053590658991517826 0  
5.9492764026884446 0.57212269683137706 -7.745966692414834  2.9614395599130194 0.047162779452528877 0  
5.985187164029286 0.56571250867241463 -7.745966692414834  3.0341051494376816 0.040650846691661108 0  
6.0185377972178227 0.55954967117231791 -7.745966692414834  3.1016268507180342 0.034185473019369493 0  
6.0491827776079159 0.55371109026611098 -7.745966692414834  3.1637013164044534 0.027894518387855536 0  
6.0769866357398712 0.54827018957695051 -7.745966692414834  3.2200458400011112 0.021900657362566807 0  
6.1018265493210162 0.54329533149233267 -7.745966692414834  3.2704037953251581 0.016318685103161298 0  
6.1235876026816918 0.53884997138757729 -7.745966692414834  3.3145351646141714 0.011254998305471685 0  
6.1421779513773496 0.53498866629540409 -7.745966692414834  3.3522474480533209 0.0068022862814124769 0  
6.1575000799942217 0.53176267882308936 -7.745966692414834  3.383337421305026 0.0030456860495092085 0  
6.1695003129403467 0.52920891175668161 -7.745966692414834  3.4076917091095704 4.9366057204699949e-05 0  
6.1781050263945696 0.52736310137836973 -7.745966692414834  3.4251573949019489 -0.0021283065834422519 0  
6.1832877109417002 0.52624567139307166 -7.745966692414834  3.4356781015180902 -0.0034512607948636491 0  
6.1855948730055461 0.52574675578352115 -7.745966692414834  3.4403618334704111 -0.0040431301182950125 0  
6.1861723644308588 0.52562187531610871 -7.745966692414834  3.4415341893623745 -0.0041912772491511487 0  

0.51373719890488234 4
0.51644948617691111 1
0.51945299174717252 1
0.52300710312720133 1
0.52725421012781593 1
0.53225968459411821 1
0.5380450386039779 1
0.54460658329338163 1
0.55192538423716675 1
0.55997284499919975 1
0.56871411270903072 1
0.57811034666456584 1
0.58812034627883336 1
0.59870177875637987 1
0.60981212356491643 1
0.62140938996361605 1
0.63345263395937756 1
0.64590228737462307 1
0.65872030704952556 1
0.67187015282626361 1
0.6853166067074804 1
0.6990254509944126 1
0.7130608787820506 1
0.72766469754508867 1
0.74240472119014456 1
0.75722816342908195 1
0.7720813709306984 1
0.78690993897978068 1
0.8016588405242876 1
0.8162725697230786 1
0.83069530104595679 1
0.84487106493198205 1
0.85874394092667017 1
0.87225826905527759 1
0.88535887992530748 1
0.8979913436779976 1
0.91010223742768359 1
0.92163943024868988 1
0.93255238410554009 1
0.94279246839147046 1
0.95231328496424761 1
0.96107099977450039 1
0.96902467640447243 1
0.976136606116213 1
0.98237262839640516 1
0.98770243553302772 1
0.99209985451897442 1
0.995543099595391 1
0.99801498905577624 1
0.99950312054529189 1
1 4

0 2
1 2

9 0 0 0 0 1 1 2 2 2 2 6.1861723644308588 0.52562187531610871 -7.745966692414834  3.4415341893623745 -0.0041912772491511487 0  
6.1876510791589263 0.52969979178815596 -7.745966692414834  3.4437695372285884 0.0041912772491511487 0  

0 2
0.0086754826955043555 2

0 2
1 2

1 6.1876510791589263 0.52969979178815596 -7.745966692414834 0 0 -1 -0.99536214949001356 0.096198707697245464 0 0.096198707697245464 0.99536214949001356 0 
1 3.4437695372285884 0.0041912772491511487 0 0 0 -1 -0.99995876582387322 0.0090811151295659125 0 0.0090811151295659125 0.99995876582387322 0 
Triangulations 0

TShapes 28
Ve
1.72132593164774e-07
6.18765107915893 0.529699791788156 -7.74596669241483
0 0

0101101
*
Ve
1.72132593164774e-07
4.47213595499958 0.677684273635696 -7.74596669241483
0 0

0101101
*
Ed
 1e-07 1 1 0
1  1 0 0 0.513737198904882
2  1 1 0 0 0.513737198904882
0

0101000
+28 0 -27 0 *
Ve
3.44265186329548e-07
0 0 0
0 0

0101101
*
Ed
 1e-07 1 1 0
1  2 0 0 1
2  2 1 0 0 1
2  3 2 0 0 1
0

0101000
+27 0 -25 0 *
Ve
3.44265186329548e-07
3.44376953722859 0.00419127724915115 0
0 0

0101101
*
Ed
 1e-07 1 1 0
1  3 0 0 0.513737198904882
2  4 1 0 0 0.513737198904882
0

0101000
+23 0 -25 0 *
Ed
 1e-07 1 1 0
1  4 0 0 1
2  5 1 0 0 1
2  6 3 0 0 1
0

0101000
+28 0 -23 0 *
Wi

0101000
+26 0 +24 0 -22 0 -21 0 *
Fa
0  1e-07 1 0

0111000
+20 0 *
Ve
1.72132593164774e-07
6.18617236443086 0.525621875316109 -7.74596669241483
0 0

0101101
*
Ed
 1e-07 1 1 0
1  5 0 0.513737198904882 1
2  7 2 0 0.513737198904882 1
0

0101000
+27 0 -18 0 *
Ve
3.44265186329548e-07
3.44153418936237 -0.00419127724915115 0
0 0

0101101
*
Ed
 1e-07 1 1 0
1  6 0 0 1
2  8 2 0 0 1
2  9 3 0 0 1
0

0101000
+18 0 -16 0 *
Ed
 1e-07 1 1 0
1  7 0 0.513737198904882 1
2  10 2 0 0.513737198904882 1
0

0101000
+25 0 -16 0 *
Wi

0101000
+17 0 +15 0 -14 0 -24 0 *
Fa
0  1e-07 2 0

0111000
+13 0 *
Ed
 1e-07 1 1 0
1  8 0 0 0.00433774134775218
2  11 3 0 0 0.00433774134775218
0

0101000
+18 0 -28 0 *
Ed
 1e-07 1 1 0
1  9 0 0 0.00867548269550436
2  12 3 0 0 0.00867548269550436
0

0101000
+16 0 -23 0 *
Wi

0101000
+11 0 +21 0 -10 0 -15 0 *
Fa
0  1e-07 3 0

0111000
+9 0 *
Wi

0101100
+26 0 +17 0 +11 0 *
Fa
0  1e-07 4 0

0111000
-7 0 *
Wi

0101100
+22 0 +14 0 +10 0 *
Fa
0  1e-07 5 0

0111000
-5 0 *
Sh

0101100
+19 0 +12 0 +8 0 +6 0 -4 0 *
So

0100100
+3 0 *
Co

1100000
+2 0 *

+1 0 
##EGADS HEADER FILE-REV 1 ##
0
  1  1  5  5  9  6  4
2 3 1
OML
 0.000000000000e+00
1 5 1
_body
7
1 5 1
_brch
18
2 8 3
_tParams
 2.489915075196e-01  9.959660300783e-03  1.500000000000e+01 
    2 0 5
1 5 2
_body
7 3 
1 5 2
_brch
18 3 
2 3 1
OML
 0.000000000000e+00
1 7 3
_faceID
7 3 1 
1 5 1
_hist
7
    2 1 5
1 5 2
_body
7 4 
1 5 2
_brch
18 4 
2 3 1
OML
 0.000000000000e+00
1 7 3
_faceID
7 4 1 
1 5 1
_hist
7
    2 2 5
1 5 2
_body
7 5 
1 5 2
_brch
18 5 
2 3 1
OML
 0.000000000000e+00
1 7 3
_faceID
7 5 1 
1 5 1
_hist
7
    2 3 5
1 5 2
_body
7 1 
1 5 2
_brch
18 1 
2 3 1
OML
 0.000000000000e+00
1 7 3
_faceID
7 1 1 
1 5 1
_hist
7
    2 4 5
1 5 2
_body
7 2 
1 5 2
_brch
18 2 
2 3 1
OML
 0.000000000000e+00
1 7 3
_faceID
7 2 1 
1 5 1
_hist
7
    4 0 3
1 5 2
_body
7 103 
1 7 5
_edgeID
7 1 7 3 1 
1 6 1
_nface
2
    4 1 3
1 5 2
_body
7 304 
1 7 5
_edgeID
7 3 7 4 1 
1 6 1
_nface
2
    4 2 3
1 5 2
_body
7 203 
1 7 5
_edgeID
7 2 7 3 1 
1 6 1
_nface
2
    4 3 3
1 5 2
_body
7 305 
1 7 5
_edgeID
7 3 7 5 1 
1 6 1
_nface
2
    4 4 3
1 5 2
_body
7 104 
1 7 5
_edgeID
7 1 7 4 1 
1 6 1
_nface
2
    4 5 3
1 5 2
_body
7 405 
1 7 5
_edgeID
7 4 7 5 1 
1 6 1
_nface
2
    4 6 3
1 5 2
_body
7 204 
1 7 5
_edgeID
7 2 7 4 1 
1 6 1
_nface
2
    4 7 3
1 5 2
_body
7 105 
1 7 5
_edgeID
7 1 7 5 1 
1 6 1
_nface
2
    4 8 3
1 5 2
_body
7 205 
1 7 5
_edgeID
7 2 7 5 1 
1 6 1
_nface
2
    0 0 0
