DBRep_DrawableShape

CASCADE Topology V1, (c) Matra-Datavision
Locations 0
Curve2ds 16
1 0 2 1 0 
1 0 -0 0 1 
1 6.2831853071795862 -0 0 1 
1 0 0 1 0 
1 3.1415926535897931 0 0 1 
1 3.1415926535897931 0 0 1 
1 0 2 1 0 
1 0 2 1 0 
1 0 2 1 0 
1 0 0 1 0 
1 0 0 1 0 
1 0 0 1 0 
1 3.1415926535897931 0 0 1 
1 3.1415926535897931 0 0 1 
1 0 -0 0 1 
1 6.2831853071795862 -0 0 1 
Curves 12
2 0 0 2 0 0 1 1 0 0 0 1 0 1
1 1 -2.4492935982947064e-16 0 0 0 1 
2 0 0 0 0 0 1 1 0 0 0 1 0 1
7 0 0  1 2 2  -1 1.2246467991473532e-16 0  -1 1.2246467991473532e-16 2 
 0 2 2 2
2 0 0 2 0 0 1 1 0 0 0 1 0 1
2 0 0 2 0 0 1 1 0 0 0 1 0 0.65000000000000002
2 0 0 2 0 0 1 1 0 0 0 1 0 0.65000000000000002
2 0 0 0 0 0 1 1 0 0 0 1 0 1
2 0 0 0 0 0 1 1 0 0 0 1 0 0.65000000000000002
2 0 0 0 0 0 1 1 0 0 0 1 0 0.65000000000000002
7 0 0  1 2 2  -0.65000000000000002 7.9602041944577967e-17 0  -0.65000000000000002 7.9602041944577967e-17 2 
 0 2 2 2
1 0.65000000000000002 -1.5920408388915593e-16 0 0 0 1 
Polygon3D 0
PolygonOnTriangulations 0
Surfaces 6
10 0 3.1415926535897931 0 2
2 0 0 0 0 0 1 1 0 0 0 1 0 1
10 3.1415926535897931 6.2831853071795862 0 2
2 0 0 0 0 0 1 1 0 0 0 1 0 1
1 0 0 2 0 0 1 1 0 0 0 1 0 
10 0 3.1415926535897931 0 2
2 0 0 0 0 0 1 1 0 0 0 1 0 0.65000000000000002
10 3.1415926535897931 6.2831853071795862 0 2
2 0 0 0 0 0 1 1 0 0 0 1 0 0.65000000000000002
1 0 0 0 0 0 1 1 0 0 0 1 0 
Triangulations 0

TShapes 37
Ve
1e-05
-1 1.22464679914735e-16 2
0 0

0101101
*
Ve
1e-07
1 -2.44929359829471e-16 2
0 0

0101101
*
Ed
 1e-07 1 1 0
1  1 0 0 3.14159265358979
2  1 1 0 0 3.14159265358979
0

0101000
-37 0 +36 0 *
Ve
1e-07
1 -2.44929359829471e-16 0
0 0

0101101
*
Ed
 1e-07 1 1 0
1  2 0 0 2
2  2 1 0 0 2
2  3 2 0 0 2
0

0101000
-36 0 +34 0 *
Ve
1e-05
-1 1.22464679914735e-16 0
0 0

0101101
*
Ed
 1e-07 1 1 0
1  3 0 0 3.14159265358979
2  4 1 0 0 3.14159265358979
0

0101000
+34 0 -32 0 *
Ed
 1e-05 1 1 0
1  4 0 0 2
2  5 1 0 0 2
2  6 2 0 0 2
0

0101000
+32 0 -37 0 *
Wi

0101100
-35 0 -33 0 +31 0 +30 0 *
Fa
0  1e-07 1 0

0111000
+29 0 *
Ed
 1e-07 1 1 0
1  5 0 3.14159265358979 6.28318530717959
2  7 2 0 3.14159265358979 6.28318530717959
0

0101000
-36 0 +37 0 *
Wi

0101000
+35 0 +27 0 *
Ve
1e-05
-0.65 7.9602041944578e-17 2
0 0

0101101
*
Ve
1e-07
0.65 -1.59204083889156e-16 2
0 0

0101101
*
Ed
 1e-07 1 1 0
1  6 0 0 3.14159265358979
2  8 4 0 0 3.14159265358979
0

0101000
-25 0 +24 0 *
Ed
 1e-07 1 1 0
1  7 0 3.14159265358979 6.28318530717959
2  9 5 0 3.14159265358979 6.28318530717959
0

0101000
-24 0 +25 0 *
Wi

0101000
-23 0 -22 0 *
Fa
0  1e-07 3 0

0111000
+26 0 +21 0 *
Ed
 1e-07 1 1 0
1  8 0 3.14159265358979 6.28318530717959
2  10 2 0 3.14159265358979 6.28318530717959
0

0101000
+32 0 -34 0 *
Wi

0101100
+19 0 +33 0 -27 0 -30 0 *
Fa
0  1e-07 2 0

0111000
+18 0 *
Wi

0101000
+31 0 +19 0 *
Ve
1e-07
0.65 -1.59204083889156e-16 0
0 0

0101101
*
Ve
1e-05
-0.65 7.9602041944578e-17 0
0 0

0101101
*
Ed
 1e-07 1 1 0
1  9 0 0 3.14159265358979
2  11 4 0 0 3.14159265358979
0

0101000
+15 0 -14 0 *
Ed
 1e-07 1 1 0
1  10 0 3.14159265358979 6.28318530717959
2  12 5 0 3.14159265358979 6.28318530717959
0

0101000
+14 0 -15 0 *
Wi

0101000
-13 0 -12 0 *
Fa
0  1e-07 6 0

0111000
+16 0 +11 0 *
Ed
 1e-05 1 1 0
1  11 0 0 2
2  13 4 0 0 2
2  14 5 0 0 2
0

0101000
+14 0 -25 0 *
Ed
 1e-07 1 1 0
1  12 0 0 2
2  15 4 0 0 2
2  16 5 0 0 2
0

0101000
-24 0 +15 0 *
Wi

0101000
-23 0 +9 0 -8 0 +13 0 *
Fa
0  1e-07 4 0

0111000
+7 0 *
Wi

0101000
+12 0 -9 0 +8 0 -22 0 *
Fa
0  1e-07 5 0

0111000
+5 0 *
Sh

0101100
+28 0 +20 0 +17 0 -10 0 -6 0 -4 0 *
So

0100000
+3 0 *
Co

1100000
+2 0 *

+1 0 
##EGADS HEADER FILE-REV 1 ##
0
  1  1  6  8  12  8  3
1 5 1
_body
3
1 5 1
_brch
3
2 8 3
_tParams
 9.142136489170e-02  3.656854595668e-03  1.500000000000e+01 
    2 0 4
1 5 2
_body
1 3 
1 5 2
_brch
1 3 
1 5 2
_hist
1 3 
1 7 3
_faceID
1 3 1 
    2 1 4
1 5 2
_body
1 2 
1 5 2
_brch
1 2 
1 5 2
_hist
1 3 
1 7 3
_faceID
1 2 1 
    2 2 4
1 5 2
_body
1 4 
1 5 2
_brch
1 4 
1 5 2
_hist
1 3 
1 7 3
_faceID
1 4 1 
    2 3 4
1 5 2
_body
1 1 
1 5 2
_brch
1 1 
1 5 2
_hist
1 3 
1 7 3
_faceID
1 1 1 
    2 4 4
1 5 2
_body
2 3 
1 5 2
_brch
2 3 
1 5 2
_hist
2 3 
1 7 3
_faceID
2 3 1 
    2 5 4
1 5 2
_body
2 4 
1 5 2
_brch
2 4 
1 5 2
_hist
2 3 
1 7 3
_faceID
2 4 1 
    4 0 3
1 5 2
_body
1 203 
1 6 1
_nface
2
1 7 5
_edgeID
1 2 1 3 1 
    4 1 3
1 5 2
_body
1 304 
1 6 1
_nface
2
1 7 5
_edgeID
1 3 1 4 1 
    4 2 3
1 5 2
_body
1 103 
1 6 1
_nface
2
1 7 5
_edgeID
1 1 1 3 1 
    4 3 3
1 5 2
_body
1 304 
1 6 1
_nface
2
1 7 5
_edgeID
1 3 1 4 2 
    4 4 3
1 5 2
_body
1 204 
1 6 1
_nface
2
1 7 5
_edgeID
1 2 1 4 1 
    4 5 3
1 5 2
_body
3 0 
1 6 1
_nface
2
1 7 5
_edgeID
1 2 2 3 1 
    4 6 3
1 5 2
_body
3 0 
1 6 1
_nface
2
1 7 5
_edgeID
1 2 2 4 1 
    4 7 3
1 5 2
_body
1 104 
1 6 1
_nface
2
1 7 5
_edgeID
1 1 1 4 1 
    4 8 3
1 5 2
_body
3 0 
1 6 1
_nface
2
1 7 5
_edgeID
1 1 2 3 1 
    4 9 3
1 5 2
_body
3 0 
1 6 1
_nface
2
1 7 5
_edgeID
1 1 2 4 1 
    4 10 3
1 5 2
_body
2 304 
1 6 1
_nface
2
1 7 5
_edgeID
2 3 2 4 1 
    4 11 3
1 5 2
_body
2 304 
1 6 1
_nface
2
1 7 5
_edgeID
2 3 2 4 2 
    5 0 2
1 7 1
_nodeID
1
1 6 1
_nedge
3
    5 1 2
1 7 1
_nodeID
2
1 6 1
_nedge
3
    5 2 2
1 7 1
_nodeID
3
1 6 1
_nedge
3
    5 3 2
1 7 1
_nodeID
4
1 6 1
_nedge
3
    5 4 2
1 7 1
_nodeID
5
1 6 1
_nedge
3
    5 5 2
1 7 1
_nodeID
6
1 6 1
_nedge
3
    5 6 2
1 7 1
_nodeID
7
1 6 1
_nedge
3
    5 7 2
1 7 1
_nodeID
8
1 6 1
_nedge
3
    0 0 0
