DBRep_DrawableShape

CASCADE Topology V1, (c) Matra-Datavision
Locations 0
Curve2ds 0
Curves 6
1 -1 -1 0 1 0 0 
1 -1 1 0 0 -1 0 
1 1 -1 0 0 1 0 
1 1 1 0 -1 0 0 
2 0 0 0 0 0 1 1 0 0 0 1 0 0.65000000000000002
2 0 0 0 0 0 1 1 0 0 0 1 0 0.65000000000000002
Polygon3D 0
PolygonOnTriangulations 0
Surfaces 1
1 -1 -1 0 0 0 -1 0.70710678118654757 0.70710678118654757 0 0.70710678118654757 -0.70710678118654757 0 
Triangulations 0

TShapes 17
Ve
1e-07
-1 -1 0
0 0

0101101
*
Ve
1e-07
1 -1 0
0 0

0101101
*
Ed
 1e-07 1 1 0
1  1 0 0 2
0

0101000
+17 0 -16 0 *
Ve
1e-07
-1 1 0
0 0

0101101
*
Ed
 1e-07 1 1 0
1  2 0 0 2
0

0101000
+14 0 -17 0 *
Ve
1e-07
1 1 0
0 0

0101101
*
Ed
 1e-07 1 1 0
1  3 0 0 2
0

0101000
+16 0 -12 0 *
Ed
 1e-07 1 1 0
1  4 0 0 2
0

0101000
+12 0 -14 0 *
Wi

0101000
-15 0 -13 0 -11 0 -10 0 *
Ve
1e-07
0.65 -1.59204083889156e-16 0
0 0

0101101
*
Ve
1e-07
-0.65 7.9602041944578e-17 0
0 0

0101101
*
Ed
 1e-07 1 1 0
1  5 0 0 3.14159265358979
0

0101000
+8 0 -7 0 *
Ed
 1e-07 1 1 0
1  6 0 3.14159265358979 6.28318530717959
0

0101000
+7 0 -8 0 *
Wi

0101000
+6 0 +5 0 *
Fa
0  1e-07 1 0

0111000
+9 0 +4 0 *
Sh

0101000
-3 0 *
Co

1100000
+2 0 *

+1 0 
##EGADS HEADER FILE-REV 1 ##
0
  0  1  1  2  6  6  3
1 5 1
_body
8
1 5 1
_brch
8
2 8 3
_tParams
 7.071068518972e-02  2.828427407589e-03  1.500000000000e+01 
    2 0 3
1 5 2
_body
6 0 
1 5 2
_brch
6 0 
1 7 3
_faceID
6 0 1 
    4 0 2
1 5 2
_body
6 -3 
1 7 5
_edgeID
0 0 6 0 2 
    4 1 2
1 5 2
_body
6 -3 
1 7 5
_edgeID
0 0 6 0 1 
    4 2 2
1 5 2
_body
6 -3 
1 7 5
_edgeID
0 0 6 0 6 
    4 3 2
1 5 2
_body
6 -3 
1 7 5
_edgeID
0 0 6 0 5 
    4 4 2
1 5 2
_body
6 -3 
1 7 5
_edgeID
0 0 6 0 4 
    4 5 2
1 5 2
_body
6 -3 
1 7 5
_edgeID
0 0 6 0 3 
    0 0 0
