DBRep_DrawableShape

CASCADE Topology V1, (c) Matra-Datavision
Locations 2
1
              1               0               0               0 
              0               1               0               0 
              0               0               1               2 
2  1 -1 0
Curve2ds 0
Curves 12
1 0 0 0 0 0 1 
1 1 0 0 0 0 1 
1 0 0 0 1 0 0 
1 0 0 0 1 0 0 
1 2 1 0 0 0 1 
1 1 0 0 0.70710678118654746 0.70710678118654746 0 
1 1 0 0 0.70710678118654746 0.70710678118654746 0 
1 1 1 0 0 0 1 
1 2 1 0 -1 0 0 
1 2 1 0 -1 0 0 
1 1 1 0 -0.70710678118654746 -0.70710678118654746 0 
1 1 1 0 -0.70710678118654746 -0.70710678118654746 0 
Polygon3D 0
PolygonOnTriangulations 0
Surfaces 6
1 0 0 0 0 1 0 1 0 0 0 0 -1 
1 1 0 0 -0.70710678118654757 0.70710678118654757 0 0.70710678118654757 0.70710678118654757 0 0 0 -1 
1 2 1 0 0 -1 0 -1 0 0 -0 -0 -1 
1 1 1 0 0.70710678118654757 -0.70710678118654757 0 -0.70710678118654757 -0.70710678118654757 0 0 -0 -1 
1 0 0 0 0 0 -1 0.89442719099991597 0.44721359549995798 0 0.44721359549995798 -0.89442719099991597 0 
1 0 0 0 0 0 -1 0.89442719099991597 0.44721359549995798 0 0.44721359549995798 -0.89442719099991597 0 
Triangulations 0

TShapes 35
Ve
1e-07
0 0 0
0 0

0101101
*
Ve
1e-07
0 0 2
0 0

0101101
*
Ed
 1e-07 1 1 0
1  1 0 0 2
0

0101000
+35 0 -34 0 *
Ve
1e-07
1 0 0
0 0

0101101
*
Ve
1e-07
1 0 2
0 0

0101101
*
Ed
 1e-07 1 1 0
1  2 0 0 2
0

0101000
+32 0 -31 0 *
Ed
 1e-07 1 1 0
1  3 0 0 1
0

0101000
+35 0 -32 0 *
Ed
 1e-07 1 1 0
1  4 0 0 1
0

0101000
+34 2 -31 2 *
Wi

0101000
+33 0 -30 0 -29 0 +28 1 *
Fa
0  1e-07 1 0

0101000
+27 0 *
Ve
1e-07
2 1 0
0 0

0101101
*
Ve
1e-07
2 1 2
0 0

0101101
*
Ed
 1e-07 1 1 0
1  5 0 0 2
0

0101000
+25 0 -24 0 *
Ed
 1e-07 1 1 0
1  6 0 0 1.4142135623731
0

0101000
+32 0 -25 0 *
Ed
 1e-07 1 1 0
1  7 0 0 1.4142135623731
0

0101000
+31 2 -24 2 *
Wi

0101000
+30 0 -23 0 -22 0 +21 1 *
Fa
0  1e-07 2 0

0101000
+20 0 *
Ve
1e-07
1 1 0
0 0

0101101
*
Ve
1e-07
1 1 2
0 0

0101101
*
Ed
 1e-07 1 1 0
1  8 0 0 2
0

0101000
+18 0 -17 0 *
Ed
 1e-07 1 1 0
1  9 0 0 1
0

0101000
+25 0 -18 0 *
Ed
 1e-07 1 1 0
1  10 0 0 1
0

0101000
+24 2 -17 2 *
Wi

0101000
+23 0 -16 0 -15 0 +14 1 *
Fa
0  1e-07 3 0

0101000
+13 0 *
Ed
 1e-07 1 1 0
1  11 0 0 1.4142135623731
0

0101000
+18 0 -35 0 *
Ed
 1e-07 1 1 0
1  12 0 0 1.4142135623731
0

0101000
+17 2 -34 2 *
Wi

0101000
+16 0 -33 0 -11 0 +10 1 *
Fa
0  1e-07 4 0

0101000
+9 0 *
Wi

0101100
+29 0 +22 0 +15 0 +11 0 *
Fa
0  1e-07 5 0

0111000
-7 0 *
Wi

0101100
+28 0 +21 0 +14 0 +10 0 *
Fa
0  1e-07 6 0

0111000
-5 0 *
Sh

0101100
-26 0 -19 0 -12 0 -8 0 +6 0 -4 1 *
So

0100100
+3 0 *
Co

1100000
+2 0 *

+1 0 
##EGADS HEADER FILE-REV 1 ##
0
  1  1  6  6  12  8  3
1 5 1
_body
7
1 5 1
_brch
7
2 8 3
_tParams
 7.500000833333e-02  3.000000333333e-03  1.500000000000e+01 
    2 0 4
1 5 2
_body
7 3 
1 5 2
_brch
7 3 
1 7 3
_faceID
7 3 1 
1 5 1
_hist
7
    2 1 4
1 5 2
_body
7 4 
1 5 2
_brch
7 4 
1 7 3
_faceID
7 4 1 
1 5 1
_hist
7
    2 2 4
1 5 2
_body
7 5 
1 5 2
_brch
7 5 
1 7 3
_faceID
7 5 1 
1 5 1
_hist
7
    2 3 4
1 5 2
_body
7 6 
1 5 2
_brch
7 6 
1 7 3
_faceID
7 6 1 
1 5 1
_hist
7
    2 4 4
1 5 2
_body
7 1 
1 5 2
_brch
7 1 
1 5 2
_hist
6 7 
1 7 3
_faceID
7 1 1 
    2 5 4
1 5 2
_body
7 2 
1 5 2
_brch
7 2 
1 7 3
_faceID
7 2 1 
1 5 1
_hist
7
    4 0 3
1 5 2
_body
7 306 
1 7 5
_edgeID
7 3 7 6 1 
1 6 1
_nface
2
    4 1 3
1 5 2
_body
7 304 
1 7 5
_edgeID
7 3 7 4 1 
1 6 1
_nface
2
    4 2 3
1 5 2
_body
7 103 
1 7 5
_edgeID
7 1 7 3 1 
1 6 1
_nface
2
    4 3 3
1 5 2
_body
7 203 
1 7 5
_edgeID
7 2 7 3 1 
1 6 1
_nface
2
    4 4 3
1 5 2
_body
7 405 
1 7 5
_edgeID
7 4 7 5 1 
1 6 1
_nface
2
    4 5 3
1 5 2
_body
7 104 
1 7 5
_edgeID
7 1 7 4 1 
1 6 1
_nface
2
    4 6 3
1 5 2
_body
7 204 
1 7 5
_edgeID
7 2 7 4 1 
1 6 1
_nface
2
    4 7 3
1 5 2
_body
7 506 
1 7 5
_edgeID
7 5 7 6 1 
1 6 1
_nface
2
    4 8 3
1 5 2
_body
7 105 
1 7 5
_edgeID
7 1 7 5 1 
1 6 1
_nface
2
    4 9 3
1 5 2
_body
7 205 
1 7 5
_edgeID
7 2 7 5 1 
1 6 1
_nface
2
    4 10 3
1 5 2
_body
7 106 
1 7 5
_edgeID
7 1 7 6 1 
1 6 1
_nface
2
    4 11 3
1 5 2
_body
7 206 
1 7 5
_edgeID
7 2 7 6 1 
1 6 1
_nface
2
    5 0 2
1 7 1
_nodeID
1
1 6 1
_nedge
3
    5 1 2
1 7 1
_nodeID
2
1 6 1
_nedge
3
    5 2 2
1 7 1
_nodeID
3
1 6 1
_nedge
3
    5 3 2
1 7 1
_nodeID
4
1 6 1
_nedge
3
    5 4 2
1 7 1
_nodeID
5
1 6 1
_nedge
3
    5 5 2
1 7 1
_nodeID
6
1 6 1
_nedge
3
    5 6 2
1 7 1
_nodeID
7
1 6 1
_nedge
3
    5 7 2
1 7 1
_nodeID
8
1 6 1
_nedge
3
    0 0 0
