DBRep_DrawableShape

CASCADE Topology V1, (c) Matra-Datavision
Locations 0
Curve2ds 8
1 3.1415926535897931 0 0 1 
1 0 3.1415926535897931 1 0 
1 0 3.1415926535897931 1 0 
1 4.7123889803846897 -1.5707963267948966 0 1 
1 0 0 1 0 
1 0 6.2831853071795862 1 0 
1 3.1415926535897931 0 0 1 
1 4.7123889803846897 -1.5707963267948966 0 1 
Curves 6
7 0 0  7 8 2  -1.2 1.4695761589768238e-16 -5.5511151231257827e-17  -1.200000000000002 1.4695761589768248e-16 0.089759790102566184  -1.1529912574646535 1.4120070528989734e-16 0.17944099185481269  -1.0590751476476619 1.2969929896232119e-16 0.24009291578335384  -0.94092485235233903 1.1523006086714974e-16 0.24009291578334363  -0.84700874253534642 1.0372865453957309e-16 0.17944099185481843  -0.7999999999999966 9.7971743931788015e-17 0.089759790102564754  -0.80000000000000004 9.7971743931788249e-17 0 
 0 8 3.1415926535897931 8
7 0 0  11 12 2  0.79999999999999993 -3.707185788342394e-16 2.4492935982947065e-17  0.80000000000002924 0.45695893143119026 2.449293598294591e-17  0.51294598996445762 0.91390750716038394 2.4492935982951506e-17  -0.061757548630494097 1.170519022290555 2.4492935982937756e-17  -0.76384577764522499 1.0256585508649219 2.4492935982960322e-17  -1.2873420895718894 0.4229824522716944 2.4492935982932952e-17  -1.2873420895728991 -0.42298245227178211 2.449293598295888e-17  -0.76384577764446115 -1.0256585508647165 2.4492935982939072e-17  -0.061757548630926251 -1.1705190222907547 2.449293598295146e-17  0.51294598996463192 -0.91390750716027258 2.4492935982945235e-17  0.7999999999999865 -0.45695893143122202 2.4492935982947537e-17  0.79999999999999949 -2.5674882900294647e-16 2.4492935982947068e-17 
 0 12 6.2831853071795862 12
2 0 -1 0 -1 0 0 0 0 -1 -0 -1 -0 0.20000000000000001
2 0 0 -4.8985871965894131e-17 0 0 1 1 0 -0 -0 1 0 1.2
7 0 0  7 8 2  -0.80000000000000004 9.7971743931788262e-17 5.5511151231257827e-17  -0.8000000000000016 9.7971743931788952e-17 -0.089759790102566045  -0.84700874253532332 1.0372865453956921e-16 -0.17944099185481296  -0.94092485235238332 1.1523006086715692e-16 -0.24009291578335359  -1.0590751476476183 1.2969929896231367e-16 -0.24009291578334327  -1.1529912574646759 1.412007052899016e-16 -0.17944099185481907  -1.1999999999999977 1.4695761589768139e-16 -0.089759790102564505  -1.2 1.4695761589768238e-16 -5.5511151231257827e-17 
 3.1415926535897931 8 6.2831853071795862 8
2 0 -1 0 -1 0 0 0 0 -1 -0 -1 -0 0.20000000000000001
Polygon3D 0
PolygonOnTriangulations 0
Surfaces 4
10 3.1415926535897931 6.2831853071795862 0 3.1415926535897931
5 0 0 0 0 0 1 1 0 -0 -0 1 0 1 0.20000000000000001
10 3.1415926535897931 6.2831853071795862 3.1415926535897931 6.2831853071795862
5 0 0 0 0 0 1 1 0 -0 -0 1 0 1 0.20000000000000001
1 0 0 -2 0 -1 0 -1 0 0 -0 -0 -1 
1 0 -2 -2 -1 0 0 0 1 0 0 0 -1 
Triangulations 0

TShapes 21
Ve
1e-05
-0.8 0 0
0 0

0101101
*
Ve
1e-05
-1.2 0 0
0 0

0101101
*
Ed
 1e-05 1 1 0
1  1 0 0 3.14159265358979
2  1 1 0 0 3.14159265358979
0

0101000
-21 0 +20 0 *
Ve
1.0100001e-05
-5.55111512312578e-16 -0.799999952975845 2.44929359829471e-17
0 0

0101101
*
Ed
 1e-05 1 1 0
1  2 0 3.14159265358979 4.71238782660452
2  2 1 0 3.14159265358979 4.71238782660452
2  3 2 0 3.14159265358979 4.71238782660452
0

0101000
+21 0 -18 0 *
Ve
2.00001e-07
-2.20436423846524e-16 -1.2 -4.89858719658941e-17
0 0

0101101
*
Ed
 1e-07 1 1 0
1  3 0 1.5707963267949 4.71238898038469
2  4 1 0 1.5707963267949 4.71238898038469
0

0101000
+16 0 -18 0 *
Ed
 1e-07 1 1 0
1  4 0 3.14159265358979 4.71238898038469
2  5 1 0 3.14159265358979 4.71238898038469
2  6 2 0 3.14159265358979 4.71238898038469
0

0101000
+20 0 -16 0 *
Wi

0101000
-19 0 -17 0 +15 0 +14 0 *
Fa
0  1e-07 1 0

0111000
+13 0 *
Ed
 1e-05 1 1 0
1  5 0 3.14159265358979 6.28318530717959
2  7 2 0 3.14159265358979 6.28318530717959
0

0101000
+21 0 -20 0 *
Wi

0101000
-11 0 -19 0 *
Fa
0  1e-07 3 0

0111000
+10 0 *
Ed
 1e-07 1 1 0
1  6 0 4.71238898038469 7.85398163397448
2  8 2 0 4.71238898038469 7.85398163397448
0

0101000
+18 0 -16 0 *
Wi

0101000
-11 0 -14 0 +8 0 +17 0 *
Fa
0  1e-07 2 0

0111000
+7 0 *
Wi

0101000
+8 0 +15 0 *
Fa
0  1e-07 4 0

0111000
+5 0 *
Sh

0101100
+12 0 -9 0 +6 0 -4 0 *
So

0100000
+3 0 *
Co

1100000
+2 0 *

+1 0 
##EGADS HEADER FILE-REV 1 ##
0
  1  1  4  4  6  4  3
1 5 1
_body
9
1 5 1
_brch
10
2 8 3
_tParams
 4.731002242086e-02  1.892400896835e-03  1.500000000000e+01 
    2 0 4
1 5 2
_body
1 1 
1 5 2
_brch
1 1 
1 5 2
_hist
1 9 
1 7 3
_faceID
1 1 1 
    2 1 4
1 5 2
_body
8 5 
1 5 2
_brch
9 5 
1 5 2
_hist
8 9 
1 7 3
_faceID
8 5 1 
    2 2 4
1 5 2
_body
1 4 
1 5 2
_brch
1 4 
1 5 2
_hist
1 9 
1 7 3
_faceID
1 4 1 
    2 3 4
1 5 2
_body
8 4 
1 5 2
_brch
9 4 
1 5 2
_hist
8 9 
1 7 3
_faceID
8 4 1 
    4 0 3
1 5 2
_body
9 0 
1 6 1
_nface
2
1 7 5
_edgeID
1 1 8 5 1 
    4 1 3
1 5 2
_body
1 104 
1 7 5
_edgeID
1 1 1 4 1 
1 6 1
_nface
2
    4 2 3
1 5 2
_body
9 0 
1 7 5
_edgeID
1 1 8 4 1 
1 6 1
_nface
2
    4 3 3
1 5 2
_body
1 104 
1 7 5
_edgeID
1 1 1 4 2 
1 6 1
_nface
2
    4 4 3
1 5 2
_body
9 0 
1 6 1
_nface
2
1 7 5
_edgeID
1 4 8 5 1 
    4 5 3
1 5 2
_body
9 0 
1 7 5
_edgeID
1 4 8 4 1 
1 6 1
_nface
2
    5 0 2
1 7 1
_nodeID
1
1 6 1
_nedge
3
    5 1 2
1 7 1
_nodeID
2
1 6 1
_nedge
3
    5 2 2
1 7 1
_nodeID
3
1 6 1
_nedge
3
    5 3 2
1 7 1
_nodeID
4
1 6 1
_nedge
3
    0 0 0
