DBRep_DrawableShape

CASCADE Topology V1, (c) Matra-Datavision
Locations 8
1
              1               0               0               0 
              0               1               0               0 
              0               0               1               1 
2  1 -1 0
1
              1               0               0               0 
              0               1               0               0 
              0               0               1               1 
2  3 -1 0
1
              1               0               0               0 
              0               1               0               0 
              0               0               1               1 
2  5 -1 0
1
              1               0               0               0 
              0               1               0               0 
              0               0               1               1 
2  7 -1 0
Curve2ds 0
Curves 48
1 -1 -1 0 0 0 1 
1 1 -1 0 0 0 1 
1 -1 -1 0 1 0 0 
1 -1 -1 0 1 0 0 
1 -1 1 0 0 0 1 
1 -1 1 0 0 -1 0 
1 -1 1 0 0 -1 0 
1 1 1 0 0 0 1 
1 1 -1 0 0 1 0 
1 1 -1 0 0 1 0 
1 1 1 0 -1 0 0 
1 0 -0.5 0 -1 0 0 
1 0 -0.75 0 0 1 0 
1 -0.5 -0.5 0 0 -1 0 
1 -0.5 -0.75 0 1 0 0 
1 0.25 -0.75 0 1 0 0 
1 0.25 0 0 0 -1 0 
1 0.5 -0.75 0 0 1 0 
1 0.5 0 0 -1 0 0 
1 0.84999999999999998 0.80000000000000004 0 -1 0 0 
1 0.84999999999999998 0.5 0 0 1 0 
1 -0.90000000000000002 0.5 0 1 0 0 
1 -0.90000000000000002 0.80000000000000004 0 0 -1 0 
1 1 1 0 -1 0 0 
1 0 -0.5 0 -1 0 0 
1 0 -0.75 0 0 1 0 
1 -0.5 -0.5 0 0 -1 0 
1 -0.5 -0.75 0 1 0 0 
1 0.25 -0.75 0 1 0 0 
1 0.25 0 0 0 -1 0 
1 0.5 -0.75 0 0 1 0 
1 0.5 0 0 -1 0 0 
1 0.84999999999999998 0.80000000000000004 0 -1 0 0 
1 0.84999999999999998 0.5 0 0 1 0 
1 -0.90000000000000002 0.5 0 1 0 0 
1 -0.90000000000000002 0.80000000000000004 0 0 -1 0 
1 0 -0.5 0 0 0 1 
1 -0.5 -0.5 0 0 0 1 
1 0 -0.75 0 0 0 1 
1 -0.5 -0.75 0 0 0 1 
1 0.25 -0.75 0 0 0 1 
1 0.5 -0.75 0 0 0 1 
1 0.25 0 0 0 0 1 
1 0.5 0 0 0 0 1 
1 0.84999999999999998 0.80000000000000004 0 0 0 1 
1 -0.90000000000000002 0.80000000000000004 0 0 0 1 
1 0.84999999999999998 0.5 0 0 0 1 
1 -0.90000000000000002 0.5 0 0 0 1 
Polygon3D 0
PolygonOnTriangulations 0
Surfaces 18
1 -1 -1 0 0 1 0 1 0 0 0 0 -1 
1 -1 1 0 1 0 -0 0 -1 0 0 -0 -1 
1 1 -1 0 -1 0 0 0 1 0 0 0 -1 
1 -1 -1 0 0 0 -1 0.70710678118654757 0.70710678118654757 0 0.70710678118654757 -0.70710678118654757 0 
1 -1 -1 0 0 0 -1 0.70710678118654757 0.70710678118654757 0 0.70710678118654757 -0.70710678118654757 0 
1 1 1 0 0 -1 0 -1 0 0 -0 -0 -1 
1 0 -0.5 0 0 -1 0 -1 0 0 -0 -0 -1 
1 0 -0.75 0 -1 0 0 0 1 0 0 0 -1 
1 -0.5 -0.5 0 1 0 -0 0 -1 0 0 -0 -1 
1 -0.5 -0.75 0 0 1 0 1 0 0 0 0 -1 
1 0.25 -0.75 0 0 1 0 1 0 0 0 0 -1 
1 0.25 0 0 1 0 -0 0 -1 0 0 -0 -1 
1 0.5 -0.75 0 -1 0 0 0 1 0 0 0 -1 
1 0.5 0 0 0 -1 0 -1 0 0 -0 -0 -1 
1 0.84999999999999998 0.80000000000000004 0 0 -1 0 -1 0 0 -0 -0 -1 
1 0.84999999999999998 0.5 0 -1 0 0 0 1 0 0 0 -1 
1 -0.90000000000000002 0.5 0 0 1 0 1 0 0 0 0 -1 
1 -0.90000000000000002 0.80000000000000004 0 1 0 -0 0 -1 0 0 -0 -1 
Triangulations 0

TShapes 125
Ve
1e-07
-1 -1 0
0 0

0101101
*
Ve
1e-07
-1 -1 1
0 0

0101101
*
Ed
 1e-07 1 1 0
1  1 0 0 1
0

0101000
+125 0 -124 0 *
Ve
1e-07
1 -1 0
0 0

0101101
*
Ve
1e-07
1 -1 1
0 0

0101101
*
Ed
 1e-07 1 1 0
1  2 0 0 1
0

0101000
+122 0 -121 0 *
Ed
 1e-07 1 1 0
1  3 0 0 2
0

0101000
+125 0 -122 0 *
Ed
 1e-07 1 1 0
1  4 0 0 2
0

0101000
+124 2 -121 2 *
Wi

0101000
+123 0 -120 0 -119 0 +118 1 *
Fa
0  1e-07 1 0

0111000
+117 0 *
Ve
1e-07
-1 1 0
0 0

0101101
*
Ve
1e-07
-1 1 1
0 0

0101101
*
Ed
 1e-07 1 1 0
1  5 0 0 1
0

0101000
+115 0 -114 0 *
Ed
 1e-07 1 1 0
1  6 0 0 2
0

0101000
+115 0 -125 0 *
Ed
 1e-07 1 1 0
1  7 0 0 2
0

0101000
+114 2 -124 2 *
Wi

0101000
+113 0 -123 0 -112 0 +111 1 *
Fa
0  1e-07 2 0

0111000
+110 0 *
Ve
1e-07
1 1 0
0 0

0101101
*
Ve
1e-07
1 1 1
0 0

0101101
*
Ed
 1e-07 1 1 0
1  8 0 0 1
0

0101000
+108 0 -107 0 *
Ed
 1e-07 1 1 0
1  9 0 0 2
0

0101000
+122 0 -108 0 *
Ed
 1e-07 1 1 0
1  10 0 0 2
0

0101000
+121 2 -107 2 *
Wi

0101000
+120 0 -106 0 -105 0 +104 1 *
Fa
0  1e-07 3 0

0111000
+103 0 *
Ed
 1e-07 1 1 0
1  11 0 0 2
0

0101000
+108 0 -115 0 *
Wi

0101000
-119 0 -112 0 -105 0 -101 0 *
Ve
1e-07
0 -0.5 0
0 0

0101101
*
Ve
1e-07
-0.5 -0.5 0
0 0

0101101
*
Ed
 1e-07 1 1 0
1  12 0 0 0.5
0

0101000
+99 0 -98 0 *
Ve
1e-07
0 -0.75 0
0 0

0101101
*
Ed
 1e-07 1 1 0
1  13 0 0 0.25
0

0101000
+96 0 -99 0 *
Ve
1e-07
-0.5 -0.75 0
0 0

0101101
*
Ed
 1e-07 1 1 0
1  14 0 0 0.25
0

0101000
+98 0 -94 0 *
Ed
 1e-07 1 1 0
1  15 0 0 0.5
0

0101000
+94 0 -96 0 *
Wi

0101000
+97 0 +95 0 +93 0 +92 0 *
Ve
1e-07
0.25 -0.75 0
0 0

0101101
*
Ve
1e-07
0.5 -0.75 0
0 0

0101101
*
Ed
 1e-07 1 1 0
1  16 0 0 0.25
0

0101000
+90 0 -89 0 *
Ve
1e-07
0.25 0 0
0 0

0101101
*
Ed
 1e-07 1 1 0
1  17 0 0 0.75
0

0101000
+87 0 -90 0 *
Ve
1e-07
0.5 0 0
0 0

0101101
*
Ed
 1e-07 1 1 0
1  18 0 0 0.75
0

0101000
+89 0 -85 0 *
Ed
 1e-07 1 1 0
1  19 0 0 0.25
0

0101000
+85 0 -87 0 *
Wi

0101000
+88 0 +86 0 +84 0 +83 0 *
Ve
1e-07
0.85 0.8 0
0 0

0101101
*
Ve
1e-07
-0.9 0.8 0
0 0

0101101
*
Ed
 1e-07 1 1 0
1  20 0 0 1.75
0

0101000
+81 0 -80 0 *
Ve
1e-07
0.85 0.5 0
0 0

0101101
*
Ed
 1e-07 1 1 0
1  21 0 0 0.3
0

0101000
+78 0 -81 0 *
Ve
1e-07
-0.9 0.5 0
0 0

0101101
*
Ed
 1e-07 1 1 0
1  22 0 0 1.75
0

0101000
+76 0 -78 0 *
Ed
 1e-07 1 1 0
1  23 0 0 0.3
0

0101000
+80 0 -76 0 *
Wi

0101000
+79 0 +77 0 +75 0 +74 0 *
Fa
0  1e-07 4 0

0111000
+100 0 +91 0 +82 0 +73 0 *
Ed
 1e-07 1 1 0
1  24 0 0 2
0

0101000
+107 2 -114 2 *
Wi

0101000
-118 1 -111 1 -104 1 -71 1 *
Ve
1e-07
0 -0.5 1
0 0

0101101
*
Ve
1e-07
-0.5 -0.5 1
0 0

0101101
*
Ed
 1e-07 1 1 0
1  25 0 0 0.5
0

0101000
+69 4 -68 4 *
Ve
1e-07
0 -0.75 1
0 0

0101101
*
Ed
 1e-07 1 1 0
1  26 0 0 0.25
0

0101000
+66 4 -69 4 *
Ve
1e-07
-0.5 -0.75 1
0 0

0101101
*
Ed
 1e-07 1 1 0
1  27 0 0 0.25
0

0101000
+68 4 -64 4 *
Ed
 1e-07 1 1 0
1  28 0 0 0.5
0

0101000
+64 4 -66 4 *
Wi

0101000
+67 3 +65 3 +63 3 +62 3 *
Ve
1e-07
0.25 -0.75 1
0 0

0101101
*
Ve
1e-07
0.5 -0.75 1
0 0

0101101
*
Ed
 1e-07 1 1 0
1  29 0 0 0.25
0

0101000
+60 6 -59 6 *
Ve
1e-07
0.25 0 1
0 0

0101101
*
Ed
 1e-07 1 1 0
1  30 0 0 0.75
0

0101000
+57 6 -60 6 *
Ve
1e-07
0.5 0 1
0 0

0101101
*
Ed
 1e-07 1 1 0
1  31 0 0 0.75
0

0101000
+59 6 -55 6 *
Ed
 1e-07 1 1 0
1  32 0 0 0.25
0

0101000
+55 6 -57 6 *
Wi

0101000
+58 5 +56 5 +54 5 +53 5 *
Ve
1e-07
0.85 0.8 1
0 0

0101101
*
Ve
1e-07
-0.9 0.8 1
0 0

0101101
*
Ed
 1e-07 1 1 0
1  33 0 0 1.75
0

0101000
+51 8 -50 8 *
Ve
1e-07
0.85 0.5 1
0 0

0101101
*
Ed
 1e-07 1 1 0
1  34 0 0 0.3
0

0101000
+48 8 -51 8 *
Ve
1e-07
-0.9 0.5 1
0 0

0101101
*
Ed
 1e-07 1 1 0
1  35 0 0 1.75
0

0101000
+46 8 -48 8 *
Ed
 1e-07 1 1 0
1  36 0 0 0.3
0

0101000
+50 8 -46 8 *
Wi

0101000
+49 7 +47 7 +45 7 +44 7 *
Fa
0  1e-07 5 1

0111000
+70 0 +61 0 +52 0 +43 0 *
Wi

0101000
+106 0 -113 0 -101 0 +71 1 *
Fa
0  1e-07 6 0

0111000
+41 0 *
Ed
 1e-07 1 1 0
1  37 0 0 1
0

0101000
+99 0 -69 0 *
Ed
 1e-07 1 1 0
1  38 0 0 1
0

0101000
+98 0 -68 0 *
Wi

0101000
+39 0 -97 0 +67 3 -38 0 *
Fa
0  1e-07 7 0

0111000
+37 0 *
Ed
 1e-07 1 1 0
1  39 0 0 1
0

0101000
+96 0 -66 0 *
Wi

0101000
+35 0 -95 0 +65 3 -39 0 *
Fa
0  1e-07 8 0

0111000
+34 0 *
Ed
 1e-07 1 1 0
1  40 0 0 1
0

0101000
+94 0 -64 0 *
Wi

0101000
+38 0 -93 0 +63 3 -32 0 *
Fa
0  1e-07 9 0

0111000
+31 0 *
Wi

0101000
+32 0 -92 0 +62 3 -35 0 *
Fa
0  1e-07 10 0

0111000
+29 0 *
Ed
 1e-07 1 1 0
1  41 0 0 1
0

0101000
+90 0 -60 0 *
Ed
 1e-07 1 1 0
1  42 0 0 1
0

0101000
+89 0 -59 0 *
Wi

0101000
+27 0 -88 0 +58 5 -26 0 *
Fa
0  1e-07 11 0

0111000
+25 0 *
Ed
 1e-07 1 1 0
1  43 0 0 1
0

0101000
+87 0 -57 0 *
Wi

0101000
+23 0 -86 0 +56 5 -27 0 *
Fa
0  1e-07 12 0

0111000
+22 0 *
Ed
 1e-07 1 1 0
1  44 0 0 1
0

0101000
+85 0 -55 0 *
Wi

0101000
+26 0 -84 0 +54 5 -20 0 *
Fa
0  1e-07 13 0

0111000
+19 0 *
Wi

0101000
+20 0 -83 0 +53 5 -23 0 *
Fa
0  1e-07 14 0

0111000
+17 0 *
Ed
 1e-07 1 1 0
1  45 0 0 1
0

0101000
+81 0 -51 0 *
Ed
 1e-07 1 1 0
1  46 0 0 1
0

0101000
+80 0 -50 0 *
Wi

0101000
+15 0 -79 0 +49 7 -14 0 *
Fa
0  1e-07 15 0

0111000
+13 0 *
Ed
 1e-07 1 1 0
1  47 0 0 1
0

0101000
+78 0 -48 0 *
Wi

0101000
+11 0 -77 0 +47 7 -15 0 *
Fa
0  1e-07 16 0

0111000
+10 0 *
Ed
 1e-07 1 1 0
1  48 0 0 1
0

0101000
+76 0 -46 0 *
Wi

0101000
+8 0 -75 0 +45 7 -11 0 *
Fa
0  1e-07 17 0

0111000
+7 0 *
Wi

0101000
+14 0 -74 0 +44 7 -8 0 *
Fa
0  1e-07 18 0

0111000
+5 0 *
Sh

0101100
-116 0 -109 0 -102 0 +72 0 -42 0 -40 0 +36 0 +33 0 +30 0 +28 0 
+24 0 +21 0 +18 0 +16 0 +12 0 +9 0 +6 0 +4 0 *
So

0100000
+3 0 *
Co

1100000
+2 0 *

+1 0 
##EGADS HEADER FILE-REV 1 ##
0
  1  1  18  24  48  32  3
1 5 1
_body
31
1 5 1
_brch
31
2 8 3
_tParams
 7.500000833333e-02  3.000000333333e-03  1.500000000000e+01 
    2 0 4
1 5 2
_body
7 3 
1 7 5
_edgeID
0 0 6 0 2 
1 5 2
_brch
7 3 
1 7 3
_faceID
7 3 1 
    2 1 4
1 5 2
_body
7 6 
1 7 5
_edgeID
0 0 6 0 1 
1 5 2
_brch
7 6 
1 7 3
_faceID
7 6 1 
    2 2 4
1 5 2
_body
7 4 
1 7 5
_edgeID
0 0 6 0 4 
1 5 2
_brch
7 4 
1 7 3
_faceID
7 4 1 
    2 3 3
1 5 2
_body
7 1 
1 5 2
_brch
7 1 
1 7 3
_faceID
7 1 1 
    2 4 3
1 5 2
_body
7 2 
1 5 2
_brch
7 2 
1 7 3
_faceID
7 2 1 
    2 5 4
1 5 2
_body
7 5 
1 7 5
_edgeID
0 0 6 0 3 
1 5 2
_brch
7 5 
1 7 3
_faceID
7 5 1 
    2 6 4
1 5 2
_body
14 5 
1 7 5
_edgeID
0 0 13 0 3 
1 5 2
_brch
14 5 
1 7 3
_faceID
14 5 1 
    2 7 4
1 5 2
_body
14 4 
1 7 5
_edgeID
0 0 13 0 4 
1 5 2
_brch
14 4 
1 7 3
_faceID
14 4 1 
    2 8 4
1 5 2
_body
14 6 
1 7 5
_edgeID
0 0 13 0 1 
1 5 2
_brch
14 6 
1 7 3
_faceID
14 6 1 
    2 9 4
1 5 2
_body
14 3 
1 7 5
_edgeID
0 0 13 0 2 
1 5 2
_brch
14 3 
1 7 3
_faceID
14 3 1 
    2 10 4
1 5 2
_body
22 3 
1 7 5
_edgeID
0 0 21 0 2 
1 5 2
_brch
22 3 
1 7 3
_faceID
22 3 1 
    2 11 4
1 5 2
_body
22 6 
1 7 5
_edgeID
0 0 21 0 1 
1 5 2
_brch
22 6 
1 7 3
_faceID
22 6 1 
    2 12 4
1 5 2
_body
22 4 
1 7 5
_edgeID
0 0 21 0 4 
1 5 2
_brch
22 4 
1 7 3
_faceID
22 4 1 
    2 13 4
1 5 2
_body
22 5 
1 7 5
_edgeID
0 0 21 0 3 
1 5 2
_brch
22 5 
1 7 3
_faceID
22 5 1 
    2 14 4
1 5 2
_body
30 5 
1 7 5
_edgeID
0 0 29 0 3 
1 5 2
_brch
30 5 
1 7 3
_faceID
30 5 1 
    2 15 4
1 5 2
_body
30 4 
1 7 5
_edgeID
0 0 29 0 4 
1 5 2
_brch
30 4 
1 7 3
_faceID
30 4 1 
    2 16 4
1 5 2
_body
30 3 
1 7 5
_edgeID
0 0 29 0 2 
1 5 2
_brch
30 3 
1 7 3
_faceID
30 3 1 
    2 17 4
1 5 2
_body
30 6 
1 7 5
_edgeID
0 0 29 0 1 
1 5 2
_brch
30 6 
1 7 3
_faceID
30 6 1 
    4 0 2
1 5 2
_body
7 306 
1 7 5
_edgeID
7 3 7 6 1 
    4 1 2
1 5 2
_body
7 304 
1 7 5
_edgeID
7 3 7 4 1 
    4 2 2
1 5 2
_body
7 103 
1 7 5
_edgeID
7 1 7 3 1 
    4 3 2
1 5 2
_body
7 203 
1 7 5
_edgeID
7 2 7 3 1 
    4 4 2
1 5 2
_body
7 506 
1 7 5
_edgeID
7 5 7 6 1 
    4 5 2
1 5 2
_body
7 106 
1 7 5
_edgeID
7 1 7 6 1 
    4 6 2
1 5 2
_body
7 206 
1 7 5
_edgeID
7 2 7 6 1 
    4 7 2
1 5 2
_body
7 405 
1 7 5
_edgeID
7 4 7 5 1 
    4 8 2
1 5 2
_body
7 104 
1 7 5
_edgeID
7 1 7 4 1 
    4 9 2
1 5 2
_body
7 204 
1 7 5
_edgeID
7 2 7 4 1 
    4 10 2
1 5 2
_body
7 105 
1 7 5
_edgeID
7 1 7 5 1 
    4 11 2
1 5 2
_body
15 0 
1 7 5
_edgeID
7 1 14 5 1 
    4 12 2
1 5 2
_body
15 0 
1 7 5
_edgeID
7 1 14 4 1 
    4 13 2
1 5 2
_body
15 0 
1 7 5
_edgeID
7 1 14 6 1 
    4 14 2
1 5 2
_body
15 0 
1 7 5
_edgeID
7 1 14 3 1 
    4 15 2
1 5 2
_body
23 0 
1 7 5
_edgeID
7 1 22 3 1 
    4 16 2
1 5 2
_body
23 0 
1 7 5
_edgeID
7 1 22 6 1 
    4 17 2
1 5 2
_body
23 0 
1 7 5
_edgeID
7 1 22 4 1 
    4 18 2
1 5 2
_body
23 0 
1 7 5
_edgeID
7 1 22 5 1 
    4 19 2
1 5 2
_body
31 0 
1 7 5
_edgeID
7 1 30 5 1 
    4 20 2
1 5 2
_body
31 0 
1 7 5
_edgeID
7 1 30 4 1 
    4 21 2
1 5 2
_body
31 0 
1 7 5
_edgeID
7 1 30 3 1 
    4 22 2
1 5 2
_body
31 0 
1 7 5
_edgeID
7 1 30 6 1 
    4 23 2
1 5 2
_body
7 205 
1 7 5
_edgeID
7 2 7 5 1 
    4 24 2
1 5 2
_body
15 0 
1 7 5
_edgeID
7 2 14 5 1 
    4 25 2
1 5 2
_body
15 0 
1 7 5
_edgeID
7 2 14 4 1 
    4 26 2
1 5 2
_body
15 0 
1 7 5
_edgeID
7 2 14 6 1 
    4 27 2
1 5 2
_body
15 0 
1 7 5
_edgeID
7 2 14 3 1 
    4 28 2
1 5 2
_body
23 0 
1 7 5
_edgeID
7 2 22 3 1 
    4 29 2
1 5 2
_body
23 0 
1 7 5
_edgeID
7 2 22 6 1 
    4 30 2
1 5 2
_body
23 0 
1 7 5
_edgeID
7 2 22 4 1 
    4 31 2
1 5 2
_body
23 0 
1 7 5
_edgeID
7 2 22 5 1 
    4 32 2
1 5 2
_body
31 0 
1 7 5
_edgeID
7 2 30 5 1 
    4 33 2
1 5 2
_body
31 0 
1 7 5
_edgeID
7 2 30 4 1 
    4 34 2
1 5 2
_body
31 0 
1 7 5
_edgeID
7 2 30 3 1 
    4 35 2
1 5 2
_body
31 0 
1 7 5
_edgeID
7 2 30 6 1 
    4 36 2
1 5 2
_body
14 405 
1 7 5
_edgeID
14 4 14 5 1 
    4 37 2
1 5 2
_body
14 506 
1 7 5
_edgeID
14 5 14 6 1 
    4 38 2
1 5 2
_body
14 304 
1 7 5
_edgeID
14 3 14 4 1 
    4 39 2
1 5 2
_body
14 306 
1 7 5
_edgeID
14 3 14 6 1 
    4 40 2
1 5 2
_body
22 306 
1 7 5
_edgeID
22 3 22 6 1 
    4 41 2
1 5 2
_body
22 304 
1 7 5
_edgeID
22 3 22 4 1 
    4 42 2
1 5 2
_body
22 506 
1 7 5
_edgeID
22 5 22 6 1 
    4 43 2
1 5 2
_body
22 405 
1 7 5
_edgeID
22 4 22 5 1 
    4 44 2
1 5 2
_body
30 405 
1 7 5
_edgeID
30 4 30 5 1 
    4 45 2
1 5 2
_body
30 506 
1 7 5
_edgeID
30 5 30 6 1 
    4 46 2
1 5 2
_body
30 304 
1 7 5
_edgeID
30 3 30 4 1 
    4 47 2
1 5 2
_body
30 306 
1 7 5
_edgeID
30 3 30 6 1 
    0 0 0
