DBRep_DrawableShape

CASCADE Topology V1, (c) Matra-Datavision
Locations 4
1
              1               0               0               0 
              0               1               0            0.95 
              0               0               1               0 
2  1 -1 0
1
              1               0               0               0 
              0               1               0           -0.95 
              0               0               1               0 
2  3 -1 0
Curve2ds 15
1 6.2831853071795862 -6.2831853071795862 0 1 
1 0 -6.2831853071795862 0 1 
1 0 -1.5707963267948966 1 0 
1 3.1415926535897931 0 0 1 
1 3.1415926535897931 0 0 1 
1 0 1.5707963267948966 1 0 
7 0 0  10 11 2  3.8643269014032073 0.64350110879328404  3.9597338855598254 0.53131304032610804  4.0214435132111248 0.40563809239597504  4.0588809359469451 0.27327210924340761  4.0803614371689036 0.13746115221329092  4.0865263817831874 -3.2741809263825417e-11  4.080361437110696 -0.13746115219510102  4.0588809364417102 -0.27327210924977408  4.0214435132656945 -0.40563809239461079  3.9597338855598259 -0.53131304032610782  3.8643269014032078 -0.64350110879328382 
 0.72273424781341578 11 2.4188584057763771 11
1 0 -0.64350110879328437 1 0 
7 0 0  10 11 2  5.5604510593661711 -0.64350110879328404  5.4650440752095539 -0.53131304032610804  5.4033344476804572 -0.40563809239506554  5.3658970242352311 -0.27327210925068357  5.3444165239736989 -0.137461152198739  5.3382515784863003 3.637978807091713e-12  5.3444165239445951 0.13746115220965294  5.3658970243953021 0.27327210924249812  5.4033344476677243 0.40563809239552029  5.465044075209553 0.53131304032610771  5.5604510593661711 0.64350110879328382 
 0.72273424781341578 11 2.4188584057763771 11
1 0 0.64350110879328437 1 0 
1 0 -1.5707963267948966 1 0 
1 0 1.5707963267948966 1 0 
1 0 -0.64350110879328437 1 0 
7 0 0  10 11 2  1.5707963267948966 0.6435011087932857  1.6414627693290635 0.50216822363014157  1.7038076081644249 0.36083475646046281  1.7650448184576817 0.22048686460675526  1.8272989103861619 0.081632728073600447  1.8938433943549171 -0.054816236923215911  1.9666305012651719 -0.18822139795156545  2.0499924084724626 -0.31675844205346948  2.1474256903529749 -0.43884819146683185  2.2686922154551521 -0.55001819213831749  2.4188584057763771 -0.64350110879328504 
 4.1215162302392701 11 5.701665915644071 11
7 0 0  10 11 2  0.72273424781341433 -0.64350110879328448  0.8729004381346408 -0.55001819213831815  0.99416696329353726 -0.43884819146489917  1.0916002450467204 -0.31675844206984038  1.1749621521448717 -0.18822139793519455  1.2477492601901758 -0.054816236979604582  1.3142937425291166 0.081632728080876404  1.3765478348796023 0.22048686459220335  1.4377850454711734 0.36083475646296392  1.5001298842607291 0.50216822363014058  1.5707963267948961 0.6435011087932847 
 3.7231120451253079 11 5.3032617305301084 11
Curves 23
2 0 0 0 -2.4492935982947064e-16 -1 0 1 -2.4492935982947064e-16 0 0 0 1 1
7 0 0  8 9 2  -1.1102230246251565e-16 -2.4651903288156619e-32 -1  -0.39269908169872153 4.8091767343044917e-17 -0.99999999999999967  -0.78540282094169278 9.6184105070752964e-17 -0.82371721549249899  -1.085784257205388 1.3297022151511942e-16 -0.47146844414511035  -1.201805729000238 1.4717875392170564e-16 -9.8809849191638837e-15  -1.0857842572053866 1.3297022151511954e-16 0.47146844414512662  -0.78540282094169511 9.6184105070752853e-17 0.82371721549249011  -0.3926990816987207 4.8091767343044966e-17 1.0000000000000024  -1.1102230246251565e-16 -2.4651903288156619e-32 1 
 -1.5707963267948966 9 1.5707963267948966 9
2 -0.59999999999999998 0 0 1 0 0 -0 0 1 0 -1 0 0.80000000000000004
2 0 0 -0.59999999999999998 0 0 1 1 0 -0 -0 1 0 0.80000000000000004
2 0.59999999999999998 0 0 -1 0 0 0 0 -1 -0 -1 -0 0.80000000000000004
2 0 0 0.59999999999999998 0 0 1 1 0 -0 -0 1 0 0.80000000000000004
2 0 0 -0.59999999999999998 0 0 1 1 0 -0 -0 1 0 0.80000000000000004
2 -0.24000000000000005 0 0.12000000000000002 -0.89442719099991597 0 0.44721359549995798 -0.44721359549995798 0 -0.89442719099991597 -0 -1 0 0.96332756630338356
2 0.24000000000000005 0 0.12000000000000002 0.89442719099991597 0 0.44721359549995798 -0.44721359549995798 0 0.89442719099991597 0 -1 0 0.96332756630338356
1 -0.59999999999999998 -1 0.59999999999999998 0 1 0 
1 -0.59999999999999998 -1 -0.59999999999999998 0 0 1 
1 -0.59999999999999998 -1 -0.59999999999999998 0 1 0 
1 0.59999999999999998 -1 -0.59999999999999998 -1 0 0 
1 0.59999999999999998 -1 -0.59999999999999998 0 1 0 
1 0.59999999999999998 -1 0.59999999999999998 0 0 -1 
1 0.59999999999999998 -1 0.59999999999999998 0 1 0 
1 -0.59999999999999998 -1 0.59999999999999998 1 0 0 
1 -0.59999999999999998 1 -0.59999999999999998 0 -1 0 
1 0.59999999999999998 1 -0.59999999999999998 -1 0 0 
1 0.59999999999999998 1 -0.59999999999999998 0 -1 0 
1 0 1 0.59999999999999998 0 -1 0 
1 -0.59999999999999998 1 -0.59999999999999998 0.44721359549995793 0 0.89442719099991586 
1 0 1 0.59999999999999998 0.44721359549995793 0 -0.89442719099991586 
Polygon3D 0
PolygonOnTriangulations 0
Surfaces 11
10 3.1415926535897931 6.2831853071795862 -1.5707963267948966 1.5707963267948966
4 0 0 0 0 0 1 1 0 -0 -0 1 0 1
10 0 3.1415926535897931 -1.5707963267948966 1.5707963267948966
4 0 0 0 0 0 1 1 0 -0 -0 1 0 1
1 -0.59999999999999998 -1 -0.59999999999999998 1 0 0 0 0 1 0 -1 0 
1 0.59999999999999998 -1 -0.59999999999999998 0 -0 1 -1 0 0 -0 -1 0 
1 0.59999999999999998 -1 0.59999999999999998 -1 0 0 0 0 -1 -0 -1 -0 
1 -0.59999999999999998 -1 0.59999999999999998 0 0 -1 1 0 0 0 -1 0 
1 0.59999999999999998 1 -0.59999999999999998 -0 -0 -1 -1 0 0 0 1 -0 
1 -0.59999999999999998 1 -0.59999999999999998 -0.89442719099991597 0 0.44721359549995798 0.44721359549995798 0 0.89442719099991597 0 1 -0 
1 0 1 0.59999999999999998 0.89442719099991597 0 0.44721359549995798 0.44721359549995798 0 -0.89442719099991597 -0 1 0 
1 -0.59999999999999998 -1 -0.59999999999999998 0 -1 0 0.70710678118654757 0 0.70710678118654757 -0.70710678118654757 0 0.70710678118654757 
1 -0.59999999999999998 1 -0.59999999999999998 0 1 0 0.44721359549995798 -0 0.89442719099991597 0.89442719099991597 0 -0.44721359549995798 
Triangulations 0

TShapes 70
Ve
1e-05
6.12323399573677e-17 -1.49975978266186e-32 -1
0 0

0101101
*
Ve
1e-05
6.12323399573677e-17 -1.49975978266186e-32 1
0 0

0101101
*
Ed
 1e-07 1 1 0
1  1 0 4.71238898038469 7.85398163397448
2  1 1 0 4.71238898038469 7.85398163397448
2  2 2 0 4.71238898038469 7.85398163397448
0

0101000
+70 0 -69 0 *
Ed
 1e-07 1 1 1
2  3 1 0 3.14159265358979 6.28318530717959
0

0101100
+70 0 -70 0 *
Ed
 1e-05 1 1 0
1  2 0 -1.5707963267949 1.5707963267949
2  4 1 0 -1.5707963267949 1.5707963267949
2  5 2 0 -1.5707963267949 1.5707963267949
0

0101000
-69 0 +70 0 *
Ed
 1e-07 1 1 1
2  6 1 0 3.14159265358979 6.28318530717959
0

0101100
-69 0 +69 0 *
Wi

0101000
+68 0 +67 0 -66 0 -65 0 *
Ve
2.00001e-07
-0.6 -0.529150262212918 0.6
0 0

0101101
*
Ve
2.00001e-07
-0.6 -0.529150262212918 -0.6
0 0

0101101
*
Ed
 1e-07 1 1 0
1  3 0 0.722734247813416 2.41885840577638
2  7 1 0 0.722734247813416 2.41885840577638
0

0101000
+63 0 -62 0 *
Ve
2.00001e-07
0.6 -0.529150262212918 -0.6
0 0

0101101
*
Ed
 1e-07 1 1 0
1  4 0 3.86432690140321 5.56045105936617
2  8 1 0 3.86432690140321 5.56045105936617
0

0101000
+62 0 -60 0 *
Ve
2.00001e-07
0.6 -0.529150262212918 0.6
0 0

0101101
*
Ed
 1e-07 1 1 0
1  5 0 0.722734247813416 2.41885840577638
2  9 1 0 0.722734247813416 2.41885840577638
0

0101000
+60 0 -58 0 *
Ed
 1e-07 1 1 0
1  6 0 3.86432690140321 5.56045105936617
2  10 1 0 3.86432690140321 5.56045105936617
0

0101000
+63 0 -58 0 *
Wi

0101000
-61 0 -59 0 -57 0 +56 0 *
Fa
0  1e-07 1 0

0111000
+64 0 +55 0 *
Ed
 1e-07 1 1 1
2  11 2 0 0 3.14159265358979
0

0101100
+70 0 -70 0 *
Ed
 1e-07 1 1 1
2  12 2 0 0 3.14159265358979
0

0101100
-69 0 +69 0 *
Wi

0101000
+66 0 +53 0 -68 0 -52 0 *
Ve
2.00001e-07
0.6 0.529150262212918 -0.6
0 0

0101101
*
Ve
2.00001e-07
-0.6 0.529150262212918 -0.6
0 0

0101101
*
Ed
 1e-07 1 1 0
1  7 0 0.722734247813416 2.41885840577638
2  13 2 0 0.722734247813416 2.41885840577638
0

0101000
+50 0 -49 0 *
Ve
2.00001e-07
0 0.8 0.6
0 0

0101101
*
Ed
 1e-07 1 1 0
1  8 0 4.12151623023927 5.70166591564407
2  14 2 0 4.12151623023927 5.70166591564407
0

0101000
+47 0 -49 0 *
Ed
 1e-07 1 1 0
1  9 0 3.72311204512531 5.30326173053011
2  15 2 0 3.72311204512531 5.30326173053011
0

0101000
+50 0 -47 0 *
Wi

0101000
-48 0 +46 0 +45 0 *
Fa
0  1e-07 2 0

0111000
+51 0 +44 0 *
Ve
1e-07
-0.6 -0.05 0.6
0 0

0101101
*
Ed
 1e-07 1 1 0
1  10 0 0.470849737787082 0.95
0

0101000
+63 0 -42 0 *
Ve
1e-07
-0.6 -0.05 -0.6
0 0

0101101
*
Ed
 1e-07 1 1 0
1  11 0 0 1.2
0

0101000
+40 2 -42 2 *
Ed
 1e-07 1 1 0
1  12 0 0.470849737787082 0.95
0

0101000
+62 0 -40 0 *
Wi

0101000
+61 0 -41 0 +39 1 +38 0 *
Fa
0  1e-07 3 0

0111000
+37 0 *
Ve
1e-07
0.6 -0.05 -0.6
0 0

0101101
*
Ed
 1e-07 1 1 0
1  13 0 0 1.2
0

0101000
+35 2 -40 2 *
Ed
 1e-07 1 1 0
1  14 0 0.470849737787082 0.95
0

0101000
+60 0 -35 0 *
Wi

0101000
+59 0 -38 0 +34 1 +33 0 *
Fa
0  1e-07 4 0

0111000
+32 0 *
Ve
1e-07
0.6 -0.05 0.6
0 0

0101101
*
Ed
 1e-07 1 1 0
1  15 0 0 1.2
0

0101000
+30 2 -35 2 *
Ed
 1e-07 1 1 0
1  16 0 0.470849737787082 0.95
0

0101000
+58 0 -30 0 *
Wi

0101000
+57 0 -33 0 +29 1 +28 0 *
Fa
0  1e-07 5 0

0111000
+27 0 *
Ed
 1e-07 1 1 0
1  17 0 0 1.2
0

0101000
+42 2 -30 2 *
Wi

0101000
-56 0 -28 0 +25 1 +41 0 *
Fa
0  1e-07 6 0

0111000
+24 0 *
Ve
1e-07
-0.6 0.05 -0.6
0 0

0101101
*
Ed
 1e-07 1 1 0
1  18 0 0.470849737787082 0.95
0

0101000
+49 0 -22 0 *
Ve
1e-07
0.6 0.05 -0.6
0 0

0101101
*
Ed
 1e-07 1 1 0
1  19 0 0 1.2
0

0101000
+20 4 -22 4 *
Ed
 1e-07 1 1 0
1  20 0 0.470849737787082 0.95
0

0101000
+50 0 -20 0 *
Wi

0101000
-48 0 -21 0 +19 3 +18 0 *
Fa
0  1e-07 7 0

0111000
+17 0 *
Ve
1e-07
0 0.05 0.6
0 0

0101101
*
Ed
 1e-07 1 1 0
1  21 0 0.2 0.95
0

0101000
+47 0 -15 0 *
Ed
 1e-07 1 1 0
1  22 0 0 1.34164078649987
0

0101000
+22 4 -15 4 *
Wi

0101000
+46 0 -14 0 +13 3 +21 0 *
Fa
0  1e-07 8 0

0111000
+12 0 *
Ed
 1e-07 1 1 0
1  23 0 0 1.34164078649987
0

0101000
+15 4 -20 4 *
Wi

0101000
+45 0 -18 0 +10 3 +14 0 *
Fa
0  1e-07 9 0

0111000
+9 0 *
Wi

0101100
+39 0 +25 0 +29 0 +34 0 *
Fa
0  1e-07 10 0

0111000
-7 0 *
Wi

0101100
+13 0 +10 0 +19 0 *
Fa
0  1e-07 11 0

0111000
+5 0 *
Sh

0101100
+54 0 +43 0 +36 0 +31 0 +26 0 +23 0 -16 0 -11 0 -8 0 +6 1 
+4 3 *
So

0100000
+3 0 *
Co

1100000
+2 0 *

+1 0 
##EGADS HEADER FILE-REV 1 ##
0
  1  1  11  13  27  16  3
1 5 1
_body
16
1 5 1
_brch
16
2 8 3
_tParams
 8.828935953224e-02  3.531574381290e-03  1.500000000000e+01 
    2 0 4
1 5 2
_body
1 0 
1 5 2
_brch
1 0 
1 5 3
_hist
1 9 16 
1 7 3
_faceID
1 0 1 
    2 1 4
1 5 2
_body
1 0 
1 5 2
_brch
1 0 
1 5 3
_hist
1 9 16 
1 7 3
_faceID
1 0 2 
    2 2 6
1 5 2
_body
8 3 
1 7 5
_edgeID
0 0 7 0 1 
1 6 1
_nface
1
1 5 2
_brch
8 3 
1 5 3
_hist
8 9 16 
1 7 3
_faceID
8 3 1 
    2 3 6
1 5 2
_body
8 6 
1 7 5
_edgeID
0 0 7 0 2 
1 6 1
_nface
1
1 5 2
_brch
8 6 
1 5 3
_hist
8 9 16 
1 7 3
_faceID
8 6 1 
    2 4 6
1 5 2
_body
8 5 
1 7 5
_edgeID
0 0 7 0 4 
1 6 1
_nface
1
1 5 2
_brch
8 5 
1 5 3
_hist
8 9 16 
1 7 3
_faceID
8 5 1 
    2 5 6
1 5 2
_body
8 4 
1 7 5
_edgeID
0 0 7 0 3 
1 6 1
_nface
1
1 5 2
_brch
8 4 
1 5 3
_hist
8 9 16 
1 7 3
_faceID
8 4 1 
    2 6 6
1 5 2
_body
15 5 
1 7 5
_edgeID
0 0 14 0 2 
1 6 1
_nface
1
1 5 2
_brch
15 5 
1 5 2
_hist
15 16 
1 7 3
_faceID
15 5 1 
    2 7 6
1 5 2
_body
15 3 
1 7 5
_edgeID
0 0 14 0 1 
1 6 1
_nface
1
1 5 2
_brch
15 3 
1 5 2
_hist
15 16 
1 7 3
_faceID
15 3 1 
    2 8 6
1 5 2
_body
15 4 
1 7 5
_edgeID
0 0 14 0 3 
1 6 1
_nface
1
1 5 2
_brch
15 4 
1 5 2
_hist
15 16 
1 7 3
_faceID
15 4 1 
    2 9 4
1 5 2
_body
8 2 
1 5 2
_brch
8 2 
1 5 3
_hist
8 9 16 
1 7 3
_faceID
8 2 1 
    2 10 4
1 5 2
_body
15 2 
1 5 2
_brch
15 2 
1 5 2
_hist
15 16 
1 7 3
_faceID
15 2 1 
    4 0 3
1 5 2
_body
1 0 
1 6 1
_nface
2
1 7 5
_edgeID
1 0 1 0 1 
    4 1 3
1 5 2
_body
1 -3 
1 6 1
_nface
1
1 7 5
_edgeID
0 0 1 0 1 
    4 2 3
1 5 2
_body
1 0 
1 6 1
_nface
2
1 7 5
_edgeID
1 0 1 0 2 
    4 3 3
1 5 2
_body
1 -3 
1 6 1
_nface
1
1 7 5
_edgeID
0 0 1 0 2 
    4 4 3
1 5 2
_body
9 0 
1 6 1
_nface
2
1 7 5
_edgeID
1 0 8 3 1 
    4 5 3
1 5 2
_body
9 0 
1 6 1
_nface
2
1 7 5
_edgeID
1 0 8 6 1 
    4 6 3
1 5 2
_body
9 0 
1 6 1
_nface
2
1 7 5
_edgeID
1 0 8 5 1 
    4 7 3
1 5 2
_body
9 0 
1 6 1
_nface
2
1 7 5
_edgeID
1 0 8 4 1 
    4 8 3
1 5 2
_body
1 -3 
1 6 1
_nface
1
1 7 5
_edgeID
0 0 1 0 3 
    4 9 3
1 5 2
_body
1 -3 
1 6 1
_nface
1
1 7 5
_edgeID
0 0 1 0 4 
    4 10 3
1 5 2
_body
16 0 
1 7 5
_edgeID
1 0 15 5 1 
1 6 1
_nface
2
    4 11 3
1 5 2
_body
16 0 
1 7 5
_edgeID
1 0 15 3 1 
1 6 1
_nface
2
    4 12 3
1 5 2
_body
16 0 
1 7 5
_edgeID
1 0 15 4 1 
1 6 1
_nface
2
    4 13 3
1 5 2
_body
8 304 
1 6 1
_nface
2
1 7 5
_edgeID
8 3 8 4 1 
    4 14 3
1 5 2
_body
8 203 
1 6 1
_nface
2
1 7 5
_edgeID
8 2 8 3 1 
    4 15 3
1 5 2
_body
8 306 
1 6 1
_nface
2
1 7 5
_edgeID
8 3 8 6 1 
    4 16 3
1 5 2
_body
8 206 
1 6 1
_nface
2
1 7 5
_edgeID
8 2 8 6 1 
    4 17 3
1 5 2
_body
8 506 
1 6 1
_nface
2
1 7 5
_edgeID
8 5 8 6 1 
    4 18 3
1 5 2
_body
8 205 
1 6 1
_nface
2
1 7 5
_edgeID
8 2 8 5 1 
    4 19 3
1 5 2
_body
8 405 
1 6 1
_nface
2
1 7 5
_edgeID
8 4 8 5 1 
    4 20 3
1 5 2
_body
8 204 
1 6 1
_nface
2
1 7 5
_edgeID
8 2 8 4 1 
    4 21 3
1 5 2
_body
15 305 
1 7 5
_edgeID
15 3 15 5 1 
1 6 1
_nface
2
    4 22 3
1 5 2
_body
15 205 
1 6 1
_nface
2
1 7 5
_edgeID
15 2 15 5 1 
    4 23 3
1 5 2
_body
15 405 
1 7 5
_edgeID
15 4 15 5 1 
1 6 1
_nface
2
    4 24 3
1 5 2
_body
15 304 
1 7 5
_edgeID
15 3 15 4 1 
1 6 1
_nface
2
    4 25 3
1 5 2
_body
15 203 
1 6 1
_nface
2
1 7 5
_edgeID
15 2 15 3 1 
    4 26 3
1 5 2
_body
15 204 
1 6 1
_nface
2
1 7 5
_edgeID
15 2 15 4 1 
    5 0 2
1 7 1
_nodeID
1
1 6 1
_nedge
4
    5 1 2
1 7 1
_nodeID
2
1 6 1
_nedge
4
    5 2 2
1 7 1
_nodeID
3
1 6 1
_nedge
3
    5 3 2
1 7 1
_nodeID
4
1 6 1
_nedge
3
    5 4 2
1 7 1
_nodeID
5
1 6 1
_nedge
3
    5 5 2
1 7 1
_nodeID
6
1 6 1
_nedge
3
    5 6 2
1 7 1
_nodeID
7
1 6 1
_nedge
3
    5 7 2
1 7 1
_nodeID
8
1 6 1
_nedge
3
    5 8 2
1 7 1
_nodeID
9
1 6 1
_nedge
3
    5 9 2
1 7 1
_nodeID
10
1 6 1
_nedge
3
    5 10 2
1 7 1
_nodeID
11
1 6 1
_nedge
3
    5 11 2
1 7 1
_nodeID
12
1 6 1
_nedge
3
    5 12 2
1 7 1
_nodeID
13
1 6 1
_nedge
3
    5 13 2
1 7 1
_nodeID
14
1 6 1
_nedge
3
    5 14 2
1 7 1
_nodeID
15
1 6 1
_nedge
3
    5 15 2
1 7 1
_nodeID
16
1 6 1
_nedge
3
    0 0 0
