DBRep_DrawableShape

CASCADE Topology V1, (c) Matra-Datavision
Locations 2
1
              1               0               0               0 
              0               1               0               0 
              0               0               1               1 
2  1 -1 0
Curve2ds 12
1 6.2831853071795862 -6.2831853071795862 0 1 
1 0 -6.2831853071795862 0 1 
7 0 0  9 18 3  6.2831853071795862 -0.72273424781341566  6.206223520450604 -0.72273424773645389  6.129261836354452 -0.71517842903836026  6.0544659522158994 -0.70006793534048484  5.9840040750507555 -0.67776719614630565  5.9195058407342671 -0.64903268690977711  5.8614576720495037 -0.61476070927892579  5.80995270632868 -0.57578494321592188  5.7647690249586239 -0.53287202658301258  5.6864039360014749 -0.44051788356653393  5.6532222778764734 -0.39107672299790319  5.6257192314132594 -0.33904552029747492  5.6034592047062146 -0.28500851113886305  5.5860529690092093 -0.2294549712621069  5.5732013041840132 -0.17280627202720211  5.5647011484973543 -0.11544270167855669  5.5604510594094609 -0.057721340046737048  5.5604510593661693 -4.1343555047742797e-17 
 0 10 0.78539816339744972 8 1.5707963267948966 10
1 0 0 1 0 
7 0 0  9 18 3  3.8643269014032091 8.4222621842158968e-17  3.8643269013599175 -0.057721340046736978  3.8600768122713975 -0.11544270167853456  3.8515766565850149 -0.1728062720267379  3.8387249917577719 -0.22945497126129843  3.8213187560589481 -0.28500851113815567  3.7990587293532676 -0.33904552029713386  3.7715556828928083 -0.39107672299781476  3.7383740247679031 -0.44051788356653387  3.660008935810755 -0.53287202658301247  3.6148252544489878 -0.57578494322160623  3.563320288718387 -0.61476070923799853  3.5052721200045198 -0.64903268698617467  3.440773885755334 -0.67776719611356384  3.3703120085847331 -0.70006793537140766  3.2955161244099145 -0.71517842903176643  3.2185544403187758 -0.72273424773645389  3.1415926535897958 -0.72273424781341666 
 1.5707963267948966 10 2.3561944901923408 8 3.1415926535897931 10
1 3.1415926535897931 0 0 1 
1 3.1415926535897931 0 0 1 
1 0 1.5707963267948966 1 0 
7 0 0  9 18 3  3.1415926535897949 -0.72273424781341566  3.0646308668608109 -0.72273424773645389  2.9876691827494142 -0.71517842903654127  2.9128732986791874 -0.70006793533320888  2.8424114213994471 -0.67776719614630565  2.7779131872521248 -0.64903268695343286  2.7198650184145663 -0.61476070925709791  2.6683600527358067 -0.57578494321774087  2.6231763713688312 -0.53287202658301247  2.5448112824116822 -0.44051788356653393  2.5116296242858764 -0.39107672299777058  2.4841265778178845 -0.33904552029726648  2.4618665511126085 -0.28500851113800407  2.4444603154178264 -0.22945497126134898  2.4316086505914427 -0.17280627202714527  2.4231084949055193 -0.11544270167842408  2.4188584058196683 -0.057721340046737138  2.4188584057763776 -1.2234632731923842e-16 
 3.1415926535897931 10 3.9269908169872423 8 4.7123889803846897 10
1 0 0 1 0 
7 0 0  9 18 3  0.72273424781341578 1.6522539376468777e-16  0.72273424777012485 -0.057721340046736916  0.71848415868240867 -0.11544270167857877  0.70998400299655862 -0.17280627202759055  0.69713233817123588 -0.22945497126185424  0.67972610247362453 -0.2850085111384083  0.65746607576609983 -0.3390455202975507  0.62996302930258197 -0.39107672299790308  0.59678137117811125 -0.44051788356653365  0.51841628222096225 -0.53287202658301236  0.47323260085340735 -0.57578494321819562  0.4217276351282635 -0.61476070925164095  0.36367946648169891 -0.64903268695888983  0.29918123211700731 -0.67776719609537395  0.22871935497323648 -0.70006793536595069  0.15392347082365632 -0.71517842903494966  0.076961786728982892 -0.72273424773645389  2.1713027656748672e-16 -0.72273424781341666 
 4.7123889803846897 10 5.4977871437821388 8 6.2831853071795862 10
1 0 1.5707963267948966 1 0 
Curves 12
2 0 0 0 -2.4492935982947064e-16 -1 0 1 -2.4492935982947064e-16 0 0 0 1 1
2 0.75 0 0 -1 0 0 0 0 -1 -0 -1 -0 0.66143782776614768
2 0 0 0 0 0 1 1 0 -0 -0 1 0 1
2 0 0 0 0 0 1 1 0 -0 -0 1 0 1
2 -0.75 0 0 1 0 -0 0 0 1 0 -1 0 0.66143782776614768
7 0 0  8 9 2  -1.1102230246251565e-16 -2.4651903288156619e-32 -1  -0.39269908169872153 4.8091767343044917e-17 -0.99999999999999967  -0.78540282094169278 9.6184105070752964e-17 -0.82371721549249899  -1.085784257205388 1.3297022151511942e-16 -0.47146844414511035  -1.201805729000238 1.4717875392170564e-16 -9.8809849191638837e-15  -1.0857842572053866 1.3297022151511954e-16 0.47146844414512662  -0.78540282094169511 9.6184105070752853e-17 0.82371721549249011  -0.3926990816987207 4.8091767343044966e-17 1.0000000000000024  -1.1102230246251565e-16 -2.4651903288156619e-32 1 
 -1.5707963267948966 9 1.5707963267948966 9
2 -0.75 0 0 1 0 -0 0 0 1 0 -1 0 0.66143782776614768
2 0 0 0 0 0 1 1 0 -0 -0 1 0 1
2 0 0 0 0 0 1 1 0 -0 -0 1 0 1
2 0.75 0 0 -1 0 0 0 0 -1 -0 -1 -0 0.66143782776614768
1 0.75 -1 -1 0 1 0 
1 -0.75 1 -1 0 -1 0 
Polygon3D 0
PolygonOnTriangulations 0
Surfaces 5
10 3.1415926535897931 6.2831853071795862 -1.5707963267948966 1.5707963267948966
4 0 0 0 0 0 1 1 0 -0 -0 1 0 1
10 0 3.1415926535897931 -1.5707963267948966 1.5707963267948966
4 0 0 0 0 0 1 1 0 -0 -0 1 0 1
1 0.75 -1 -1 -1 0 0 0 1 0 0 0 -1 
1 -0.75 -1 -1 0 0 -1 0.59999999999999998 0.80000000000000004 0 0.80000000000000004 -0.59999999999999998 0 
1 -0.75 1 -1 1 0 -0 0 -1 0 0 -0 -1 
Triangulations 0

TShapes 36
Ve
2.00001e-07
0.75 -1.83697019872103e-16 -0.661437827766147
0 0

0101101
*
Ve
1e-05
6.12323399573677e-17 -1.49975978266186e-32 1
0 0

0101101
*
Ed
 1e-07 1 1 0
1  1 0 5.56045105936617 7.85398163397448
2  1 1 0 5.56045105936617 7.85398163397448
2  2 2 0 5.56045105936617 7.85398163397448
0

0101000
+36 0 -35 0 *
Ve
2.00001e-07
0.75 -0.661437827766148 0
0 0

0101101
*
Ed
 1e-07 1 1 0
1  2 0 0 1.5707963267949
2  3 1 0 0 1.5707963267949
0

0101000
+36 0 -33 0 *
Ve
2.00001e-07
0 -1 0
0 0

0101101
*
Ed
 1e-07 1 1 0
1  3 0 4.71238898038469 5.56045105936617
2  4 1 0 4.71238898038469 5.56045105936617
0

0101000
+31 0 -33 0 *
Ve
2.00001e-07
-0.75 -0.661437827766148 0
0 0

0101101
*
Ed
 1e-07 1 1 0
1  4 0 3.86432690140321 4.71238898038469
2  4 1 0 3.86432690140321 4.71238898038469
0

0101000
+29 0 -31 0 *
Ve
1.0100001e-05
-0.75 9.18485099360515e-17 -0.661438736356507
0 0

0101101
*
Ed
 1e-07 1 1 0
1  5 0 1.5707963267949 3.14159265358979
2  5 1 0 1.5707963267949 3.14159265358979
0

0101000
+29 0 -27 0 *
Ed
 1e-05 1 1 0
1  6 0 -0.722734258654299 1.5707963267949
2  6 1 0 -0.722734258654299 1.5707963267949
2  7 2 0 -0.722734258654299 1.5707963267949
0

0101000
+27 0 -35 0 *
Ed
 1e-07 1 1 1
2  8 1 0 3.14159265358979 6.28318530717959
0

0101100
-35 0 +35 0 *
Wi

0101000
+34 0 -32 0 +30 0 +28 0 -26 0 -25 0 -24 0 *
Fa
0  1e-07 1 0

0111000
+23 0 *
Ve
2.00001e-07
-0.75 0.661437827766148 0
0 0

0101101
*
Ed
 1e-07 1 1 0
1  7 0 3.14159265358979 4.71238898038469
2  9 2 0 3.14159265358979 4.71238898038469
0

0101000
+27 0 -21 0 *
Ve
2.00001e-07
0 1 0
0 0

0101101
*
Ed
 1e-07 1 1 0
1  8 0 1.5707963267949 2.41885840577638
2  10 2 0 1.5707963267949 2.41885840577638
0

0101000
+19 0 -21 0 *
Ve
2.00001e-07
0.75 0.661437827766148 0
0 0

0101101
*
Ed
 1e-07 1 1 0
1  9 0 0.722734247813416 1.5707963267949
2  10 2 0 0.722734247813416 1.5707963267949
0

0101000
+17 0 -19 0 *
Ed
 1e-07 1 1 0
1  10 0 4.71238898038469 6.28318530717959
2  11 2 0 4.71238898038469 6.28318530717959
0

0101000
+17 0 -36 0 *
Ed
 1e-07 1 1 1
2  12 2 0 0 3.14159265358979
0

0101100
-35 0 +35 0 *
Wi

0101000
+25 0 -20 0 +18 0 +16 0 -15 0 -34 0 -14 0 *
Fa
0  1e-07 2 0

0111000
+13 0 *
Ed
 1e-07 1 1 0
1  11 0 0.338562172233852 1.66143782776615
0

0101000
+33 2 -17 2 *
Wi

0101000
+32 0 +15 0 +11 1 *
Fa
0  1e-07 3 0

0111000
+10 0 *
Ed
 1e-07 1 1 0
1  12 0 0.338562172233852 1.66143782776615
0

0101000
+21 2 -29 2 *
Wi

0101000
-30 0 -11 1 -16 0 -18 0 -8 1 -28 0 *
Fa
0  1e-07 4 1

0111000
+7 0 *
Wi

0101000
+20 0 +26 0 +8 1 *
Fa
0  1e-07 5 0

0111000
+5 0 *
Sh

0101100
+22 0 +12 0 +9 0 +6 0 +4 0 *
So

0100000
+3 0 *
Co

1100000
+2 0 *

+1 0 
##EGADS HEADER FILE-REV 1 ##
0
  1  1  5  5  14  9  3
1 5 1
_body
9
1 5 1
_brch
9
2 8 3
_tParams
 8.630354420870e-02  3.452141768348e-03  1.500000000000e+01 
    2 0 3
1 5 2
_body
1 0 
1 5 2
_brch
1 0 
1 7 3
_faceID
1 0 1 
    2 1 3
1 5 2
_body
1 0 
1 5 2
_brch
1 0 
1 7 3
_faceID
1 0 2 
    2 2 4
1 5 2
_body
8 4 
1 7 5
_edgeID
0 0 7 0 4 
1 5 2
_brch
8 4 
1 7 3
_faceID
8 4 1 
    2 3 3
1 5 2
_body
8 2 
1 5 2
_brch
8 2 
1 7 3
_faceID
8 2 1 
    2 4 4
1 5 2
_body
8 6 
1 7 5
_edgeID
0 0 7 0 1 
1 5 2
_brch
8 6 
1 7 3
_faceID
8 6 1 
    4 0 2
1 5 2
_body
1 0 
1 7 5
_edgeID
1 0 1 0 1 
    4 1 2
1 5 2
_body
9 0 
1 7 5
_edgeID
1 0 8 4 1 
    4 2 2
1 5 2
_body
9 0 
1 7 5
_edgeID
1 0 8 2 3 
    4 3 2
1 5 2
_body
9 0 
1 7 5
_edgeID
1 0 8 2 1 
    4 4 2
1 5 2
_body
9 0 
1 7 5
_edgeID
1 0 8 6 1 
    4 5 2
1 5 2
_body
1 0 
1 7 5
_edgeID
1 0 1 0 2 
    4 6 2
1 5 2
_body
1 -3 
1 7 5
_edgeID
0 0 1 0 1 
    4 7 2
1 5 2
_body
9 0 
1 7 5
_edgeID
1 0 8 6 2 
    4 8 2
1 5 2
_body
9 0 
1 7 5
_edgeID
1 0 8 2 2 
    4 9 2
1 5 2
_body
9 0 
1 7 5
_edgeID
1 0 8 2 4 
    4 10 2
1 5 2
_body
9 0 
1 7 5
_edgeID
1 0 8 4 2 
    4 11 2
1 5 2
_body
1 -3 
1 7 5
_edgeID
0 0 1 0 2 
    4 12 2
1 5 2
_body
8 204 
1 7 5
_edgeID
8 2 8 4 1 
    4 13 2
1 5 2
_body
8 206 
1 7 5
_edgeID
8 2 8 6 1 
    0 0 0
