DBRep_DrawableShape

CASCADE Topology V1, (c) Matra-Datavision
Locations 4
1
              1               0               0               0 
              0               1               0            0.95 
              0               0               1               0 
2  1 -1 0
1
              1               0               0               0 
              0               1               0            0.95 
              0               0               1               0 
2  3 -1 0
Curve2ds 18
1 0 -1.5707963267948966 1 0 
1 3.1415926535897931 0 0 1 
1 3.1415926535897931 0 0 1 
1 0 1.5707963267948966 1 0 
1 6.2831853071795862 -6.2831853071795862 0 1 
1 0 -6.2831853071795862 0 1 
7 0 0  8 9 2  5.2894279248880194 0.41151684606748823  5.2608497155066969 0.31092317253788654  5.2426673112808189 0.20819098658721202  5.2324310064798496 0.10435178164925674  5.2291253072364938 5.6843418860808015e-14  5.2324310064793949 -0.10435178164937042  5.2426673112809326 -0.2081909865871836  5.2608497155066969 -0.31092317253788654  5.2894279248880194 -0.41151684606748823 
 1.090682410915498 9 2.0509102426742953 9
1 0 -0.41151684606748806 1 0 
7 0 0  9 10 2  5.7734456283480791 -0.41151684606748817  5.7116697419057259 -0.33239003752910912  5.6672936057205092 -0.2434260426843764  5.639357466810246 -0.14822845735568535  5.625810229982811 -0.049775300119108579  5.6258102298864046 0.049775300118653831  5.6393574668520827 0.1482284573552306  5.6672936057182355 0.24342604268434798  5.7116697419057259 0.33239003752910901  5.7734456283480782 0.41151684606748862 
 0.84106867056793011 10 2.3005239830218631 10
1 0 0.41151684606748806 1 0 
7 0 0  10 11 2  3.534602846479928 0.52359877559829937  3.6396813303464524 0.44814503374600373  3.7193311098308186 0.35144251127667303  3.7712821143504698 0.2404264766300912  3.8001716254511848 0.12200999707602023  3.8101337212137878 -2.1827872842550278e-11  3.8001716250437312 -0.12200999703964044  3.7712821143504698 -0.24042647665010008  3.7193311097362312 -0.35144251127371717  3.6396813303464528 -0.44814503374600356  3.5346028464799284 -0.52359877559829815 
 0.58568554345715096 11 2.555907110132642 11
1 0 0.52359877559829893 1 0 
1 0 -0.52359877559829893 1 0 
7 0 0  8 9 2  4.9454327793741051 -0.52359877559829915  4.9275812578903198 -0.3933315858559  4.9174010442827907 -0.26243397204633112  4.9117131884752538 -0.13128182615258766  4.9100102011427893 -3.4106051316484809e-13  4.9117131884752538 0.13128182615309925  4.9174010442832454 0.26243397204619612  4.9275812578903198 0.39333158585589989  4.9454327793741033 0.52359877559829904 
 1.0352506837771305 9 2.1063419698126626 9
1 0 -1.5707963267948966 1 0 
1 0 1.5707963267948966 1 0 
7 0 0  10 47 6  1.5707963267948963 0.49282462263610649  1.4864411286837751 0.4928246225517513  1.4020861097978923 0.4781013652832371  1.3222886373841902 0.44866035535778792  1.2516018024180084 0.40568300198356155  1.1931632530759089 0.3516809268767247  1.1466854621539824 0.28937024385595578  1.112259129229642 0.22097124769425136  1.0893982444522408 0.14863423449332913  1.0779717041260535 0.074316928826223705  1.077971704183343 -0.055737697033644507  1.084400089413442 -0.11147512345725294  1.0972529693071826 -0.16638008657554171  1.1165959241964933 -0.21961426943039442  1.1425234581173653 -0.27032039067603364  1.1751574455055258 -0.3175815547181931  1.2145418167658752 -0.36040382390533587  1.2604217870042655 -0.39775328640186264  1.3120269914904468 -0.42865913545170997  1.4101704201093963 -0.47016105459481111  1.4547506652043118 -0.48390273389315003  1.5013214350992676 -0.49328344915345246  1.5492149862780331 -0.49805479096909655  1.5976097346195579 -0.49806663379912502  1.6456117701143438 -0.49330095849512262  1.6923664050660296 -0.48388023841431771  1.7371503013007121 -0.47004320621978446  1.7794110966355277 -0.45210230779860838  1.8777279190143017 -0.39789313594926135  1.9301171529750634 -0.35694642052081182  1.9745256206886552 -0.30879454083086555  2.0103279949704302 -0.25489763610376032  2.0375837060528283 -0.19670727727952908  2.0565215653346969 -0.13553751141053  2.0673111278249054 -0.072589242482655442  2.0700401143970901 -0.0090274222103171025  2.064648540001099 0.053980928488758427  2.0374430913657227 0.17644425809474845  2.0156279440566562 0.23589910962613522  1.9855183497560573 0.29235688958194717  1.9469479771156331 0.34453738239826637  1.8999247061838105 0.3910881914816855  1.8445341754486435 0.43054263864796666  1.7815874677494321 0.46138325170331884  1.7131447458094207 0.48234285434223523  1.641971025285065 0.49282462256493187  1.5707963267948997 0.49282462263610705 
 0 11 1.570796326794897 9 2.7488935718910703 9 3.6324665057131909 9 4.9578259064463914 9 6.2831853071795871 11
7 0 0  10 74 9  4.7123889803846915 0.90841036029310751  4.8130894275513763 0.90841036019240706  4.9137898862391012 0.89962237773670495  5.0107900864386465 0.88204872347705532  5.100402437034063 0.85625175850873347  5.1801044608000666 0.82341719472606201  5.2502774748718366 0.78484731307253242  5.3113235105993226 0.7415526747572585  5.364199549141631 0.69443840617714159  5.4097689473535597 0.64421202401163968  5.5172443776826414 0.49914151274934027  5.5657686077611288 0.39908571594617115  5.5987921420892235 0.29442247261363264  5.6199689008062705 0.18702681718832537  5.6307609017239884 0.078081875424686586  5.6322163585573435 -0.031383479589749186  5.6241653237375431 -0.14047504990639936  5.6059589727592538 -0.24818623367065129  5.5755822968015485 -0.35321914375250385  5.5125729706188951 -0.49105600819573664  5.4932161355757385 -0.5279746024420795  5.471514150098221 -0.56410871685700692  5.4472683533892754 -0.59933138886935933  5.4202569106532286 -0.63349601891574525  5.3902361946649773 -0.66643274706569466  5.3569491319907367 -0.69794390901026371  5.320147561865439 -0.72779993677831378  5.2796343109333232 -0.75573960854857447  5.1965624946706743 -0.8040048880127596  5.1548927708932819 -0.82484571318977074  5.1102649331577847 -0.84381467536515031  5.062696446111052 -0.86071109805892176  5.0122956123846549 -0.87532759835570073  4.9593120859952853 -0.88746043667733832  4.9041694611815583 -0.89692744575854788  4.8474529697532711 -0.90359034250066972  4.7898486555014079 -0.9073727216742784  4.6309126095182416 -0.90981143284655586  4.5291881228185957 -0.90249550626413111  4.4306272296234965 -0.8862346048335894  4.3390977926319465 -0.86152047128416598  4.2574892287375405 -0.82951177665381692  4.1855485331616364 -0.79156093081110157  4.1229119487397838 -0.74870377614570316  4.0686400551858242 -0.70188322179001261  4.0218535438846335 -0.65183316203899422  3.9215069141075576 -0.52015518149033224  3.8762580895686134 -0.43525018357032141  3.8431471880985555 -0.34649533055261372  3.8197262158326337 -0.25523030636504701  3.804602965072263 -0.16236224138560829  3.7969680826034162 -0.068609955544434345  3.7964404279915471 0.025389323055844671  3.8031687269909495 0.1190233341075195  3.8177736692344864 0.21158688639112172  3.8534271459602509 0.34741133209297004  3.8676024812250089 0.39218264890717058  3.8842289400835113 0.43633229308616323  3.9035065892918288 0.47972726674811395  3.9256791935840729 0.52221369502952564  3.951035917217935 0.5636117544481295  3.9799128976292337 0.60370796118893433  4.0126872514650751 0.64224507464506209  4.0497465511783499 0.67891374863163834  4.1330680253806715 0.74779413092368796  4.1793304478732178 0.78000579164596018  4.230509002510189 0.8096295429037127  4.2868583076313369 0.83625326334586136  4.3484538613556651 0.85942308977246284  4.415147153905127 0.87864529813014092  4.4862897561604766 0.89343632095510661  4.5606008821778188 0.90341876362285589  4.6364948686421936 0.90841036021721333  4.712388980384687 0.90841036029310751 
 0 11 0.78539816339745405 9 2.1598449493429994 9 2.675262494072586 9 3.126252845710972 9 3.9154859610781338 9 5.0993356341288631 9 5.6912604706542327 9 6.2831853071795853 11
Curves 27
7 0 0  8 9 2  -1.1102230246251565e-16 -2.4651903288156619e-32 -1  -0.39269908169872153 4.8091767343044917e-17 -0.99999999999999967  -0.78540282094169278 9.6184105070752964e-17 -0.82371721549249899  -1.085784257205388 1.3297022151511942e-16 -0.47146844414511035  -1.201805729000238 1.4717875392170564e-16 -9.8809849191638837e-15  -1.0857842572053866 1.3297022151511954e-16 0.47146844414512662  -0.78540282094169511 9.6184105070752853e-17 0.82371721549249011  -0.3926990816987207 4.8091767343044966e-17 1.0000000000000024  -1.1102230246251565e-16 -2.4651903288156619e-32 1 
 -1.5707963267948966 9 1.5707963267948966 9
2 0 0 0 -2.4492935982947064e-16 -1 0 1 -2.4492935982947064e-16 0 0 0 1 1
2 0.5 0 0 1 0 0 -0 0 1 0 -1 0 0.8660254037844386
2 0 0 -0.40000000000000002 0 0 1 1 0 -0 -0 1 0 0.91651513899116799
2 0.80000000000000004 0 0 -1 0 0 0 0 -1 -0 -1 -0 0.59999999999999987
2 0 0 0.40000000000000002 0 0 1 1 0 -0 -0 1 0 0.91651513899116799
2 -0.80000000000000004 0 0 1 0 0 -0 0 1 0 -1 0 0.59999999999999987
2 0 0 0.5 0 0 1 1 0 -0 -0 1 0 0.8660254037844386
2 0 0 -0.5 0 0 1 1 0 -0 -0 1 0 0.8660254037844386
2 0.20000000000000001 0 0 -1 0 0 0 0 -1 -0 -1 -0 0.9797958971132712
2 0 0.88100000000000001 0 0 1 0 0 -0 1 1 0 -0 0.47311626478065621
1 0.5 -1 0.40000000000000002 0 1 0 
1 0.5 -1 -0.40000000000000002 0 0 1 
1 0.5 -1 -0.40000000000000002 0 1 0 
1 0.80000000000000004 -1 -0.40000000000000002 -1 0 0 
1 0.80000000000000004 -1 -0.40000000000000002 0 1 0 
1 0.80000000000000004 -1 0.40000000000000002 0 0 -1 
1 0.80000000000000004 -1 0.40000000000000002 0 1 0 
1 0.5 -1 0.40000000000000002 1 0 0 
1 -0.80000000000000004 -1 0.5 0 1 0 
1 -0.80000000000000004 -1 -0.5 0 0 1 
1 -0.80000000000000004 -1 -0.5 0 1 0 
1 0.20000000000000001 -1 0.5 0 1 0 
1 -0.80000000000000004 -1 0.5 1 0 0 
1 0.20000000000000001 -1 -0.5 -1 0 0 
1 0.20000000000000001 -1 -0.5 0 1 0 
1 0.20000000000000001 -1 0.5 0 0 -1 
Polygon3D 0
PolygonOnTriangulations 0
Surfaces 13
10 3.1415926535897931 6.2831853071795862 -1.5707963267948966 1.5707963267948966
4 0 0 0 0 0 1 1 0 -0 -0 1 0 1
10 0 3.1415926535897931 -1.5707963267948966 1.5707963267948966
4 0 0 0 0 0 1 1 0 -0 -0 1 0 1
10 3.1415926535897931 6.2831853071795862 -1.5707963267948966 1.5707963267948966
4 0 1.25 0 0 0 1 1 0 -0 -0 1 0 0.59999999999999998
1 0.5 -1 -0.40000000000000002 1 0 0 0 0 1 0 -1 0 
1 0.80000000000000004 -1 -0.40000000000000002 0 -0 1 -1 0 0 -0 -1 0 
1 0.80000000000000004 -1 0.40000000000000002 -1 0 0 0 0 -1 -0 -1 -0 
1 0.5 -1 0.40000000000000002 0 0 -1 1 0 0 0 -1 0 
1 -0.80000000000000004 -1 -0.5 1 0 0 0 0 1 0 -1 0 
1 -0.80000000000000004 -1 0.5 0 0 -1 1 0 0 0 -1 0 
1 0.20000000000000001 -1 -0.5 0 -0 1 -1 0 0 -0 -1 0 
1 0.20000000000000001 -1 0.5 -1 0 0 0 0 -1 -0 -1 -0 
1 0.5 -1 -0.40000000000000002 0 -1 0 0.35112344158839176 0 0.93632917756904455 -0.93632917756904455 0 0.35112344158839176 
1 -0.80000000000000004 -1 -0.5 0 -1 0 0.70710678118654757 0 0.70710678118654757 -0.70710678118654757 0 0.70710678118654757 
Triangulations 0

TShapes 82
Ve
1e-05
6.12323399573677e-17 -1.49975978266186e-32 -1
0 0

0101101
*
Ed
 1e-07 1 1 1
2  1 1 0 3.14159265358979 6.28318530717959
0

0101100
+82 0 -82 0 *
Ve
1e-05
6.12323399573677e-17 -1.49975978266186e-32 1
0 0

0101101
*
Ed
 1e-05 1 1 0
1  1 0 -1.5707963267949 1.5707963267949
2  2 1 0 -1.5707963267949 1.5707963267949
2  3 2 0 -1.5707963267949 1.5707963267949
0

0101000
-80 0 +82 0 *
Ed
 1e-07 1 1 1
2  4 1 0 3.14159265358979 6.28318530717959
0

0101100
-80 0 +80 0 *
Ed
 1e-07 1 1 0
1  2 0 4.71238898038469 7.85398163397448
2  5 1 0 4.71238898038469 7.85398163397448
2  6 2 0 4.71238898038469 7.85398163397448
0

0101000
+82 0 -80 0 *
Wi

0101000
+81 0 -79 0 -78 0 +77 0 *
Ve
2.00001e-07
0.5 -0.768114574786861 0.4
0 0

0101101
*
Ve
2.00001e-07
0.5 -0.768114574786861 -0.4
0 0

0101101
*
Ed
 1e-07 1 1 0
1  3 0 1.0906824109155 2.0509102426743
2  7 1 0 1.0906824109155 2.0509102426743
0

0101000
+75 0 -74 0 *
Ve
2.00001e-07
0.8 -0.447213595499958 -0.4
0 0

0101101
*
Ed
 1e-07 1 1 0
1  4 0 5.28942792488802 5.77344562834808
2  8 1 0 5.28942792488802 5.77344562834808
0

0101000
+74 0 -72 0 *
Ve
2.00001e-07
0.8 -0.447213595499958 0.4
0 0

0101101
*
Ed
 1e-07 1 1 0
1  5 0 0.84106867056793 2.30052398302186
2  9 1 0 0.84106867056793 2.30052398302186
0

0101000
+72 0 -70 0 *
Ed
 1e-07 1 1 0
1  6 0 5.28942792488802 5.77344562834808
2  10 1 0 5.28942792488802 5.77344562834808
0

0101000
+75 0 -70 0 *
Wi

0101000
-73 0 -71 0 -69 0 +68 0 *
Ve
2.00001e-07
-0.8 -0.33166247903554 0.5
0 0

0101101
*
Ve
2.00001e-07
-0.8 -0.33166247903554 -0.5
0 0

0101101
*
Ed
 1.04780349974292e-07 1 1 0
1  7 0 0.585685543457151 2.55590711013264
2  11 1 0 0.585685543457151 2.55590711013264
0

0101000
+66 0 -65 0 *
Ve
2.00001e-07
0.2 -0.842614977317636 0.5
0 0

0101101
*
Ed
 1e-07 1 1 0
1  8 0 3.53460284647993 4.94543277937411
2  12 1 0 3.53460284647993 4.94543277937411
0

0101000
+66 0 -63 0 *
Ve
2.00001e-07
0.2 -0.842614977317636 -0.5
0 0

0101101
*
Ed
 1e-07 1 1 0
1  9 0 3.53460284647993 4.94543277937411
2  13 1 0 3.53460284647993 4.94543277937411
0

0101000
+65 0 -61 0 *
Ed
 1e-07 1 1 0
1  10 0 1.03525068377713 2.10634196981266
2  14 1 0 1.03525068377713 2.10634196981266
0

0101000
+61 0 -63 0 *
Wi

0101000
-64 0 +62 0 -60 0 -59 0 *
Fa
0  1e-07 1 0

0111000
+76 0 +67 0 +58 0 *
Ed
 1e-07 1 1 1
2  15 2 0 0 3.14159265358979
0

0101100
+82 0 -82 0 *
Ed
 1e-07 1 1 1
2  16 2 0 0 3.14159265358979
0

0101100
-80 0 +80 0 *
Wi

0101000
+79 0 +56 0 -77 0 -55 0 *
Ve
1e-07
0 0.881 0.473116264780656
0 0

0101101
*
Ed
 1e-07 1 1 0
1  11 0 0 6.28318530717959
2  17 2 0 0 6.28318530717959
2  18 3 0 0 6.28318530717959
0

0101100
+53 0 -53 0 *
Wi

0101000
-52 0 *
Fa
0  1e-07 2 0

0111000
+54 0 +51 0 *
Ve
1e-07
0.5 -0.05 0.4
0 0

0101101
*
Ed
 1e-07 1 1 0
1  12 0 0.231885425213139 0.95
0

0101000
+75 0 -49 0 *
Ve
1e-07
0.5 -0.05 -0.4
0 0

0101101
*
Ed
 1e-07 1 1 0
1  13 0 0 0.8
0

0101000
+47 2 -49 2 *
Ed
 1e-07 1 1 0
1  14 0 0.231885425213139 0.95
0

0101000
+74 0 -47 0 *
Wi

0101000
+73 0 -48 0 +46 1 +45 0 *
Fa
0  1e-07 4 0

0111000
+44 0 *
Ve
1e-07
0.8 -0.05 -0.4
0 0

0101101
*
Ed
 1e-07 1 1 0
1  15 0 0 0.3
0

0101000
+42 2 -47 2 *
Ed
 1e-07 1 1 0
1  16 0 0.552786404500042 0.95
0

0101000
+72 0 -42 0 *
Wi

0101000
+71 0 -45 0 +41 1 +40 0 *
Fa
0  1e-07 5 0

0111000
+39 0 *
Ve
1e-07
0.8 -0.05 0.4
0 0

0101101
*
Ed
 1e-07 1 1 0
1  17 0 0 0.8
0

0101000
+37 2 -42 2 *
Ed
 1e-07 1 1 0
1  18 0 0.552786404500042 0.95
0

0101000
+70 0 -37 0 *
Wi

0101000
+69 0 -40 0 +36 1 +35 0 *
Fa
0  1e-07 6 0

0111000
+34 0 *
Ed
 1e-07 1 1 0
1  19 0 0 0.3
0

0101000
+49 2 -37 2 *
Wi

0101000
-68 0 -35 0 +32 1 +48 0 *
Fa
0  1e-07 7 0

0111000
+31 0 *
Ve
1e-07
-0.8 -0.05 0.5
0 0

0101101
*
Ed
 1e-07 1 1 0
1  20 0 0.66833752096446 0.95
0

0101000
+66 0 -29 0 *
Ve
1e-07
-0.8 -0.05 -0.5
0 0

0101101
*
Ed
 1e-07 1 1 0
1  21 0 0 1
0

0101000
+27 4 -29 4 *
Ed
 1e-07 1 1 0
1  22 0 0.66833752096446 0.95
0

0101000
+65 0 -27 0 *
Wi

0101000
+64 0 -28 0 +26 3 +25 0 *
Fa
0  1e-07 8 0

0111000
+24 0 *
Ve
1e-07
0.2 -0.05 0.5
0 0

0101101
*
Ed
 1e-07 1 1 0
1  23 0 0.157385022682364 0.95
0

0101000
+63 0 -22 0 *
Ed
 1e-07 1 1 0
1  24 0 0 1
0

0101000
+29 4 -22 4 *
Wi

0101000
-62 0 -21 0 +20 3 +28 0 *
Fa
0  1e-07 9 0

0111000
+19 0 *
Ve
1e-07
0.2 -0.05 -0.5
0 0

0101101
*
Ed
 1e-07 1 1 0
1  25 0 0 1
0

0101000
+17 4 -27 4 *
Ed
 1e-07 1 1 0
1  26 0 0.157385022682364 0.95
0

0101000
+61 0 -17 0 *
Wi

0101000
+60 0 -25 0 +16 3 +15 0 *
Fa
0  1e-07 10 0

0111000
+14 0 *
Ed
 1e-07 1 1 0
1  27 0 0 1
0

0101000
+22 4 -17 4 *
Wi

0101000
+59 0 -15 0 +12 3 +21 0 *
Fa
0  1e-07 11 0

0111000
+11 0 *
Wi

0101000
-52 0 *
Fa
0  1e-07 3 0

0111000
+9 0 *
Wi

0101100
+46 0 +32 0 +36 0 +41 0 *
Fa
0  1e-07 12 0

0111000
-7 0 *
Wi

0101100
+26 0 +20 0 +12 0 +16 0 *
Fa
0  1e-07 13 0

0111000
-5 0 *
Sh

0101100
+57 0 +50 0 +43 0 +38 0 +33 0 +30 0 +23 0 +18 0 +13 0 +10 0 
-8 0 +6 1 +4 3 *
So

0100000
+3 0 *
Co

1100000
+2 0 *

+1 0 
##EGADS HEADER FILE-REV 1 ##
0
  1  1  13  16  31  19  3
1 5 1
_body
19
1 5 1
_brch
19
2 8 3
_tParams
 8.894708180719e-02  3.557883272288e-03  1.500000000000e+01 
    2 0 4
1 5 2
_body
1 0 
1 5 2
_brch
1 0 
1 5 4
_hist
1 9 17 19 
1 7 3
_faceID
1 0 2 
    2 1 4
1 5 2
_body
1 0 
1 5 2
_brch
1 0 
1 5 4
_hist
1 9 17 19 
1 7 3
_faceID
1 0 1 
    2 2 6
1 5 2
_body
16 3 
1 7 5
_edgeID
0 0 15 0 1 
1 6 1
_nface
1
1 5 2
_brch
16 3 
1 5 3
_hist
16 17 19 
1 7 3
_faceID
16 3 1 
    2 3 6
1 5 2
_body
16 6 
1 7 5
_edgeID
0 0 15 0 2 
1 6 1
_nface
1
1 5 2
_brch
16 6 
1 5 3
_hist
16 17 19 
1 7 3
_faceID
16 6 1 
    2 4 6
1 5 2
_body
16 5 
1 7 5
_edgeID
0 0 15 0 4 
1 6 1
_nface
1
1 5 2
_brch
16 5 
1 5 3
_hist
16 17 19 
1 7 3
_faceID
16 5 1 
    2 5 6
1 5 2
_body
16 4 
1 7 5
_edgeID
0 0 15 0 3 
1 6 1
_nface
1
1 5 2
_brch
16 4 
1 5 3
_hist
16 17 19 
1 7 3
_faceID
16 4 1 
    2 6 6
1 5 2
_body
8 3 
1 7 5
_edgeID
0 0 7 0 1 
1 6 1
_nface
1
1 5 2
_brch
8 3 
1 5 4
_hist
8 9 17 19 
1 7 3
_faceID
8 3 1 
    2 7 6
1 5 2
_body
8 4 
1 7 5
_edgeID
0 0 7 0 3 
1 6 1
_nface
1
1 5 2
_brch
8 4 
1 5 4
_hist
8 9 17 19 
1 7 3
_faceID
8 4 1 
    2 8 6
1 5 2
_body
8 6 
1 7 5
_edgeID
0 0 7 0 2 
1 6 1
_nface
1
1 5 2
_brch
8 6 
1 5 4
_hist
8 9 17 19 
1 7 3
_faceID
8 6 1 
    2 9 6
1 5 2
_body
8 5 
1 7 5
_edgeID
0 0 7 0 4 
1 6 1
_nface
1
1 5 2
_brch
8 5 
1 5 4
_hist
8 9 17 19 
1 7 3
_faceID
8 5 1 
    2 10 4
1 5 2
_body
18 0 
1 5 2
_brch
18 0 
1 5 2
_hist
18 19 
1 7 3
_faceID
18 0 1 
    2 11 4
1 5 2
_body
16 2 
1 5 2
_brch
16 2 
1 5 3
_hist
16 17 19 
1 7 3
_faceID
16 2 1 
    2 12 4
1 5 2
_body
8 2 
1 5 2
_brch
8 2 
1 5 4
_hist
8 9 17 19 
1 7 3
_faceID
8 2 1 
    4 0 3
1 5 2
_body
1 -3 
1 6 1
_nface
1
1 7 5
_edgeID
0 0 1 0 1 
    4 1 3
1 5 2
_body
1 0 
1 6 1
_nface
2
1 7 5
_edgeID
1 0 1 0 1 
    4 2 3
1 5 2
_body
1 -3 
1 6 1
_nface
1
1 7 5
_edgeID
0 0 1 0 2 
    4 3 3
1 5 2
_body
1 0 
1 6 1
_nface
2
1 7 5
_edgeID
1 0 1 0 2 
    4 4 3
1 5 2
_body
17 0 
1 6 1
_nface
2
1 7 5
_edgeID
1 0 16 3 1 
    4 5 3
1 5 2
_body
17 0 
1 6 1
_nface
2
1 7 5
_edgeID
1 0 16 6 1 
    4 6 3
1 5 2
_body
17 0 
1 6 1
_nface
2
1 7 5
_edgeID
1 0 16 5 1 
    4 7 3
1 5 2
_body
17 0 
1 6 1
_nface
2
1 7 5
_edgeID
1 0 16 4 1 
    4 8 3
1 5 2
_body
9 0 
1 6 1
_nface
2
1 7 5
_edgeID
1 0 8 3 1 
    4 9 3
1 5 2
_body
9 0 
1 6 1
_nface
2
1 7 5
_edgeID
1 0 8 4 1 
    4 10 3
1 5 2
_body
9 0 
1 6 1
_nface
2
1 7 5
_edgeID
1 0 8 6 1 
    4 11 3
1 5 2
_body
9 0 
1 6 1
_nface
2
1 7 5
_edgeID
1 0 8 5 1 
    4 12 3
1 5 2
_body
1 -3 
1 6 1
_nface
1
1 7 5
_edgeID
0 0 1 0 3 
    4 13 3
1 5 2
_body
1 -3 
1 6 1
_nface
1
1 7 5
_edgeID
0 0 1 0 4 
    4 14 3
1 5 2
_body
19 0 
1 7 5
_edgeID
1 0 18 0 1 
1 6 1
_nface
2
    4 15 3
1 5 2
_body
16 304 
1 6 1
_nface
2
1 7 5
_edgeID
16 3 16 4 1 
    4 16 3
1 5 2
_body
16 203 
1 6 1
_nface
2
1 7 5
_edgeID
16 2 16 3 1 
    4 17 3
1 5 2
_body
16 306 
1 6 1
_nface
2
1 7 5
_edgeID
16 3 16 6 1 
    4 18 3
1 5 2
_body
16 206 
1 6 1
_nface
2
1 7 5
_edgeID
16 2 16 6 1 
    4 19 3
1 5 2
_body
16 506 
1 6 1
_nface
2
1 7 5
_edgeID
16 5 16 6 1 
    4 20 3
1 5 2
_body
16 205 
1 6 1
_nface
2
1 7 5
_edgeID
16 2 16 5 1 
    4 21 3
1 5 2
_body
16 405 
1 6 1
_nface
2
1 7 5
_edgeID
16 4 16 5 1 
    4 22 3
1 5 2
_body
16 204 
1 6 1
_nface
2
1 7 5
_edgeID
16 2 16 4 1 
    4 23 3
1 5 2
_body
8 304 
1 6 1
_nface
2
1 7 5
_edgeID
8 3 8 4 1 
    4 24 3
1 5 2
_body
8 203 
1 6 1
_nface
2
1 7 5
_edgeID
8 2 8 3 1 
    4 25 3
1 5 2
_body
8 306 
1 6 1
_nface
2
1 7 5
_edgeID
8 3 8 6 1 
    4 26 3
1 5 2
_body
8 405 
1 6 1
_nface
2
1 7 5
_edgeID
8 4 8 5 1 
    4 27 3
1 5 2
_body
8 204 
1 6 1
_nface
2
1 7 5
_edgeID
8 2 8 4 1 
    4 28 3
1 5 2
_body
8 206 
1 6 1
_nface
2
1 7 5
_edgeID
8 2 8 6 1 
    4 29 3
1 5 2
_body
8 506 
1 6 1
_nface
2
1 7 5
_edgeID
8 5 8 6 1 
    4 30 3
1 5 2
_body
8 205 
1 6 1
_nface
2
1 7 5
_edgeID
8 2 8 5 1 
    5 0 2
1 7 1
_nodeID
1
1 6 1
_nedge
4
    5 1 2
1 7 1
_nodeID
2
1 6 1
_nedge
4
    5 2 2
1 7 1
_nodeID
3
1 6 1
_nedge
3
    5 3 2
1 7 1
_nodeID
4
1 6 1
_nedge
3
    5 4 2
1 7 1
_nodeID
5
1 6 1
_nedge
3
    5 5 2
1 7 1
_nodeID
6
1 6 1
_nedge
3
    5 6 2
1 7 1
_nodeID
7
1 6 1
_nedge
3
    5 7 2
1 7 1
_nodeID
8
1 6 1
_nedge
3
    5 8 2
1 7 1
_nodeID
9
1 6 1
_nedge
3
    5 9 2
1 7 1
_nodeID
10
1 6 1
_nedge
3
    5 10 2
1 7 1
_nodeID
11
1 6 1
_nedge
1
    5 11 2
1 7 1
_nodeID
12
1 6 1
_nedge
3
    5 12 2
1 7 1
_nodeID
13
1 6 1
_nedge
3
    5 13 2
1 7 1
_nodeID
14
1 6 1
_nedge
3
    5 14 2
1 7 1
_nodeID
15
1 6 1
_nedge
3
    5 15 2
1 7 1
_nodeID
16
1 6 1
_nedge
3
    5 16 2
1 7 1
_nodeID
17
1 6 1
_nedge
3
    5 17 2
1 7 1
_nodeID
18
1 6 1
_nedge
3
    5 18 2
1 7 1
_nodeID
19
1 6 1
_nedge
3
    0 0 0
