DBRep_DrawableShape

CASCADE Topology V1, (c) Matra-Datavision
Locations 1
1
              1               0               0               0 
              0               1               0             1.9 
              0               0               1               0 
Curve2ds 1
7 0 0  10 47 6  1.5707963267948959 -0.45102681179626264  1.4947191880083033 -0.45102681172018549  1.4186419603083777 -0.43774855757169462  1.346396504130098 -0.41119519528365345  1.281799302509171 -0.37234749108392862  1.2276795051875524 -0.3232485561966314  1.1843570235359948 -0.26628176465601427  1.1520372827581014 -0.20350581675120338  1.1305244053473871 -0.13693909412540961  1.1197695149678228 -0.068469424254099048  1.1197695150217422 0.051352068571977924  1.1258195580518717 0.10270393681844639  1.1379177365149022 0.15325509556343406  1.1560906497753269 0.20220037332448251  1.1803720388582708 0.24872289107891751  1.2107869200495469 0.29196461945363505  1.2472579303441835 0.33102014264662177  1.2894390107132119 0.36497723844285634  1.3365699661578481 0.39300588895961353  1.4257567707908998 0.43057743183028074  1.4661359919445238 0.44298982586228003  1.5081990412739537 0.4514457359356851  1.5513662427905728 0.45573935424433032  1.5949482325426692 0.45574887028482813  1.6382045079534691 0.45146004245909055  1.6804217733155968 0.44297191827182469  1.7209803396386754 0.43048009329179704  1.7593863371061125 0.41424669530192421  1.84906299048195 0.36508014784592957  1.8971648740526903 0.32785549154606686  1.9382756000456538 0.28394522786371679  1.9716904824410448 0.23462138888371556  1.9972802098745888 0.18119866029974219  2.0151247364919982 0.12490880430113975  2.0253083519464781 0.066902365196625624  2.0278713192769677 0.0083048886061958312  2.0227764237986157 -0.049754891229658579  1.9972227682568664 -0.16246835487460065  1.9767633537985076 -0.21712192854915599  1.9486022274565584 -0.26890923992123134  1.9127046906229226 -0.31662687159005143  1.869195016726735 -0.35903125894583354  1.818350549841125 -0.39481084822800766  1.7610680517363106 -0.42267023027272899  1.6991760485861782 -0.44157375471864879  1.6349864127217604 -0.45102681173207254  1.5707963267948994 -0.45102681179626325 
 0 11 1.5707963267949141 9 2.7488935718910996 9 3.632466505713233 9 4.9578259064464119 9 6.2831853071795871 11
Curves 1
2 0 0.89999999999999991 0 0 -1 0 0 -0 -1 1 0 0 0.43588989435406755
Polygon3D 0
PolygonOnTriangulations 0
Surfaces 2
10 0 3.1415926535897931 -1.5707963267948966 1.5707963267948966
4 0 0 0 0 0 1 1 0 -0 -0 1 0 1
1 -1 -1 -1 0 -1 0 0.70710678118654757 0 0.70710678118654757 -0.70710678118654757 0 0.70710678118654757 
Triangulations 0

TShapes 9
Ve
1e-07
0 0.9 -0.435889894354068
0 0

0101101
*
Ed
 1e-07 1 1 0
1  1 0 0 6.28318530717959
2  1 1 0 0 6.28318530717959
0

0101100
+9 0 -9 0 *
Wi

0101000
-8 0 *
Fa
0  1e-07 1 0

0111000
+7 0 *
Wi

0101000
+8 0 *
Fa
0  1e-07 2 1

0111000
+5 0 *
Sh

0101100
+6 0 +4 0 *
So

0100000
+3 0 *
Co

1100000
+2 0 *

+1 0 
##EGADS HEADER FILE-REV 1 ##
0
  1  1  2  2  1  1  3
1 5 1
_body
9
1 5 1
_brch
9
2 8 3
_tParams
 3.379267726174e-02  1.351707090470e-03  1.500000000000e+01 
    2 0 4
1 5 2
_body
1 0 
1 5 2
_brch
1 0 
1 5 2
_hist
1 9 
1 7 3
_faceID
1 0 1 
    2 1 4
1 5 2
_body
8 2 
1 5 2
_brch
8 2 
1 5 2
_hist
8 9 
1 7 3
_faceID
8 2 1 
    4 0 3
1 5 2
_body
9 0 
1 7 5
_edgeID
1 0 8 2 1 
1 6 1
_nface
2
    5 0 2
1 7 1
_nodeID
1
1 6 1
_nedge
1
    0 0 0
