DBRep_DrawableShape

CASCADE Topology V1, (c) Matra-Datavision
Locations 1
1
              1               0               0               0 
              0               1               0            1.95 
              0               0               1               0 
Curve2ds 1
7 0 0  10 38 5  1.5707963267948961 -0.3175604292915214  1.5191667479735642 -0.31756042923989181  1.4675373918310659 -0.30854914065157413  1.4180581955587059 -0.2905285964487348  1.3728854461362061 -0.26401634095527698  1.3338107647105062 -0.23008294912960991  1.3018872464526794 -0.19012275907007278  1.2776312567342756 -0.14562820196562143  1.2613687363712942 -0.098096033624946455  1.2532358974800775 -0.049048099411891005  1.2532358975208486 0.036786074832136903  1.2578103737498276 0.073572105461384901  1.2669595976545083 0.10971841958127701  1.280635929704689 0.14458421838842242  1.2987456079574462 0.17753321940326963  1.321128751258402 0.20793284453801561  1.3475182566442192 0.23516594497957857  1.3774928380525131 0.25866146145845675  1.4104540209699077 0.27793782563332237  1.4984976564788808 0.31469405025058356  1.5564006927725131 0.3264566717255093  1.616908822892583 0.32672791682307434  1.6768943562055938 0.31495936412466108  1.7327491448959336 0.29145270244043786  1.7813853380503133 0.25772231301743886  1.8214282588451169 0.2157051282338216  1.8519082661332504 0.16747541794075005  1.8723815588955954 0.11517422782876834  1.892911071741149 0.0067351172609913437  1.8929667196708486 -0.049402406287136338  1.8826271280576292 -0.10530624396302528  1.8619385060141211 -0.15879734032459963  1.8312203463174228 -0.20773811817980459  1.7908662126603303 -0.24996591986528074  1.7419877624118272 -0.28334981658068725  1.6869618872388876 -0.30615527748306831  1.6288796029278103 -0.31756042923343814  1.5707963267948972 -0.31756042929152084 
 0 11 1.5707963267948966 9 2.748893571891069 9 4.5160394395353274 9 6.2831853071795862 11
Curves 1
2 0 0.94999999999999996 0 0 -1 0 0 -0 -1 1 0 0 0.31224989991991997
Polygon3D 0
PolygonOnTriangulations 0
Surfaces 2
10 0 3.1415926535897931 -1.5707963267948966 1.5707963267948966
4 0 0 0 0 0 1 1 0 -0 -0 1 0 1
1 -1 -1 -1 0 -1 0 0.70710678118654757 0 0.70710678118654757 -0.70710678118654757 0 0.70710678118654757 
Triangulations 0

TShapes 9
Ve
1e-07
0 0.95 -0.31224989991992
0 0

0101101
*
Ed
 1e-07 1 1 0
1  1 0 0 6.28318530717959
2  1 1 0 0 6.28318530717959
0

0101100
+9 0 -9 0 *
Wi

0101000
-8 0 *
Fa
0  1e-07 1 0

0111000
+7 0 *
Wi

0101000
+8 0 *
Fa
0  1e-07 2 1

0111000
+5 0 *
Sh

0101100
+6 0 +4 0 *
So

0100000
+3 0 *
Co

1100000
+2 0 *

+1 0 
##EGADS HEADER FILE-REV 1 ##
0
  1  1  2  2  1  1  3
1 5 1
_body
9
1 5 1
_brch
9
2 8 3
_tParams
 2.407245148762e-02  9.628980595049e-04  1.500000000000e+01 
    2 0 4
1 5 2
_body
1 0 
1 5 2
_brch
1 0 
1 5 2
_hist
1 9 
1 7 3
_faceID
1 0 1 
    2 1 4
1 5 2
_body
8 2 
1 5 2
_brch
8 2 
1 5 2
_hist
8 9 
1 7 3
_faceID
8 2 1 
    4 0 3
1 5 2
_body
9 0 
1 7 5
_edgeID
1 0 8 2 1 
1 6 1
_nface
2
    5 0 2
1 7 1
_nodeID
1
1 6 1
_nedge
1
    0 0 0
