DBRep_DrawableShape

CASCADE Topology V1, (c) Matra-Datavision
Locations 0
Curve2ds 20
1 6.2831853071795862 -6.2831853071795862 0 1 
1 0 -6.2831853071795862 0 1 
1 0 -1.5707963267948966 1 0 
1 3.1415926535897931 0 0 1 
1 3.1415926535897931 0 0 1 
1 0 1.5707963267948966 1 0 
7 0 0  9 34 5  4.7123889803846852 0.77539749661075308  4.7979272240178004 0.77539749652521484  4.8834650731896545 0.76699959494908398  4.9662532373040449 0.75020588863117155  5.0435262703103945 0.72548497180650884  5.11337028053822 0.69382672978099436  5.1755473305820487 0.6563211141674401  5.2301418833758362 0.61393193615094788  5.2776140660974384 0.56751727603096902  5.3797570541908204 0.44323850589060243  5.4261593557529624 0.36125289406695743  5.4594186507735385 0.27431885953009311  5.4816507520711939 0.18425751726323369  5.494063233181401 0.092376908212934775  5.4972087298295564 -0.00023411194693305029  5.4911618425085509 -0.09251267554943772  5.4752575371738192 -0.18332412612612828  5.4347913901132499 -0.31512335351402593  5.4185341532939724 -0.35832024748103869  5.3993558556978014 -0.40059669514827573  5.3770671903403127 -0.44174817268246142  5.3514483116911533 -0.48154286120668782  5.3222542036652767 -0.51971514777640471  5.2892365042883052 -0.55595792291801749  5.2521932331084411 -0.58991980747255246  5.1699107589373074 -0.65252282117519567  5.124671888535377 -0.68116399031350872  5.0752598622067735 -0.70676506589798771  5.0217396593551609 -0.7289191834334916  4.9643558305401205 -0.74720590950619226  4.9036902823660666 -0.76122675499679338  4.840695996271184 -0.77067372073559648  4.7765426633545722 -0.77539749654659929  4.7123889803846861 -0.77539749661075319 
 0 10 0.78539816339745805 8 1.963495408493634 8 2.5525440310417147 8 3.1415926535897931 10
1 0 0.78585715714571502 1 0 
7 0 0  9 34 5  4.7123889803846852 -0.77539749661075308  4.6268507367515781 -0.77539749652521484  4.5413128875406983 -0.76699959495090297  4.4585247236827854 -0.75020588862389559  4.381251689788769 -0.72548497183561267  4.3114076804049546 -0.69382672975189053  4.2492306299536722 -0.65632111418199202  4.1946360774200002 -0.61393193615094788  4.1471638946719409 -0.56751727603096902  4.045020906578559 -0.44323850589060243  3.9986186050122359 -0.36125289406692423  3.9653593100007734 -0.27431885952985152  3.9431272086921023 -0.18425751726314527  3.9307147275835126 -0.092376908212947403  3.9275692309480896 0.00023411194706568494  3.9336161182587697 0.092512675549570267  3.9495204235955601 0.18332412612612783  3.9899865706561304 0.31512335351402559  4.0062438074729947 0.35832024748108288  4.0254221050627166 0.40059669514935575  4.0477107704132829 0.44174817268215821  4.0733296490664843 0.48154286120557621  4.1025237571020625 0.51971514777619632  4.1355414564804294 0.55595792291788471  4.1725847276609374 0.58991980747255224  4.2548672018320728 0.65252282117519567  4.3001060722294682 0.68116399031280139  4.3495180985419211 0.70676506590010979  4.4030383014053065 0.72891918343106632  4.4604221302203468 0.74720590950376697  4.5210876783830827 0.76122675499891557  4.5840819644947208 0.77067372073488905  4.6482352974148071 0.77539749654659929  4.7123889803846932 0.77539749661075319 
 3.1415926535897931 10 3.9269908169872285 8 5.1050880620834054 8 5.6941366846314958 8 6.2831853071795862 10
1 0 0.78585715714571502 1 0 
1 0 -1.5707963267948966 1 0 
1 0 1.5707963267948966 1 0 
7 0 0  9 50 7  1.5707963267948968 0.593479133018329  1.5119258227603045 0.59347913295945842  1.4530556945581432 0.5876994423257812  1.3954218177016553 0.57614082528016297  1.3402719173883371 0.55900118409494504  1.2886290393917079 0.53668862399541062  1.2411346222772106 0.50973249288063016  1.1980879666608963 0.4786951579398811  1.1596135428867511 0.4441280282642685  1.0663574145212527 0.34080516953268214  1.020987070617458 0.26585087484291026  0.98956950471498806 0.18451230165450974  0.97089482286941753 0.099317183580289736  0.96416259629242829 0.012294057940587935  0.96913008761979802 -0.074764815736084955  0.98612276931961829 -0.15998555832252373  1.016073572801125 -0.24122094270338865  1.092265833396175 -0.37196418477085358  1.1325628531235452 -0.42432706247018359  1.1807633804946818 -0.47195412845576357  1.2370546408383234 -0.51365477534272941  1.3012199655495351 -0.54816020687030687  1.3725979587070469 -0.57408309351376374  1.4487750883445187 -0.59031706871633105  1.5267956100556501 -0.59645602562222755  1.6617031030780562 -0.58982481555578559  1.718996785889487 -0.58139834882751884  1.7745989698131932 -0.56745931565869034  1.827388845176352 -0.5482637559822352  1.8765101002512286 -0.5242455936235173  1.9214602382518631 -0.49592866500389238  1.9620254579476415 -0.46385106163113093  1.9981380019948365 -0.42853474244958367  2.0773827761070551 -0.33337850141736691  2.1149963725142058 -0.27010561813902279  2.1427935305504584 -0.20231719203585641  2.1613905375094569 -0.1315202941566756  2.1712860318598866 -0.058985783186124588  2.1727215859117073 0.014147886998758944  2.1656557886243784 0.086751352875067883  2.1497619261268555 0.15762125168029556  2.099505361958137 0.29316441222623396  2.065141186103574 0.35783759853597985  2.0211527290739468 0.41805201718761964  1.9669851512880996 0.47228020738293708  1.9025237886016839 0.51881305041024461  1.8275962043298932 0.55568055400362937  1.7446467776080681 0.58087769662711253  1.657722305086982 0.59347913293140298  1.5707963267948968 0.593479133018329 
 0 10 0.78539816339745017 8 2.1598449493429848 8 3.1906800388021379 8 3.9638063558965015 8 5.1234958315380457 8 6.2831853071795862 10
7 0 0  10 74 9  4.7123889803846843 0.92550830536898077  4.816719819140352 0.92550830526465  4.9210505242663203 0.91640345196174167  5.021333093784051 0.8981967278450611  5.1135259291622788 0.87150390623719431  5.1949681938858703 0.83763682584685739  5.2663539950735867 0.79798233410110697  5.3281532209948637 0.75358975130075123  5.3814893161834334 0.70539463259319746  5.4273083596421179 0.65411571067944096  5.5350892709851998 0.50624365142029604  5.5833827808091883 0.40450843320806484  5.6161236039188225 0.29829664555904856  5.6370897041633725 0.18943713223961822  5.6477517598541453 0.079080588778197125  5.6491972944932058 -0.031777489042269735  5.6412385597941466 -0.14227639516593626  5.6232238901793608 -0.25144028384545436  5.5930987509138195 -0.35801265914827396  5.5302710426436335 -0.49810978529346661  5.5109469365922354 -0.53565949228563681  5.4892513971696966 -0.57244031036652165  5.4649735034519837 -0.60832576873795752  5.437875475781766 -0.64316894286609272  5.4076932440286321 -0.67679857292793399  5.3741435571075815 -0.70901389439734008  5.3369455633406648 -0.7395794879492581  5.2958648424908654 -0.76822444105740051  5.2113456157106084 -0.81777817443152157  5.1688439311673129 -0.83920641762931802  5.1232048425495718 -0.8587396914021006  5.074426532866589 -0.87616566275579932  5.0226021672622458 -0.8912629332529225  4.9679798857460504 -0.90381156358942749  4.9110044608247261 -0.91361279200038648  4.8523074761754419 -0.92051467109604912  4.7926392927093771 -0.92443327257715158  4.6279780538594215 -0.9269598668352772  4.5225553671261878 -0.9193804989072305  4.4205931811593473 -0.9025296582331066  4.3263378196861595 -0.87694499209464993  4.242880500620231 -0.84391164698172361  4.1696417310158722 -0.80487719479424413  4.1061912020959426 -0.76091666566935601  4.0514166117427521 -0.71300749866804836  4.0043512443505485 -0.66189580776078338  3.9036782191650077 -0.52764745317575001  3.8585678401536838 -0.44127545640473764  3.8256816005537986 -0.35114922736150617  3.8024655265908223 -0.25858586559861579  3.7874950075274683 -0.16447030405333862  3.7799424274300693 -0.069499980604268791  3.7794164733153592 0.025709363096171955  3.7860711631984287 0.12056596809553213  3.8005362780369532 0.21438734542542864  3.8359541665794952 0.35218092478047092  3.850046636877535 0.39762235459529716  3.8665920183621245 0.44245829555955929  3.88579857650008 0.48655806512622346  3.9079218948035197 0.52976968212791076  3.9332671350933497 0.57191462844692365  3.9621924986695349 0.61277964770319115  3.9951063557388453 0.65210560788490279  4.0324385808435856 0.68957754804383664  4.1166708240116945 0.76007069670541427  4.163571177709473 0.79309184873791616  4.2156183060591506 0.823517017243239  4.2731255482824055 0.85091688344764405  4.3362178928655339 0.87481397772353375  4.4048012251907496 0.89468159415700943  4.4782305221951901 0.9099945384948569  4.555128785010214 0.92033673726516907  4.6337587800480025 0.92550830529035044  4.7123889803846852 0.92550830536898077 
 0 11 0.78539816339745172 9 2.1598449493429874 9 2.6752624940725629 9 3.1262528457109418 9 3.9154859610781099 9 5.0993356341288516 9 5.6912604706542229 9 6.2831853071795853 11
1 3.1415926535897931 0 0 1 
1 3.1415926535897931 0 0 1 
1 0 -0 0 1 
1 6.2831853071795862 -0 0 1 
1 0 2 1 0 
1 0 2 1 0 
Curves 9
2 0 0 0 -2.4492935982947064e-16 -1 0 1 -2.4492935982947064e-16 0 0 0 1 1
7 0 0  8 9 2  -1.1102230246251565e-16 -2.4651903288156619e-32 -1  -0.39269908169872153 4.8091767343044917e-17 -0.99999999999999967  -0.78540282094169278 9.6184105070752964e-17 -0.82371721549249899  -1.085784257205388 1.3297022151511942e-16 -0.47146844414511035  -1.201805729000238 1.4717875392170564e-16 -9.8809849191638837e-15  -1.0857842572053866 1.3297022151511954e-16 0.47146844414512662  -0.78540282094169511 9.6184105070752853e-17 0.82371721549249011  -0.3926990816987207 4.8091767343044966e-17 1.0000000000000024  -1.1102230246251565e-16 -2.4651903288156619e-32 1 
 -1.5707963267948966 9 1.5707963267948966 9
2 0 -0.71414284285428498 0 0 1 0 0 -0 1 1 0 -0 0.69999999999999996
2 0 -0.71414284285428498 0 0 1 0 0 -0 1 1 0 -0 0.69999999999999996
2 0 0.82899999999999996 0 0 1 0 0 -0 1 1 0 -0 0.5592486030380408
7 0 0  1 2 2  8.572527594031472e-17 -1.5 -0.69999999999999996  8.572527594031472e-17 0.5 -0.69999999999999996 
 0 2 2 2
1 -1.7145055188062944e-16 -1.5 0.69999999999999996 0 1 0 
2 0 0.5 0 -0 1 0 0 -0 1 1 0 0 0.69999999999999996
2 0 0.5 0 -0 1 0 0 -0 1 1 0 0 0.69999999999999996
Polygon3D 0
PolygonOnTriangulations 0
Surfaces 6
10 3.1415926535897931 6.2831853071795862 -1.5707963267948966 1.5707963267948966
4 0 0 0 0 0 1 1 0 -0 -0 1 0 1
10 0 3.1415926535897931 -1.5707963267948966 1.5707963267948966
4 0 0 0 0 0 1 1 0 -0 -0 1 0 1
10 0 3.1415926535897931 0 2
2 0 -1.5 0 0 1 0 0 -0 1 1 0 0 0.69999999999999996
10 3.1415926535897931 6.2831853071795862 0 2
2 0 -1.5 0 0 1 0 0 -0 1 1 0 0 0.69999999999999996
10 3.1415926535897931 6.2831853071795862 -1.5707963267948966 1.5707963267948966
4 0 1.25 0 0 0 1 1 0 -0 -0 1 0 0.69999999999999996
1 0 0.5 0 0 1 0 0 -0 1 1 0 0 
Triangulations 0

TShapes 37
Ve
1e-05
6.12323399573677e-17 -1.49975978266186e-32 -1
0 0

0101101
*
Ve
1e-05
6.12323399573677e-17 -1.49975978266186e-32 1
0 0

0101101
*
Ed
 1e-07 1 1 0
1  1 0 4.71238898038469 7.85398163397448
2  1 1 0 4.71238898038469 7.85398163397448
2  2 2 0 4.71238898038469 7.85398163397448
0

0101000
+37 0 -36 0 *
Ed
 1e-07 1 1 1
2  3 1 0 3.14159265358979 6.28318530717959
0

0101100
+37 0 -37 0 *
Ed
 1e-05 1 1 0
1  2 0 -1.5707963267949 1.5707963267949
2  4 1 0 -1.5707963267949 1.5707963267949
2  5 2 0 -1.5707963267949 1.5707963267949
0

0101000
-36 0 +37 0 *
Ed
 1e-07 1 1 1
2  6 1 0 3.14159265358979 6.28318530717959
0

0101100
-36 0 +36 0 *
Wi

0101000
+35 0 +34 0 -33 0 -32 0 *
Ve
2.00001e-07
-1.71450551880629e-16 -0.714142842854285 0.7
0 0

0101101
*
Ve
1.0100001e-05
8.57252759403147e-17 -0.714142842854285 -0.7
0 0

0101101
*
Ed
 1e-07 1 1 0
1  3 0 0 3.14159265358979
2  7 1 0 0 3.14159265358979
2  8 3 0 0 3.14159265358979
0

0101000
+30 0 -29 0 *
Ed
 1e-07 1 1 0
1  4 0 3.14159265358979 6.28318530717959
2  9 1 0 3.14159265358979 6.28318530717959
2  10 4 0 3.14159265358979 6.28318530717959
0

0101000
+29 0 -30 0 *
Wi

0101000
+28 0 +27 0 *
Fa
0  1e-07 1 0

0111000
+31 0 +26 0 *
Ed
 1e-07 1 1 1
2  11 2 0 0 3.14159265358979
0

0101100
+37 0 -37 0 *
Ed
 1e-07 1 1 1
2  12 2 0 0 3.14159265358979
0

0101100
-36 0 +36 0 *
Wi

0101000
+33 0 +24 0 -35 0 -23 0 *
Ve
1e-07
0 0.829 0.559248603038041
0 0

0101101
*
Ed
 1e-07 1 1 0
1  5 0 0 6.28318530717959
2  13 2 0 0 6.28318530717959
2  14 5 0 0 6.28318530717959
0

0101100
+21 0 -21 0 *
Wi

0101000
-20 0 *
Fa
0  1e-07 2 0

0111000
+22 0 +19 0 *
Ve
1e-05
8.57252759403147e-17 0.5 -0.7
0 0

0101101
*
Ed
 1e-05 1 1 0
1  6 0 0.785857157145715 2
2  15 3 0 0.785857157145715 2
2  16 4 0 0.785857157145715 2
0

0101000
+29 0 -17 0 *
Ve
1e-07
-1.71450551880629e-16 0.5 0.7
0 0

0101101
*
Ed
 1e-07 1 1 0
1  7 0 0.785857157145715 2
2  17 3 0 0.785857157145715 2
2  18 4 0 0.785857157145715 2
0

0101000
+30 0 -15 0 *
Ed
 1e-07 1 1 0
1  8 0 0 3.14159265358979
2  19 3 0 0 3.14159265358979
0

0101000
-17 0 +15 0 *
Wi

0101000
+16 0 +28 0 -14 0 -13 0 *
Fa
0  1e-07 3 0

0111000
+12 0 *
Ed
 1e-07 1 1 0
1  9 0 3.14159265358979 6.28318530717959
2  20 4 0 3.14159265358979 6.28318530717959
0

0101000
-15 0 +17 0 *
Wi

0101000
-16 0 -10 0 +14 0 +27 0 *
Fa
0  1e-07 4 0

0111000
+9 0 *
Wi

0101000
-20 0 *
Fa
0  1e-07 5 0

0111000
+7 0 *
Wi

0101100
+13 0 +10 0 *
Fa
0  1e-07 6 0

0111000
+5 0 *
Sh

0101100
+25 0 +18 0 -11 0 -8 0 -6 0 -4 0 *
So

0100000
+3 0 *
Co

1100000
+2 0 *

+1 0 
##EGADS HEADER FILE-REV 1 ##
0
  1  1  6  8  13  7  3
1 5 1
_body
5
1 5 1
_brch
5
2 8 3
_tParams
 8.768459119344e-02  3.507383647738e-03  1.500000000000e+01 
    2 0 4
1 5 2
_body
1 0 
1 5 2
_brch
1 0 
1 5 3
_hist
1 3 5 
1 7 3
_faceID
1 0 1 
    2 1 4
1 5 2
_body
1 0 
1 5 2
_brch
1 0 
1 5 3
_hist
1 3 5 
1 7 3
_faceID
1 0 2 
    2 2 4
1 5 2
_body
2 3 
1 5 2
_brch
2 3 
1 5 3
_hist
2 3 5 
1 7 3
_faceID
2 3 1 
    2 3 4
1 5 2
_body
2 4 
1 5 2
_brch
2 4 
1 5 3
_hist
2 3 5 
1 7 3
_faceID
2 4 1 
    2 4 4
1 5 2
_body
4 0 
1 5 2
_brch
4 0 
1 5 2
_hist
4 5 
1 7 3
_faceID
4 0 1 
    2 5 4
1 5 2
_body
2 2 
1 5 2
_brch
2 2 
1 5 3
_hist
2 3 5 
1 7 3
_faceID
2 2 1 
    4 0 3
1 5 2
_body
1 0 
1 6 1
_nface
2
1 7 5
_edgeID
1 0 1 0 1 
    4 1 3
1 5 2
_body
1 -3 
1 6 1
_nface
1
1 7 5
_edgeID
0 0 1 0 1 
    4 2 3
1 5 2
_body
1 0 
1 6 1
_nface
2
1 7 5
_edgeID
1 0 1 0 2 
    4 3 3
1 5 2
_body
1 -3 
1 6 1
_nface
1
1 7 5
_edgeID
0 0 1 0 2 
    4 4 3
1 5 2
_body
3 0 
1 6 1
_nface
2
1 7 5
_edgeID
1 0 2 3 1 
    4 5 3
1 5 2
_body
3 0 
1 6 1
_nface
2
1 7 5
_edgeID
1 0 2 4 1 
    4 6 3
1 5 2
_body
1 -3 
1 6 1
_nface
1
1 7 5
_edgeID
0 0 1 0 3 
    4 7 3
1 5 2
_body
1 -3 
1 6 1
_nface
1
1 7 5
_edgeID
0 0 1 0 4 
    4 8 3
1 5 2
_body
5 0 
1 7 5
_edgeID
1 0 4 0 1 
1 6 1
_nface
2
    4 9 3
1 5 2
_body
2 304 
1 6 1
_nface
2
1 7 5
_edgeID
2 3 2 4 1 
    4 10 3
1 5 2
_body
2 304 
1 6 1
_nface
2
1 7 5
_edgeID
2 3 2 4 2 
    4 11 3
1 5 2
_body
2 203 
1 6 1
_nface
2
1 7 5
_edgeID
2 2 2 3 1 
    4 12 3
1 5 2
_body
2 204 
1 6 1
_nface
2
1 7 5
_edgeID
2 2 2 4 1 
    5 0 2
1 7 1
_nodeID
1
1 6 1
_nedge
4
    5 1 2
1 7 1
_nodeID
2
1 6 1
_nedge
4
    5 2 2
1 7 1
_nodeID
3
1 6 1
_nedge
3
    5 3 2
1 7 1
_nodeID
4
1 6 1
_nedge
3
    5 4 2
1 7 1
_nodeID
5
1 6 1
_nedge
1
    5 5 2
1 7 1
_nodeID
6
1 6 1
_nedge
3
    5 6 2
1 7 1
_nodeID
7
1 6 1
_nedge
3
    0 0 0
