DBRep_DrawableShape

CASCADE Topology V1, (c) Matra-Datavision
Locations 0
Curve2ds 14
1 6.2831853071795862 -6.2831853071795862 0 1 
1 0 -6.2831853071795862 0 1 
1 0 -1.5707963267948966 1 0 
1 3.1415926535897931 0 0 1 
1 3.1415926535897931 0 0 1 
1 0 1.5707963267948966 1 0 
1 0 -0.70758443672535565 1 0 
7 0 0  9 18 3  5.7385903524964474 -0.7075844367253562  5.6284455797875763 -0.66125217977080364  5.5301147815625882 -0.60544135176610325  5.4438795093665249 -0.54212585722234508  5.3680534031445859 -0.47319136515397986  5.3005735040642321 -0.39992152863851516  5.2399651339510456 -0.32326513536827406  5.1848284944317129 -0.2439232051046929  5.1340842779144751 -0.16242647850202982  5.0394614934933983 0.0040484177554449769  4.995582802907176 0.089026539204214994  4.954188592358757 0.17533201355784436  4.914459800422871 0.26266675979286447  4.8757011219341724 0.35080301557652799  4.8371566798981194 0.43954607792812794  4.7979741567612848 0.52872027987999204  4.7571050480482144 0.61815230132988697  4.7123889803846852 0.70758443672535587 
 0.42406477693218075 10 1.3239582724597287 8 2.2238517679872767 10
7 0 0  9 18 3  4.7123889803846861 0.70758443672535642  4.6676729127211649 0.61815230132988752  4.6268038040056831 0.52872027988023529  4.5876212808757373 0.43954607792739847  4.5490768388303371 0.35080301557622484  4.5103181603335543 0.26266675979266235  4.4705893684022158 0.17533201355716224  4.4291951578580226 0.089026539204215174  4.3853164672759828 0.0040484177554458078  4.2906936828549043 -0.16242647850202899  4.2399494663095538 -0.24392320510355603  4.1848128268611617 -0.32326513537282153  4.1242044565442484 -0.3999215286312392  4.0567245574202389 -0.47319136516671279  3.9808984514384065 -0.54212585721415962  3.8946631791932305 -0.60544135176883174  3.7963323809818044 -0.66125217977080275  3.6861876082729372 -0.70758443672535543 
 0.91774088560251588 10 1.8176343811300675 8 2.717527876657611 10
1 0 -1.5707963267948966 1 0 
1 0 1.5707963267948966 1 0 
1 0 -0.70758443672535565 1 0 
7 0 0  9 18 3  2.5969976989066494 -0.70758443672535576  2.4868529261977823 -0.66125217977080308  2.3885221279770121 -0.60544135176508007  2.3022868557600304 -0.5421258572187071  2.2264607495162636 -0.47319136516125582  2.1589808506614645 -0.39992152864397212  2.0983724802681536 -0.32326513537645951  2.0432358408634173 -0.24392320510446552  1.992491624324682 -0.16242647850202924  1.8978688399036043 0.0040484177554456014  1.8539901493183639 0.089026539204038288  1.8125959387740143 0.17533201355746542  1.7728671468339599 0.26266675979177811  1.7341084683396022 0.35080301557523952  1.6955640263056466 0.43954607792752159  1.6563815031742404 0.52872027987999204  1.6155123944584213 0.61815230132988708  1.5707963267948959 0.70758443672535598 
 3.5656574305219748 10 4.4655509260495228 8 5.3654444215770702 10
7 0 0  9 18 3  1.5707963267948972 0.7075844367253562  1.5260802591313722 0.6181523013298873  1.4852111504154561 0.52872027988034587  1.4460286272819001 0.43954607792646055  1.4074841852448623 0.35080301557619958  1.3687255067501003 0.26266675979263709  1.3289967148123953 0.17533201355629066  1.2876025042700947 0.089026539204480323  1.2437238136861886 0.0040484177554452067  1.1491010292651109 -0.1624264785020296  1.0983568127294348 -0.24392320510401078  1.0432201732037356 -0.32326513537464052  0.98261180306144524 -0.39992152863487718  0.91513190392652177 -0.47319136517035076  0.83930579792104254 -0.54212585720779316  0.75307052558991927 -0.60544135176769487  0.65473972739201058 -0.66125217977080319  0.54459495468314356 -0.70758443672535576 
 4.0593335391923091 10 4.9592270347198575 8 5.859120530247405 10
Curves 11
2 0 0 0 -2.4492935982947064e-16 -1 0 1 -2.4492935982947064e-16 0 0 0 1 1
7 0 0  8 9 2  -1.1102230246251565e-16 -2.4651903288156619e-32 -1  -0.39269908169872153 4.8091767343044917e-17 -0.99999999999999967  -0.78540282094169278 9.6184105070752964e-17 -0.82371721549249899  -1.085784257205388 1.3297022151511942e-16 -0.47146844414511035  -1.201805729000238 1.4717875392170564e-16 -9.8809849191638837e-15  -1.0857842572053866 1.3297022151511954e-16 0.47146844414512662  -0.78540282094169511 9.6184105070752853e-17 0.82371721549249011  -0.3926990816987207 4.8091767343044966e-17 1.0000000000000024  -1.1102230246251565e-16 -2.4651903288156619e-32 1 
 -1.5707963267948966 9 1.5707963267948966 9
2 0 0 -0.65000000000000002 0 0 1 1 0 -0 -0 1 0 0.75993420767853315
2 0.26000000000000001 0 0.13 -0.89442719099991597 0 -0.44721359549995798 0.44721359549995798 0 -0.89442719099991597 0 -1 -0 0.95681764197782226
2 -0.26000000000000001 0 0.13 0.89442719099991597 0 -0.44721359549995798 0.44721359549995798 0 0.89442719099991597 0 -1 0 0.95681764197782226
2 0 0 -0.65000000000000002 0 0 1 1 0 -0 -0 1 0 0.75993420767853315
2 -0.26000000000000001 0 0.13 0.89442719099991597 0 -0.44721359549995798 0.44721359549995798 0 0.89442719099991597 0 -1 0 0.95681764197782226
2 0.26000000000000001 0 0.13 -0.89442719099991597 0 -0.44721359549995798 0.44721359549995798 0 -0.89442719099991597 0 -1 -0 0.95681764197782226
1 -0.65000000000000002 -1 -0.65000000000000002 0 1 0 
1 0.65000000000000002 -1 -0.65000000000000002 0 1 0 
1 0 -1 0.65000000000000002 0 1 0 
Polygon3D 0
PolygonOnTriangulations 0
Surfaces 5
10 3.1415926535897931 6.2831853071795862 -1.5707963267948966 1.5707963267948966
4 0 0 0 0 0 1 1 0 -0 -0 1 0 1
10 0 3.1415926535897931 -1.5707963267948966 1.5707963267948966
4 0 0 0 0 0 1 1 0 -0 -0 1 0 1
1 0.65000000000000002 -1 -0.65000000000000002 0 -0 1 -1 0 0 -0 -1 0 
1 0 -1 0.65000000000000002 -0.89442719099991597 0 -0.44721359549995798 0.44721359549995798 0 -0.89442719099991597 0 -1 -0 
1 -0.65000000000000002 -1 -0.65000000000000002 0.89442719099991597 0 -0.44721359549995798 0.44721359549995798 0 0.89442719099991597 0 -1 0 
Triangulations 0

TShapes 38
Ve
1e-05
6.12323399573677e-17 -1.49975978266186e-32 -1
0 0

0101101
*
Ve
1e-05
6.12323399573677e-17 -1.49975978266186e-32 1
0 0

0101101
*
Ed
 1e-07 1 1 0
1  1 0 4.71238898038469 7.85398163397448
2  1 1 0 4.71238898038469 7.85398163397448
2  2 2 0 4.71238898038469 7.85398163397448
0

0101000
+38 0 -37 0 *
Ed
 1e-07 1 1 1
2  3 1 0 3.14159265358979 6.28318530717959
0

0101100
+38 0 -38 0 *
Ed
 1e-05 1 1 0
1  2 0 -1.5707963267949 1.5707963267949
2  4 1 0 -1.5707963267949 1.5707963267949
2  5 2 0 -1.5707963267949 1.5707963267949
0

0101000
-37 0 +38 0 *
Ed
 1e-07 1 1 1
2  6 1 0 3.14159265358979 6.28318530717959
0

0101100
-37 0 +37 0 *
Wi

0101000
+36 0 +35 0 -34 0 -33 0 *
Ve
2.00001e-07
-0.65 -0.39370039370059 -0.65
0 0

0101101
*
Ve
2.00001e-07
0.65 -0.39370039370059 -0.65
0 0

0101101
*
Ed
 1e-07 1 1 0
1  3 0 3.68618760827294 5.73859035249644
2  7 1 0 3.68618760827294 5.73859035249644
0

0101000
+31 0 -30 0 *
Ve
2.00001e-07
0 -0.759934207678533 0.65
0 0

0101101
*
Ed
 1e-07 1 1 0
1  4 0 0.424064776932181 2.22385176798728
2  8 1 0 0.424064776932181 2.22385176798728
0

0101000
+30 0 -28 0 *
Ed
 1e-07 1 1 0
1  5 0 0.917740885602516 2.71752787665761
2  9 1 0 0.917740885602516 2.71752787665761
0

0101000
+28 0 -31 0 *
Wi

0101000
-29 0 -27 0 -26 0 *
Fa
0  1e-07 1 0

0111000
+32 0 +25 0 *
Ed
 1e-07 1 1 1
2  10 2 0 0 3.14159265358979
0

0101100
+38 0 -38 0 *
Ed
 1e-07 1 1 1
2  11 2 0 0 3.14159265358979
0

0101100
-37 0 +37 0 *
Wi

0101000
+34 0 +23 0 -36 0 -22 0 *
Ve
2.00001e-07
0.65 0.39370039370059 -0.65
0 0

0101101
*
Ve
2.00001e-07
-0.65 0.39370039370059 -0.65
0 0

0101101
*
Ed
 1e-07 1 1 0
1  6 0 0.544594954683144 2.59699769890665
2  12 2 0 0.544594954683144 2.59699769890665
0

0101000
+20 0 -19 0 *
Ve
2.00001e-07
0 0.759934207678533 0.65
0 0

0101101
*
Ed
 1e-07 1 1 0
1  7 0 3.56565743052197 5.36544442157707
2  13 2 0 3.56565743052197 5.36544442157707
0

0101000
+19 0 -17 0 *
Ed
 1e-07 1 1 0
1  8 0 4.05933353919231 5.8591205302474
2  14 2 0 4.05933353919231 5.8591205302474
0

0101000
+17 0 -20 0 *
Wi

0101000
-18 0 -16 0 -15 0 *
Fa
0  1e-07 2 0

0111000
+21 0 +14 0 *
Ed
 1e-07 1 1 0
1  9 0 0.60629960629941 1.39370039370059
0

0101000
+31 0 -19 0 *
Ed
 1e-07 1 1 0
1  10 0 0.60629960629941 1.39370039370059
0

0101000
+30 0 -20 0 *
Wi

0101000
+29 0 -12 0 +18 0 +11 0 *
Fa
0  1e-07 3 0

0111000
+10 0 *
Ed
 1e-07 1 1 0
1  11 0 0.240065792321467 1.75993420767853
0

0101000
+28 0 -17 0 *
Wi

0101000
+27 0 -11 0 +15 0 +8 0 *
Fa
0  1e-07 4 0

0111000
+7 0 *
Wi

0101000
+26 0 -8 0 +16 0 +12 0 *
Fa
0  1e-07 5 0

0111000
+5 0 *
Sh

0101100
+24 0 +13 0 +9 0 +6 0 +4 0 *
So

0100000
+3 0 *
Co

1100000
+2 0 *

+1 0 
##EGADS HEADER FILE-REV 1 ##
0
  1  1  5  7  15  8  3
1 5 1
_body
8
1 5 1
_brch
8
2 8 3
_tParams
 8.870988563846e-02  3.548395425538e-03  1.500000000000e+01 
    2 0 4
1 5 2
_body
1 0 
1 5 2
_brch
1 0 
1 5 2
_hist
1 8 
1 7 3
_faceID
1 0 1 
    2 1 4
1 5 2
_body
1 0 
1 5 2
_brch
1 0 
1 5 2
_hist
1 8 
1 7 3
_faceID
1 0 2 
    2 2 6
1 5 2
_body
7 5 
1 7 5
_edgeID
0 0 6 0 2 
1 6 1
_nface
1
1 5 2
_brch
7 5 
1 5 2
_hist
7 8 
1 7 3
_faceID
7 5 1 
    2 3 6
1 5 2
_body
7 4 
1 7 5
_edgeID
0 0 6 0 3 
1 6 1
_nface
1
1 5 2
_brch
7 4 
1 5 2
_hist
7 8 
1 7 3
_faceID
7 4 1 
    2 4 6
1 5 2
_body
7 3 
1 7 5
_edgeID
0 0 6 0 1 
1 6 1
_nface
1
1 5 2
_brch
7 3 
1 5 2
_hist
7 8 
1 7 3
_faceID
7 3 1 
    4 0 3
1 5 2
_body
1 0 
1 6 1
_nface
2
1 7 5
_edgeID
1 0 1 0 1 
    4 1 3
1 5 2
_body
1 -3 
1 6 1
_nface
1
1 7 5
_edgeID
0 0 1 0 1 
    4 2 3
1 5 2
_body
1 0 
1 6 1
_nface
2
1 7 5
_edgeID
1 0 1 0 2 
    4 3 3
1 5 2
_body
1 -3 
1 6 1
_nface
1
1 7 5
_edgeID
0 0 1 0 2 
    4 4 3
1 5 2
_body
8 0 
1 7 5
_edgeID
1 0 7 5 1 
1 6 1
_nface
2
    4 5 3
1 5 2
_body
8 0 
1 7 5
_edgeID
1 0 7 4 1 
1 6 1
_nface
2
    4 6 3
1 5 2
_body
8 0 
1 7 5
_edgeID
1 0 7 3 1 
1 6 1
_nface
2
    4 7 3
1 5 2
_body
1 -3 
1 6 1
_nface
1
1 7 5
_edgeID
0 0 1 0 3 
    4 8 3
1 5 2
_body
1 -3 
1 6 1
_nface
1
1 7 5
_edgeID
0 0 1 0 4 
    4 9 3
1 5 2
_body
8 0 
1 7 5
_edgeID
1 0 7 5 2 
1 6 1
_nface
2
    4 10 3
1 5 2
_body
8 0 
1 7 5
_edgeID
1 0 7 3 2 
1 6 1
_nface
2
    4 11 3
1 5 2
_body
8 0 
1 7 5
_edgeID
1 0 7 4 2 
1 6 1
_nface
2
    4 12 3
1 5 2
_body
7 305 
1 7 5
_edgeID
7 3 7 5 1 
1 6 1
_nface
2
    4 13 3
1 5 2
_body
7 405 
1 7 5
_edgeID
7 4 7 5 1 
1 6 1
_nface
2
    4 14 3
1 5 2
_body
7 304 
1 7 5
_edgeID
7 3 7 4 1 
1 6 1
_nface
2
    5 0 2
1 7 1
_nodeID
1
1 6 1
_nedge
4
    5 1 2
1 7 1
_nodeID
2
1 6 1
_nedge
4
    5 2 2
1 7 1
_nodeID
3
1 6 1
_nedge
3
    5 3 2
1 7 1
_nodeID
4
1 6 1
_nedge
3
    5 4 2
1 7 1
_nodeID
5
1 6 1
_nedge
3
    5 5 2
1 7 1
_nodeID
6
1 6 1
_nedge
3
    5 6 2
1 7 1
_nodeID
7
1 6 1
_nedge
3
    5 7 2
1 7 1
_nodeID
8
1 6 1
_nedge
3
    0 0 0
