DBRep_DrawableShape

CASCADE Topology V1, (c) Matra-Datavision
Locations 4
1
              1               0               0               0 
              0               1               0               0 
              0               0               1               1 
2  1 -1 0
1
              1               0               0               0 
              0               1               0               0 
              0               0               1               1 
2  3 -1 0
Curve2ds 0
Curves 21
1 -1 -1 0 0 0 1 
1 1 -1 0 0 0 1 
1 -1 -1 0 1 0 0 
1 -1 -1 0 1 0 0 
1 -0.5 1 0 0 0 1 
1 -0.5 1 0 -0.24253562503633297 -0.97014250014533188 0 
1 -0.5 1 0 -0.24253562503633297 -0.97014250014533188 0 
1 1.5 1 0 0 0 1 
1 1 -1 0 0.24253562503633297 0.97014250014533188 0 
1 1 -1 0 0.24253562503633297 0.97014250014533188 0 
1 1.5 1 0 -1 0 0 
1 -0.5 -0.5 0 1 0 0 
1 0 0.65000000000000002 0 -0.39872611141445002 -0.91707005625323501 0 
1 0.5 -0.5 0 -0.39872611141445002 0.91707005625323501 0 
1 1.5 1 0 -1 0 0 
1 -0.5 -0.5 0 1 0 0 
1 0 0.65000000000000002 0 -0.39872611141445002 -0.91707005625323501 0 
1 0.5 -0.5 0 -0.39872611141445002 0.91707005625323501 0 
1 -0.5 -0.5 0 0 0 1 
1 0.5 -0.5 0 0 0 1 
1 0 0.65000000000000002 0 0 0 1 
Polygon3D 0
PolygonOnTriangulations 0
Surfaces 9
1 -1 -1 0 0 1 0 1 0 0 0 0 -1 
1 -0.5 1 0 0.97014250014533188 -0.24253562503633297 0 -0.24253562503633297 -0.97014250014533188 0 0 -0 -1 
1 1 -1 0 -0.97014250014533188 0.24253562503633297 0 0.24253562503633297 0.97014250014533188 0 0 0 -1 
1 -1 -1 0 0 0 -1 0.78086880944303039 0.62469504755442429 0 0.62469504755442429 -0.78086880944303039 0 
1 -1 -1 0 0 0 -1 0.78086880944303039 0.62469504755442429 0 0.62469504755442429 -0.78086880944303039 0 
1 1.5 1 0 0 -1 0 -1 0 0 -0 -0 -1 
1 -0.5 -0.5 0 0 1 0 1 0 0 0 0 -1 
1 0 0.65000000000000002 0 0.91707005625323501 -0.39872611141445002 0 -0.39872611141445002 -0.91707005625323501 0 0 -0 -1 
1 0.5 -0.5 0 -0.91707005625323501 -0.39872611141445002 0 -0.39872611141445002 0.91707005625323501 0 -0 0 -1 
Triangulations 0

TShapes 58
Ve
1e-07
-1 -1 0
0 0

0101101
*
Ve
1e-07
-1 -1 1
0 0

0101101
*
Ed
 1e-07 1 1 0
1  1 0 0 1
0

0101000
+58 0 -57 0 *
Ve
1e-07
1 -1 0
0 0

0101101
*
Ve
1e-07
1 -1 1
0 0

0101101
*
Ed
 1e-07 1 1 0
1  2 0 0 1
0

0101000
+55 0 -54 0 *
Ed
 1e-07 1 1 0
1  3 0 0 2
0

0101000
+58 0 -55 0 *
Ed
 1e-07 1 1 0
1  4 0 0 2
0

0101000
+57 2 -54 2 *
Wi

0101000
+56 0 -53 0 -52 0 +51 1 *
Fa
0  1e-07 1 0

0111000
+50 0 *
Ve
1e-07
-0.5 1 0
0 0

0101101
*
Ve
1e-07
-0.5 1 1
0 0

0101101
*
Ed
 1e-07 1 1 0
1  5 0 0 1
0

0101000
+48 0 -47 0 *
Ed
 1e-07 1 1 0
1  6 0 0 2.06155281280883
0

0101000
+48 0 -58 0 *
Ed
 1e-07 1 1 0
1  7 0 0 2.06155281280883
0

0101000
+47 2 -57 2 *
Wi

0101000
+46 0 -56 0 -45 0 +44 1 *
Fa
0  1e-07 2 0

0111000
+43 0 *
Ve
1e-07
1.5 1 0
0 0

0101101
*
Ve
1e-07
1.5 1 1
0 0

0101101
*
Ed
 1e-07 1 1 0
1  8 0 0 1
0

0101000
+41 0 -40 0 *
Ed
 1e-07 1 1 0
1  9 0 0 2.06155281280883
0

0101000
+55 0 -41 0 *
Ed
 1e-07 1 1 0
1  10 0 0 2.06155281280883
0

0101000
+54 2 -40 2 *
Wi

0101000
+53 0 -39 0 -38 0 +37 1 *
Fa
0  1e-07 3 0

0111000
+36 0 *
Ed
 1e-07 1 1 0
1  11 0 0 2
0

0101000
+41 0 -48 0 *
Wi

0101000
-52 0 -45 0 -38 0 -34 0 *
Ve
1e-07
-0.5 -0.5 0
0 0

0101101
*
Ve
1e-07
0.5 -0.5 0
0 0

0101101
*
Ed
 1e-07 1 1 0
1  12 0 0 1
0

0101000
+32 0 -31 0 *
Ve
1e-07
0 0.65 0
0 0

0101101
*
Ed
 1e-07 1 1 0
1  13 0 0 1.25399362039845
0

0101000
+29 0 -32 0 *
Ed
 1e-07 1 1 0
1  14 0 0 1.25399362039845
0

0101000
+31 0 -29 0 *
Wi

0101000
+30 0 +28 0 +27 0 *
Fa
0  1e-07 4 0

0111000
+33 0 +26 0 *
Ed
 1e-07 1 1 0
1  15 0 0 2
0

0101000
+40 2 -47 2 *
Wi

0101000
-51 1 -44 1 -37 1 -24 1 *
Ve
1e-07
-0.5 -0.5 1
0 0

0101101
*
Ve
1e-07
0.5 -0.5 1
0 0

0101101
*
Ed
 1e-07 1 1 0
1  16 0 0 1
0

0101000
+22 4 -21 4 *
Ve
1e-07
0 0.65 1
0 0

0101101
*
Ed
 1e-07 1 1 0
1  17 0 0 1.25399362039845
0

0101000
+19 4 -22 4 *
Ed
 1e-07 1 1 0
1  18 0 0 1.25399362039845
0

0101000
+21 4 -19 4 *
Wi

0101000
+20 3 +18 3 +17 3 *
Fa
0  1e-07 5 1

0111000
+23 0 +16 0 *
Wi

0101000
+39 0 -46 0 -34 0 +24 1 *
Fa
0  1e-07 6 0

0111000
+14 0 *
Ed
 1e-07 1 1 0
1  19 0 0 1
0

0101000
+32 0 -22 0 *
Ed
 1e-07 1 1 0
1  20 0 0 1
0

0101000
+31 0 -21 0 *
Wi

0101000
+12 0 -30 0 +20 3 -11 0 *
Fa
0  1e-07 7 0

0111000
+10 0 *
Ed
 1e-07 1 1 0
1  21 0 0 1
0

0101000
+29 0 -19 0 *
Wi

0101000
+8 0 -28 0 +18 3 -12 0 *
Fa
0  1e-07 8 0

0111000
+7 0 *
Wi

0101000
+11 0 -27 0 +17 3 -8 0 *
Fa
0  1e-07 9 0

0111000
+5 0 *
Sh

0101100
-49 0 -42 0 -35 0 +25 0 -15 0 -13 0 +9 0 +6 0 +4 0 *
So

0100000
+3 0 *
Co

1100000
+2 0 *

+1 0 
##EGADS HEADER FILE-REV 1 ##
0
  1  1  9  11  21  14  3
1 5 1
_body
14
1 5 1
_brch
14
2 8 3
_tParams
 8.385255735516e-02  3.354102294206e-03  1.500000000000e+01 
    2 0 6
1 5 2
_body
7 3 
1 7 5
_edgeID
0 0 6 0 2 
1 6 1
_nface
1
1 5 2
_brch
7 3 
1 5 2
_hist
7 14 
1 7 3
_faceID
7 3 1 
    2 1 6
1 5 2
_body
7 6 
1 7 5
_edgeID
0 0 6 0 1 
1 6 1
_nface
1
1 5 2
_brch
7 6 
1 5 2
_hist
7 14 
1 7 3
_faceID
7 6 1 
    2 2 6
1 5 2
_body
7 4 
1 7 5
_edgeID
0 0 6 0 4 
1 6 1
_nface
1
1 5 2
_brch
7 4 
1 5 2
_hist
7 14 
1 7 3
_faceID
7 4 1 
    2 3 4
1 5 2
_body
7 1 
1 5 2
_brch
7 1 
1 5 3
_hist
6 7 14 
1 7 3
_faceID
7 1 1 
    2 4 4
1 5 2
_body
7 2 
1 5 2
_brch
7 2 
1 5 2
_hist
7 14 
1 7 3
_faceID
7 2 1 
    2 5 6
1 5 2
_body
7 5 
1 7 5
_edgeID
0 0 6 0 3 
1 6 1
_nface
1
1 5 2
_brch
7 5 
1 5 2
_hist
7 14 
1 7 3
_faceID
7 5 1 
    2 6 6
1 5 2
_body
13 3 
1 7 5
_edgeID
0 0 12 0 2 
1 6 1
_nface
1
1 5 2
_brch
13 3 
1 5 2
_hist
13 14 
1 7 3
_faceID
13 3 1 
    2 7 6
1 5 2
_body
13 5 
1 7 5
_edgeID
0 0 12 0 1 
1 6 1
_nface
1
1 5 2
_brch
13 5 
1 5 2
_hist
13 14 
1 7 3
_faceID
13 5 1 
    2 8 6
1 5 2
_body
13 4 
1 7 5
_edgeID
0 0 12 0 3 
1 6 1
_nface
1
1 5 2
_brch
13 4 
1 5 2
_hist
13 14 
1 7 3
_faceID
13 4 1 
    4 0 3
1 5 2
_body
7 306 
1 6 1
_nface
2
1 7 5
_edgeID
7 3 7 6 1 
    4 1 3
1 5 2
_body
7 304 
1 6 1
_nface
2
1 7 5
_edgeID
7 3 7 4 1 
    4 2 3
1 5 2
_body
7 103 
1 6 1
_nface
2
1 7 5
_edgeID
7 1 7 3 1 
    4 3 3
1 5 2
_body
7 203 
1 6 1
_nface
2
1 7 5
_edgeID
7 2 7 3 1 
    4 4 3
1 5 2
_body
7 506 
1 6 1
_nface
2
1 7 5
_edgeID
7 5 7 6 1 
    4 5 3
1 5 2
_body
7 106 
1 6 1
_nface
2
1 7 5
_edgeID
7 1 7 6 1 
    4 6 3
1 5 2
_body
7 206 
1 6 1
_nface
2
1 7 5
_edgeID
7 2 7 6 1 
    4 7 3
1 5 2
_body
7 405 
1 6 1
_nface
2
1 7 5
_edgeID
7 4 7 5 1 
    4 8 3
1 5 2
_body
7 104 
1 6 1
_nface
2
1 7 5
_edgeID
7 1 7 4 1 
    4 9 3
1 5 2
_body
7 204 
1 6 1
_nface
2
1 7 5
_edgeID
7 2 7 4 1 
    4 10 3
1 5 2
_body
7 105 
1 6 1
_nface
2
1 7 5
_edgeID
7 1 7 5 1 
    4 11 3
1 5 2
_body
14 0 
1 6 1
_nface
2
1 7 5
_edgeID
7 1 13 3 1 
    4 12 3
1 5 2
_body
14 0 
1 6 1
_nface
2
1 7 5
_edgeID
7 1 13 5 1 
    4 13 3
1 5 2
_body
14 0 
1 6 1
_nface
2
1 7 5
_edgeID
7 1 13 4 1 
    4 14 3
1 5 2
_body
7 205 
1 6 1
_nface
2
1 7 5
_edgeID
7 2 7 5 1 
    4 15 3
1 5 2
_body
14 0 
1 6 1
_nface
2
1 7 5
_edgeID
7 2 13 3 1 
    4 16 3
1 5 2
_body
14 0 
1 6 1
_nface
2
1 7 5
_edgeID
7 2 13 5 1 
    4 17 3
1 5 2
_body
14 0 
1 6 1
_nface
2
1 7 5
_edgeID
7 2 13 4 1 
    4 18 3
1 5 2
_body
13 305 
1 6 1
_nface
2
1 7 5
_edgeID
13 3 13 5 1 
    4 19 3
1 5 2
_body
13 304 
1 6 1
_nface
2
1 7 5
_edgeID
13 3 13 4 1 
    4 20 3
1 5 2
_body
13 405 
1 6 1
_nface
2
1 7 5
_edgeID
13 4 13 5 1 
    5 0 2
1 7 1
_nodeID
1
1 6 1
_nedge
3
    5 1 2
1 7 1
_nodeID
2
1 6 1
_nedge
3
    5 2 2
1 7 1
_nodeID
3
1 6 1
_nedge
3
    5 3 2
1 7 1
_nodeID
4
1 6 1
_nedge
3
    5 4 2
1 7 1
_nodeID
5
1 6 1
_nedge
3
    5 5 2
1 7 1
_nodeID
6
1 6 1
_nedge
3
    5 6 2
1 7 1
_nodeID
7
1 6 1
_nedge
3
    5 7 2
1 7 1
_nodeID
8
1 6 1
_nedge
3
    5 8 2
1 7 1
_nodeID
9
1 6 1
_nedge
3
    5 9 2
1 7 1
_nodeID
10
1 6 1
_nedge
3
    5 10 2
1 7 1
_nodeID
11
1 6 1
_nedge
3
    5 11 2
1 7 1
_nodeID
12
1 6 1
_nedge
3
    5 12 2
1 7 1
_nodeID
13
1 6 1
_nedge
3
    5 13 2
1 7 1
_nodeID
14
1 6 1
_nedge
3
    0 0 0
