DBRep_DrawableShape

CASCADE Topology V1, (c) Matra-Datavision
Locations 0
Curve2ds 16
1 0 0 1 0 
1 0 6.2831853071795862 1 0 
1 6.2831853071795862 -0 0 1 
1 0 -0 0 1 
1 0 3.1415926535897931 1 0 
1 0 3.1415926535897931 1 0 
1 3.1415926535897931 0 0 1 
1 3.1415926535897931 0 0 1 
1 0 3.1415926535897931 1 0 
1 0 3.1415926535897931 1 0 
1 0 0 1 0 
1 0 6.2831853071795862 1 0 
1 0 -0 0 1 
1 6.2831853071795862 -0 0 1 
1 3.1415926535897931 0 0 1 
1 3.1415926535897931 0 0 1 
Curves 8
2 0 0 -1.9594348786357652e-16 0 0 1 1 0 -0 -0 1 0 1.8
2 1 -2.4492935982947064e-16 0 -2.4492935982947064e-16 -1 0 1 -2.4492935982947064e-16 0 0 0 1 0.80000000000000004
7 0 0  10 11 2  0.19999999999999982 -3.1698676438500985e-16 9.7971743931788262e-17  0.1999999999999944 0.12566370614359906 9.7971743931790382e-17  0.11228905248919321 0.25142847588264622 9.7971743931780225e-17  -0.063337552025301835 0.30747831969293143 9.7971743931803238e-17  -0.26388938291739017 0.22895515019681204 9.7971743931770438e-17  -0.37012397195621483 7.6105788338054746e-14 9.7971743931802979e-17  -0.26388938291739367 -0.22895515019694626 9.7971743931779744e-17  -0.063337552025297159 -0.30747831969284112 9.7971743931791577e-17  0.1122890524891902 -0.25142847588268902 9.7971743931787423e-17  0.19999999999999526 -0.12566370614358785 9.797174393178836e-17  0.20000000000000004 1.2710244546505277e-16 9.7971743931788262e-17 
 0 11 6.2831853071795862 11
7 0 0  8 9 2  -1.8000000000000003 2.2043642384652358e-16 -2.2204460492503131e-16  -1.800000000000006 2.2043642384652329e-16 0.31415926535897848  -1.6589737723939812 2.0316569202317346e-16 0.62832225675335218  -1.3771747553161187 1.6865526559643587e-16 0.86862740576431086  -0.99999999999997247 1.2246467991474e-16 0.96144458320019255  -0.62282524468392719 7.6274094233027502e-17 0.8686274057643073  -0.34102622760599205 4.1763667806300735e-17 0.62832225675335684  -0.20000000000000254 2.4492935982946563e-17 0.31415926535897665  -0.19999999999999973 2.4492935982947072e-17 0 
 0 9 3.1415926535897931 9
7 0 0  10 11 2  0.19999999999999982 -3.1698676438500985e-16 9.7971743931788262e-17  0.1999999999999944 0.12566370614359906 9.7971743931790382e-17  0.11228905248919321 0.25142847588264622 9.7971743931780225e-17  -0.063337552025301835 0.30747831969293143 9.7971743931803238e-17  -0.26388938291739017 0.22895515019681204 9.7971743931770438e-17  -0.37012397195621483 7.6105788338054746e-14 9.7971743931802979e-17  -0.26388938291739367 -0.22895515019694626 9.7971743931779744e-17  -0.063337552025297159 -0.30747831969284112 9.7971743931791577e-17  0.1122890524891902 -0.25142847588268902 9.7971743931787423e-17  0.19999999999999526 -0.12566370614358785 9.797174393178836e-17  0.20000000000000004 1.2710244546505277e-16 9.7971743931788262e-17 
 0 11 6.2831853071795862 11
2 0 0 -1.9594348786357652e-16 0 0 1 1 0 -0 -0 1 0 1.8
2 1 -2.4492935982947064e-16 0 -2.4492935982947064e-16 -1 0 1 -2.4492935982947064e-16 0 0 0 1 0.80000000000000004
7 0 0  8 9 2  -0.20000000000000018 2.4492935982947022e-17 1.1102230246251565e-16  -0.19999999999999801 2.4492935982946119e-17 -0.31415926535897298  -0.3410262276060082 4.1763667806301894e-17 -0.6283222567533705  -0.62282524468389655 7.6274094233025653e-17 -0.86862740576427933  -1.0000000000000084 1.2246467991474153e-16 -0.96144458320022452  -1.3771747553160898 1.6865526559643466e-16 -0.86862740576428699  -1.6589737723939968 2.0316569202317415e-16 -0.62832225675336417  -1.8000000000000016 2.2043642384652299e-16 -0.31415926535897581  -1.8 2.2043642384652361e-16 -2.2204460492503131e-16 
 3.1415926535897931 9 6.2831853071795862 9
Polygon3D 0
PolygonOnTriangulations 0
Surfaces 4
10 3.1415926535897931 6.2831853071795862 0 3.1415926535897931
5 0 0 0 0 0 1 1 0 -0 -0 1 0 1 0.80000000000000004
10 3.1415926535897931 6.2831853071795862 3.1415926535897931 6.2831853071795862
5 0 0 0 0 0 1 1 0 -0 -0 1 0 1 0.80000000000000004
10 0 3.1415926535897931 0 3.1415926535897931
5 0 0 0 0 0 1 1 0 -0 -0 1 0 1 0.80000000000000004
10 0 3.1415926535897931 3.1415926535897931 6.2831853071795862
5 0 0 0 0 0 1 1 0 -0 -0 1 0 1 0.80000000000000004
Triangulations 0

TShapes 23
Ve
1e-07
1.8 -4.40872847693047e-16 -1.95943487863577e-16
0 0

0101101
*
Ve
1e-07
-1.8 0 0
0 0

0101101
*
Ed
 1e-07 1 1 0
1  1 0 3.14159265358979 6.28318530717959
2  1 1 0 3.14159265358979 6.28318530717959
2  2 2 0 3.14159265358979 6.28318530717959
0

0101000
-23 0 +22 0 *
Ve
1e-07
0.2 0 0
0 0

0101101
*
Ed
 1e-07 1 1 0
1  2 0 0 3.14159265358979
2  3 1 0 0 3.14159265358979
2  4 3 0 0 3.14159265358979
0

0101000
+23 0 -20 0 *
Ve
1e-05
-0.2 0 0
0 0

0101101
*
Ed
 1e-05 1 1 0
1  3 0 3.14159265358979 6.28318530717959
2  5 1 0 3.14159265358979 6.28318530717959
2  6 2 0 3.14159265358979 6.28318530717959
0

0101000
+18 0 -20 0 *
Ed
 1e-05 1 1 0
1  4 0 0 3.14159265358979
2  7 1 0 0 3.14159265358979
2  8 3 0 0 3.14159265358979
0

0101000
-18 0 +22 0 *
Wi

0101100
+21 0 +19 0 -17 0 -16 0 *
Fa
0  1e-07 1 0

0111000
+15 0 *
Ed
 1e-05 1 1 0
1  5 0 0 3.14159265358979
2  9 3 0 0 3.14159265358979
2  10 4 0 0 3.14159265358979
0

0101000
+20 0 -18 0 *
Ed
 1e-07 1 1 0
1  6 0 0 3.14159265358979
2  11 3 0 0 3.14159265358979
2  12 4 0 0 3.14159265358979
0

0101000
-22 0 +23 0 *
Wi

0101100
-13 0 -19 0 +12 0 +16 0 *
Fa
0  1e-07 3 0

0111000
+11 0 *
Ed
 1e-07 1 1 0
1  7 0 3.14159265358979 6.28318530717959
2  13 4 0 3.14159265358979 6.28318530717959
2  14 2 0 3.14159265358979 6.28318530717959
0

0101000
-23 0 +20 0 *
Ed
 1e-05 1 1 0
1  8 0 3.14159265358979 6.28318530717959
2  15 4 0 3.14159265358979 6.28318530717959
2  16 2 0 3.14159265358979 6.28318530717959
0

0101000
+18 0 -22 0 *
Wi

0101100
-12 0 -9 0 +13 0 +8 0 *
Fa
0  1e-07 4 0

0111000
+7 0 *
Wi

0101100
+17 0 +9 0 -21 0 -8 0 *
Fa
0  1e-07 2 0

0111000
+5 0 *
Sh

0101100
+14 0 +10 0 +6 0 +4 0 *
So

0100100
+3 0 *
Co

1100000
+2 0 *

+1 0 
##EGADS HEADER FILE-REV 1 ##
0
  1  1  4  4  8  4  3
1 5 1
_body
1
1 5 1
_brch
1
2 8 3
_tParams
 1.434555085294e-01  5.738220341174e-03  1.500000000000e+01 
    2 0 4
1 5 2
_body
1 1 
1 5 2
_brch
1 1 
1 7 3
_faceID
1 1 1 
1 5 1
_hist
1
    2 1 4
1 5 2
_body
1 2 
1 5 2
_brch
1 2 
1 7 3
_faceID
1 2 1 
1 5 1
_hist
1
    2 2 4
1 5 2
_body
1 3 
1 5 2
_brch
1 3 
1 7 3
_faceID
1 3 1 
1 5 1
_hist
1
    2 3 4
1 5 2
_body
1 4 
1 5 2
_brch
1 4 
1 7 3
_faceID
1 4 1 
1 5 1
_hist
1
    4 0 3
1 5 2
_body
1 104 
1 7 5
_edgeID
1 1 1 4 1 
1 6 1
_nface
2
    4 1 3
1 5 2
_body
1 102 
1 7 5
_edgeID
1 1 1 2 1 
1 6 1
_nface
2
    4 2 3
1 5 2
_body
1 104 
1 7 5
_edgeID
1 1 1 4 2 
1 6 1
_nface
2
    4 3 3
1 5 2
_body
1 102 
1 7 5
_edgeID
1 1 1 2 2 
1 6 1
_nface
2
    4 4 3
1 5 2
_body
1 203 
1 7 5
_edgeID
1 2 1 3 1 
1 6 1
_nface
2
    4 5 3
1 5 2
_body
1 203 
1 7 5
_edgeID
1 2 1 3 2 
1 6 1
_nface
2
    4 6 3
1 5 2
_body
1 304 
1 7 5
_edgeID
1 3 1 4 1 
1 6 1
_nface
2
    4 7 3
1 5 2
_body
1 304 
1 7 5
_edgeID
1 3 1 4 2 
1 6 1
_nface
2
    5 0 2
1 7 1
_nodeID
1
1 6 1
_nedge
4
    5 1 2
1 7 1
_nodeID
2
1 6 1
_nedge
4
    5 2 2
1 7 1
_nodeID
3
1 6 1
_nedge
4
    5 3 2
1 7 1
_nodeID
4
1 6 1
_nedge
4
    0 0 0
