DBRep_DrawableShape

CASCADE Topology V1, (c) Matra-Datavision
Locations 0
Curve2ds 16
1 0 0 1 0 
1 0 6.2831853071795862 1 0 
1 6.2831853071795862 -0 0 1 
1 0 -0 0 1 
1 0 3.1415926535897931 1 0 
1 0 3.1415926535897931 1 0 
1 3.1415926535897931 0 0 1 
1 3.1415926535897931 0 0 1 
1 0 3.1415926535897931 1 0 
1 0 3.1415926535897931 1 0 
1 0 0 1 0 
1 0 6.2831853071795862 1 0 
1 0 -0 0 1 
1 6.2831853071795862 -0 0 1 
1 3.1415926535897931 0 0 1 
1 3.1415926535897931 0 0 1 
Curves 8
2 0 0 -1.2246467991473532e-16 0 0 1 1 0 -0 -0 1 0 1.5
2 1 -2.4492935982947064e-16 0 -2.4492935982947064e-16 -1 0 1 -2.4492935982947064e-16 0 0 0 1 0.5
7 0 0  10 11 2  0.50000000000000022 -1.651588155374122e-16 6.123233995736766e-17  0.49999999999998362 0.3141592653589913 6.1232339957369645e-17  0.28072263122299124 0.62857118970663706 6.123233995735992e-17  -0.15834388006326816 0.76869579923228992 6.1232339957383573e-17  -0.65972345729346094 0.5723878754920767 6.123233995734556e-17  -0.9253099298905465 1.5365486660812222e-13 6.1232339957389958e-17  -0.65972345729348181 -0.57238787549234793 6.1232339957351291e-17  -0.15834388006324232 -0.7686957992321064 6.1232339957376042e-17  0.28072263122297508 -0.62857118970672421 6.1232339957364924e-17  0.49999999999998906 -0.3141592653589686 6.1232339957368116e-17  0.49999999999999994 2.7893039431265041e-16 6.123233995736766e-17 
 0 11 6.2831853071795862 11
7 0 0  7 8 2  -1.5 1.8369701987210292e-16 0  -1.4999999999999996 1.8369701987210307e-16 0.2243994752564156  -1.3824781436616609 1.693047433526424e-16 0.4486024796370317  -1.1476878691191037 1.4055122753369638e-16 0.60023228945838392  -0.85231213088089663 1.0437813229577418e-16 0.60023228945836082  -0.61752185633834011 7.5624616476828464e-17 0.44860247963704436  -0.49999999999999845 6.123233995736734e-17 0.22439947525641235  -0.49999999999999989 6.1232339957367623e-17 0 
 0 8 3.1415926535897931 8
7 0 0  10 11 2  0.50000000000000022 -1.651588155374122e-16 6.123233995736766e-17  0.49999999999998362 0.3141592653589913 6.1232339957369645e-17  0.28072263122299124 0.62857118970663706 6.123233995735992e-17  -0.15834388006326816 0.76869579923228992 6.1232339957383573e-17  -0.65972345729346094 0.5723878754920767 6.123233995734556e-17  -0.9253099298905465 1.5365486660812222e-13 6.1232339957389958e-17  -0.65972345729348181 -0.57238787549234793 6.1232339957351291e-17  -0.15834388006324232 -0.7686957992321064 6.1232339957376042e-17  0.28072263122297508 -0.62857118970672421 6.1232339957364924e-17  0.49999999999998906 -0.3141592653589686 6.1232339957368116e-17  0.49999999999999994 2.7893039431265041e-16 6.123233995736766e-17 
 0 11 6.2831853071795862 11
2 0 0 -1.2246467991473532e-16 0 0 1 1 0 -0 -0 1 0 1.5
2 1 -2.4492935982947064e-16 0 -2.4492935982947064e-16 -1 0 1 -2.4492935982947064e-16 0 0 0 1 0.5
7 0 0  7 8 2  -0.5 6.1232339957367648e-17 5.5511151231257827e-17  -0.50000000000000344 6.1232339957368462e-17 -0.22439947525641571  -0.6175218563383198 7.5624616476824237e-17 -0.44860247963703098  -0.85231213088093549 1.0437813229578168e-16 -0.6002322894583858  -1.1476878691190644 1.4055122753368881e-16 -0.60023228945835794  -1.3824781436616813 1.6930474335264659e-16 -0.44860247963704647  -1.4999999999999949 1.8369701987210191e-16 -0.22439947525641185  -1.5 1.8369701987210294e-16 -1.1102230246251565e-16 
 3.1415926535897931 8 6.2831853071795862 8
Polygon3D 0
PolygonOnTriangulations 0
Surfaces 4
10 3.1415926535897931 6.2831853071795862 0 3.1415926535897931
5 0 0 0 0 0 1 1 0 -0 -0 1 0 1 0.5
10 3.1415926535897931 6.2831853071795862 3.1415926535897931 6.2831853071795862
5 0 0 0 0 0 1 1 0 -0 -0 1 0 1 0.5
10 0 3.1415926535897931 0 3.1415926535897931
5 0 0 0 0 0 1 1 0 -0 -0 1 0 1 0.5
10 0 3.1415926535897931 3.1415926535897931 6.2831853071795862
5 0 0 0 0 0 1 1 0 -0 -0 1 0 1 0.5
Triangulations 0

TShapes 23
Ve
1e-07
1.5 -3.67394039744206e-16 -1.22464679914735e-16
0 0

0101101
*
Ve
1e-07
-1.5 0 0
0 0

0101101
*
Ed
 1e-07 1 1 0
1  1 0 3.14159265358979 6.28318530717959
2  1 1 0 3.14159265358979 6.28318530717959
2  2 2 0 3.14159265358979 6.28318530717959
0

0101000
-23 0 +22 0 *
Ve
1e-07
0.5 0 0
0 0

0101101
*
Ed
 1e-07 1 1 0
1  2 0 0 3.14159265358979
2  3 1 0 0 3.14159265358979
2  4 3 0 0 3.14159265358979
0

0101000
+23 0 -20 0 *
Ve
1e-05
-0.5 0 0
0 0

0101101
*
Ed
 1e-05 1 1 0
1  3 0 3.14159265358979 6.28318530717959
2  5 1 0 3.14159265358979 6.28318530717959
2  6 2 0 3.14159265358979 6.28318530717959
0

0101000
+18 0 -20 0 *
Ed
 1e-05 1 1 0
1  4 0 0 3.14159265358979
2  7 1 0 0 3.14159265358979
2  8 3 0 0 3.14159265358979
0

0101000
-18 0 +22 0 *
Wi

0101100
+21 0 +19 0 -17 0 -16 0 *
Fa
0  1e-07 1 0

0111000
+15 0 *
Ed
 1e-05 1 1 0
1  5 0 0 3.14159265358979
2  9 3 0 0 3.14159265358979
2  10 4 0 0 3.14159265358979
0

0101000
+20 0 -18 0 *
Ed
 1e-07 1 1 0
1  6 0 0 3.14159265358979
2  11 3 0 0 3.14159265358979
2  12 4 0 0 3.14159265358979
0

0101000
-22 0 +23 0 *
Wi

0101100
-13 0 -19 0 +12 0 +16 0 *
Fa
0  1e-07 3 0

0111000
+11 0 *
Ed
 1e-07 1 1 0
1  7 0 3.14159265358979 6.28318530717959
2  13 4 0 3.14159265358979 6.28318530717959
2  14 2 0 3.14159265358979 6.28318530717959
0

0101000
-23 0 +20 0 *
Ed
 1e-05 1 1 0
1  8 0 3.14159265358979 6.28318530717959
2  15 4 0 3.14159265358979 6.28318530717959
2  16 2 0 3.14159265358979 6.28318530717959
0

0101000
+18 0 -22 0 *
Wi

0101100
-12 0 -9 0 +13 0 +8 0 *
Fa
0  1e-07 4 0

0111000
+7 0 *
Wi

0101100
+17 0 +9 0 -21 0 -8 0 *
Fa
0  1e-07 2 0

0111000
+5 0 *
Sh

0101100
+14 0 +10 0 +6 0 +4 0 *
So

0100100
+3 0 *
Co

1100000
+2 0 *

+1 0 
##EGADS HEADER FILE-REV 1 ##
0
  1  1  4  4  8  4  3
1 5 1
_body
1
1 5 1
_brch
1
2 8 3
_tParams
 1.174955178728e-01  4.699820714911e-03  1.500000000000e+01 
    2 0 4
1 5 2
_body
1 1 
1 5 2
_brch
1 1 
1 7 3
_faceID
1 1 1 
1 5 1
_hist
1
    2 1 4
1 5 2
_body
1 2 
1 5 2
_brch
1 2 
1 7 3
_faceID
1 2 1 
1 5 1
_hist
1
    2 2 4
1 5 2
_body
1 3 
1 5 2
_brch
1 3 
1 7 3
_faceID
1 3 1 
1 5 1
_hist
1
    2 3 4
1 5 2
_body
1 4 
1 5 2
_brch
1 4 
1 7 3
_faceID
1 4 1 
1 5 1
_hist
1
    4 0 3
1 5 2
_body
1 104 
1 7 5
_edgeID
1 1 1 4 1 
1 6 1
_nface
2
    4 1 3
1 5 2
_body
1 102 
1 7 5
_edgeID
1 1 1 2 1 
1 6 1
_nface
2
    4 2 3
1 5 2
_body
1 104 
1 7 5
_edgeID
1 1 1 4 2 
1 6 1
_nface
2
    4 3 3
1 5 2
_body
1 102 
1 7 5
_edgeID
1 1 1 2 2 
1 6 1
_nface
2
    4 4 3
1 5 2
_body
1 203 
1 7 5
_edgeID
1 2 1 3 1 
1 6 1
_nface
2
    4 5 3
1 5 2
_body
1 203 
1 7 5
_edgeID
1 2 1 3 2 
1 6 1
_nface
2
    4 6 3
1 5 2
_body
1 304 
1 7 5
_edgeID
1 3 1 4 1 
1 6 1
_nface
2
    4 7 3
1 5 2
_body
1 304 
1 7 5
_edgeID
1 3 1 4 2 
1 6 1
_nface
2
    5 0 2
1 7 1
_nodeID
1
1 6 1
_nedge
4
    5 1 2
1 7 1
_nodeID
2
1 6 1
_nedge
4
    5 2 2
1 7 1
_nodeID
3
1 6 1
_nedge
4
    5 3 2
1 7 1
_nodeID
4
1 6 1
_nedge
4
    0 0 0
