DBRep_DrawableShape

CASCADE Topology V1, (c) Matra-Datavision
Locations 0
Curve2ds 4
1 0 1 1 0 
1 1.5707963267948966 0 0 1 
1 0 0 1 0 
1 0 -0 0 1 
Curves 9
2 0 0 1 0 0 1 1 0 -0 -0 1 0 0.65000000000000002
1 0 0.65000000000000002 0 0 0 1 
2 0 0 0 0 0 1 1 0 0 0 1 0 0.65000000000000002
1 0.65000000000000002 -1.5920408388915593e-16 0 0 0 1 
1 0 1.5 1 0 -1 0 
1 0 0 1 1 0 0 
1 0 0 0 0 -1 0 
1 0 0 1 0 0 -1 
1 0 0 0 -1 -0 0 
Polygon3D 0
PolygonOnTriangulations 0
Surfaces 5
10 0 3.1415926535897931 0 2
2 0 0 0 0 0 1 1 0 0 0 1 0 0.65000000000000002
1 0 1.5 1 0 0 -1 0 -1 0 -1 -0 -0 
1 0 0 -2 -1 0 0 0 0.44721359549995798 0.89442719099991597 0 0.89442719099991597 -0.44721359549995798 
1 0 0 0 0 0 1 1 0 0 0 1 0 
1 0 0 1 -0 1 0 0 0 -1 -1 0 -0 
Triangulations 0

TShapes 28
Ve
1.00000000079602e-07
0.65 -7.9602041944578e-17 1
0 0

0101101
*
Ve
2.00001e-07
0 0.65 1
0 0

0101101
*
Ed
 1e-07 1 1 0
1  1 0 0 1.5707963267949
2  1 1 0 0 1.5707963267949
0

0101000
+28 0 -27 0 *
Ve
2.00001e-07
3.9801020972289e-17 0.65 0
0 0

0101101
*
Ed
 1e-07 1 1 0
1  2 0 0 1
2  2 1 0 0 1
0

0101000
+25 0 -27 0 *
Ve
1e-07
0.65 -1.59204083889156e-16 0
0 0

0101101
*
Ed
 1e-07 1 1 0
1  3 0 0 1.5707963267949
2  3 1 0 0 1.5707963267949
0

0101000
+23 0 -25 0 *
Ed
 1e-07 1 1 0
1  4 0 0 1
2  4 1 0 0 1
0

0101000
+23 0 -28 0 *
Wi

0101000
-26 0 +24 0 +22 0 -21 0 *
Fa
0  1e-07 1 0

0111000
+20 0 *
Ve
1e-07
0 0 1
0 0

0101101
*
Ed
 1e-07 1 1 0
1  5 0 0.85 1.5
0

0101000
+27 0 -18 0 *
Ed
 1e-07 1 1 0
1  6 0 0 0.65
0

0101000
+18 0 -28 0 *
Wi

0101000
-17 0 -16 0 -26 0 *
Fa
0  1e-07 2 0

0111000
+15 0 *
Ve
2.00001e-07
0 0 0
0 0

0101101
*
Ed
 1e-07 1 1 0
1  7 0 -0.65 0
0

0101000
+25 0 -13 0 *
Ed
 1e-07 1 1 0
1  8 0 0 1
0

0101000
+18 0 -13 0 *
Wi

0101000
+12 0 -24 0 -17 0 -11 0 *
Fa
0  1e-07 3 0

0111000
+10 0 *
Ed
 1e-07 1 1 0
1  9 0 -0.65 0
0

0101000
+23 0 -13 0 *
Wi

0101000
-8 0 +12 0 +22 0 *
Fa
0  1e-07 4 0

0111000
+7 0 *
Wi

0101000
-11 0 +8 0 -21 0 +16 0 *
Fa
0  1e-07 5 0

0111000
+5 0 *
Sh

0101100
+19 0 -14 0 +9 0 -6 0 -4 0 *
So

0100000
+3 0 *
Co

1100000
+2 0 *

+1 0 
##EGADS HEADER FILE-REV 1 ##
0
  1  1  5  5  9  6  3
1 5 1
_body
9
1 5 1
_brch
9
2 8 3
_tParams
 3.526666310442e-02  1.410666524177e-03  1.500000000000e+01 
    2 0 4
1 5 2
_body
1 3 
1 5 2
_brch
1 3 
1 5 2
_hist
1 9 
1 7 3
_faceID
1 3 1 
    2 1 6
1 5 2
_body
8 5 
1 7 5
_edgeID
0 0 7 0 3 
1 6 1
_nface
1
1 5 2
_brch
8 5 
1 5 2
_hist
8 9 
1 7 3
_faceID
8 5 1 
    2 2 4
1 5 2
_body
8 1 
1 5 2
_brch
8 1 
1 5 3
_hist
7 8 9 
1 7 3
_faceID
8 1 1 
    2 3 4
1 5 2
_body
1 1 
1 5 2
_brch
1 1 
1 5 2
_hist
1 9 
1 7 3
_faceID
1 1 1 
    2 4 6
1 5 2
_body
8 6 
1 7 5
_edgeID
0 0 7 0 1 
1 6 1
_nface
1
1 5 2
_brch
8 6 
1 5 2
_hist
8 9 
1 7 3
_faceID
8 6 1 
    4 0 3
1 5 2
_body
9 0 
1 7 5
_edgeID
1 3 8 5 1 
1 6 1
_nface
2
    4 1 3
1 5 2
_body
9 0 
1 7 5
_edgeID
1 3 8 1 1 
1 6 1
_nface
2
    4 2 3
1 5 2
_body
1 103 
1 7 5
_edgeID
1 1 1 3 1 
1 6 1
_nface
2
    4 3 3
1 5 2
_body
9 0 
1 7 5
_edgeID
1 3 8 6 1 
1 6 1
_nface
2
    4 4 3
1 5 2
_body
8 105 
1 7 5
_edgeID
8 1 8 5 1 
1 6 1
_nface
2
    4 5 3
1 5 2
_body
8 506 
1 7 5
_edgeID
8 5 8 6 1 
1 6 1
_nface
2
    4 6 3
1 5 2
_body
9 0 
1 7 5
_edgeID
1 1 8 1 1 
1 6 1
_nface
2
    4 7 3
1 5 2
_body
8 106 
1 7 5
_edgeID
8 1 8 6 1 
1 6 1
_nface
2
    4 8 3
1 5 2
_body
9 0 
1 7 5
_edgeID
1 1 8 6 1 
1 6 1
_nface
2
    5 0 2
1 7 1
_nodeID
1
1 6 1
_nedge
3
    5 1 2
1 7 1
_nodeID
2
1 6 1
_nedge
3
    5 2 2
1 7 1
_nodeID
3
1 6 1
_nedge
3
    5 3 2
1 7 1
_nodeID
4
1 6 1
_nedge
3
    5 4 2
1 7 1
_nodeID
5
1 6 1
_nedge
3
    5 5 2
1 7 1
_nodeID
6
1 6 1
_nedge
3
    0 0 0
