DBRep_DrawableShape

CASCADE Topology V1, (c) Matra-Datavision
Locations 0
Curve2ds 16
1 0 0 1 0 
1 0 6.2831853071795862 1 0 
1 6.2831853071795862 -0 0 1 
1 0 -0 0 1 
1 0 3.1415926535897931 1 0 
1 0 3.1415926535897931 1 0 
1 3.1415926535897931 0 0 1 
1 3.1415926535897931 0 0 1 
1 0 3.1415926535897931 1 0 
1 0 3.1415926535897931 1 0 
1 0 0 1 0 
1 0 6.2831853071795862 1 0 
1 0 -0 0 1 
1 6.2831853071795862 -0 0 1 
1 3.1415926535897931 0 0 1 
1 3.1415926535897931 0 0 1 
Curves 8
2 0 0 -2.4492935982947065e-17 0 0 1 1 0 -0 -0 1 0 1.1000000000000001
2 1 -2.4492935982947064e-16 0 -2.4492935982947064e-16 -1 0 1 -2.4492935982947064e-16 0 0 0 1 0.10000000000000001
7 0 0  11 12 2  0.89999999999999969 -3.5829863763720512e-16 1.2246467991473533e-17  0.90000000000001146 0.51407879786008737 1.2246467991472955e-17  0.57706423871008561 1.0281459455554463 1.2246467991475753e-17  -0.069477242209445358 1.3168339000768214 1.2246467991468878e-17  -0.85932649985068088 1.1538658697231579 1.2246467991480161e-17  -1.4482598507685862 0.47585525880546392 1.2246467991466476e-17  -1.4482598507693416 -0.47585525880552731 1.224646799147944e-17  -0.8593264998501251 -1.1538658697230086 1.2246467991469536e-17  -0.069477242209741399 -1.3168339000769667 1.224646799147573e-17  0.57706423871019275 -1.0281459455553661 1.2246467991472617e-17  0.89999999999998881 -0.51407879786010879 1.2246467991473768e-17  0.89999999999999891 2.6951769200430097e-16 1.2246467991473534e-17 
 0 12 6.2831853071795862 12
7 0 0  7 8 2  -1.1000000000000001 1.3471114790620885e-16 -2.7755575615628914e-17  -1.1000000000000021 1.3471114790620922e-16 0.044879895051283092  -1.076495628732322 1.3183269260231523e-16 0.089720495927406343  -1.0295375738238406 1.2608198943853006e-16 0.12004645789167692  -0.97046242617615963 1.1884737039094093e-16 0.12004645789167182  -0.92350437126767959 1.1309666722715501e-16 0.089720495927409216  -0.89999999999999636 1.1021821192326159e-16 0.044879895051282377  -0.89999999999999991 1.1021821192326179e-16 0 
 0 8 3.1415926535897931 8
7 0 0  11 12 2  0.89999999999999969 -3.5829863763720512e-16 1.2246467991473533e-17  0.90000000000001146 0.51407879786008737 1.2246467991472955e-17  0.57706423871008561 1.0281459455554463 1.2246467991475753e-17  -0.069477242209445358 1.3168339000768214 1.2246467991468878e-17  -0.85932649985068088 1.1538658697231579 1.2246467991480161e-17  -1.4482598507685862 0.47585525880546392 1.2246467991466476e-17  -1.4482598507693416 -0.47585525880552731 1.224646799147944e-17  -0.8593264998501251 -1.1538658697230086 1.2246467991469536e-17  -0.069477242209741399 -1.3168339000769667 1.224646799147573e-17  0.57706423871019275 -1.0281459455553661 1.2246467991472617e-17  0.89999999999998881 -0.51407879786010879 1.2246467991473768e-17  0.89999999999999891 2.6951769200430097e-16 1.2246467991473534e-17 
 0 12 6.2831853071795862 12
2 0 0 -2.4492935982947065e-17 0 0 1 1 0 -0 -0 1 0 1.1000000000000001
2 1 -2.4492935982947064e-16 0 -2.4492935982947064e-16 -1 0 1 -2.4492935982947064e-16 0 0 0 1 0.10000000000000001
7 0 0  7 8 2  -0.89999999999999991 1.1021821192326179e-16 2.7755575615628914e-17  -0.90000000000000346 1.1021821192326231e-16 -0.044879895051283022  -0.92350437126764995 1.1309666722715127e-16 -0.089720495927406482  -0.97046242617621425 1.1884737039094791e-16 -0.1200464578916768  -1.0295375738237849 1.2608198943852278e-16 -0.12004645789167163  -1.0764956287323526 1.3183269260231923e-16 -0.089720495927409535  -1.0999999999999941 1.3471114790620828e-16 -0.044879895051282252  -1.1000000000000001 1.3471114790620885e-16 -2.7755575615628914e-17 
 3.1415926535897931 8 6.2831853071795862 8
Polygon3D 0
PolygonOnTriangulations 0
Surfaces 4
10 3.1415926535897931 6.2831853071795862 0 3.1415926535897931
5 0 0 0 0 0 1 1 0 -0 -0 1 0 1 0.10000000000000001
10 3.1415926535897931 6.2831853071795862 3.1415926535897931 6.2831853071795862
5 0 0 0 0 0 1 1 0 -0 -0 1 0 1 0.10000000000000001
10 0 3.1415926535897931 0 3.1415926535897931
5 0 0 0 0 0 1 1 0 -0 -0 1 0 1 0.10000000000000001
10 0 3.1415926535897931 3.1415926535897931 6.2831853071795862
5 0 0 0 0 0 1 1 0 -0 -0 1 0 1 0.10000000000000001
Triangulations 0

TShapes 23
Ve
1e-07
1.1 -2.69422295812418e-16 -2.44929359829471e-17
0 0

0101101
*
Ve
1e-07
-1.1 0 0
0 0

0101101
*
Ed
 1e-07 1 1 0
1  1 0 3.14159265358979 6.28318530717959
2  1 1 0 3.14159265358979 6.28318530717959
2  2 2 0 3.14159265358979 6.28318530717959
0

0101000
-23 0 +22 0 *
Ve
1e-07
0.9 0 0
0 0

0101101
*
Ed
 1e-07 1 1 0
1  2 0 0 3.14159265358979
2  3 1 0 0 3.14159265358979
2  4 3 0 0 3.14159265358979
0

0101000
+23 0 -20 0 *
Ve
1e-05
-0.9 0 0
0 0

0101101
*
Ed
 1e-05 1 1 0
1  3 0 3.14159265358979 6.28318530717959
2  5 1 0 3.14159265358979 6.28318530717959
2  6 2 0 3.14159265358979 6.28318530717959
0

0101000
+18 0 -20 0 *
Ed
 1e-05 1 1 0
1  4 0 0 3.14159265358979
2  7 1 0 0 3.14159265358979
2  8 3 0 0 3.14159265358979
0

0101000
-18 0 +22 0 *
Wi

0101100
+21 0 +19 0 -17 0 -16 0 *
Fa
0  1e-07 1 0

0111000
+15 0 *
Ed
 1e-05 1 1 0
1  5 0 0 3.14159265358979
2  9 3 0 0 3.14159265358979
2  10 4 0 0 3.14159265358979
0

0101000
+20 0 -18 0 *
Ed
 1e-07 1 1 0
1  6 0 0 3.14159265358979
2  11 3 0 0 3.14159265358979
2  12 4 0 0 3.14159265358979
0

0101000
-22 0 +23 0 *
Wi

0101100
-13 0 -19 0 +12 0 +16 0 *
Fa
0  1e-07 3 0

0111000
+11 0 *
Ed
 1e-07 1 1 0
1  7 0 3.14159265358979 6.28318530717959
2  13 4 0 3.14159265358979 6.28318530717959
2  14 2 0 3.14159265358979 6.28318530717959
0

0101000
-23 0 +20 0 *
Ed
 1e-05 1 1 0
1  8 0 3.14159265358979 6.28318530717959
2  15 4 0 3.14159265358979 6.28318530717959
2  16 2 0 3.14159265358979 6.28318530717959
0

0101000
+18 0 -22 0 *
Wi

0101100
-12 0 -9 0 +13 0 +8 0 *
Fa
0  1e-07 4 0

0111000
+7 0 *
Wi

0101100
+17 0 +9 0 -21 0 -8 0 *
Fa
0  1e-07 2 0

0111000
+5 0 *
Sh

0101100
+14 0 +10 0 +6 0 +4 0 *
So

0100100
+3 0 *
Co

1100000
+2 0 *

+1 0 
##EGADS HEADER FILE-REV 1 ##
0
  1  1  4  4  8  4  3
1 5 1
_body
1
1 5 1
_brch
1
2 8 3
_tParams
 8.433870485084e-02  3.373548194034e-03  1.500000000000e+01 
    2 0 4
1 5 2
_body
1 1 
1 5 2
_brch
1 1 
1 7 3
_faceID
1 1 1 
1 5 1
_hist
1
    2 1 4
1 5 2
_body
1 2 
1 5 2
_brch
1 2 
1 7 3
_faceID
1 2 1 
1 5 1
_hist
1
    2 2 4
1 5 2
_body
1 3 
1 5 2
_brch
1 3 
1 7 3
_faceID
1 3 1 
1 5 1
_hist
1
    2 3 4
1 5 2
_body
1 4 
1 5 2
_brch
1 4 
1 7 3
_faceID
1 4 1 
1 5 1
_hist
1
    4 0 3
1 5 2
_body
1 104 
1 7 5
_edgeID
1 1 1 4 1 
1 6 1
_nface
2
    4 1 3
1 5 2
_body
1 102 
1 7 5
_edgeID
1 1 1 2 1 
1 6 1
_nface
2
    4 2 3
1 5 2
_body
1 104 
1 7 5
_edgeID
1 1 1 4 2 
1 6 1
_nface
2
    4 3 3
1 5 2
_body
1 102 
1 7 5
_edgeID
1 1 1 2 2 
1 6 1
_nface
2
    4 4 3
1 5 2
_body
1 203 
1 7 5
_edgeID
1 2 1 3 1 
1 6 1
_nface
2
    4 5 3
1 5 2
_body
1 203 
1 7 5
_edgeID
1 2 1 3 2 
1 6 1
_nface
2
    4 6 3
1 5 2
_body
1 304 
1 7 5
_edgeID
1 3 1 4 1 
1 6 1
_nface
2
    4 7 3
1 5 2
_body
1 304 
1 7 5
_edgeID
1 3 1 4 2 
1 6 1
_nface
2
    5 0 2
1 7 1
_nodeID
1
1 6 1
_nedge
4
    5 1 2
1 7 1
_nodeID
2
1 6 1
_nedge
4
    5 2 2
1 7 1
_nodeID
3
1 6 1
_nedge
4
    5 3 2
1 7 1
_nodeID
4
1 6 1
_nedge
4
    0 0 0
