DBRep_DrawableShape

CASCADE Topology V1, (c) Matra-Datavision
Locations 2
1
              1               0               0               0 
              0               1               0               0 
              0               0               1             0.5 
2  1 -1 0
Curve2ds 4
1 3.1415926535897931 0 0 1 
1 0 0.5 1 0 
1 4.7123889803846897 0 0 1 
1 0 0 1 0 
Curves 9
7 0 0  1 2 2  -1 1.2246467991473532e-16 0  -1 1.2246467991473532e-16 2 
 0 2 2 2
2 0 0 0.5 0 0 1 1 0 -0 -0 1 0 1
1 0 -1 0 0 0 1 
2 0 0 0 0 0 1 1 0 0 0 1 0 1
1 0 0 0 0 0 1 
1 0 0 0 -1 0 0 
1 0 0 0 -1 0 0 
1 0 -1 0 0 1 0 
1 0 -1 0 0 1 0 
Polygon3D 0
PolygonOnTriangulations 0
Surfaces 5
10 3.1415926535897931 6.2831853071795862 0 2
2 0 0 0 0 0 1 1 0 0 0 1 0 1
1 0 0 0 0 -1 0 -1 0 0 -0 -0 -1 
1 -1 -1 0 0 0 -1 0.70710678118654757 0.70710678118654757 0 0.70710678118654757 -0.70710678118654757 0 
1 0 -1 0 -1 0 0 0 1 0 0 0 -1 
1 0 0 0 0 0 1 1 0 0 0 1 0 
Triangulations 0

TShapes 28
Ve
1e-05
-1 6.12323399573677e-17 0
0 0

0101101
*
Ve
1e-05
-1 0 0.5
0 0

0101101
*
Ed
 1e-05 1 1 0
1  1 0 0 0.5
2  1 1 0 0 0.5
0

0101000
+28 0 -27 0 *
Ve
1e-07
0 -1 0.5
0 0

0101101
*
Ed
 1e-07 1 1 0
1  2 0 3.14159265358979 4.71238898038469
2  2 1 0 3.14159265358979 4.71238898038469
0

0101000
+27 0 -25 0 *
Ve
1.00001000464128e-07
0 -1 0
0 0

0101101
*
Ed
 1e-07 1 1 0
1  3 0 0 0.5
2  3 1 0 0 0.5
0

0101000
+23 0 -25 0 *
Ed
 1e-07 1 1 0
1  4 0 3.14159265358979 4.71238898038469
2  4 1 0 3.14159265358979 4.71238898038469
0

0101000
+28 0 -23 0 *
Wi

0101000
-26 0 -24 0 +22 0 +21 0 *
Fa
0  1e-07 1 0

0111000
+20 0 *
Ve
1e-07
0 0 0
0 0

0101101
*
Ve
1e-07
0 0 0.5
0 0

0101101
*
Ed
 1e-07 1 1 0
1  5 0 0 0.5
0

0101000
+18 0 -17 0 *
Ed
 1e-07 1 1 0
1  6 0 0 1
0

0101000
+18 0 -28 0 *
Ed
 1e-07 1 1 0
1  7 0 0 1
0

0101000
+17 2 -27 2 *
Wi

0101000
+16 0 -15 0 +14 1 -26 0 *
Fa
0  1e-07 2 0

0111000
+13 0 *
Ed
 1e-07 1 1 0
1  8 0 0 1
0

0101000
+25 2 -17 2 *
Wi

0101000
-11 1 -14 1 -24 0 *
Fa
0  1e-07 3 1

0111000
+10 0 *
Ed
 1e-07 1 1 0
1  9 0 0 1
0

0101000
+23 0 -18 0 *
Wi

0101000
+22 0 -8 0 +11 1 -16 0 *
Fa
0  1e-07 4 0

0111000
+7 0 *
Wi

0101000
+15 0 +8 0 +21 0 *
Fa
0  1e-07 5 0

0111000
+5 0 *
Sh

0101100
+19 0 -12 0 -9 0 -6 0 -4 0 *
So

0100000
+3 0 *
Co

1100000
+2 0 *

+1 0 
##EGADS HEADER FILE-REV 1 ##
0
  1  1  5  5  9  6  3
1 5 1
_body
9
1 5 1
_brch
9
2 8 3
_tParams
 4.025812663629e-02  1.610325065452e-03  1.500000000000e+01 
    2 0 4
1 5 2
_body
1 4 
1 5 2
_brch
1 4 
1 5 2
_hist
1 9 
1 7 3
_faceID
1 4 1 
    2 1 6
1 5 2
_body
8 5 
1 7 5
_edgeID
0 0 7 0 3 
1 6 1
_nface
1
1 5 2
_brch
8 5 
1 5 2
_hist
8 9 
1 7 3
_faceID
8 5 1 
    2 2 4
1 5 2
_body
8 2 
1 5 2
_brch
8 2 
1 5 2
_hist
8 9 
1 7 3
_faceID
8 2 1 
    2 3 6
1 5 2
_body
8 4 
1 7 5
_edgeID
0 0 7 0 4 
1 6 1
_nface
1
1 5 2
_brch
8 4 
1 5 2
_hist
8 9 
1 7 3
_faceID
8 4 1 
    2 4 4
1 5 2
_body
8 1 
1 5 2
_brch
8 1 
1 5 3
_hist
7 8 9 
1 7 3
_faceID
8 1 1 
    4 0 3
1 5 2
_body
9 0 
1 7 5
_edgeID
1 4 8 5 1 
1 6 1
_nface
2
    4 1 3
1 5 2
_body
9 0 
1 7 5
_edgeID
1 4 8 2 1 
1 6 1
_nface
2
    4 2 3
1 5 2
_body
9 0 
1 6 1
_nface
2
1 7 5
_edgeID
1 4 8 4 1 
    4 3 3
1 5 2
_body
9 0 
1 7 5
_edgeID
1 4 8 1 1 
1 6 1
_nface
2
    4 4 3
1 5 2
_body
8 405 
1 6 1
_nface
2
1 7 5
_edgeID
8 4 8 5 1 
    4 5 3
1 5 2
_body
8 105 
1 7 5
_edgeID
8 1 8 5 1 
1 6 1
_nface
2
    4 6 3
1 5 2
_body
8 205 
1 6 1
_nface
2
1 7 5
_edgeID
8 2 8 5 1 
    4 7 3
1 5 2
_body
8 204 
1 6 1
_nface
2
1 7 5
_edgeID
8 2 8 4 1 
    4 8 3
1 5 2
_body
8 104 
1 6 1
_nface
2
1 7 5
_edgeID
8 1 8 4 1 
    5 0 2
1 7 1
_nodeID
1
1 6 1
_nedge
3
    5 1 2
1 7 1
_nodeID
2
1 6 1
_nedge
3
    5 2 2
1 7 1
_nodeID
3
1 6 1
_nedge
3
    5 3 2
1 7 1
_nodeID
4
1 6 1
_nedge
3
    5 4 2
1 7 1
_nodeID
5
1 6 1
_nedge
3
    5 5 2
1 7 1
_nodeID
6
1 6 1
_nedge
3
    0 0 0
