DBRep_DrawableShape

CASCADE Topology V1, (c) Matra-Datavision
Locations 0
Curve2ds 16
1 0 0 1 0 
1 1 0 0 1 
1 1 0 0 1 
1 0 1 1 0 
1 0 0 0 1 
1 4 0 0 1 
1 0 0 1 0 
1 2 0 0 1 
1 2 0 0 1 
1 0 1 1 0 
1 0 0 1 0 
1 3 0 0 1 
1 3 0 0 1 
1 0 1 1 0 
1 0 0 1 0 
1 0 1 1 0 
Curves 12
7 0 0  1 2 2  -5 20 -5  -5 20 5 
 0 2 1 2
7 0 0  2 3 2  -5 20 5  5 10 5  -5 0 5 
 0 3 1 3
7 0 0  1 2 2  -5 0 -5  -5 0 5 
 0 2 1 2
7 0 0  2 3 2  -5 20 -5  -5 10 5  -5 0 -5 
 0 3 1 3
7 0 0  1 2 2  -5 20 5  5 20 5 
 1 2 2 2
7 0 0  2 3 2  5 20 5  5 10 -5  5 0 5 
 0 3 1 3
7 0 0  1 2 2  -5 0 5  5 0 5 
 1 2 2 2
7 0 0  1 2 2  5 20 5  5 20 -5 
 2 2 3 2
7 0 0  2 3 2  5 20 -5  -5 10 -5  5 0 -5 
 0 3 1 3
7 0 0  1 2 2  5 0 5  5 0 -5 
 2 2 3 2
7 0 0  1 2 2  5 20 -5  -5 20 -5 
 3 2 4 2
7 0 0  1 2 2  5 0 -5  -5 0 -5 
 3 2 4 2
Polygon3D 0
PolygonOnTriangulations 0
Surfaces 6
9 0 0 0 0 1 2 2 3 2 2 -5 20 -5  -5 10 5  -5 0 -5  
-5 20 5  5 10 5  -5 0 5  

0 2
1 2

0 3
1 3

9 0 0 0 0 1 2 2 3 2 2 -5 20 5  5 10 5  -5 0 5  
5 20 5  5 10 -5  5 0 5  

1 2
2 2

0 3
1 3

9 0 0 0 0 1 2 2 3 2 2 5 20 -5  -5 10 -5  5 0 -5  
-5 20 -5  -5 10 5  -5 0 -5  

3 2
4 2

0 3
1 3

9 0 0 0 0 1 2 2 3 2 2 5 20 5  5 10 -5  5 0 5  
5 20 -5  -5 10 -5  5 0 -5  

2 2
3 2

0 3
1 3

1 -5 20 -5 0 -1 0 0.70710678118654757 0 0.70710678118654757 -0.70710678118654757 0 0.70710678118654757 
1 -5 0 -5 0 -1 0 0.70710678118654757 0 0.70710678118654757 -0.70710678118654757 0 0.70710678118654757 
Triangulations 0

TShapes 35
Ve
1e-07
-5 20 -5
0 0

0101101
*
Ve
1e-07
-5 20 5
0 0

0101101
*
Ed
 1e-07 1 1 0
1  1 0 0 1
2  1 1 0 0 1
0

0101000
+35 0 -34 0 *
Ve
1e-07
-5 0 5
0 0

0101101
*
Ed
 1e-07 1 1 0
1  2 0 0 1
2  2 1 0 0 1
2  3 2 0 0 1
0

0101000
+34 0 -32 0 *
Ve
1e-07
-5 0 -5
0 0

0101101
*
Ed
 1e-07 1 1 0
1  3 0 0 1
2  4 1 0 0 1
0

0101000
+30 0 -32 0 *
Ed
 1e-07 1 1 0
1  4 0 0 1
2  5 1 0 0 1
2  6 3 0 0 1
0

0101000
+35 0 -30 0 *
Wi

0101000
+33 0 +31 0 -29 0 -28 0 *
Fa
0  1e-07 1 0

0111000
+27 0 *
Ve
1e-07
5 20 5
0 0

0101101
*
Ed
 1e-07 1 1 0
1  5 0 1 2
2  7 2 0 1 2
0

0101000
+34 0 -25 0 *
Ve
1e-07
5 0 5
0 0

0101101
*
Ed
 1e-07 1 1 0
1  6 0 0 1
2  8 2 0 0 1
2  9 4 0 0 1
0

0101000
+25 0 -23 0 *
Ed
 1e-07 1 1 0
1  7 0 1 2
2  10 2 0 1 2
0

0101000
+32 0 -23 0 *
Wi

0101000
+24 0 +22 0 -21 0 -31 0 *
Fa
0  1e-07 2 0

0111000
+20 0 *
Ve
1e-07
5 20 -5
0 0

0101101
*
Ed
 1e-07 1 1 0
1  8 0 2 3
2  11 4 0 2 3
0

0101000
+25 0 -18 0 *
Ve
1e-07
5 0 -5
0 0

0101101
*
Ed
 1e-07 1 1 0
1  9 0 0 1
2  12 4 0 0 1
2  13 3 0 0 1
0

0101000
+18 0 -16 0 *
Ed
 1e-07 1 1 0
1  10 0 2 3
2  14 4 0 2 3
0

0101000
+23 0 -16 0 *
Wi

0101000
+17 0 +15 0 -14 0 -22 0 *
Fa
0  1e-07 4 0

0111000
+13 0 *
Ed
 1e-07 1 1 0
1  11 0 3 4
2  15 3 0 3 4
0

0101000
+18 0 -35 0 *
Ed
 1e-07 1 1 0
1  12 0 3 4
2  16 3 0 3 4
0

0101000
+16 0 -30 0 *
Wi

0101000
+11 0 +28 0 -10 0 -15 0 *
Fa
0  1e-07 3 0

0111000
+9 0 *
Wi

0101000
-33 0 -24 0 -17 0 -11 0 *
Fa
0  1e-07 5 0

0111000
+7 0 *
Wi

0101000
+29 0 +21 0 +14 0 +10 0 *
Fa
0  1e-07 6 0

0111000
-5 0 *
Sh

0101100
+26 0 +19 0 +12 0 +8 0 +6 0 -4 0 *
So

0100100
-3 0 *
Co

1100000
+2 0 *

+1 0 
##EGADS HEADER FILE-REV 1 ##
0
  1  1  6  6  12  8  3
1 5 1
_body
19
1 5 1
_brch
20
2 8 3
_tParams
 6.123724438608e-01  2.449489775443e-02  1.500000000000e+01 
    2 0 4
1 5 2
_body
19 3 
1 5 2
_brch
20 3 
1 7 3
_faceID
19 3 1 
1 5 1
_hist
19
    2 1 4
1 5 2
_body
19 4 
1 5 2
_brch
20 4 
1 7 3
_faceID
19 4 1 
1 5 1
_hist
19
    2 2 4
1 5 2
_body
19 5 
1 5 2
_brch
20 5 
1 7 3
_faceID
19 5 1 
1 5 1
_hist
19
    2 3 4
1 5 2
_body
19 6 
1 5 2
_brch
20 6 
1 7 3
_faceID
19 6 1 
1 5 1
_hist
19
    2 4 4
1 5 2
_body
19 1 
1 5 2
_brch
20 1 
1 7 3
_faceID
19 1 1 
1 5 1
_hist
19
    2 5 4
1 5 2
_body
19 2 
1 5 2
_brch
20 2 
1 7 3
_faceID
19 2 1 
1 5 1
_hist
19
    4 0 3
1 5 2
_body
19 103 
1 7 5
_edgeID
19 1 19 3 1 
1 6 1
_nface
2
    4 1 3
1 5 2
_body
19 304 
1 7 5
_edgeID
19 3 19 4 1 
1 6 1
_nface
2
    4 2 3
1 5 2
_body
19 203 
1 7 5
_edgeID
19 2 19 3 1 
1 6 1
_nface
2
    4 3 3
1 5 2
_body
19 306 
1 7 5
_edgeID
19 3 19 6 1 
1 6 1
_nface
2
    4 4 3
1 5 2
_body
19 104 
1 7 5
_edgeID
19 1 19 4 1 
1 6 1
_nface
2
    4 5 3
1 5 2
_body
19 405 
1 7 5
_edgeID
19 4 19 5 1 
1 6 1
_nface
2
    4 6 3
1 5 2
_body
19 204 
1 7 5
_edgeID
19 2 19 4 1 
1 6 1
_nface
2
    4 7 3
1 5 2
_body
19 105 
1 7 5
_edgeID
19 1 19 5 1 
1 6 1
_nface
2
    4 8 3
1 5 2
_body
19 506 
1 7 5
_edgeID
19 5 19 6 1 
1 6 1
_nface
2
    4 9 3
1 5 2
_body
19 205 
1 7 5
_edgeID
19 2 19 5 1 
1 6 1
_nface
2
    4 10 3
1 5 2
_body
19 106 
1 7 5
_edgeID
19 1 19 6 1 
1 6 1
_nface
2
    4 11 3
1 5 2
_body
19 206 
1 7 5
_edgeID
19 2 19 6 1 
1 6 1
_nface
2
    5 0 2
1 7 1
_nodeID
1
1 6 1
_nedge
3
    5 1 2
1 7 1
_nodeID
2
1 6 1
_nedge
3
    5 2 2
1 7 1
_nodeID
3
1 6 1
_nedge
3
    5 3 2
1 7 1
_nodeID
4
1 6 1
_nedge
3
    5 4 2
1 7 1
_nodeID
5
1 6 1
_nedge
3
    5 5 2
1 7 1
_nodeID
6
1 6 1
_nedge
3
    5 6 2
1 7 1
_nodeID
7
1 6 1
_nedge
3
    5 7 2
1 7 1
_nodeID
8
1 6 1
_nedge
3
    0 0 0
