DBRep_DrawableShape

CASCADE Topology V1, (c) Matra-Datavision
Locations 2
1
              1               0               0               0 
              0               1               0               0 
              0               0               1             3.5 
2  1 -1 0
Curve2ds 0
Curves 15
1 0 0 0 0 0 1 
1 -3.2889241727506793 -1.1970705016398404 0 0 0 1 
1 0 0 0 -0.93969262078590843 -0.34202014332566871 0 
1 0 0 0 -0.93969262078590843 -0.34202014332566871 0 
1 -3.2547221584181125 -1.2910397637184312 0 0 0 1 
1 -3.2889241727506793 -1.1970705016398404 0 0.34202014332566871 -0.93969262078590843 -0 
1 -3.2889241727506793 -1.1970705016398404 0 0.34202014332566871 -0.93969262078590843 -0 
1 -2.2124234946345038 -1.2309274066285352 0 0 0 1 
1 -3.2547221584181125 -1.2910397637184312 0 0.99834105722282407 0.057577195687302574 0 
1 -3.2547221584181125 -1.2910397637184312 0 0.99834105722282407 0.057577195687302574 0 
1 0.13680805733026749 -0.37587704831436342 0 0 0 1 
1 -2.2124234946345038 -1.2309274066285352 0 0.93969262078590843 0.34202014332566871 0 
1 -2.2124234946345038 -1.2309274066285352 0 0.93969262078590843 0.34202014332566871 0 
1 0.13680805733026749 -0.37587704831436342 0 -0.34202014332566871 0.93969262078590843 0 
1 0.13680805733026749 -0.37587704831436342 0 -0.34202014332566871 0.93969262078590843 0 
Polygon3D 0
PolygonOnTriangulations 0
Surfaces 7
1 0 0 0 0.34202014332566871 -0.93969262078590843 -0 -0.93969262078590843 -0.34202014332566871 0 -0 0 -1 
1 -3.2889241727506793 -1.1970705016398404 0 0.93969262078590843 0.34202014332566871 0 0.34202014332566871 -0.93969262078590843 -0 -0 0 -1 
1 -3.2547221584181125 -1.2910397637184312 0 -0.057577195687302574 0.99834105722282407 0 0.99834105722282407 0.057577195687302574 0 0 -0 -1 
1 -2.2124234946345038 -1.2309274066285352 0 -0.34202014332566871 0.93969262078590843 0 0.93969262078590843 0.34202014332566871 0 0 0 -1 
1 0.13680805733026749 -0.37587704831436342 0 -0.93969262078590843 -0.34202014332566871 0 -0.34202014332566871 0.93969262078590843 0 -0 0 -1 
1 0 0 0 0 0 1 -0.92954128948086201 -0.36871803746257975 -0 0.36871803746257975 -0.92954128948086201 0 
1 0 0 0 0 0 1 -0.92954128948086201 -0.36871803746257975 -0 0.36871803746257975 -0.92954128948086201 0 
Triangulations 0

TShapes 42
Ve
1e-07
0 0 0
0 0

0101101
*
Ve
1e-07
0 0 3.5
0 0

0101101
*
Ed
 1e-07 1 1 0
1  1 0 0 3.5
0

0101000
+42 0 -41 0 *
Ve
1e-07
-3.28892417275068 -1.19707050163984 0
0 0

0101101
*
Ve
1e-07
-3.28892417275068 -1.19707050163984 3.5
0 0

0101101
*
Ed
 1e-07 1 1 0
1  2 0 0 3.5
0

0101000
+39 0 -38 0 *
Ed
 1e-07 1 1 0
1  3 0 0 3.5
0

0101000
+42 0 -39 0 *
Ed
 1e-07 1 1 0
1  4 0 0 3.5
0

0101000
+41 2 -38 2 *
Wi

0101000
+40 0 -37 0 -36 0 +35 1 *
Fa
0  1e-07 1 0

0101000
+34 0 *
Ve
1e-07
-3.25472215841811 -1.29103976371843 0
0 0

0101101
*
Ve
1e-07
-3.25472215841811 -1.29103976371843 3.5
0 0

0101101
*
Ed
 1e-07 1 1 0
1  5 0 0 3.5
0

0101000
+32 0 -31 0 *
Ed
 1e-07 1 1 0
1  6 0 0 0.1
0

0101000
+39 0 -32 0 *
Ed
 1e-07 1 1 0
1  7 0 0 0.1
0

0101000
+38 2 -31 2 *
Wi

0101000
+37 0 -30 0 -29 0 +28 1 *
Fa
0  1e-07 2 0

0101000
+27 0 *
Ve
1e-07
-2.2124234946345 -1.23092740662854 0
0 0

0101101
*
Ve
1e-07
-2.2124234946345 -1.23092740662854 3.5
0 0

0101101
*
Ed
 1e-07 1 1 0
1  8 0 0 3.5
0

0101000
+25 0 -24 0 *
Ed
 1e-07 1 1 0
1  9 0 0 1.04403065089106
0

0101000
+32 0 -25 0 *
Ed
 1e-07 1 1 0
1  10 0 0 1.04403065089106
0

0101000
+31 2 -24 2 *
Wi

0101000
+30 0 -23 0 -22 0 +21 1 *
Fa
0  1e-07 3 0

0101000
+20 0 *
Ve
1e-07
0.136808057330267 -0.375877048314363 0
0 0

0101101
*
Ve
1e-07
0.136808057330267 -0.375877048314363 3.5
0 0

0101101
*
Ed
 1e-07 1 1 0
1  11 0 0 3.5
0

0101000
+18 0 -17 0 *
Ed
 1e-07 1 1 0
1  12 0 0 2.5
0

0101000
+25 0 -18 0 *
Ed
 1e-07 1 1 0
1  13 0 0 2.5
0

0101000
+24 2 -17 2 *
Wi

0101000
+23 0 -16 0 -15 0 +14 1 *
Fa
0  1e-07 4 0

0101000
+13 0 *
Ed
 1e-07 1 1 0
1  14 0 0 0.4
0

0101000
+18 0 -42 0 *
Ed
 1e-07 1 1 0
1  15 0 0 0.4
0

0101000
+17 2 -41 2 *
Wi

0101000
+16 0 -40 0 -11 0 +10 1 *
Fa
0  1e-07 5 0

0101000
+9 0 *
Wi

0101100
+36 0 +29 0 +22 0 +15 0 +11 0 *
Fa
0  1e-07 6 0

0111000
+7 0 *
Wi

0101100
+35 0 +28 0 +21 0 +14 0 +10 0 *
Fa
0  1e-07 7 0

0111000
+5 0 *
Sh

0101100
+33 0 +26 0 +19 0 +12 0 +8 0 +6 0 -4 1 *
So

0100100
-3 0 *
Co

1100000
+2 0 *

+1 0 
##EGADS HEADER FILE-REV 1 ##
0
  1  1  7  7  15  10  4
2 6 3
_color
 1.000000000000e+02  1.000000000000e+02  8.700000000000e+01 
1 5 1
_body
139
1 5 1
_brch
198
2 8 3
_tParams
 1.266205657428e-01  5.064822629710e-03  1.500000000000e+01 
    2 0 5
1 5 2
_body
136 3 
1 5 2
_brch
195 3 
2 6 3
_color
 1.000000000000e+02  1.000000000000e+02  8.700000000000e+01 
1 5 4
_hist
136 137 138 139 
1 7 3
_faceID
136 3 1 
    2 1 5
1 5 2
_body
136 4 
1 5 2
_brch
195 4 
2 6 3
_color
 1.000000000000e+02  1.000000000000e+02  8.700000000000e+01 
1 5 4
_hist
136 137 138 139 
1 7 3
_faceID
136 4 1 
    2 2 5
1 5 2
_body
136 5 
1 5 2
_brch
195 5 
2 6 3
_color
 1.000000000000e+02  1.000000000000e+02  8.700000000000e+01 
1 5 4
_hist
136 137 138 139 
1 7 3
_faceID
136 5 1 
    2 3 5
1 5 2
_body
136 6 
1 5 2
_brch
195 6 
2 6 3
_color
 1.000000000000e+02  1.000000000000e+02  8.700000000000e+01 
1 5 4
_hist
136 137 138 139 
1 7 3
_faceID
136 6 1 
    2 4 5
1 5 2
_body
136 7 
1 5 2
_brch
195 7 
2 6 3
_color
 1.000000000000e+02  1.000000000000e+02  8.700000000000e+01 
1 5 4
_hist
136 137 138 139 
1 7 3
_faceID
136 7 1 
    2 5 5
1 5 2
_body
136 1 
1 5 2
_brch
195 1 
1 5 5
_hist
135 136 137 138 139 
2 6 3
_color
 1.000000000000e+02  1.000000000000e+02  8.700000000000e+01 
1 7 3
_faceID
136 1 1 
    2 6 5
1 5 2
_body
136 2 
1 5 2
_brch
195 2 
2 6 3
_color
 1.000000000000e+02  1.000000000000e+02  8.700000000000e+01 
1 5 4
_hist
136 137 138 139 
1 7 3
_faceID
136 2 1 
    4 0 3
1 5 2
_body
136 307 
1 6 1
_nface
2
1 7 5
_edgeID
136 3 136 7 1 
    4 1 3
1 5 2
_body
136 304 
1 6 1
_nface
2
1 7 5
_edgeID
136 3 136 4 1 
    4 2 3
1 5 2
_body
136 103 
1 6 1
_nface
2
1 7 5
_edgeID
136 1 136 3 1 
    4 3 3
1 5 2
_body
136 203 
1 6 1
_nface
2
1 7 5
_edgeID
136 2 136 3 1 
    4 4 3
1 5 2
_body
136 405 
1 6 1
_nface
2
1 7 5
_edgeID
136 4 136 5 1 
    4 5 3
1 5 2
_body
136 104 
1 6 1
_nface
2
1 7 5
_edgeID
136 1 136 4 1 
    4 6 3
1 5 2
_body
136 204 
1 6 1
_nface
2
1 7 5
_edgeID
136 2 136 4 1 
    4 7 3
1 5 2
_body
136 506 
1 6 1
_nface
2
1 7 5
_edgeID
136 5 136 6 1 
    4 8 3
1 5 2
_body
136 105 
1 6 1
_nface
2
1 7 5
_edgeID
136 1 136 5 1 
    4 9 3
1 5 2
_body
136 205 
1 6 1
_nface
2
1 7 5
_edgeID
136 2 136 5 1 
    4 10 3
1 5 2
_body
136 607 
1 6 1
_nface
2
1 7 5
_edgeID
136 6 136 7 1 
    4 11 3
1 5 2
_body
136 106 
1 6 1
_nface
2
1 7 5
_edgeID
136 1 136 6 1 
    4 12 3
1 5 2
_body
136 206 
1 6 1
_nface
2
1 7 5
_edgeID
136 2 136 6 1 
    4 13 3
1 5 2
_body
136 107 
1 6 1
_nface
2
1 7 5
_edgeID
136 1 136 7 1 
    4 14 3
1 5 2
_body
136 207 
1 6 1
_nface
2
1 7 5
_edgeID
136 2 136 7 1 
    5 0 2
1 7 1
_nodeID
1
1 6 1
_nedge
3
    5 1 2
1 7 1
_nodeID
2
1 6 1
_nedge
3
    5 2 2
1 6 1
_nedge
3
1 7 1
_nodeID
3
    5 3 2
1 6 1
_nedge
3
1 7 1
_nodeID
4
    5 4 2
1 6 1
_nedge
3
1 7 1
_nodeID
5
    5 5 2
1 6 1
_nedge
3
1 7 1
_nodeID
6
    5 6 2
1 6 1
_nedge
3
1 7 1
_nodeID
7
    5 7 2
1 6 1
_nedge
3
1 7 1
_nodeID
8
    5 8 2
1 6 1
_nedge
3
1 7 1
_nodeID
9
    5 9 2
1 6 1
_nedge
3
1 7 1
_nodeID
10
    0 0 0
