DBRep_DrawableShape

CASCADE Topology V1, (c) Matra-Datavision
Locations 0
Curve2ds 12
2 0 0 1 0 -0 1 1
1 0 2 1 0 
1 0 -0 0 1 
1 6.2831853071795862 -0 0 1 
2 0 0 1 0 -0 1 1
1 0 0 1 0 
1 3.1415926535897931 0 0 1 
1 3.1415926535897931 0 0 1 
2 0 0 1 0 -0 1 1
1 0 0 1 0 
2 0 0 1 0 -0 1 1
1 0 2 1 0 
Curves 4
2 0 1 0 0 1 0 0 -0 1 1 0 -0 1
1 -2.4492935982947064e-16 -1 1 0 1 0 
2 0 -1 0 0 1 0 0 -0 1 1 0 -0 1
7 0 0  1 2 2  1.2246467991473532e-16 -1 -1  1.2246467991473532e-16 1 -1 
 0 2 2 2
Polygon3D 0
PolygonOnTriangulations 0
Surfaces 4
10 0 3.1415926535897931 0 2
2 0 -1 0 0 1 0 0 -0 1 1 0 -0 1
1 0 1 0 0 1 0 0 -0 1 1 0 -0 
10 3.1415926535897931 6.2831853071795862 0 2
2 0 -1 0 0 1 0 0 -0 1 1 0 -0 1
1 0 -1 0 0 1 0 0 -0 1 1 0 -0 
Triangulations 0

TShapes 21
Ve
1e-07
1.22464679914735e-16 1 -1
0 0

0101101
*
Ve
1e-07
-2.44929359829471e-16 1 1
0 0

0101101
*
Ed
 1e-07 1 1 0
1  1 0 0 3.14159265358979
2  1 2 0 0 3.14159265358979
2  2 1 0 0 3.14159265358979
0

0101000
-21 0 +20 0 *
Ve
1e-07
-2.44929359829471e-16 -1 1
0 0

0101101
*
Ed
 1e-07 1 1 0
1  2 0 0 2
2  3 1 0 0 2
2  4 3 0 0 2
0

0101000
-20 0 +18 0 *
Ve
1e-07
1.22464679914735e-16 -1 -1
0 0

0101101
*
Ed
 1e-07 1 1 0
1  3 0 0 3.14159265358979
2  5 4 0 0 3.14159265358979
2  6 1 0 0 3.14159265358979
0

0101000
+18 0 -16 0 *
Ed
 1e-05 1 1 0
2  7 1 0 0 2
1  4 0 0 2
2  8 3 0 0 2
0

0101000
+16 0 -21 0 *
Wi

0101100
-19 0 -17 0 +15 0 +14 0 *
Fa
0  1e-07 1 0

0111000
+13 0 *
Ed
 1e-07 1 1 0
1  3 0 3.14159265358979 6.28318530717959
2  9 4 0 3.14159265358979 6.28318530717959
2  10 3 0 3.14159265358979 6.28318530717959
0

0101000
+16 0 -18 0 *
Ed
 1e-07 1 1 0
1  1 0 3.14159265358979 6.28318530717959
2  11 2 0 3.14159265358979 6.28318530717959
2  12 3 0 3.14159265358979 6.28318530717959
0

0101000
-20 0 +21 0 *
Wi

0101100
+11 0 +17 0 -10 0 -14 0 *
Fa
0  1e-07 3 0

0111000
+9 0 *
Wi

0101100
+19 0 +10 0 *
Fa
0  1e-07 2 0

0111000
+7 0 *
Wi

0101100
-15 0 -11 0 *
Fa
0  1e-07 4 0

0111000
-5 0 *
Sh

0101100
+12 0 +8 0 +6 0 -4 0 *
So

0100100
+3 0 *
Co

1100000
+2 0 *

+1 0 
##EGADS HEADER FILE-REV 1 ##
0
  1  1  4  4  6  4  0
    0 0 0
