DBRep_DrawableShape

CASCADE Topology V1, (c) Matra-Datavision
Locations 0
Curve2ds 4
1 0 1 1 0 
1 0 0 1 0 
1 6.2831853071795862 0 0 1 
1 0 0 0 1 
Curves 2
2 0 0 0 -1 0 0 -0 1 -0 -0 -0 -1 0.90000000000000002
7 0 0  3 8 6  0.5 0 0  0.4933001073975285 0.06026592988220799 0  0.47971272995297787 0.18248503293576041 0  0.43713080261610637 0.33258667579366447 0  0.37753989896264945 0.48224980164048792 0  0.28207227956625419 0.7005991231273363 0  0.11289134173607475 0.82019556124026249 0  0 0.90000000000000002 0 
 0 4 0.16984477892089814 1 0.34444448223657942 1 0.43469614421726666 1 0.62278293636036108 1 1 4
Polygon3D 0
PolygonOnTriangulations 0
Surfaces 2
1 0 0 0 1 -0 -0 -0 1 -0 -0 -0 -1 
7 0 0 0 -1 0 0 
8 0 1
7 0 0  3 8 6  0.5 0 0  0.4933001073975285 0.06026592988220799 0  0.47971272995297787 0.18248503293576041 0  0.43713080261610637 0.33258667579366447 0  0.37753989896264945 0.48224980164048792 0  0.28207227956625419 0.7005991231273363 0  0.11289134173607475 0.82019556124026249 0  0 0.90000000000000002 0 
 0 4 0.16984477892089814 1 0.34444448223657942 1 0.43469614421726666 1 0.62278293636036108 1 1 4
Triangulations 0

TShapes 12
Ve
1e-07
0 0.9 0
0 0

0101101
*
Ed
 1e-07 1 1 0
1  1 0 0 6.28318530717959
2  1 2 0 0 6.28318530717959
0

0101100
+12 0 -12 0 *
Wi

0101000
+11 0 *
Fa
0  1e-07 1 0

0101000
+10 0 *
Ve
1e-07
0.5 0 0
0 0

0101101
*
Ed
 1e-07 1 1 1
2  2 2 0 0 6.28318530717959
0

0101100
+8 0 -8 0 *
Ed
 1e-07 1 1 0
1  2 0 0 1
3  3 4C2 2 0 0 1
0

0101000
+8 0 -12 0 *
Wi

0101000
+7 0 -11 0 -6 0 +6 0 *
Fa
0  1e-07 2 0

0101000
+5 0 *
Sh

0101100
+9 0 +4 0 *
So

0100100
+3 0 *
Co

1100000
+2 0 *

+1 0 
##EGADS HEADER FILE-REV 1 ##
9
2 10 1
_despmtr_h
 9.000000000000e-01
2 12 1
_despmtr_wo0
 6.000000000000e-01
2 12 1
_despmtr_wo1
 7.800000000000e-01
2 12 1
_despmtr_wo2
 8.500000000000e-01
2 12 1
_despmtr_wo3
 9.500000000000e-01
2 12 1
_despmtr_ho0
 7.000000000000e-01
2 12 1
_despmtr_ho1
 5.000000000000e-01
2 12 1
_despmtr_ho2
 4.000000000000e-01
2 12 1
_despmtr_ho3
 2.000000000000e-01
  1  1  2  2  3  2  3
1 5 1
_body
11
1 5 1
_brch
12
2 8 3
_tParams
 7.000800842711e-02  2.800320337085e-03  1.500000000000e+01 
    2 0 4
1 5 2
_body
10 3 
1 5 2
_brch
11 3 
1 5 2
_hist
10 11 
1 7 3
_faceID
10 3 1 
    2 1 4
1 5 2
_body
10 4 
1 5 2
_brch
11 4 
1 5 2
_hist
10 11 
1 7 3
_faceID
10 4 1 
    4 0 3
1 5 2
_body
10 304 
1 6 1
_nface
2
1 7 5
_edgeID
10 3 10 4 1 
    4 1 3
1 5 2
_body
10 -3 
1 6 1
_nface
1
1 7 5
_edgeID
0 0 10 4 1 
    4 2 3
1 5 2
_body
10 404 
1 6 1
_nface
1
1 7 5
_edgeID
10 4 10 4 1 
    5 0 2
1 7 1
_nodeID
1
1 6 1
_nedge
2
    5 1 2
1 7 1
_nodeID
2
1 6 1
_nedge
2
    0 0 0
