DBRep_DrawableShape

CASCADE Topology V1, (c) Matra-Datavision
Locations 0
Curve2ds 32
1 6.2831853071795862 -6.2831853071795862 0 1 
1 0 -6.2831853071795862 0 1 
1 0 -1.5707963267948966 1 0 
1 3.1415926535897931 0 0 1 
1 3.1415926535897931 0 0 1 
1 0 1.5707963267948966 1 0 
7 0 0  10 29 4  4.7123889803846852 0.62282658541200309  4.7687950870058895 0.62282658535559687  4.8252007421427132 0.61790413297814262  4.8806271696990144 0.60805989614919975  4.9340847416813016 0.59342989279136871  4.9847261169686856 0.57429394078240459  5.0319489122501802 0.55103162622350899  5.075411054997593 0.52406762454028111  5.1149667509712886 0.49383099492387411  5.1505757821035498 0.46073585466093547  5.2298454117236703 0.37183028286354236  5.2686289279595071 0.3129356545534217  5.2987744212060637 0.24981160788133211  5.3208135145498092 0.18365565697339908  5.3352517528566956 0.11548846744504873  5.3424264861992308 0.046199802383339747  5.3424739130436389 -0.023378035601819676  5.3353197332317519 -0.092406913070368288  5.3206884972541406 -0.15999407313374442  5.2757262522911308 -0.29026370807181917  5.2453956034369185 -0.35294659530063655  5.2068419202114455 -0.41216687310952693  5.1596118250163272 -0.46681273437570781  5.1032182367052883 -0.51558043292607181  5.0375809965189546 -0.55706877400371013  4.9629014144593384 -0.58960209178621881  4.8816074330898118 -0.6117510878802932  4.7969981399573989 -0.62282658532739377  4.7123889803846932 -0.62282658541200298 
 0 11 0.78539816339744684 9 1.9634954084936198 9 3.1415926535897931 11
1 0 0.52532056551910367 1 0 
7 0 0  10 29 4  4.712388980384687 -0.62282658541200309  4.655982873763489 -0.62282658535559687  4.5995772186210582 -0.61790413297814262  4.5441507910700176 -0.60805989614919975  4.4906932190776692 -0.59342989279136871  4.4400518437792531 -0.57429394078240459  4.3928290485036996 -0.55103162622350899  4.3493669057688917 -0.52406762454028111  4.3098112097958765 -0.49383099492387411  4.2742021786658304 -0.46073585466093547  4.1949325490457081 -0.37183028286354236  4.1561490328079422 -0.31293565455358086  4.126003539564878 -0.24981160788129234  4.1039644462065556 -0.18365565697347866  4.0895262078916463 -0.11548846744522559  4.0823514745637413 -0.046199802383284805  4.0823040477326087 0.023378035602011966  4.0894582275348492 0.09240691307027088  4.1040894635152387 0.15999407313374409  4.1490517084782477 0.29026370807181884  4.1793823580483149 0.35294659529972705  4.2179360370791983 0.41216687311316491  4.2651661403360777 0.46681273448484717  4.3215597157832235 0.5155804328242084  4.3871969697647728 0.55706877422926482  4.461876543413382 0.58960209173164912  4.5431705283408519 0.61175108789393562  4.6277798208119805 0.62282658532739377  4.7123889803846861 0.62282658541200298 
 3.1415926535897931 11 3.926990816987229 9 5.1050880620834054 9 6.2831853071795871 11
1 0 0.52532056551910367 1 0 
1 0 -1.5707963267948966 1 0 
1 0 1.5707963267948966 1 0 
7 0 0  10 29 4  1.5707963267948981 -0.62282658541200309  1.6272024334160982 -0.62282658535559687  1.6836080885606386 -0.61790413297814262  1.7390345161004241 -0.60805989614919975  1.7924920880963935 -0.59342989279136871  1.8431334633985696 -0.57429394078240459  1.8903562586658762 -0.55103162622350899  1.9338184013985784 -0.52406762454028111  1.9733740973875153 -0.49383099492387411  2.0089831285137567 -0.46073585466093547  2.0882527581338772 -0.37183028286354236  2.1270362743714899 -0.31293565455351013  2.1571817676055631 -0.24981160788113316  2.1792208609653243 -0.18365565697334224  2.193659099282943 -0.11548846744512453  2.2008338326066221 -0.046199802383148393  2.2008812594376215 0.02337803560217112  2.193727079646564 0.092406913070341615  2.1790958436643488 0.15999407313374409  2.1341335987013381 0.29026370807181884  2.1038029494138755 0.35294659529972705  2.0652492685767356 0.41216687311316491  2.0180191684339661 0.46681273448484717  1.9616255879518576 0.5155804328242084  1.8959883399656974 0.55706877422926482  1.8213087623298634 0.58960209173164912  1.7400147792286589 0.61175108789393562  1.655405486367606 0.62282658532739377  1.5707963267948939 0.62282658541200298 
 3.1415926535897931 11 3.9269908169872458 9 5.105088062083416 9 6.2831853071795862 11
1 0 1.4746794344808962 1 0 
7 0 0  10 29 4  1.5707963267948972 0.62282658541200309  1.514390220173695 0.62282658535559687  1.4579845650287946 0.61790413297814262  1.4025581374911631 0.60805989614919975  1.3491005654927601 0.59342989279136871  1.2984591901874107 0.57429394078240459  1.2512363949211252 0.55103162622350899  1.2077742521912047 0.52406762454028111  1.1682185562020591 0.49383099492387411  1.1326095250760375 0.46073585466093547  1.0533398954559157 0.37183028286354236  1.0145563792165282 0.3129356545534217  0.9844108859798697 0.24981160788133211  0.96237179261709882 0.18365565697339908  0.94793355429747983 0.11548846744504873  0.94075882097452757 0.046199802383339747  0.94071139414717531 -0.023378035601819676  0.94786557394230309 -0.092406913070368288  0.96249680992544495 -0.15999407313374442  1.0074590548884554 -0.29026370807181917  1.0377897042453696 -0.35294659530063655  1.076343384658685 -0.41216687310952693  1.1235734854999464 -0.46681273437570781  1.1799670655163936 -0.51558043292607181  1.2456043138517998 -0.55706877400371013  1.3202838908837293 -0.58960209178621881  1.4015778744269483 -0.6117510878802932  1.4861871672221874 -0.62282658532739377  1.570796326794895 -0.62282658541200298 
 0 11 0.7853981633974485 9 1.96349540849362 9 3.1415926535897931 11
1 0 1.4746794344808962 1 0 
1 0 -0 0 1 
1 6.2831853071795862 -0 0 1 
1 0 1 1 0 
1 0 0 1 0 
1 3.1415926535897931 0 0 1 
1 3.1415926535897931 0 0 1 
1 0 1 1 0 
1 3.1415926535897931 0 0 1 
1 3.1415926535897931 0 0 1 
1 6.2831853071795862 -0 0 1 
1 0 -0 0 1 
1 0 1 1 0 
1 0 2 1 0 
1 0 1 1 0 
7 0 0  8 9 2  3.1415926535897931 1  3.1415926535897931 1.1250000007500001  3.1415926535887593 1.2500000004984031  3.1415926535955805 1.3750000002510205  3.1415926535773906 1.4999999999954525  3.1415926535937615 1.6249999997517079  3.1415926535887593 1.7499999994981863  3.1415926535897931 1.8749999992499999  3.1415926535897931 2 
 0 9 1 9
1 6.2831853071795862 1 0 1 
Curves 16
2 0 0 0 -2.4492935982947064e-16 -1 0 1 -2.4492935982947064e-16 0 0 0 1 1.2
7 0 0  8 9 2  -2.2204460492503131e-16 0 -1.1999999999999997  -0.47123889803846586 5.7710120811653829e-17 -1.1999999999999977  -0.94248338513003305 1.1542092608490395e-16 -0.98846065859100385  -1.3029411086464608 1.595642658181427e-16 -0.5657621329741247  -1.4421668748002934 1.7661450470604735e-16 -1.7208456881689911e-14  -1.3029411086464573 1.5956426581814307e-16 0.56576213297415379  -0.94248338513003604 1.1542092608490373e-16 0.98846065859098697  -0.47123889803846492 5.7710120811653903e-17 1.2000000000000037  -2.2204460492503131e-16 0 1.1999999999999997 
 -1.5707963267948966 9 1.5707963267948966 9
2 0 -0.97467943448089633 0 0 1 0 0 -0 1 1 0 -0 0.69999999999999996
2 0 -0.97467943448089633 0 0 1 0 0 -0 1 1 0 -0 0.69999999999999996
2 0 0.97467943448089633 0 0 1 0 0 -0 1 1 0 -0 0.69999999999999996
2 0 0.97467943448089633 0 0 1 0 0 -0 1 1 0 -0 0.69999999999999996
1 -1.7145055188062944e-16 -1.5 0.69999999999999996 0 1 0 
2 0 -0.5 0 0 1 0 0 0 1 1 0 0 0.69999999999999996
7 0 0  1 2 2  8.572527594031472e-17 -1.5 -0.69999999999999996  8.572527594031472e-17 0.5 -0.69999999999999996 
 0 2 2 2
2 0 -0.5 0 0 1 0 0 0 1 1 0 0 0.69999999999999996
7 0 0  1 2 2  8.572527594031472e-17 -0.5 -0.69999999999999996  8.572527594031472e-17 1.5 -0.69999999999999996 
 0 2 2 2
1 -1.7145055188062944e-16 -0.5 0.69999999999999996 0 1 0 
2 0 0.5 0 -0 1 0 0 -0 1 1 0 0 0.69999999999999996
2 0 0.5 0 -0 1 0 0 -0 1 1 0 0 0.69999999999999996
7 0 0  1 2 2  8.572527594031472e-17 -0.5 -0.69999999999999996  8.572527594031472e-17 1.5 -0.69999999999999996 
 0 2 2 2
1 -1.7145055188062944e-16 -0.5 0.69999999999999996 0 1 0 
Polygon3D 0
PolygonOnTriangulations 0
Surfaces 8
10 3.1415926535897931 6.2831853071795862 -1.5707963267948966 1.5707963267948966
4 0 0 0 0 0 1 1 0 -0 -0 1 0 1.2
10 0 3.1415926535897931 -1.5707963267948966 1.5707963267948966
4 0 0 0 0 0 1 1 0 -0 -0 1 0 1.2
10 0 3.1415926535897931 0 2
2 0 -1.5 0 0 1 0 0 -0 1 1 0 0 0.69999999999999996
10 3.1415926535897931 6.2831853071795862 0 2
2 0 -1.5 0 0 1 0 0 -0 1 1 0 0 0.69999999999999996
10 3.1415926535897931 6.2831853071795862 0 2
2 0 -0.5 0 0 1 0 0 0 1 1 0 0 0.69999999999999996
10 0 3.1415926535897931 0 2
2 0 -0.5 0 0 1 0 0 0 1 1 0 0 0.69999999999999996
10 0 3.1415926535897931 0 2
2 0 -0.5 0 0 1 0 0 0 1 1 0 0 0.69999999999999996
10 3.1415926535897931 6.2831853071795862 0 2
2 0 -1.5 0 0 1 0 0 -0 1 1 0 0 0.69999999999999996
Triangulations 0

TShapes 51
Ve
1e-05
7.34788079488412e-17 -1.79971173919423e-32 -1.2
0 0

0101101
*
Ve
1e-05
7.34788079488412e-17 -1.79971173919423e-32 1.2
0 0

0101101
*
Ed
 1e-07 1 1 0
1  1 0 4.71238898038469 7.85398163397448
2  1 1 0 4.71238898038469 7.85398163397448
2  2 2 0 4.71238898038469 7.85398163397448
0

0101000
+51 0 -50 0 *
Ed
 1e-07 1 1 1
2  3 1 0 3.14159265358979 6.28318530717959
0

0101100
+51 0 -51 0 *
Ed
 1e-05 1 1 0
1  2 0 -1.5707963267949 1.5707963267949
2  4 1 0 -1.5707963267949 1.5707963267949
2  5 2 0 -1.5707963267949 1.5707963267949
0

0101000
-50 0 +51 0 *
Ed
 1e-07 1 1 1
2  6 1 0 3.14159265358979 6.28318530717959
0

0101100
-50 0 +50 0 *
Wi

0101000
+49 0 +48 0 -47 0 -46 0 *
Ve
2.00001e-07
-1.71450551880629e-16 -0.974679434480896 0.7
0 0

0101101
*
Ve
1.0100001e-05
8.57252759403147e-17 -0.974679434480896 -0.7
0 0

0101101
*
Ed
 1e-07 1 1 0
1  3 0 0 3.14159265358979
2  7 1 0 0 3.14159265358979
2  8 3 0 0 3.14159265358979
0

0101000
+44 0 -43 0 *
Ed
 1e-07 1 1 0
1  4 0 3.14159265358979 6.28318530717959
2  9 1 0 3.14159265358979 6.28318530717959
2  10 4 0 3.14159265358979 6.28318530717959
0

0101000
+43 0 -44 0 *
Wi

0101000
+42 0 +41 0 *
Fa
0  1e-07 1 0

0111000
+45 0 +40 0 *
Ed
 1e-07 1 1 1
2  11 2 0 0 3.14159265358979
0

0101100
+51 0 -51 0 *
Ed
 1e-07 1 1 1
2  12 2 0 0 3.14159265358979
0

0101100
-50 0 +50 0 *
Wi

0101000
+47 0 +38 0 -49 0 -37 0 *
Ve
1.0100001e-05
8.57252759403147e-17 0.974679434480896 -0.7
0 0

0101101
*
Ve
2.00001e-07
-1.71450551880629e-16 0.974679434480896 0.7
0 0

0101101
*
Ed
 1e-07 1 1 0
1  5 0 3.14159265358979 6.28318530717959
2  13 2 0 3.14159265358979 6.28318530717959
2  14 5 0 3.14159265358979 6.28318530717959
0

0101000
+35 0 -34 0 *
Ed
 1e-07 1 1 0
1  6 0 0 3.14159265358979
2  15 2 0 0 3.14159265358979
2  16 6 0 0 3.14159265358979
0

0101000
+34 0 -35 0 *
Wi

0101000
-33 0 -32 0 *
Fa
0  1e-07 2 0

0111000
+36 0 +31 0 *
Ve
1e-07
-1.71450551880629e-16 -0.5 0.7
0 0

0101101
*
Ed
 1e-07 1 1 0
1  7 0 0.525320565519104 1
2  17 3 0 0.525320565519104 1
2  18 4 0 0.525320565519104 1
0

0101000
+44 0 -29 0 *
Ve
1e-05
8.57252759403147e-17 -0.5 -0.7
0 0

0101101
*
Ed
 1e-07 1 1 0
1  8 0 0 3.14159265358979
2  19 3 0 0 3.14159265358979
2  20 7 0 0 3.14159265358979
0

0101000
+29 0 -27 0 *
Ed
 1e-05 1 1 0
1  9 0 0.525320565519104 1
2  21 3 0 0.525320565519104 1
2  22 4 0 0.525320565519104 1
0

0101000
+43 0 -27 0 *
Wi

0101000
+42 0 -28 0 -26 0 +25 0 *
Fa
0  1e-07 3 0

0111000
+24 0 *
Ed
 1e-07 1 1 0
1  10 0 3.14159265358979 6.28318530717959
2  23 4 0 3.14159265358979 6.28318530717959
2  23 8 0 3.14159265358979 6.28318530717959
0

0101000
+27 0 -29 0 *
Wi

0101000
-25 0 -22 0 +28 0 +41 0 *
Fa
0  1e-07 4 0

0111000
+21 0 *
Ve
1e-05
8.57252759403147e-17 0.5 -0.7
0 0

0101101
*
Ed
 1e-05 1 1 0
1  11 0 1 1.4746794344809
2  24 5 0 1 1.4746794344809
2  25 6 0 1 1.4746794344809
0

0101000
+19 0 -35 0 *
Ve
1e-07
-1.71450551880629e-16 0.5 0.7
0 0

0101101
*
Ed
 1e-07 1 1 0
1  12 0 1 1.4746794344809
2  26 5 0 1 1.4746794344809
2  27 6 0 1 1.4746794344809
0

0101000
+17 0 -34 0 *
Ed
 1e-07 1 1 0
1  13 0 3.14159265358979 6.28318530717959
2  28 5 0 3.14159265358979 6.28318530717959
2  29 8 0 3.14159265358979 6.28318530717959
0

0101000
-17 0 +19 0 *
Wi

0101000
-18 0 -33 0 +16 0 +15 0 *
Fa
0  1e-07 5 0

0111000
+14 0 *
Ed
 1e-07 1 1 0
1  14 0 0 3.14159265358979
2  30 6 0 0 3.14159265358979
2  30 7 0 0 3.14159265358979
0

0101000
-19 0 +17 0 *
Wi

0101000
+18 0 +12 0 -16 0 -32 0 *
Fa
0  1e-07 6 0

0111000
+11 0 *
Ed
 1e-05 1 1 0
1  15 0 0 1
2  25 7 0 0 1
2  31 8 0 0 1
0

0101000
+27 0 -19 0 *
Ed
 1e-07 1 1 0
1  16 0 0 1
2  27 7 0 0 1
2  32 8 0 0 1
0

0101000
+29 0 -17 0 *
Wi

0101000
+9 0 +26 0 -8 0 -12 0 *
Fa
0  1e-07 7 0

0111000
+7 0 *
Wi

0101000
-9 0 -15 0 +8 0 +22 0 *
Fa
0  1e-07 8 0

0111000
+5 0 *
Sh

0101100
+39 0 +30 0 -23 0 -20 0 -13 0 -10 0 -6 0 -4 0 *
So

0100000
+3 0 *
Co

1100000
+2 0 *

+1 0 
##EGADS HEADER FILE-REV 1 ##
0
  1  1  8  10  20  10  3
1 5 1
_body
5
1 5 1
_brch
5
2 8 3
_tParams
 1.052025136310e-01  4.208100545241e-03  1.500000000000e+01 
    2 0 4
1 5 2
_body
1 0 
1 5 2
_brch
1 0 
1 5 3
_hist
1 3 5 
1 7 3
_faceID
1 0 1 
    2 1 4
1 5 2
_body
1 0 
1 5 2
_brch
1 0 
1 5 3
_hist
1 3 5 
1 7 3
_faceID
1 0 2 
    2 2 4
1 5 2
_body
2 3 
1 5 2
_brch
2 3 
1 5 3
_hist
2 3 5 
1 7 3
_faceID
2 3 1 
    2 3 4
1 5 2
_body
2 4 
1 5 2
_brch
2 4 
1 5 3
_hist
2 3 5 
1 7 3
_faceID
2 4 1 
    2 4 4
1 5 2
_body
4 4 
1 5 2
_brch
4 4 
1 5 2
_hist
4 5 
1 7 3
_faceID
4 4 2 
    2 5 4
1 5 2
_body
4 3 
1 5 2
_brch
4 3 
1 5 2
_hist
4 5 
1 7 3
_faceID
4 3 2 
    2 6 4
1 5 2
_body
4 3 
1 5 2
_brch
4 3 
1 5 2
_hist
4 5 
1 7 3
_faceID
4 3 1 
    2 7 4
1 5 2
_body
4 4 
1 5 2
_brch
4 4 
1 5 2
_hist
4 5 
1 7 3
_faceID
4 4 1 
    4 0 3
1 5 2
_body
1 0 
1 6 1
_nface
2
1 7 5
_edgeID
1 0 1 0 1 
    4 1 3
1 5 2
_body
1 -3 
1 6 1
_nface
1
1 7 5
_edgeID
0 0 1 0 1 
    4 2 3
1 5 2
_body
1 0 
1 6 1
_nface
2
1 7 5
_edgeID
1 0 1 0 2 
    4 3 3
1 5 2
_body
1 -3 
1 6 1
_nface
1
1 7 5
_edgeID
0 0 1 0 2 
    4 4 3
1 5 2
_body
3 0 
1 6 1
_nface
2
1 7 5
_edgeID
1 0 2 3 1 
    4 5 3
1 5 2
_body
3 0 
1 6 1
_nface
2
1 7 5
_edgeID
1 0 2 4 1 
    4 6 3
1 5 2
_body
1 -3 
1 6 1
_nface
1
1 7 5
_edgeID
0 0 1 0 3 
    4 7 3
1 5 2
_body
1 -3 
1 6 1
_nface
1
1 7 5
_edgeID
0 0 1 0 4 
    4 8 3
1 5 2
_body
5 0 
1 7 5
_edgeID
1 0 4 4 1 
1 6 1
_nface
2
    4 9 3
1 5 2
_body
5 0 
1 7 5
_edgeID
1 0 4 3 1 
1 6 1
_nface
2
    4 10 3
1 5 2
_body
2 304 
1 7 5
_edgeID
2 3 2 4 2 
1 6 1
_nface
2
    4 11 3
1 5 2
_body
5 0 
1 6 1
_nface
2
1 7 5
_edgeID
2 3 4 3 1 
    4 12 3
1 5 2
_body
2 304 
1 7 5
_edgeID
2 3 2 4 1 
1 6 1
_nface
2
    4 13 3
1 5 2
_body
5 0 
1 6 1
_nface
2
1 7 5
_edgeID
2 4 4 4 1 
    4 14 3
1 5 2
_body
4 304 
1 7 5
_edgeID
4 3 4 4 3 
1 6 1
_nface
2
    4 15 3
1 5 2
_body
4 304 
1 7 5
_edgeID
4 3 4 4 4 
1 6 1
_nface
2
    4 16 3
1 5 2
_body
4 404 
1 6 1
_nface
2
1 7 5
_edgeID
4 4 4 4 1 
    4 17 3
1 5 2
_body
4 303 
1 6 1
_nface
2
1 7 5
_edgeID
4 3 4 3 1 
    4 18 3
1 5 2
_body
4 304 
1 7 5
_edgeID
4 3 4 4 1 
1 6 1
_nface
2
    4 19 3
1 5 2
_body
4 304 
1 7 5
_edgeID
4 3 4 4 2 
1 6 1
_nface
2
    5 0 2
1 7 1
_nodeID
1
1 6 1
_nedge
4
    5 1 2
1 7 1
_nodeID
2
1 6 1
_nedge
4
    5 2 2
1 7 1
_nodeID
3
1 6 1
_nedge
3
    5 3 2
1 7 1
_nodeID
4
1 6 1
_nedge
3
    5 4 2
1 7 1
_nodeID
5
1 6 1
_nedge
3
    5 5 2
1 7 1
_nodeID
6
1 6 1
_nedge
3
    5 6 2
1 7 1
_nodeID
7
1 6 1
_nedge
4
    5 7 2
1 7 1
_nodeID
8
1 6 1
_nedge
4
    5 8 2
1 7 1
_nodeID
9
1 6 1
_nedge
4
    5 9 2
1 7 1
_nodeID
10
1 6 1
_nedge
4
    0 0 0
