DBRep_DrawableShape

CASCADE Topology V1, (c) Matra-Datavision
Locations 0
Curve2ds 34
7 0 0  9 34 5  6.2831853071795853 1.0554259599044833  6.2077590008933035 1.0065987889033072  6.1493096849710795 0.95414620837891562  6.1031031600107539 0.89940362649576855  6.0655286826525057 0.84307462926517474  6.0347093847861046 0.78557466034180834  6.0090496554483011 0.72719989937468199  5.9876081796325238 0.66814526218740866  5.9696165021934213 0.60856035240621709  5.9319142389173383 0.4585512408347357  5.9158402776967005 0.36760386454140498  5.9044754404619111 0.27609187550509756  5.8969526273797541 0.18421861108498661  5.8927733970634879 0.092136315631699342  5.8917017708247785 -2.6172022742798617e-05  5.8937415320324815 -0.092152681777686665  5.899103791472796 -0.18411269808665895  5.9130348804503168 -0.32153841133470412  5.9186598110653064 -0.3672612397050885  5.9253411003364462 -0.41287620038125777  5.9331780629719928 -0.45835807341973123  5.9422991682450439 -0.50367738755681379  5.9528706387434553 -0.54879846203317584  5.9651085325014037 -0.59367697614427684  5.9792992822563793 -0.63825576290540242  6.0123782986713135 -0.72665601722707396  6.0312661173836002 -0.77047751321227631  6.0529015116282991 -0.81384121866911607  6.0777793468561399 -0.8566470150971226  6.1065719726899195 -0.89876223547455281  6.1401269772176592 -0.94001031651282574  6.1795954853120207 -0.98014591488936431  6.2266155771742362 -1.0188055814654564  6.2831853071795853 -1.0554259599044831 
 1.9737527902046699 10 2.5576727218972315 8 3.4335526194360746 8 3.8714925682054968 8 4.3094325169749164 10
7 0 0  10 20 3  4.4590247695785479 0.81116779045765508  4.5689065558498747 0.75875057239937549  4.6592358771231375 0.69359219788248083  4.7295259277743753 0.61911994570982642  4.7837257108767517 0.5385208857114776  4.8255944718839601 0.4535563840836403  4.8568519412074238 0.36556647050747415  4.8794349998643156 0.27549568245376577  4.8941249464187422 0.18410388721713389  4.901476892138926 0.092051959020408969  4.901476892138926 -0.092051959020408775  4.8941249464842258 -0.18410388724851146  4.8794349998934194 -0.27549568218091736  4.856851942720823 -0.36556647111137863  4.8255944709526375 -0.45355638305773027  4.7837257120991126 -0.53852088630083017  4.7295259273378178 -0.61911994545880589  4.6592358773486922 -0.69359219792568183  4.5689065558498756 -0.75875057239937527  4.4590247695785576 -0.81116779045765497 
 1.9737527902046699 11 3.1415926535897931 9 4.3094325169749164 11
1 6.2831853071795862 -6.2831853071795862 0 1 
1 0 -6.2831853071795862 0 1 
1 0 -1.5707963267948966 1 0 
1 3.1415926535897931 0 0 1 
1 3.1415926535897931 0 0 1 
1 0 1.5707963267948966 1 0 
7 0 0  9 10 2  4.2499976016775793 0.46489990634643685  4.3344755215027444 0.38777256924892517  4.4320803484060889 0.32534983155949249  4.5394569191266783 0.2810547232220415  4.6537421754183015 0.25773942091200297  4.771035785364802 0.25773942090927449  4.885321041700081 0.281054723222951  4.9926976123679196 0.3253498315584693  5.0903024392666332 0.38777256924892478  5.1747803590917991 0.46489990634643641 
 5.2167088527725225 10 7.3496617615866491 10
7 0 0  9 42 6  3.1415926535897927 -0.64767431844321965  3.1821152714887981 -0.69089844417830171  3.2241283544923238 -0.73412257807474268  3.2680411499190996 -0.77724399652110299  3.3143450533934811 -0.82014509012717296  3.3636764814198412 -0.86268467168196772  3.4168313724985637 -0.90468591255330466  3.4748707464168254 -0.94591654439392636  3.5392880432764269 -0.98604866103766453  3.666604416302095 -1.0534735241018791  3.7258564688418119 -1.0814679310219617  3.790623135624628 -1.108346754042941  3.8618567589437589 -1.1338439460050722  3.9406974521407392 -1.1576091036258731  4.0282103402569192 -1.1792168323318037  4.1255911859534535 -1.1980859108211916  4.2324838777116547 -1.2135697355927104  4.4328123123688545 -1.2338429394559098  4.5229316092318186 -1.2403381842532326  4.616500031806936 -1.2444226473926392  4.712204645969905 -1.2459214981245168  4.8082238986971788 -1.2447355707299721  4.9024111938051647 -1.2409134996159992  4.9932840911933454 -1.234621732004598  5.0798751576630341 -1.2260772078235496  5.2844277584087918 -1.1996762192783141  5.3964272410685226 -1.1792999720551052  5.4960292205068981 -1.1551851633703336  5.5839733514876571 -1.1282299214326486  5.6624059036257677 -1.0991119285899913  5.7327345120429527 -1.0683116218460782  5.796457738517347 -1.0362060002194085  5.8546719176782984 -1.003074124195191  5.9619534202166342 -0.93519883464217457  6.0110197779428383 -0.90045534466951738  6.0564389157361802 -0.86512579877576934  6.098925991742969 -0.82936766595296119  6.1390297008692869 -0.79330140695477291  6.1771838727648474 -0.75702371919904488  6.2137421322477815 -0.72061502993643145  6.2489943482204326 -0.68414467464618633  6.2831853071795942 -0.64767431844321954 
 5.2167088527725225 10 5.7499470799760548 8 6.149875750378702 8 6.4498222531806872 8 6.8997420073836651 8 7.3496617615866491 10
7 0 0  10 47 6  5.1747803590918044 0.46489990634643752  5.2117646145817229 0.49866609227738901  5.2462638663930292 0.53521612095302085  5.2780063582512149 0.57427569517073063  5.3067031519504484 0.61555302261845113  5.3320178418940074 0.65874537830283475  5.3535311913058345 0.70353543553151221  5.3706903168763329 0.74958472680492694  5.3827238197919529 0.79652053570609149  5.3884960326407843 0.84390146093488827  5.3845922911704438 0.92656161325951292  5.3784172994273831 0.96190487209150888  5.3670109735976439 0.99691645648272242  5.3494260727893561 1.0312957899295725  5.3245736532844603 1.0646854996157344  5.2908246935112402 1.0966048706904985  5.2466928182402626 1.1264724631037097  5.1897124029783299 1.1534553065666842  5.1189109984872578 1.1764668668002261  4.9736486179485437 1.2080497110454311  4.9045284552994417 1.2187928192834079  4.8292116549564525 1.2263239741369034  4.749249805288855 1.2302521033852827  4.6669959486462176 1.2302878737973515  4.586452036164701 1.2263488313183188  4.5106456922949292 1.2187430326957838  4.4411639428581111 1.2078569417517429  4.3787786064047625 1.1941327516074474  4.2408393455795697 1.1537834043622563  4.1742979935115727 1.12413905201538  4.1243996473203879 1.0904877725843107  4.0883615506463684 1.0541912691405741  4.0630504419095814 1.0161216723790858  4.0467475194018334 0.97692695648584049  4.0376128958014306 0.93710233065939974  4.0345590269935201 0.897035089063138  4.0366212559798624 0.85704994985115779  4.0495640246224882 0.77779991850201846  4.0604437804788152 0.73853506544786318  4.0750165570395787 0.69990862292975231  4.0927763840879674 0.66215393601229011  4.1133503938237697 0.62548046191305839  4.1364520445130131 0.59008400145130513  4.1618516305069901 0.55615131824470265  4.1893558441455578 0.52386222516563241  4.2187921360522598 0.49339012577652752  4.249997601677582 0.46489990634643752 
 1.066476454407064 11 2.1040345539984289 9 2.8822031286919554 9 3.4658295597120961 9 4.3412692062423073 9 5.2167088527725225 11
7 0 0  9 34 5  3.6848033855284568e-16 -0.64767431844321888  0.078847629259591823 -0.56357018051990204  0.15205180567787893 -0.47946618401745211  0.22260629155179382 -0.39611744324090142  0.29221935559801043 -0.31406831531320578  0.36221997495330371 -0.23385723187892735  0.43374374181752273 -0.15606135887037453  0.50779175386007702 -0.081335710545741902  0.58531784281199095 -0.010474876193477253  0.72836936827969712 0.10515782077867777  0.79204980028147431 0.15202304301077163  0.85841678520174958 0.19580840014271908  0.92771983075706688 0.23608399038132827  1.0001201319927431 0.27238351144046646  1.0756367410100058 0.30420974052219663  1.1540712191643157 0.33107203579633576  1.2349626565711584 0.35255088785162531  1.4417270618679356 0.39204304934424616  1.569869529481366 0.40295358778462287  1.6999056780114188 0.40007298108548639  1.8288158642753842 0.38299568124239158  1.9527776296818047 0.35229382825491484  2.069934801391355 0.30971707643857371  2.1799232185185247 0.25692804203072228  2.283035483164209 0.19557300199360619  2.477127270971212 0.058606338606368366  2.5681055785662465 -0.01700489721838494  2.6538170103522134 -0.098301352440557821  2.7355240096658235 -0.18402499430794705  2.814650351239834 -0.27316841172068962  2.8926434575187159 -0.3648991032214326  2.9713285700490815 -0.45844008631218003  3.052889070758245 -0.55305716337067945  3.1415926535897967 -0.64767431844321888 
 1.066476454407064 10 2.1040345539984275 8 2.8822031286919509 8 4.0494559907322367 8 5.2167088527725234 10
1 6.2831853071795862 -6.2831853071795862 0 1 
1 0 -6.2831853071795862 0 1 
1 0 -1.5707963267948966 1 0 
1 3.1415926535897931 0 0 1 
1 3.1415926535897931 0 0 1 
7 0 0  9 26 4  4.4590247695785568 -0.81116779045765541  4.4196826386978341 -0.82993527786250421  4.3778024573317946 -0.84704900172191877  4.3334058875078272 -0.8623449631356076  4.2865931361367178 -0.87565469824282138  4.2375636767942018 -0.88681214405490516  4.1866512689430238 -0.89566630554569804  4.1343234147872856 -0.90209857581313124  4.0811342231624881 -0.90603816581820007  3.9474448605945356 -0.9096020146455982  3.8665865386701626 -0.90608365911293731  3.7870254286463023 -0.89683751279881108  3.7108087869128212 -0.88204042003781069  3.6396595846890705 -0.8621562595544674  3.5742536590769305 -0.83780199453212845  3.5147824542236776 -0.8095672887825458  3.4610900767538402 -0.77800385104622938  3.3646333078326238 -0.70918647621031206  3.321868786407824 -0.67193259239601533  3.2842527670106088 -0.63231777627076247  3.2513025821093229 -0.59076126144736918  3.2225336893690031 -0.5476037526606079  3.1975154703274407 -0.5031229318906677  3.1758802482542499 -0.45755015001205973  3.1573217549575681 -0.4110792918397157  3.1415926535897922 -0.36387760856668461 
 4.3094325169749164 10 4.6857530934066123 8 5.2502339580541566 8 5.814714822701716 10
7 0 0  10 38 5  -6.232463610930495e-16 -1.0554259599044828  0.043749190595898317 -1.0837469701467364  0.09313839027981885 -1.1108634241518303  0.14906055655592354 -1.1365248177025933  0.21247159184713382 -1.1604187267221278  0.2845496564914356 -1.1821426451788284  0.36599592443963047 -1.2012109769857489  0.45780527094757417 -1.2170140310554416  0.55871367043164355 -1.228861901205164  0.66552295387931748 -1.2363173384739881  0.85623776167167676 -1.2414136810110719  0.93919347931604358 -1.2410422519653377  1.0217913979086461 -1.2380524868136944  1.102284734013665 -1.2324722478326293  1.1790046699697996 -1.2244425345907075  1.2509172968369966 -1.2141913812010898  1.317622601412495 -1.2019748161038024  1.3790622935983159 -1.188033836179136  1.4354204286061456 -1.1725934553384723  1.5643682317736278 -1.1307368986461601  1.6309838767117397 -1.102692768425513  1.6878711408504572 -1.0723872090260509  1.7366732488579146 -1.0403511988642549  1.7788379028459325 -1.0069638190977153  1.8154928440830189 -0.97249529995563844  1.8475425067722686 -0.93715116813768895  1.8757303954338702 -0.9010924661991595  1.900625009681161 -0.86443803966953237  1.9447756551756843 -0.79013378529165923  1.9640310117037003 -0.75248375615190977  1.9809358214038326 -0.71443250974352901  1.995847156160077 -0.67605122129175488  2.0090424541661678 -0.63739469949981253  2.0207414140537976 -0.59850652826119899  2.0311205139764015 -0.55942208240581326  2.0403228144752403 -0.52017059891501005  2.048464918136728 -0.48077679121919675  2.0556421734017807 -0.44126179943681199 
 4.3094325169749164 11 4.6857530934066149 9 4.9679935257303898 9 5.3913541742160547 9 5.8147148227017169 11
7 0 0  9 26 4  3.1415926535897922 0.36387760856668522  3.1625647886632322 0.42681318601319984  3.1885665044310372 0.48844954473361213  3.220188416999008 0.54839002936660108  3.2581837145844474 0.60615471351411543  3.303574738529278 0.6611320965566847  3.3574312706259661 0.71254712283007393  3.4211983817549481 0.75936799743885786  3.4956558435412655 0.80024170991409127  3.6222293170582978 0.8506480785211864  3.6669017775353359 0.86563282388527596  3.7139607282899001 0.87863468101303022  3.7632152723886572 0.88949006962997779  3.8143590577904738 0.89804611241975685  3.8669468041838022 0.90417698154275661  3.9204204953128721 0.90780072945522705  3.9741827331081248 0.90888924488011802  4.0811342231624863 0.90603816581820007  4.1343234147954213 0.90209857581304276  4.1866512689271076 0.89566630554535698  4.2375636768156255 0.88681214405419773  4.2865931361524821 0.87565469824272035  4.3334058874828161 0.86234496313632769  4.3778024573385146 0.847049001722184  4.4196826386978341 0.82993527786250432  4.4590247695785488 0.81116779045765597 
 0.4684704844778691 10 1.22111163734127 8 1.5974322137729682 8 1.9737527902046696 10
7 0 0  10 29 4  2.0556421734017802 0.44126179943681149  2.0428826086179881 0.51151067299065622  2.0270749242681632 0.58137673235705734  2.0076698484335793 0.65073925696196966  1.9839860544598196 0.71945313943433575  1.9547668927698396 0.78728359613160137  1.9189463276416063 0.85398959096346516  1.8735721014963929 0.91905332908936543  1.8162165096473473 0.98187416404016403  1.7397995731380558 1.0411606465385894  1.5850080252717518 1.1209296596056653  1.5267167436504678 1.1459927492305724  1.4607702083740151 1.1692067489784677  1.3861734000965953 1.1901788464456331  1.3020195806166157 1.2083947990613524  1.207965132110985 1.223310523055261  1.1042063701097504 1.2341876839927863  0.99463356758133159 1.2405106579190033  0.88348273421344592 1.2421417299449411  0.66552295387932059 1.2363173384739885  0.55871367043664577 1.2288619012579147  0.457805270976678 1.2170140306043322  0.36599592445054441 1.2012109787319787  0.28454965672426624 1.1821426444803365  0.21247159191625542 1.1604187283664942  0.14906055662140716 1.1365248172078282  0.093138390279364103 1.1108634242482367  0.043749190595899101 1.0837469701467368  -2.7731255774082e-16 1.0554259599044833 
 0.4684704844778691 11 1.2211116373412696 9 1.5974322137729695 9 1.9737527902046694 11
1 0 1.5707963267948966 1 0 
1 0 -1.5707963267948966 1 0 
7 0 0  8 9 2  2.0556421734017816 -0.44126179943681226  2.0754971846707089 -0.33194833868562967  2.0877574805908807 -0.22168118041669516  2.0946358917826728 -0.11095001139031524  2.0968216027504241 -5.6843418860808015e-14  2.0946358917835823 0.11095001139034366  2.0877574805908807 0.22168118041668095  2.0754971846707089 0.33194833868562929  2.055642173401778 0.44126179943681143 
 5.8147148227017169 9 6.7516557916574556 9
7 0 0  8 9 2  3.1415926535897936 -0.36387760856668527  3.112221606263776 -0.27573761578889067  3.0928727577106656 -0.18500886454147292  3.0818477159518807 -0.092837762924077083  3.0782509050495719 -1.4210854715202004e-13  3.0818477159482427 0.092837762924261824  3.0928727577143036 0.18500886454142318  3.1122216062637755 0.27573761578889033  3.1415926535897896 0.36387760856668494 
 5.8147148227017169 9 6.7516557916574556 9
1 0 1.5707963267948966 1 0 
1 6.2831853071795862 -6.2831853071795862 0 1 
1 0 -6.2831853071795862 0 1 
1 0 -1.5707963267948966 1 0 
1 3.1415926535897931 0 0 1 
1 3.1415926535897931 0 0 1 
1 0 -1.5707963267948966 1 0 
1 0 -1.5707963267948966 1 0 
1 0 1.5707963267948966 1 0 
Curves 14
2 0.21371681415929206 0.24424778761061949 0 0.65850460786851805 0.75257669470687782 0 -0.75257669470687782 0.65850460786851805 0 0 -0 1 0.945868987541573
2 0 0 0 -2.4492935982947064e-16 -1 0 1 -2.4492935982947064e-16 0 0 0 1 1
7 0 0  8 9 2  -1.1102230246251565e-16 -2.4651903288156619e-32 -1  -0.39269908169872153 4.8091767343044917e-17 -0.99999999999999967  -0.78540282094169278 9.6184105070752964e-17 -0.82371721549249899  -1.085784257205388 1.3297022151511942e-16 -0.47146844414511035  -1.201805729000238 1.4717875392170564e-16 -9.8809849191638837e-15  -1.0857842572053866 1.3297022151511954e-16 0.47146844414512662  -0.78540282094169511 9.6184105070752853e-17 0.82371721549249011  -0.3926990816987207 4.8091767343044966e-17 1.0000000000000024  -1.1102230246251565e-16 -2.4651903288156619e-32 1 
 -1.5707963267948966 9 1.5707963267948966 9
2 0 0 0 -2.4492935982947064e-16 -1 0 1 -2.4492935982947064e-16 0 0 0 1 1
2 0 -0.64948024948024941 0.60888773388773387 0 -0.72953720414008516 0.68394112888132985 0 -0.68394112888132985 -0.72953720414008516 1 0 0 0.45544608139288345
2 0 -0.64948024948024941 0.60888773388773387 0 -0.72953720414008516 0.68394112888132985 0 -0.68394112888132985 -0.72953720414008516 1 0 0 0.45544608139288345
2 0.69999999999999996 0.80000000000000004 0 -2.4492935982947064e-16 -1 0 1 -2.4492935982947064e-16 0 0 0 1 1.2
7 0 0  8 9 2  0.69999999999999951 0.80000000000000016 -1.1999999999999997  0.22876110196152849 0.80000000000000093 -1.1999999999999977  -0.2424833851300153 0.79999999999999782 -0.98846065859100385  -0.60294110864649542 0.80000000000000371 -0.5657621329741247  -0.74216687480025012 0.79999999999999649 -1.7208456881689911e-14  -0.60294110864649431 0.80000000000000293 0.56576213297415379  -0.2424833851300166 0.79999999999999849 0.98846065859098697  0.22876110196152913 0.80000000000000104 1.2000000000000037  0.69999999999999951 0.80000000000000016 1.1999999999999997 
 -1.5707963267948966 9 1.5707963267948966 9
2 0.21371681415929206 0.24424778761061949 0 0.65850460786851805 0.75257669470687782 0 -0.75257669470687782 0.65850460786851805 0 0 -0 1 0.945868987541573
2 0.21371681415929206 0.24424778761061949 0 0.65850460786851805 0.75257669470687782 0 -0.75257669470687782 0.65850460786851805 0 0 -0 1 0.945868987541573
7 0 0  8 9 2  0.69999999999999951 0.80000000000000016 -1.1999999999999997  0.22876110196152849 0.80000000000000093 -1.1999999999999977  -0.2424833851300153 0.79999999999999782 -0.98846065859100385  -0.60294110864649542 0.80000000000000371 -0.5657621329741247  -0.74216687480025012 0.79999999999999649 -1.7208456881689911e-14  -0.60294110864649431 0.80000000000000293 0.56576213297415379  -0.2424833851300166 0.79999999999999849 0.98846065859098697  0.22876110196152913 0.80000000000000104 1.2000000000000037  0.69999999999999951 0.80000000000000016 1.1999999999999997 
 -1.5707963267948966 9 1.5707963267948966 9
2 0.21371681415929206 0.24424778761061949 0 0.65850460786851805 0.75257669470687782 0 -0.75257669470687782 0.65850460786851805 0 0 -0 1 0.945868987541573
2 0 -0.80000000000000004 0.75 -2.4492935982947064e-16 -1 0 1 -2.4492935982947064e-16 0 0 0 1 0.5
7 0 0  7 8 2  -1.1102230246251565e-16 -0.80000000000000004 0.25  -0.22439947525641543 -0.8000000000000016 0.25000000000000383  -0.44860247963703276 -0.7999999999999915 0.36752185633832113  -0.60023228945838247 -0.80000000000001603 0.60231213088092983  -0.60023228945836171 -0.79999999999998461 0.89768786911907239  -0.44860247963704403 -0.80000000000000815 1.132478143661676  -0.22439947525641266 -0.79999999999999782 1.2499999999999976  -1.1102230246251565e-16 -0.80000000000000004 1.25 
 -1.5707963267948966 8 1.5707963267948966 8
Polygon3D 0
PolygonOnTriangulations 0
Surfaces 6
10 3.1415926535897931 6.2831853071795862 -1.5707963267948966 1.5707963267948966
4 0 0 0 0 0 1 1 0 -0 -0 1 0 1
10 3.1415926535897931 6.2831853071795862 -1.5707963267948966 1.5707963267948966
4 0.69999999999999996 0.80000000000000004 0 0 0 1 1 0 -0 -0 1 0 1.2
10 0 3.1415926535897931 -1.5707963267948966 1.5707963267948966
4 0 0 0 0 0 1 1 0 -0 -0 1 0 1
10 3.1415926535897931 6.2831853071795862 -1.5707963267948966 1.5707963267948966
4 0 -0.80000000000000004 0.75 0 0 1 1 0 -0 -0 1 0 0.5
10 0 3.1415926535897931 -1.5707963267948966 1.5707963267948966
4 0 -0.80000000000000004 0.75 0 0 1 1 0 -0 -0 1 0 0.5
10 0 3.1415926535897931 -1.5707963267948966 1.5707963267948966
4 0.69999999999999996 0.80000000000000004 0 0 0 1 1 0 -0 -0 1 0 1.2
Triangulations 0

TShapes 51
Ve
2.00001e-07
0.492857142857143 -1.20715184487382e-16 0.870110244012041
0 0

0101101
*
Ve
2.00001e-07
0.492857142857143 -1.20715184487382e-16 -0.870110244012041
0 0

0101101
*
Ed
 1e-07 1 1 0
1  1 0 1.97375279020467 4.30943251697492
2  1 1 0 1.97375279020467 4.30943251697492
2  2 2 0 1.97375279020467 4.30943251697492
0

0101000
+51 0 -50 0 *
Ve
1e-05
6.12323399573677e-17 -1.49975978266186e-32 -1
0 0

0101101
*
Ed
 1e-07 1 1 0
1  2 0 4.71238898038469 5.2277593472751
2  3 1 0 4.71238898038469 5.2277593472751
2  4 3 0 4.71238898038469 5.2277593472751
0

0101000
+48 0 -50 0 *
Ed
 1e-07 1 1 1
2  5 1 0 3.14159265358979 6.28318530717959
0

0101100
+48 0 -48 0 *
Ve
1e-05
6.12323399573677e-17 -1.49975978266186e-32 1
0 0

0101101
*
Ed
 1e-05 1 1 0
1  3 0 -1.5707963267949 1.5707963267949
2  6 1 0 -1.5707963267949 1.5707963267949
2  7 3 0 -1.5707963267949 1.5707963267949
0

0101000
-45 0 +48 0 *
Ed
 1e-07 1 1 1
2  8 1 0 3.14159265358979 6.28318530717959
0

0101100
-45 0 +45 0 *
Ed
 1e-07 1 1 0
1  4 0 7.33861126708407 7.85398163397448
2  3 1 0 7.33861126708407 7.85398163397448
2  4 3 0 7.33861126708407 7.85398163397448
0

0101000
+51 0 -45 0 *
Wi

0101000
-49 0 +47 0 +46 0 -44 0 -43 0 +42 0 *
Ve
1.0100001e-05
-0.398748847177139 -0.8 0.448329518183783
0 0

0101101
*
Ve
2.00001e-07
0.398744557608279 -0.8 0.448333333333333
0 0

0101101
*
Ed
 1.02752479670642e-07 1 1 0
1  5 0 5.21670885277252 7.34966176158665
2  9 1 0 5.21670885277252 7.34966176158665
2  10 4 0 5.21670885277252 7.34966176158665
0

0101000
+40 0 -39 0 *
Ed
 1e-07 1 1 0
1  6 0 1.06647645440706 5.21670885277252
2  11 1 0 1.06647645440706 5.21670885277252
2  12 5 0 1.06647645440706 5.21670885277252
0

0101000
+39 0 -40 0 *
Wi

0101000
-38 0 -37 0 *
Fa
0  1e-07 1 0

0111000
+41 0 +36 0 *
Ve
1e-05
0.7 0.8 -1.2
0 0

0101101
*
Ve
1e-05
0.7 0.8 1.2
0 0

0101101
*
Ed
 1e-07 1 1 0
1  7 0 4.71238898038469 7.85398163397448
2  13 2 0 4.71238898038469 7.85398163397448
2  14 6 0 4.71238898038469 7.85398163397448
0

0101000
+34 0 -33 0 *
Ed
 1e-07 1 1 1
2  15 2 0 3.14159265358979 6.28318530717959
0

0101100
+34 0 -34 0 *
Ve
1.0100001e-05
-0.42142797577621 0.8 -0.427081328593472
0 0

0101101
*
Ed
 1e-05 1 1 0
1  8 0 -1.5707963267949 -0.363879139089874
2  16 2 0 -1.5707963267949 -0.363879139089874
2  17 6 0 -1.5707963267949 -0.363879139089874
0

0101000
+34 0 -30 0 *
Ed
 1e-07 1 1 0
1  9 0 4.30943251697492 5.81471482270172
2  18 2 0 4.30943251697492 5.81471482270172
2  19 3 0 4.30943251697492 5.81471482270172
0

0101000
+50 0 -30 0 *
Ve
1.0100001e-05
-0.421427975776211 0.8 0.427081328593472
0 0

0101101
*
Ed
 1e-07 1 1 0
1  10 0 0.468470484477869 1.97375279020467
2  20 2 0 0.468470484477869 1.97375279020467
2  21 3 0 0.468470484477869 1.97375279020467
0

0101000
+27 0 -51 0 *
Ed
 1e-05 1 1 0
1  11 0 0.363879139089874 1.5707963267949
2  16 2 0 0.363879139089874 1.5707963267949
2  17 6 0 0.363879139089874 1.5707963267949
0

0101000
+27 0 -33 0 *
Ed
 1e-07 1 1 1
2  22 2 0 3.14159265358979 6.28318530717959
0

0101100
-33 0 +33 0 *
Wi

0101000
+32 0 +31 0 -29 0 +28 0 +49 0 +26 0 -25 0 -24 0 *
Fa
0  1e-07 2 0

0111000
+23 0 *
Ed
 1e-07 1 1 1
2  23 3 0 0 3.14159265358979
0

0101100
+48 0 -48 0 *
Ed
 1e-07 1 1 0
1  12 0 5.81471482270172 6.75165579165746
2  24 3 0 5.81471482270172 6.75165579165746
2  25 6 0 5.81471482270172 6.75165579165746
0

0101000
+30 0 -27 0 *
Ed
 1e-07 1 1 1
2  26 3 0 0 3.14159265358979
0

0101100
-45 0 +45 0 *
Wi

0101000
+44 0 +21 0 -47 0 -28 0 -20 0 -26 0 -42 0 -19 0 *
Fa
0  1e-07 3 0

0111000
+18 0 *
Ve
1e-05
3.06161699786838e-17 -0.8 0.25
0 0

0101101
*
Ed
 1e-07 1 1 0
1  13 0 4.71238898038469 5.63551098873637
2  27 4 0 4.71238898038469 5.63551098873637
2  28 5 0 4.71238898038469 5.63551098873637
0

0101000
+16 0 -39 0 *
Ed
 1e-07 1 1 1
2  29 4 0 3.14159265358979 6.28318530717959
0

0101100
+16 0 -16 0 *
Ed
 1e-05 1 1 0
1  14 0 -1.5707963267949 -0.647683224034977
2  30 4 0 -1.5707963267949 -0.647683224034977
2  31 5 0 -1.5707963267949 -0.647683224034977
0

0101000
+16 0 -40 0 *
Wi

0101000
-38 0 +15 0 +14 0 -13 0 *
Fa
0  1e-07 4 0

0111000
+12 0 *
Ed
 1e-07 1 1 1
2  32 5 0 0 3.14159265358979
0

0101100
+16 0 -16 0 *
Wi

0101000
-37 0 +13 0 +10 0 -15 0 *
Fa
0  1e-07 5 0

0111000
+9 0 *
Ed
 1e-07 1 1 1
2  33 6 0 0 3.14159265358979
0

0101100
+34 0 -34 0 *
Ed
 1e-07 1 1 1
2  34 6 0 0 3.14159265358979
0

0101100
-33 0 +33 0 *
Wi

0101000
+25 0 +20 0 +29 0 +7 0 -32 0 -6 0 *
Fa
0  1e-07 6 0

0111000
+5 0 *
Sh

0101100
+35 0 +22 0 +17 0 -11 0 -8 0 +4 0 *
So

0100000
+3 0 *
Co

1100000
+2 0 *

+1 0 
##EGADS HEADER FILE-REV 1 ##
0
  1  1  6  7  24  11  3
1 5 1
_body
5
1 5 1
_brch
5
2 8 3
_tParams
 1.247668513338e-01  4.990674053351e-03  1.500000000000e+01 
    2 0 4
1 5 2
_body
1 0 
1 5 2
_brch
1 0 
1 5 3
_hist
1 3 5 
1 7 3
_faceID
1 0 2 
    2 1 4
1 5 2
_body
2 0 
1 5 2
_brch
2 0 
1 5 3
_hist
2 3 5 
1 7 3
_faceID
2 0 2 
    2 2 4
1 5 2
_body
1 0 
1 5 2
_brch
1 0 
1 5 3
_hist
1 3 5 
1 7 3
_faceID
1 0 1 
    2 3 4
1 5 2
_body
4 0 
1 5 2
_brch
4 0 
1 5 2
_hist
4 5 
1 7 3
_faceID
4 0 1 
    2 4 4
1 5 2
_body
4 0 
1 5 2
_brch
4 0 
1 5 2
_hist
4 5 
1 7 3
_faceID
4 0 2 
    2 5 4
1 5 2
_body
2 0 
1 5 2
_brch
2 0 
1 5 3
_hist
2 3 5 
1 7 3
_faceID
2 0 1 
    4 0 3
1 5 2
_body
3 0 
1 6 1
_nface
2
1 7 5
_edgeID
1 0 2 0 4 
    4 1 3
1 5 2
_body
1 0 
1 6 1
_nface
2
1 7 5
_edgeID
1 0 1 0 1 
    4 2 3
1 5 2
_body
1 -3 
1 6 1
_nface
1
1 7 5
_edgeID
0 0 1 0 1 
    4 3 3
1 5 2
_body
1 0 
1 6 1
_nface
2
1 7 5
_edgeID
1 0 1 0 2 
    4 4 3
1 5 2
_body
1 -3 
1 6 1
_nface
1
1 7 5
_edgeID
0 0 1 0 2 
    4 5 3
1 5 2
_body
1 0 
1 6 1
_nface
2
1 7 5
_edgeID
1 0 1 0 3 
    4 6 3
1 5 2
_body
5 0 
1 7 5
_edgeID
1 0 4 0 1 
1 6 1
_nface
2
    4 7 3
1 5 2
_body
5 0 
1 7 5
_edgeID
1 0 4 0 2 
1 6 1
_nface
2
    4 8 3
1 5 2
_body
2 0 
1 6 1
_nface
2
1 7 5
_edgeID
2 0 2 0 3 
    4 9 3
1 5 2
_body
2 -3 
1 6 1
_nface
1
1 7 5
_edgeID
0 0 2 0 1 
    4 10 3
1 5 2
_body
2 0 
1 6 1
_nface
2
1 7 5
_edgeID
2 0 2 0 1 
    4 11 3
1 5 2
_body
3 0 
1 6 1
_nface
2
1 7 5
_edgeID
1 0 2 0 2 
    4 12 3
1 5 2
_body
3 0 
1 6 1
_nface
2
1 7 5
_edgeID
1 0 2 0 3 
    4 13 3
1 5 2
_body
2 0 
1 6 1
_nface
2
1 7 5
_edgeID
2 0 2 0 2 
    4 14 3
1 5 2
_body
2 -3 
1 6 1
_nface
1
1 7 5
_edgeID
0 0 2 0 3 
    4 15 3
1 5 2
_body
1 -3 
1 6 1
_nface
1
1 7 5
_edgeID
0 0 1 0 3 
    4 16 3
1 5 2
_body
3 0 
1 6 1
_nface
2
1 7 5
_edgeID
1 0 2 0 1 
    4 17 3
1 5 2
_body
1 -3 
1 6 1
_nface
1
1 7 5
_edgeID
0 0 1 0 4 
    4 18 3
1 5 2
_body
4 0 
1 7 5
_edgeID
4 0 4 0 2 
1 6 1
_nface
2
    4 19 3
1 5 2
_body
4 -3 
1 6 1
_nface
1
1 7 5
_edgeID
0 0 4 0 1 
    4 20 3
1 5 2
_body
4 0 
1 7 5
_edgeID
4 0 4 0 1 
1 6 1
_nface
2
    4 21 3
1 5 2
_body
4 -3 
1 6 1
_nface
1
1 7 5
_edgeID
0 0 4 0 2 
    4 22 3
1 5 2
_body
2 -3 
1 6 1
_nface
1
1 7 5
_edgeID
0 0 2 0 2 
    4 23 3
1 5 2
_body
2 -3 
1 6 1
_nface
1
1 7 5
_edgeID
0 0 2 0 4 
    5 0 2
1 7 1
_nodeID
1
1 6 1
_nedge
3
    5 1 2
1 7 1
_nodeID
2
1 6 1
_nedge
3
    5 2 2
1 7 1
_nodeID
3
1 6 1
_nedge
4
    5 3 2
1 7 1
_nodeID
4
1 6 1
_nedge
4
    5 4 2
1 7 1
_nodeID
5
1 6 1
_nedge
3
    5 5 2
1 7 1
_nodeID
6
1 6 1
_nedge
3
    5 6 2
1 7 1
_nodeID
7
1 6 1
_nedge
4
    5 7 2
1 7 1
_nodeID
8
1 6 1
_nedge
4
    5 8 2
1 7 1
_nodeID
9
1 6 1
_nedge
3
    5 9 2
1 7 1
_nodeID
10
1 6 1
_nedge
3
    5 10 2
1 7 1
_nodeID
11
1 6 1
_nedge
4
    0 0 0
