DBRep_DrawableShape

CASCADE Topology V1, (c) Matra-Datavision
Locations 2
1
              1               0               0               0 
              0               1               0            -1.4 
              0               0               1               0 
2  1 -1 0
Curve2ds 28
1 6.2831853071795862 -6.2831853071795862 0 1 
1 0 -6.2831853071795862 0 1 
1 0 -1.5707963267948966 1 0 
1 3.1415926535897931 0 0 1 
1 3.1415926535897931 0 0 1 
1 0 1.5707963267948966 1 0 
7 0 0  10 65 8  4.7123889803846906 -0.7751933733103612  4.7893419711497014 -0.77519337323340831  4.8662946475953808 -0.76847779498232405  4.941324315554084 -0.75504810297329639  5.0124986398150213 -0.73518538602038463  5.0783086708834162 -0.70947768781479681  5.1380848697357582 -0.67865732056670824  5.1917566346504831 -0.64344893306488304  5.2394576118511527 -0.60450571569753409  5.2815138963031192 -0.56241514823803918  5.3826209553008653 -0.43941310201958722  5.4307617595771003 -0.35306196501715181  5.4646296696715577 -0.26137403517044933  5.4865895476075819 -0.16638861968667129  5.4979948516120203 -0.069528168733143048  5.4994470468373038 0.027999961882215985  5.4910044453794402 0.12504249780082971  5.4720127538584631 0.22040238950846183  5.440982363521492 0.31253763347695684  5.3622834625582003 0.46445661091154344  5.3207146493150503 0.52657008291134844  5.2705016520922072 0.58479868060749141  5.2107516049873084 0.63809867043164559  5.1404545117402449 0.68511695493361913  5.0593025295529515 0.72442249846062623  4.9669512000400573 0.75404223903024103  4.8672918375887093 0.77239927689606702  4.764996175004093 0.77896400444608882  4.5888647793805006 0.77030122988698202  4.5143076056595834 0.7601116194368206  4.4424792013584007 0.74356484644488319  4.3750540861510672 0.7210394202418684  4.3131682268940494 0.69316074257312721  4.2572290907293793 0.66063534073327901  4.2071819925073211 0.62413497065008416  4.162822194405237 0.58426245140242483  4.1238055823343034 0.54155157035165258  4.0387472447620159 0.42883849974332033  3.9989468792843477 0.35586803217833052  3.9691827819451113 0.27912586280009555  3.9481564430175546 0.19982576201924476  3.9349649988827076 0.11890400264919918  3.9291100731255333 0.037135739362912534  3.930412084500877 -0.044763756975821099  3.9390150128186718 -0.12606707463543654  3.9554591921664608 -0.20596810584866029  3.9931588228005594 -0.32220507157645989  4.0078977421595727 -0.36034838568790473  4.0249152590978534 -0.39776370976175263  4.0443379452453883 -0.43431338283662635  4.0663094529473813 -0.46984448936559098  4.0909875425688984 -0.50418578990210494  4.1185362301930342 -0.53714446209765954  4.149109338800085 -0.56850369385722044  4.1828231951635155 -0.59802357524957084  4.2566121525305629 -0.65287470579172524  4.2966870236517636 -0.67820598482417371  4.3399840940354686 -0.70118782716961403  4.3864630282396933 -0.72155059853738135  4.4359819901603448 -0.73901686210476536  4.4882366726321674 -0.75331651865091476  4.5427239557025274 -0.76421269299166472  4.598763320283342 -0.77153302266102231  4.6555760299150268 -0.7751933732535482  4.7123889803846959 -0.77519337331036231 
 0 11 0.78539816339744251 9 2.159844949342963 9 3.1906800388021095 9 3.9638063558964718 9 5.1234958315380164 9 5.7033405693587884 9 6.2831853071795862 11
7 0 0  10 137 16  4.7123889803846888 -1.3694384060045659  4.8085802225151912 -1.3694384059083742  4.9047703876059972 -1.3673397564248329  4.9984444359612095 -1.3631432130076973  5.087048605372547 -1.3569510831854132  5.1687821898885886 -1.3489821940893307  5.2431655439781029 -1.3394909013470169  5.3104930560806682 -1.3287103309022315  5.3711731274967907 -1.3168401744495224  5.4258567416362702 -1.3040514948223634  5.5706909672160778 -1.2642003270890163  5.6460344535371405 -1.2349963003807716  5.7057673062954564 -1.2039008877327433  5.7547035898314789 -1.1715333791507874  5.7952373083680868 -1.1382148661068641  5.8294947397662327 -1.1042006378265796  5.8587019008700736 -1.0696351684673573  5.8839011276650126 -1.0346395353608386  5.9058154759276054 -0.99929546497146171  5.961011227031471 -0.89686349378808217  5.9874601153681812 -0.82905998349023524  6.0080844627980694 -0.76067420767790284  6.0244801739114333 -0.69187493594690752  6.0377112436399329 -0.62278022486407281  6.0484626917168498 -0.55346677636407549  6.0571645849155171 -0.48398365345512956  6.0641649587407329 -0.41437511072688443  6.0696770281233752 -0.34467086767248645  6.0775155245496126 -0.21384643700583159  6.0801537188160006 -0.15274232316062311  6.0818748745799915 -0.091603153976098944  6.082739244063486 -0.03044350208303967  6.0827766840152941 0.030723604929303549  6.0819908428570981 0.091885652310283658  6.0803596604175167 0.15302987466892029  6.0778332684591359 0.21414246348226959  6.0743272584310137 0.27520738904664077  6.0656627009482422 0.38957682493309431  6.060765354514813 0.44289722712511814  6.0549242895968769 0.49615219510884057  6.0480162591634627 0.54932535561008533  6.0398846327920594 0.60239748218817912  6.0303171406360585 0.65534381151389132  6.0190244911352178 0.70813166446336451  6.0056116423147987 0.76071748349156321  5.9895021251593636 0.81303843355319272  5.9611004472623366 0.88771845043299269  5.9517581382718534 0.91037639526702385  5.9416377138295662 0.9329547984201898  5.9306454293589921 0.95544329562377839  5.9186702282099262 0.97782957677544713  5.9055791990285789 1.000098801638281  5.8912114660603789 1.0222328434367252  5.8753695295269681 1.0442092095302125  5.8578064776818701 1.0659992926186408  5.8198322893590744 1.1077836454464265  5.7996679420511308 1.1278050478275838  5.7774527985563164 1.1475984847397647  5.7528771624608153 1.1671260827271603  5.7255579215610251 1.1863403414071299  5.6950318358277094 1.205181700467407  5.6607320810936157 1.2235741556764754  5.6219506083793434 1.2414179135744705  5.577826246435694 1.2585794682453155  5.4801948392833584 1.2901634482966968  5.4274470386080793 1.3046900749359338  5.3684299044252839 1.3183139604952885  5.3023573074024171 1.3308560590958223  5.2284046156564727 1.342091385711683  5.1461502158781514 1.351762439502636  5.0553247810748871 1.3595528984005796  4.9576337772086845 1.3651599749409797  4.8559097666846913 1.3684112763197238  4.6569258405831357 1.3700716175759917  4.5597850957292199 1.3687705230278226  4.4642989375246547 1.3653344329635275  4.37317324084579 1.3598332894594933  4.2885986625333317 1.3524656304671225  4.2113522921106776 1.3434862369074836  4.1412766193430794 1.3331383530314269  4.078044400473205 1.3216301016496288  4.021034001948907 1.3091436336430062  3.8732491420237789 1.2708635878416736  3.7965756953308301 1.2429864378036655  3.7354886608663946 1.2131899848900503  3.6853221979690716 1.1820967413223116  3.6436505919555202 1.1500313076830935  3.6083886668784544 1.1172518314851914  3.5782694473164156 1.0839065180698526  3.5522524013867951 1.050118525425205  3.5295974178675014 1.0159717108382547  3.4749499887141448 0.9212614835812184  3.4486982134507391 0.86009313397783971  3.4278831225460635 0.79837497893654474  3.4110508000187112 0.73626188255148006  3.3972401106584584 0.67385979259506712  3.3858132712251972 0.61123924353851178  3.3763478902759743 0.5484472416909284  3.3685133507250655 0.48552367420935633  3.3620873771173949 0.42249653503195217  3.3491242051024743 0.2647299971119515  3.3441388688767271 0.16989127035270585  3.3413832367354943 0.074953243411106901  3.3406248953508113 -0.020029527913792818  3.3417700697712767 -0.11501360486149932  3.3448654521546515 -0.20995471671321489  3.3501146354513622 -0.30480265457863531  3.3578825202527427 -0.39949803884801938  3.368813466207591 -0.49395606127950975  3.3921053107967891 -0.63504052853033122  3.4010190258266375 -0.6819681600365346  3.4112605887195451 -0.72877499787808042  3.4230665371889701 -0.77543410009302538  3.4367317993395163 -0.82191342545143531  3.4526582126538408 -0.86816902925300687  3.4713999026536784 -0.91413985020894262  3.4937271492351547 -0.95974185679614243  3.520803722284243 -1.0048471212998555  3.5715671715337054 -1.0714082237335671  3.5901796380158522 -1.0934124470043982  3.6107371278655087 -1.115204415764695  3.6335424150535496 -1.1367480819768994  3.6589748824763872 -1.1579980851214109  3.6874990848288385 -1.1788970263581178  3.7196926400382595 -1.1993709174589615  3.7562954116298832 -1.2193214744201444  3.7982455994850333 -1.2386144030430131  3.8950184236060612 -1.2755121992630896  3.949839522192633 -1.2931171745985921  4.0121961544791702 -1.3096909866580972  4.0832453882903792 -1.3250002376444172  4.1645261206431314 -1.338727960945107  4.256650690222159 -1.3505131354904734  4.361101701244479 -1.3598568257293664  4.4750408000254538 -1.3662440418574988  4.593714567175998 -1.3694384058858915  4.7123889803846879 -1.3694384060045659 
 0 11 0.1963495408493513 9 0.5767767762449737 9 1.290077842611776 9 1.9142162756827297 9 2.4603374046198061 9 2.6992653985297794 9 2.9232603928203957 9 3.1332556999678469 9 3.3301263004185806 9 3.6992586762637063 9 4.3452403339926766 9 5.314212820586131 9 5.7986990638828573 9 6.0409421855312244 9 6.2831853071795871 11
1 0 -1.5707963267948966 1 0 
1 0 1.5707963267948966 1 0 
7 0 0  8 9 2  1.4935764350928944 -0.0028571467444260929  1.4972357524831112 0.040445387343029285  1.5007287404951057 0.083761932396640759  1.5040763301058178 0.12709086280460724  1.5072961514833878 0.17043083236671919  1.5104035201766237 0.21378069786396736  1.5134120491666181 0.25713947420510408  1.5163341392432375 0.30050630130825906  1.5191814549755505 0.34388042094328725 
 4.7030544635284883 9 5.0517347860291819 9
7 0 0  8 9 2  1.1403451787521672 -0.025717120377065521  1.1845182854537897 -0.023020341680857738  1.228684070259078 -0.020261050668516134  1.2728433172733276 -0.017447277842279618  1.3169969347482038 -0.014587306853030668  1.3611459365665723 -0.011689624802023957  1.4052914176943432 -0.0087628707200035905  1.4494345261480641 -0.0058157830509959103  1.4935764350928924 -0.0028571467444263839 
 4.2812241198000622 9 4.6351512309203677 9
7 0 0  8 9 2  1.4664072968902009 -0.16069065295191085  1.425581022801965 -0.1432155493463565  1.3848493846079464 -0.12582587169148951  1.3441727733006701 -0.1085657729342131  1.3035128923584125 -0.091478786566142389  1.2628332141493956 -0.074607955593819497  1.2220993790895136 -0.057995934698624296  1.1812796163918851 -0.04168502557809442  1.1403451787521663 -0.025717120377065625 
 4.7446870286851404 9 5.1024431732171287 9
7 0 0  8 9 2  1.356308295865037 -0.51045171468146622  1.3727531344882251 -0.467183471989215  1.3881304021695087 -0.42373808648920885  1.4026322827012336 -0.38014680268940992  1.4164071887662431 -0.3364332159942478  1.4295763773698127 -0.29261628181347987  1.4422418817525795 -0.2487116325978036  1.4544923705477097 -0.20473255967749707  1.4664072968902 -0.16069065295191071 
 4.165412129054995 9 4.5307663570893686 9
7 0 0  8 9 2  1.6089849624491539 -0.23354586369837776  1.5791142177879605 -0.26835173155835679  1.5490167082996322 -0.30320299656636962  1.5185742918511096 -0.33805273821985793  1.4876609100938367 -0.37285269138806143  1.4561395307127896 -0.40755180411929359  1.4238585188738853 -0.44209452722054721  1.3906467271546468 -0.47641859264545916  1.3563082958650388 -0.51045171468146511 
 4.8660446866499534 9 5.2347811256612671 9
7 0 0  8 9 2  1.9362376428741259 -0.42402088376088515  1.8931862044119501 -0.40123321800456396  1.8509142211662493 -0.37801655393391798  1.8093386092068613 -0.35444431132009413  1.7683746385118866 -0.33058555283628266  1.7279383155682808 -0.30650545252410666  1.6879474464303712 -0.28226603339624035  1.6483221194965536 -0.25792688810498648  1.6089849624491546 -0.23354586369837779 
 4.1864745150554228 9 4.555284833653694 9
7 0 0  8 9 2  1.7239248358019867 -0.12028988239478809  1.7481611283957457 -0.15914409843883007  1.7727976749431491 -0.19783221523070438  1.7979515086344691 -0.23631625548182456  1.8237461492572038 -0.274554914926739  1.8503152046978357 -0.31250210329631045  1.8778060138124602 -0.3501052008886063  1.9063842298186635 -0.38730271189964621  1.9362376428741284 -0.42402088376088576 
 4.8945282700022474 9 5.260994494260709 9
7 0 0  8 9 2  1.9969633356040539 0.097296294846370202  1.9617390940483592 0.071382705814775335  1.9269684041175879 0.044995522067896587  1.8925842599137468 0.018190851314216161  1.858516593954846 -0.0089778556340007754  1.8246929592341985 -0.036459397980692643  1.7910385992529427 -0.064204237446929824  1.7574761112554986 -0.092163835544604486  1.7239248358019899 -0.1202898823947879 
 4.3171756634568244 9 4.6723513038763507 9
7 0 0  8 9 2  1.6509028802200727 0.022859133607034756  1.6940119368541202 0.032486575034331888  1.7371403451691094 0.042075938627903042  1.7803002111786554 0.051599941356869294  1.8235033926030155 0.061031384540058298  1.866761238896288 0.070343253025640706  1.9100843339606399 0.07950881863757786  1.9534822506310432 0.088501758879390227  1.9969633356040555 0.097296294846369924 
 4.7955480388115737 9 5.1488322843887895 9
7 0 0  8 9 2  1.5191814549755489 0.34388042094328763  1.5363528926877625 0.30377304172968733  1.5531353144133391 0.26362500194835548  1.5696347899956891 0.22345539566993011  1.5859435755010054 0.18328127865049737  1.6021457917895532 0.14311869827918144  1.6183209415025885 0.10298335516907287  1.634546911452198 0.062891208682132521  1.6509028802200743 0.022859133607034534 
 4.3744238451405142 9 4.7215557766024645 9
1 6.2831853071795862 -6.2831853071795862 0 1 
1 0 -6.2831853071795862 0 1 
1 0 -1.5707963267948966 1 0 
1 3.1415926535897931 0 0 1 
1 3.1415926535897931 0 0 1 
1 0 1.5707963267948966 1 0 
1 0 1.5707963267948966 1 0 
1 0 -1.5707963267948966 1 0 
Curves 35
2 0.5 0 0 -2.4492935982947064e-16 -1 0 1 -2.4492935982947064e-16 0 0 0 1 3.5
7 0 0  8 9 2  0.49999999999999956 9.8607613152626476e-32 -3.5000000000000004  -0.87444678594553948 1.6832118570065709e-16 -3.5  -2.2489098732958825 3.3664436774763683e-16 -2.8830102542237435  -3.3002449002189258 4.6539577530291529e-16 -1.6501395545078981  -3.7063200515007595 5.1512563872597302e-16 -1.0214051826551431e-14  -3.3002449002189174 4.6539577530291608e-16 1.6501395545079132  -2.2489098732958932 3.3664436774763624e-16 2.8830102542237377  -0.87444678594553515 1.6832118570065726e-16 3.5000000000000022  0.49999999999999956 9.8607613152626476e-32 3.5 
 -1.5707963267948966 9 1.5707963267948966 9
2 0.5 -2.5 0 0 -1 0 0 -0 -1 1 0 0 2.4494897427831779
2 0.76727228104621004 0 0.022459855550101677 0.99648776661502136 0 0.083738467782774897 -0.083738467782774897 0 0.99648776661502136 0 -1 0 3.4897078792748575
2 0.5005455184534271 0 0.0081145869947275972 0.067075489304050981 0 0.99774790339775821 -0.99774790339775821 0 0.067075489304050981 0 -1 0 3.4999905508283193
2 0.75791040603815785 0 -0.60362009923824167 0.39291012110643497 0 -0.9195768791852732 0.9195768791852732 0 0.39291012110643497 0 -1 0 3.4378954315471622
2 0.70570169202331867 0 0.051872600597184688 0.9696444897556934 0 0.24451904524274001 -0.24451904524274001 0 0.9696444897556934 0 -1 0 3.4935649481877431
2 0.024873096446700493 0 -0.41177664974619288 -0.75568908278981761 -0 -0.65493053841784188 0.65493053841784188 0 -0.75568908278981761 0 -1 0 3.4430646837147361
2 0.82731545518701477 0 -0.52474382498235728 0.52924361147045174 0 -0.84846991680183548 0.84846991680183548 0 0.52924361147045174 0 -1 0 3.4449250370564819
2 0.29462796460176993 0 0.12282053097345132 -0.85823445029980938 0 0.51325785753223896 -0.51325785753223896 0 -0.85823445029980938 -0 -1 0 3.4918100527158957
2 0.075585117734936313 0 -0.50818097744895774 -0.64101363849819815 -0 -0.76752948820178979 0.76752948820178979 0 -0.64101363849819815 0 -1 0 3.4368043444268039
2 0.50367959241437876 0 0.016416643079535793 0.21871145691738078 0 0.97578957701600644 -0.97578957701600644 0 0.21871145691738078 0 -1 0 3.49995956468495
2 0.2321061946902655 0 0.10959292035398233 -0.92554695620567673 0 0.37863284572050421 -0.37863284572050421 0 -0.92554695620567673 -0 -1 0 3.488011224306045
2 0.5 -2 0 -2.4492935982947064e-16 -1 0 1 -2.4492935982947064e-16 0 0 0 1 2.5
7 0 0  8 9 2  0.5 -2 -2.5000000000000009  -0.48174770424680419 -1.9999999999999964 -2.499999999999996  -1.4635070523542295 -2.0000000000000102 -2.05929303873125  -2.2144606430134783 -1.9999999999999802 -1.1786711103627847  -2.5045143225005786 -2.0000000000000235 -2.6645352591003733e-15  -2.2144606430134868 -1.9999999999999829 1.1786711103627892  -1.4635070523542222 -2.0000000000000071 2.0592930387312469  -0.48174770424680691 -1.9999999999999987 2.4999999999999973  0.5 -2 2.5 
 -1.5707963267948966 9 1.5707963267948966 9
1 0.77000000000000002 3.7000000000000002 -0.01 0 -1 0 
1 0.67000000000000004 3.7000000000000002 1.1799999999999999 0.083738467782774884 0 -0.99648776661502125 
1 0.67000000000000004 3.7000000000000002 1.1799999999999999 0 -1 0 
1 1.96 3.7000000000000002 -0.089999999999999997 0 -1 0 
1 0.77000000000000002 3.7000000000000002 -0.01 0.9977479033977581 0 -0.067075489304050967 
1 0.85999999999999999 3.7000000000000002 -0.56000000000000005 0 -1 0 
1 1.96 3.7000000000000002 -0.089999999999999997 -0.9195768791852732 0 -0.39291012110643497 
1 1.1499999999999999 3.7000000000000002 -1.71 0 -1 0 
1 0.85999999999999999 3.7000000000000002 -0.56000000000000005 0.24451904524274001 0 -0.9696444897556934 
1 0.37 3.7000000000000002 -0.81000000000000005 0 -1 0 
1 1.1499999999999999 3.7000000000000002 -1.71 -0.65493053841784188 0 0.75568908278981761 
1 -0.64000000000000001 3.7000000000000002 -1.4399999999999999 0 -1 0 
1 0.37 3.7000000000000002 -0.81000000000000005 -0.84846991680183548 0 -0.52924361147045174 
1 -0.029999999999999999 3.7000000000000002 -0.41999999999999998 0 -1 0 
1 -0.64000000000000001 3.7000000000000002 -1.4399999999999999 0.51325785753223885 0 0.85823445029980927 
1 -0.93999999999999995 3.7000000000000002 0.34000000000000002 0 -1 0 
1 -0.029999999999999999 3.7000000000000002 -0.41999999999999998 -0.76752948820178968 0 0.64101363849819804 
1 0.22 3.7000000000000002 0.080000000000000002 0 -1 0 
1 -0.93999999999999995 3.7000000000000002 0.34000000000000002 0.97578957701600633 0 -0.21871145691738075 
1 0.22 3.7000000000000002 0.080000000000000002 0.37863284572050421 0 0.92554695620567673 
Polygon3D 0
PolygonOnTriangulations 0
Surfaces 15
10 3.1415926535897931 6.2831853071795862 -1.5707963267948966 1.5707963267948966
4 0.5 0 0 0 0 1 1 0 -0 -0 1 0 3.5
10 0 3.1415926535897931 -1.5707963267948966 1.5707963267948966
4 0.5 0 0 0 0 1 1 0 -0 -0 1 0 3.5
10 3.1415926535897931 6.2831853071795862 -1.5707963267948966 1.5707963267948966
4 0.5 -2 0 0 0 1 1 0 -0 -0 1 0 2.5
10 0 3.1415926535897931 -1.5707963267948966 1.5707963267948966
4 0.5 -2 0 0 0 1 1 0 -0 -0 1 0 2.5
1 0.67000000000000004 3.7000000000000002 1.1799999999999999 0.99648776661502136 0 0.083738467782774897 0.083738467782774897 0 -0.99648776661502136 -0 1 0 
1 0.77000000000000002 3.7000000000000002 -0.01 0.067075489304050981 0 0.99774790339775821 0.99774790339775821 0 -0.067075489304050981 -0 1 0 
1 1.96 3.7000000000000002 -0.089999999999999997 0.39291012110643497 0 -0.9195768791852732 -0.9195768791852732 0 -0.39291012110643497 0 1 0 
1 0.85999999999999999 3.7000000000000002 -0.56000000000000005 0.9696444897556934 0 0.24451904524274001 0.24451904524274001 0 -0.9696444897556934 -0 1 0 
1 1.1499999999999999 3.7000000000000002 -1.71 -0.75568908278981761 -0 -0.65493053841784188 -0.65493053841784188 0 0.75568908278981761 0 1 -0 
1 0.37 3.7000000000000002 -0.81000000000000005 0.52924361147045174 0 -0.84846991680183548 -0.84846991680183548 0 -0.52924361147045174 0 1 0 
1 -0.64000000000000001 3.7000000000000002 -1.4399999999999999 -0.85823445029980938 0 0.51325785753223896 0.51325785753223896 0 0.85823445029980938 0 1 -0 
1 -0.029999999999999999 3.7000000000000002 -0.41999999999999998 -0.64101363849819815 -0 -0.76752948820178979 -0.76752948820178979 0 0.64101363849819815 0 1 -0 
1 -0.93999999999999995 3.7000000000000002 0.34000000000000002 0.21871145691738078 0 0.97578957701600644 0.97578957701600644 0 -0.21871145691738078 -0 1 0 
1 0.22 3.7000000000000002 0.080000000000000002 -0.92554695620567673 0 0.37863284572050421 0.37863284572050421 0 0.92554695620567673 0 1 -0 
1 -0.93999999999999995 3.7000000000000002 0.34000000000000002 0 1 0 0.98918514062558938 0 -0.14667227947207015 -0.14667227947207015 0 -0.98918514062558938 
Triangulations 0

TShapes 104
Ve
1e-05
0.5 -4.93038065763132e-32 -3.5
0 0

0101101
*
Ve
1e-05
0.5 -4.93038065763132e-32 3.5
0 0

0101101
*
Ed
 1e-07 1 1 0
1  1 0 4.71238898038469 7.85398163397448
2  1 1 0 4.71238898038469 7.85398163397448
2  2 2 0 4.71238898038469 7.85398163397448
0

0101000
+104 0 -103 0 *
Ed
 1e-07 1 1 1
2  3 1 0 3.14159265358979 6.28318530717959
0

0101100
+104 0 -104 0 *
Ed
 1e-05 1 1 0
1  2 0 -1.5707963267949 1.5707963267949
2  4 1 0 -1.5707963267949 1.5707963267949
2  5 2 0 -1.5707963267949 1.5707963267949
0

0101000
-103 0 +104 0 *
Ed
 1e-07 1 1 1
2  6 1 0 3.14159265358979 6.28318530717959
0

0101100
-103 0 +103 0 *
Wi

0101000
+102 0 +101 0 -100 0 -99 0 *
Ve
1.92817103633319e-07
0.5 -2.5 -2.44948974278318
0 0

0101101
*
Ed
 1.92817103633319e-07 1 1 0
1  3 0 0 6.28318530717959
2  7 1 0 0 6.28318530717959
2  8 3 0 0 6.28318530717959
0

0101100
+97 0 -97 0 *
Wi

0101000
-96 0 *
Fa
0  1e-07 1 0

0111000
+98 0 +95 0 *
Ed
 1e-07 1 1 1
2  9 2 0 0 3.14159265358979
0

0101100
+104 0 -104 0 *
Ed
 1e-07 1 1 1
2  10 2 0 0 3.14159265358979
0

0101100
-103 0 +103 0 *
Wi

0101000
+100 0 +93 0 -102 0 -92 0 *
Ve
2.00001e-07
0.77 3.48955584566288 -0.01
0 0

0101101
*
Ve
2.00001e-07
0.67 3.29069901388748 1.18
0 0

0101101
*
Ed
 1e-07 1 1 0
1  4 0 4.70305446352849 5.05173478602918
2  11 2 0 4.70305446352849 5.05173478602918
0

0101000
+90 0 -89 0 *
Ve
2.00001e-07
1.96 3.17966979417675 -0.09
0 0

0101101
*
Ed
 1e-07 1 1 0
1  5 0 4.28122411980006 4.63515123092037
2  12 2 0 4.28122411980006 4.63515123092037
0

0101000
+87 0 -90 0 *
Ve
2.00001e-07
0.86 3.43610244317599 -0.56
0 0

0101101
*
Ed
 1e-07 1 1 0
1  6 0 4.74468702868514 5.10244317321713
2  13 2 0 4.74468702868514 5.10244317321713
0

0101000
+85 0 -87 0 *
Ve
2.00001e-07
1.15 2.98385656491729 -1.71
0 0

0101101
*
Ed
 1e-07 1 1 0
1  7 0 4.165412129055 4.53076635708937
2  14 2 0 4.165412129055 4.53076635708937
0

0101000
+83 0 -85 0 *
Ve
2.00001e-07
0.37 3.40249908155755 -0.81
0 0

0101101
*
Ed
 1e-07 1 1 0
1  8 0 4.86604468664995 5.23478112566127
2  15 2 0 4.86604468664995 5.23478112566127
0

0101000
+81 0 -83 0 *
Ve
2.00001e-07
-0.64 2.97939591192577 -1.44
0 0

0101101
*
Ed
 1e-07 1 1 0
1  9 0 4.18647451505542 4.55528483365369
2  16 2 0 4.18647451505542 4.55528483365369
0

0101000
+79 0 -81 0 *
Ve
2.00001e-07
-0.03 3.4340500869964 -0.42
0 0

0101101
*
Ed
 1e-07 1 1 0
1  10 0 4.89452827000225 5.26099449426071
2  17 2 0 4.89452827000225 5.26099449426071
0

0101000
+77 0 -79 0 *
Ve
2.00001e-07
-0.94 3.17187641625584 0.34
0 0

0101101
*
Ed
 1e-07 1 1 0
1  11 0 4.31717566345682 4.67235130387635
2  18 2 0 4.31717566345682 4.67235130387635
0

0101000
+75 0 -77 0 *
Ve
2.00001e-07
0.22 3.48786467627401 0.08
0 0

0101101
*
Ed
 1e-07 1 1 0
1  12 0 4.79554803881157 5.14883228438879
2  19 2 0 4.79554803881157 5.14883228438879
0

0101000
+73 0 -75 0 *
Ed
 1e-07 1 1 0
1  13 0 4.37442384514051 4.72155577660246
2  20 2 0 4.37442384514051 4.72155577660246
0

0101000
+89 0 -73 0 *
Wi

0101000
+88 0 +86 0 +84 0 +82 0 +80 0 +78 0 +76 0 +74 0 +72 0 +71 0 
*
Fa
0  1e-07 2 0

0111000
+91 0 +70 0 *
Ve
1e-05
0.5 -2 -2.5
0 0

0101101
*
Ve
1e-05
0.5 -2 2.5
0 0

0101101
*
Ed
 1e-07 1 1 0
1  14 0 4.71238898038469 7.85398163397448
2  21 3 0 4.71238898038469 7.85398163397448
2  22 4 0 4.71238898038469 7.85398163397448
0

0101000
+68 0 -67 0 *
Ed
 1e-07 1 1 1
2  23 3 0 3.14159265358979 6.28318530717959
0

0101100
+68 0 -68 0 *
Ed
 1e-05 1 1 0
1  15 0 -1.5707963267949 1.5707963267949
2  24 3 0 -1.5707963267949 1.5707963267949
2  25 4 0 -1.5707963267949 1.5707963267949
0

0101000
-67 0 +68 0 *
Ed
 1e-07 1 1 1
2  26 3 0 3.14159265358979 6.28318530717959
0

0101100
-67 0 +67 0 *
Wi

0101000
+66 0 +65 0 -64 0 -63 0 *
Wi

0101000
-96 0 *
Fa
0  1e-07 3 0

0111000
+62 0 +61 0 *
Ve
1e-07
0.77 2.3 -0.01
0 0

0101101
*
Ed
 1e-07 1 1 0
1  16 0 0.210444154337117 1.4
0

0101000
+90 0 -59 0 *
Ve
1e-07
0.67 2.3 1.18
0 0

0101101
*
Ed
 1e-07 1 1 0
1  17 0 0 1.19419428905015
0

0101000
+57 2 -59 2 *
Ed
 1e-07 1 1 0
1  18 0 0.409300986112525 1.4
0

0101000
+89 0 -57 0 *
Wi

0101000
+88 0 -58 0 +56 1 +55 0 *
Fa
0  1e-07 5 0

0111000
+54 0 *
Ve
1e-07
1.96 2.3 -0.09
0 0

0101101
*
Ed
 1e-07 1 1 0
1  19 0 0.520330205823253 1.4
0

0101000
+87 0 -52 0 *
Ed
 1e-07 1 1 0
1  20 0 0 1.19268604418766
0

0101000
+59 2 -52 2 *
Wi

0101000
+86 0 -51 0 +50 1 +58 0 *
Fa
0  1e-07 6 0

0111000
+49 0 *
Ve
1e-07
0.86 2.3 -0.56
0 0

0101101
*
Ed
 1e-07 1 1 0
1  21 0 0.263897556824011 1.4
0

0101000
+85 0 -47 0 *
Ed
 1e-07 1 1 0
1  22 0 0 1.19620232402383
0

0101000
+52 2 -47 2 *
Wi

0101000
+84 0 -46 0 +45 1 +51 0 *
Fa
0  1e-07 7 0

0111000
+44 0 *
Ve
1e-07
1.15 2.3 -1.71
0 0

0101101
*
Ed
 1e-07 1 1 0
1  23 0 0.716143435082712 1.4
0

0101000
+83 0 -42 0 *
Ed
 1e-07 1 1 0
1  24 0 0 1.18600168633944
0

0101000
+47 2 -42 2 *
Wi

0101000
+82 0 -41 0 +40 1 +46 0 *
Fa
0  1e-07 8 0

0111000
+39 0 *
Ve
1e-07
0.37 2.3 -0.81
0 0

0101101
*
Ed
 1e-07 1 1 0
1  25 0 0.297500918442446 1.4
0

0101000
+81 0 -37 0 *
Ed
 1e-07 1 1 0
1  26 0 0 1.19096599447675
0

0101000
+42 2 -37 2 *
Wi

0101000
+80 0 -36 0 +35 1 +41 0 *
Fa
0  1e-07 9 0

0111000
+34 0 *
Ve
1e-07
-0.64 2.3 -1.44
0 0

0101101
*
Ed
 1e-07 1 1 0
1  27 0 0.720604088074229 1.4
0

0101000
+79 0 -32 0 *
Ed
 1e-07 1 1 0
1  28 0 0 1.19037809119624
0

0101000
+37 2 -32 2 *
Wi

0101000
+78 0 -31 0 +30 1 +36 0 *
Fa
0  1e-07 10 0

0111000
+29 0 *
Ve
1e-07
-0.03 2.3 -0.42
0 0

0101101
*
Ed
 1e-07 1 1 0
1  29 0 0.265949913003598 1.4
0

0101000
+77 0 -27 0 *
Ed
 1e-07 1 1 0
1  30 0 0 1.18848643240047
0

0101000
+32 2 -27 2 *
Wi

0101000
+76 0 -26 0 +25 1 +31 0 *
Fa
0  1e-07 11 0

0111000
+24 0 *
Ve
1e-07
-0.94 2.3 0.34
0 0

0101101
*
Ed
 1e-07 1 1 0
1  31 0 0.528123583744159 1.4
0

0101000
+75 0 -22 0 *
Ed
 1e-07 1 1 0
1  32 0 0 1.18562219952226
0

0101000
+27 2 -22 2 *
Wi

0101000
+74 0 -21 0 +20 1 +26 0 *
Fa
0  1e-07 12 0

0111000
+19 0 *
Ve
1e-07
0.22 2.3 0.08
0 0

0101101
*
Ed
 1e-07 1 1 0
1  33 0 0.212135323725991 1.4
0

0101000
+73 0 -17 0 *
Ed
 1e-07 1 1 0
1  34 0 0 1.18878088813709
0

0101000
+22 2 -17 2 *
Wi

0101000
+72 0 -16 0 +15 1 +21 0 *
Fa
0  1e-07 13 0

0111000
+14 0 *
Ed
 1e-07 1 1 0
1  35 0 0 1.18848643240047
0

0101000
+17 2 -57 2 *
Wi

0101000
+71 0 -55 0 +12 1 +16 0 *
Fa
0  1e-07 14 0

0111000
+11 0 *
Ed
 1e-07 1 1 1
2  27 4 0 0 3.14159265358979
0

0101100
-67 0 +67 0 *
Ed
 1e-07 1 1 1
2  28 4 0 0 3.14159265358979
0

0101100
+68 0 -68 0 *
Wi

0101100
-9 0 -66 0 +8 0 +64 0 *
Fa
0  1e-07 4 0

0111000
+7 0 *
Wi

0101100
+15 0 +12 0 +56 0 +50 0 +45 0 +40 0 +35 0 +30 0 +25 0 +20 0 
*
Fa
0  1e-07 15 0

0111000
+5 0 *
Sh

0101100
+94 0 +69 0 -60 0 -53 0 -48 0 -43 0 -38 0 -33 0 -28 0 -23 0 
-18 0 -13 0 -10 0 -6 0 +4 1 *
So

0100000
+3 0 *
Co

1100000
+2 0 *

+1 0 
##EGADS HEADER FILE-REV 1 ##
0
  1  1  15  18  43  25  3
1 5 1
_body
17
1 5 1
_brch
17
2 8 3
_tParams
 3.226285740812e-01  1.290514296325e-02  1.500000000000e+01 
    2 0 4
1 5 2
_body
1 0 
1 5 2
_brch
1 0 
1 5 3
_hist
1 3 17 
1 7 3
_faceID
1 0 1 
    2 1 4
1 5 2
_body
1 0 
1 5 2
_brch
1 0 
1 5 3
_hist
1 3 17 
1 7 3
_faceID
1 0 2 
    2 2 4
1 5 2
_body
2 0 
1 5 2
_brch
2 0 
1 5 3
_hist
2 3 17 
1 7 3
_faceID
2 0 1 
    2 3 4
1 5 2
_body
16 5 
1 5 2
_brch
16 5 
1 5 2
_hist
16 17 
1 7 3
_faceID
16 5 1 
    2 4 4
1 5 2
_body
16 6 
1 5 2
_brch
16 6 
1 5 2
_hist
16 17 
1 7 3
_faceID
16 6 1 
    2 5 4
1 5 2
_body
16 7 
1 5 2
_brch
16 7 
1 5 2
_hist
16 17 
1 7 3
_faceID
16 7 1 
    2 6 4
1 5 2
_body
16 8 
1 5 2
_brch
16 8 
1 5 2
_hist
16 17 
1 7 3
_faceID
16 8 1 
    2 7 4
1 5 2
_body
16 9 
1 5 2
_brch
16 9 
1 5 2
_hist
16 17 
1 7 3
_faceID
16 9 1 
    2 8 4
1 5 2
_body
16 10 
1 5 2
_brch
16 10 
1 5 2
_hist
16 17 
1 7 3
_faceID
16 10 1 
    2 9 4
1 5 2
_body
16 11 
1 5 2
_brch
16 11 
1 5 2
_hist
16 17 
1 7 3
_faceID
16 11 1 
    2 10 4
1 5 2
_body
16 12 
1 5 2
_brch
16 12 
1 5 2
_hist
16 17 
1 7 3
_faceID
16 12 1 
    2 11 4
1 5 2
_body
16 3 
1 5 2
_brch
16 3 
1 5 2
_hist
16 17 
1 7 3
_faceID
16 3 1 
    2 12 4
1 5 2
_body
16 4 
1 5 2
_brch
16 4 
1 5 2
_hist
16 17 
1 7 3
_faceID
16 4 1 
    2 13 4
1 5 2
_body
2 0 
1 5 2
_brch
2 0 
1 5 3
_hist
2 3 17 
1 7 3
_faceID
2 0 2 
    2 14 4
1 5 2
_body
16 2 
1 5 2
_brch
16 2 
1 5 3
_hist
15 16 17 
1 7 3
_faceID
16 2 1 
    4 0 3
1 5 2
_body
1 0 
1 6 1
_nface
2
1 7 5
_edgeID
1 0 1 0 2 
    4 1 3
1 5 2
_body
1 -3 
1 6 1
_nface
1
1 7 5
_edgeID
0 0 1 0 1 
    4 2 3
1 5 2
_body
1 0 
1 6 1
_nface
2
1 7 5
_edgeID
1 0 1 0 1 
    4 3 3
1 5 2
_body
1 -3 
1 6 1
_nface
1
1 7 5
_edgeID
0 0 1 0 3 
    4 4 3
1 5 2
_body
3 0 
1 6 1
_nface
2
1 7 5
_edgeID
1 0 2 0 1 
    4 5 3
1 5 2
_body
1 -3 
1 6 1
_nface
1
1 7 5
_edgeID
0 0 1 0 2 
    4 6 3
1 5 2
_body
1 -3 
1 6 1
_nface
1
1 7 5
_edgeID
0 0 1 0 4 
    4 7 3
1 5 2
_body
17 0 
1 7 5
_edgeID
1 0 16 5 1 
1 6 1
_nface
2
    4 8 3
1 5 2
_body
17 0 
1 7 5
_edgeID
1 0 16 6 1 
1 6 1
_nface
2
    4 9 3
1 5 2
_body
17 0 
1 7 5
_edgeID
1 0 16 7 1 
1 6 1
_nface
2
    4 10 3
1 5 2
_body
17 0 
1 7 5
_edgeID
1 0 16 8 1 
1 6 1
_nface
2
    4 11 3
1 5 2
_body
17 0 
1 7 5
_edgeID
1 0 16 9 1 
1 6 1
_nface
2
    4 12 3
1 5 2
_body
17 0 
1 7 5
_edgeID
1 0 16 10 1 
1 6 1
_nface
2
    4 13 3
1 5 2
_body
17 0 
1 7 5
_edgeID
1 0 16 11 1 
1 6 1
_nface
2
    4 14 3
1 5 2
_body
17 0 
1 7 5
_edgeID
1 0 16 12 1 
1 6 1
_nface
2
    4 15 3
1 5 2
_body
17 0 
1 7 5
_edgeID
1 0 16 3 1 
1 6 1
_nface
2
    4 16 3
1 5 2
_body
17 0 
1 7 5
_edgeID
1 0 16 4 1 
1 6 1
_nface
2
    4 17 3
1 5 2
_body
2 0 
1 6 1
_nface
2
1 7 5
_edgeID
2 0 2 0 2 
    4 18 3
1 5 2
_body
2 -3 
1 6 1
_nface
1
1 7 5
_edgeID
0 0 2 0 1 
    4 19 3
1 5 2
_body
2 0 
1 6 1
_nface
2
1 7 5
_edgeID
2 0 2 0 1 
    4 20 3
1 5 2
_body
2 -3 
1 6 1
_nface
1
1 7 5
_edgeID
0 0 2 0 4 
    4 21 3
1 5 2
_body
16 506 
1 7 5
_edgeID
16 5 16 6 1 
1 6 1
_nface
2
    4 22 3
1 5 2
_body
16 205 
1 6 1
_nface
2
1 7 5
_edgeID
16 2 16 5 1 
    4 23 3
1 5 2
_body
16 405 
1 7 5
_edgeID
16 4 16 5 1 
1 6 1
_nface
2
    4 24 3
1 5 2
_body
16 607 
1 7 5
_edgeID
16 6 16 7 1 
1 6 1
_nface
2
    4 25 3
1 5 2
_body
16 206 
1 6 1
_nface
2
1 7 5
_edgeID
16 2 16 6 1 
    4 26 3
1 5 2
_body
16 708 
1 7 5
_edgeID
16 7 16 8 1 
1 6 1
_nface
2
    4 27 3
1 5 2
_body
16 207 
1 6 1
_nface
2
1 7 5
_edgeID
16 2 16 7 1 
    4 28 3
1 5 2
_body
16 809 
1 7 5
_edgeID
16 8 16 9 1 
1 6 1
_nface
2
    4 29 3
1 5 2
_body
16 208 
1 6 1
_nface
2
1 7 5
_edgeID
16 2 16 8 1 
    4 30 3
1 5 2
_body
16 910 
1 7 5
_edgeID
16 9 16 10 1 
1 6 1
_nface
2
    4 31 3
1 5 2
_body
16 209 
1 6 1
_nface
2
1 7 5
_edgeID
16 2 16 9 1 
    4 32 3
1 5 2
_body
16 1011 
1 7 5
_edgeID
16 10 16 11 1 
1 6 1
_nface
2
    4 33 3
1 5 2
_body
16 210 
1 6 1
_nface
2
1 7 5
_edgeID
16 2 16 10 1 
    4 34 3
1 5 2
_body
16 1112 
1 7 5
_edgeID
16 11 16 12 1 
1 6 1
_nface
2
    4 35 3
1 5 2
_body
16 211 
1 6 1
_nface
2
1 7 5
_edgeID
16 2 16 11 1 
    4 36 3
1 5 2
_body
16 312 
1 7 5
_edgeID
16 3 16 12 1 
1 6 1
_nface
2
    4 37 3
1 5 2
_body
16 212 
1 6 1
_nface
2
1 7 5
_edgeID
16 2 16 12 1 
    4 38 3
1 5 2
_body
16 304 
1 7 5
_edgeID
16 3 16 4 1 
1 6 1
_nface
2
    4 39 3
1 5 2
_body
16 203 
1 6 1
_nface
2
1 7 5
_edgeID
16 2 16 3 1 
    4 40 3
1 5 2
_body
16 204 
1 6 1
_nface
2
1 7 5
_edgeID
16 2 16 4 1 
    4 41 3
1 5 2
_body
2 -3 
1 6 1
_nface
1
1 7 5
_edgeID
0 0 2 0 3 
    4 42 3
1 5 2
_body
2 -3 
1 6 1
_nface
1
1 7 5
_edgeID
0 0 2 0 2 
    5 0 2
1 7 1
_nodeID
1
1 6 1
_nedge
4
    5 1 2
1 7 1
_nodeID
2
1 6 1
_nedge
4
    5 2 2
1 7 1
_nodeID
3
1 6 1
_nedge
1
    5 3 2
1 7 1
_nodeID
4
1 6 1
_nedge
3
    5 4 2
1 7 1
_nodeID
5
1 6 1
_nedge
3
    5 5 2
1 7 1
_nodeID
6
1 6 1
_nedge
3
    5 6 2
1 7 1
_nodeID
7
1 6 1
_nedge
3
    5 7 2
1 7 1
_nodeID
8
1 6 1
_nedge
3
    5 8 2
1 7 1
_nodeID
9
1 6 1
_nedge
3
    5 9 2
1 7 1
_nodeID
10
1 6 1
_nedge
3
    5 10 2
1 7 1
_nodeID
11
1 6 1
_nedge
3
    5 11 2
1 7 1
_nodeID
12
1 6 1
_nedge
3
    5 12 2
1 7 1
_nodeID
13
1 6 1
_nedge
3
    5 13 2
1 7 1
_nodeID
14
1 6 1
_nedge
4
    5 14 2
1 7 1
_nodeID
15
1 6 1
_nedge
4
    5 15 2
1 7 1
_nodeID
16
1 6 1
_nedge
3
    5 16 2
1 7 1
_nodeID
17
1 6 1
_nedge
3
    5 17 2
1 7 1
_nodeID
18
1 6 1
_nedge
3
    5 18 2
1 7 1
_nodeID
19
1 6 1
_nedge
3
    5 19 2
1 7 1
_nodeID
20
1 6 1
_nedge
3
    5 20 2
1 7 1
_nodeID
21
1 6 1
_nedge
3
    5 21 2
1 7 1
_nodeID
22
1 6 1
_nedge
3
    5 22 2
1 7 1
_nodeID
23
1 6 1
_nedge
3
    5 23 2
1 7 1
_nodeID
24
1 6 1
_nedge
3
    5 24 2
1 7 1
_nodeID
25
1 6 1
_nedge
3
    0 0 0
